<?xml version="1.0" encoding="utf-8"?>
<!-- Generator: Adobe Illustrator 22.0.1, SVG Export Plug-In . SVG Version: 6.00 Build 0)  -->
<svg version="1.1" id="Layer_1" xmlns="http://www.w3.org/2000/svg" xmlns:xlink="http://www.w3.org/1999/xlink" x="0px" y="0px"
	 viewBox="0 0 576 576" style="enable-background:new 0 0 576 576;" xml:space="preserve">
<style type="text/css">
	.st0{fill:none;stroke:#000000;stroke-linecap:round;stroke-linejoin:round;stroke-miterlimit:10;}
	.st1{fill:none;stroke:#FF0000;stroke-linecap:round;stroke-linejoin:round;stroke-miterlimit:10;}
</style>
<path class="st0" d="M75.6,288c0-117.3,95.1-212.4,212.4-212.4S500.4,170.7,500.4,288S405.3,500.4,288,500.4S75.6,405.3,75.6,288z"
	/>
<path class="st0" d="M129.6,288c0-87.5,70.9-158.4,158.4-158.4S446.4,200.5,446.4,288S375.5,446.4,288,446.4S129.6,375.5,129.6,288z
	"/>
<g transform="translate(288,288)">
	<path class="st1" d="M154.8-2.7l10.8-0.2"/>
	<path class="st1" d="M154.7-5.3l10.8-0.4"/>
	<path class="st1" d="M154.6-8l10.8-0.6"/>
	<path class="st1" d="M154.4-10.6l10.8-0.7"/>
	<path class="st1" d="M154.2-13.3l10.8-0.9"/>
	<path class="st1" d="M154-15.9l10.7-1.1"/>
	<path class="st1" d="M153.7-18.6l10.7-1.3"/>
	<path class="st1" d="M153.3-21.2l10.7-1.5"/>
	<path class="st1" d="M152.9-23.9l10.7-1.7"/>
	<path class="st1" d="M152.5-26.5l17.7-3.1"/>
	<path class="st1" d="M152-29.1l10.6-2"/>
	<path class="st1" d="M151.5-31.7l10.6-2.2"/>
	<path class="st1" d="M150.9-34.3l10.5-2.4"/>
	<path class="st1" d="M150.3-36.9l10.5-2.6"/>
	<path class="st1" d="M149.7-39.5l10.4-2.8"/>
	<path class="st1" d="M149-42.1l10.4-2.9"/>
	<path class="st1" d="M148.2-44.6l10.3-3.1"/>
	<path class="st1" d="M147.4-47.2l10.3-3.3"/>
	<path class="st1" d="M146.6-49.7l10.2-3.5"/>
	<path class="st1" d="M145.7-52.2l16.9-6.1"/>
	<path class="st1" d="M144.8-54.7l10.1-3.8"/>
	<path class="st1" d="M143.8-57.2l10-4"/>
	<path class="st1" d="M142.8-59.7l10-4.2"/>
	<path class="st1" d="M141.8-62.1l9.9-4.3"/>
	<path class="st1" d="M140.7-64.5l9.8-4.5"/>
	<path class="st1" d="M139.6-67l9.7-4.7"/>
	<path class="st1" d="M138.4-69.3l9.7-4.8"/>
	<path class="st1" d="M137.2-71.7l9.6-5"/>
	<path class="st1" d="M135.9-74.1l9.5-5.2"/>
	<path class="st1" d="M134.6-76.4l15.7-8.9"/>
	<path class="st1" d="M154.8,0H216"/>
	<path class="st1" d="M131.9-81l9.2-5.6"/>
	<path class="st1" d="M130.5-83.2l9.1-5.8"/>
	<path class="st1" d="M129.1-85.5l9-6"/>
	<path class="st1" d="M127.6-87.7l8.9-6.1"/>
	<path class="st1" d="M126.1-89.9l8.8-6.3"/>
	<path class="st1" d="M124.5-92l8.7-6.4"/>
	<path class="st1" d="M122.9-94.1l8.6-6.6"/>
	<path class="st1" d="M121.2-96.2l8.5-6.7"/>
	<path class="st1" d="M119.6-98.3l8.3-6.9"/>
	<path class="st1" d="M117.9-100.4l13.7-11.7"/>
	<path class="st1" d="M116.1-102.4l8.1-7.1"/>
	<path class="st1" d="M114.3-104.3l8-7.3"/>
	<path class="st1" d="M112.5-106.3l7.9-7.4"/>
	<path class="st1" d="M110.7-108.2l7.7-7.6"/>
	<path class="st1" d="M108.8-110.1l7.6-7.7"/>
	<path class="st1" d="M106.9-112l7.5-7.8"/>
	<path class="st1" d="M105-113.8l7.3-7.9"/>
	<path class="st1" d="M103-115.6l7.2-8.1"/>
	<path class="st1" d="M101-117.3l7-8.2"/>
	<path class="st1" d="M98.9-119l11.5-13.8"/>
	<path class="st1" d="M96.9-120.7l6.8-8.4"/>
	<path class="st1" d="M94.8-122.4l6.6-8.5"/>
	<path class="st1" d="M92.7-124l6.5-8.7"/>
	<path class="st1" d="M90.5-125.6l6.3-8.8"/>
	<path class="st1" d="M88.4-127.1l6.2-8.9"/>
	<path class="st1" d="M86.2-128.6l6-9"/>
	<path class="st1" d="M83.9-130.1l5.9-9.1"/>
	<path class="st1" d="M133.3-78.7l52.7-31.1"/>
	<path class="st1" d="M78.9-133.2l5.5-9.3"/>
	<path class="st1" d="M76.5-134.5l5.3-9.4"/>
	<path class="st1" d="M74.2-135.8l5.2-9.5"/>
	<path class="st1" d="M71.9-137.1l5-9.6"/>
	<path class="st1" d="M69.5-138.3l4.8-9.7"/>
	<path class="st1" d="M67.1-139.5l4.7-9.7"/>
	<path class="st1" d="M64.7-140.6l4.5-9.8"/>
	<path class="st1" d="M62.3-141.7l4.3-9.9"/>
	<path class="st1" d="M59.8-142.8l4.2-10"/>
	<path class="st1" d="M57.4-143.8l6.7-16.7"/>
	<path class="st1" d="M54.9-144.7l3.8-10.1"/>
	<path class="st1" d="M52.4-145.7l3.7-10.2"/>
	<path class="st1" d="M49.9-146.5l3.5-10.2"/>
	<path class="st1" d="M47.3-147.4l3.3-10.3"/>
	<path class="st1" d="M44.8-148.2l3.1-10.3"/>
	<path class="st1" d="M42.2-148.9l2.9-10.4"/>
	<path class="st1" d="M39.7-149.6l2.8-10.4"/>
	<path class="st1" d="M37.1-150.3l2.6-10.5"/>
	<path class="st1" d="M34.5-150.9l2.4-10.5"/>
	<path class="st1" d="M31.9-151.5l3.7-17.6"/>
	<path class="st1" d="M29.3-152l2-10.6"/>
	<path class="st1" d="M26.7-152.5l1.9-10.6"/>
	<path class="st1" d="M24.1-152.9l1.7-10.7"/>
	<path class="st1" d="M21.4-153.3l1.5-10.7"/>
	<path class="st1" d="M18.8-153.7l1.3-10.7"/>
	<path class="st1" d="M16.1-154l1.1-10.7"/>
	<path class="st1" d="M13.5-154.2l0.9-10.8"/>
	<path class="st1" d="M10.8-154.4l0.8-10.8"/>
	<path class="st1" d="M8.2-154.6l0.6-10.8"/>
	<path class="st1" d="M5.5-154.7l0.6-18"/>
	<path class="st1" d="M81.1-131.8l32.1-52.1"/>
	<path class="st1" d="M0.2-154.8l0-10.8"/>
	<path class="st1" d="M-2.5-154.8l-0.2-10.8"/>
	<path class="st1" d="M-5.1-154.7l-0.4-10.8"/>
	<path class="st1" d="M-7.8-154.6l-0.5-10.8"/>
	<path class="st1" d="M-10.5-154.4l-0.7-10.8"/>
	<path class="st1" d="M-13.1-154.2L-14-165"/>
	<path class="st1" d="M-15.8-154l-1.1-10.7"/>
	<path class="st1" d="M-18.4-153.7l-1.3-10.7"/>
	<path class="st1" d="M-21.1-153.4l-1.5-10.7"/>
	<path class="st1" d="M-23.7-153l-2.8-17.8"/>
	<path class="st1" d="M-26.3-152.5l-1.8-10.6"/>
	<path class="st1" d="M-28.9-152.1l-2-10.6"/>
	<path class="st1" d="M-31.6-151.6l-2.2-10.6"/>
	<path class="st1" d="M-34.2-151l-2.4-10.5"/>
	<path class="st1" d="M-36.7-150.4l-2.6-10.5"/>
	<path class="st1" d="M-39.3-149.7l-2.7-10.4"/>
	<path class="st1" d="M-41.9-149l-2.9-10.4"/>
	<path class="st1" d="M-44.5-148.3l-3.1-10.3"/>
	<path class="st1" d="M-47-147.5l-3.3-10.3"/>
	<path class="st1" d="M-49.5-146.7l-5.8-17.1"/>
	<path class="st1" d="M-52-145.8l-3.6-10.2"/>
	<path class="st1" d="M-54.5-144.9l-3.8-10.1"/>
	<path class="st1" d="M-57-143.9l-4-10"/>
	<path class="st1" d="M-59.5-142.9l-4.2-10"/>
	<path class="st1" d="M-61.9-141.9l-4.3-9.9"/>
	<path class="st1" d="M-64.4-140.8l-4.5-9.8"/>
	<path class="st1" d="M-66.8-139.7l-4.7-9.7"/>
	<path class="st1" d="M-69.2-138.5l-4.8-9.7"/>
	<path class="st1" d="M-71.6-137.3l-5-9.6"/>
	<path class="st1" d="M2.8-154.8L4-216"/>
	<path class="st1" d="M-76.2-134.7l-5.3-9.4"/>
	<path class="st1" d="M-78.5-133.4l-5.5-9.3"/>
	<path class="st1" d="M-80.8-132l-5.6-9.2"/>
	<path class="st1" d="M-83.1-130.6l-5.8-9.1"/>
	<path class="st1" d="M-85.3-129.2l-6-9"/>
	<path class="st1" d="M-87.5-127.7l-6.1-8.9"/>
	<path class="st1" d="M-89.7-126.2L-96-135"/>
	<path class="st1" d="M-91.9-124.6l-6.4-8.7"/>
	<path class="st1" d="M-94-123l-6.6-8.6"/>
	<path class="st1" d="M-96.1-121.4l-11.2-14.1"/>
	<path class="st1" d="M-98.2-119.7l-6.8-8.4"/>
	<path class="st1" d="M-100.2-118l-7-8.2"/>
	<path class="st1" d="M-102.2-116.2l-7.1-8.1"/>
	<path class="st1" d="M-104.2-114.5l-7.3-8"/>
	<path class="st1" d="M-106.2-112.7l-7.4-7.9"/>
	<path class="st1" d="M-108.1-110.8l-7.5-7.7"/>
	<path class="st1" d="M-110-108.9l-7.7-7.6"/>
	<path class="st1" d="M-111.8-107l-7.8-7.5"/>
	<path class="st1" d="M-113.7-105.1l-7.9-7.3"/>
	<path class="st1" d="M-115.5-103.1l-13.4-12"/>
	<path class="st1" d="M-117.2-101.1l-8.2-7.1"/>
	<path class="st1" d="M-118.9-99.1l-8.3-6.9"/>
	<path class="st1" d="M-120.6-97l-8.4-6.8"/>
	<path class="st1" d="M-122.3-94.9l-8.5-6.6"/>
	<path class="st1" d="M-123.9-92.8l-8.6-6.5"/>
	<path class="st1" d="M-125.5-90.7l-8.8-6.3"/>
	<path class="st1" d="M-127-88.5l-8.9-6.2"/>
	<path class="st1" d="M-128.5-86.3l-9-6"/>
	<path class="st1" d="M-130-84.1l-9.1-5.9"/>
	<path class="st1" d="M-131.4-81.8l-15.3-9.5"/>
	<path class="st1" d="M-73.9-136l-29.2-53.8"/>
	<path class="st1" d="M-134.1-77.3l-9.4-5.4"/>
	<path class="st1" d="M-135.4-74.9l-9.4-5.2"/>
	<path class="st1" d="M-136.7-72.6l-9.5-5.1"/>
	<path class="st1" d="M-137.9-70.2l-9.6-4.9"/>
	<path class="st1" d="M-139.1-67.9l-9.7-4.7"/>
	<path class="st1" d="M-140.3-65.5l-9.8-4.6"/>
	<path class="st1" d="M-141.4-63l-9.9-4.4"/>
	<path class="st1" d="M-142.4-60.6l-9.9-4.2"/>
	<path class="st1" d="M-143.5-58.1l-10-4.1"/>
	<path class="st1" d="M-144.4-55.7l-16.8-6.5"/>
	<path class="st1" d="M-145.4-53.2l-10.1-3.7"/>
	<path class="st1" d="M-146.3-50.7l-10.2-3.5"/>
	<path class="st1" d="M-147.1-48.1l-10.3-3.4"/>
	<path class="st1" d="M-147.9-45.6l-10.3-3.2"/>
	<path class="st1" d="M-148.7-43l-10.4-3"/>
	<path class="st1" d="M-149.4-40.5l-10.4-2.8"/>
	<path class="st1" d="M-150.1-37.9l-10.5-2.6"/>
	<path class="st1" d="M-150.7-35.3l-10.5-2.5"/>
	<path class="st1" d="M-151.3-32.7l-10.6-2.3"/>
	<path class="st1" d="M-151.8-30.1l-17.7-3.5"/>
	<path class="st1" d="M-152.3-27.5l-10.6-1.9"/>
	<path class="st1" d="M-152.8-24.9l-10.7-1.7"/>
	<path class="st1" d="M-153.2-22.2l-10.7-1.6"/>
	<path class="st1" d="M-153.6-19.6l-10.7-1.4"/>
	<path class="st1" d="M-153.9-17l-10.7-1.2"/>
	<path class="st1" d="M-154.1-14.3l-10.8-1"/>
	<path class="st1" d="M-154.4-11.6l-10.8-0.8"/>
	<path class="st1" d="M-154.5-9l-10.8-0.6"/>
	<path class="st1" d="M-154.7-6.3l-10.8-0.4"/>
	<path class="st1" d="M-132.8-79.6l-52.5-31.5"/>
	<path class="st1" d="M-154.8-1l-10.8-0.1"/>
	<path class="st1" d="M-154.8,1.7l-10.8,0.1"/>
	<path class="st1" d="M-154.7,4.3l-10.8,0.3"/>
	<path class="st1" d="M-154.6,7l-10.8,0.5"/>
	<path class="st1" d="M-154.5,9.6l-10.8,0.7"/>
	<path class="st1" d="M-154.3,12.3l-10.8,0.9"/>
	<path class="st1" d="M-154.1,14.9l-10.7,1"/>
	<path class="st1" d="M-153.8,17.6l-10.7,1.2"/>
	<path class="st1" d="M-153.5,20.2l-10.7,1.4"/>
	<path class="st1" d="M-153.1,22.9l-17.8,2.7"/>
	<path class="st1" d="M-152.7,25.5l-10.7,1.8"/>
	<path class="st1" d="M-152.2,28.1l-10.6,2"/>
	<path class="st1" d="M-151.7,30.7l-10.6,2.1"/>
	<path class="st1" d="M-151.2,33.3l-10.5,2.3"/>
	<path class="st1" d="M-150.6,35.9l-10.5,2.5"/>
	<path class="st1" d="M-149.9,38.5l-10.5,2.7"/>
	<path class="st1" d="M-149.2,41.1l-10.4,2.9"/>
	<path class="st1" d="M-148.5,43.7l-10.4,3"/>
	<path class="st1" d="M-147.7,46.2l-10.3,3.2"/>
	<path class="st1" d="M-146.9,48.7l-17.1,5.7"/>
	<path class="st1" d="M-146.1,51.3l-10.2,3.6"/>
	<path class="st1" d="M-145.2,53.8l-10.1,3.8"/>
	<path class="st1" d="M-144.2,56.3l-10.1,3.9"/>
	<path class="st1" d="M-143.2,58.7l-10,4.1"/>
	<path class="st1" d="M-142.2,61.2l-9.9,4.3"/>
	<path class="st1" d="M-141.1,63.6l-9.8,4.4"/>
	<path class="st1" d="M-140,66l-9.8,4.6"/>
	<path class="st1" d="M-138.8,68.4l-9.7,4.8"/>
	<path class="st1" d="M-137.7,70.8l-9.6,4.9"/>
	<path class="st1" d="M-136.4,73.2l-15.9,8.5"/>
	<path class="st1" d="M-154.8-3.7l-61.2-1.5"/>
	<path class="st1" d="M-133.8,77.8l-9.3,5.4"/>
	<path class="st1" d="M-132.5,80.1l-9.2,5.6"/>
	<path class="st1" d="M-131.1,82.4l-9.1,5.7"/>
	<path class="st1" d="M-129.6,84.6l-9,5.9"/>
	<path class="st1" d="M-128.1,86.8l-8.9,6.1"/>
	<path class="st1" d="M-126.6,89l-8.8,6.2"/>
	<path class="st1" d="M-125.1,91.2l-8.7,6.4"/>
	<path class="st1" d="M-123.5,93.3l-8.6,6.5"/>
	<path class="st1" d="M-121.9,95.4l-8.5,6.7"/>
	<path class="st1" d="M-120.2,97.5l-14,11.3"/>
	<path class="st1" d="M-118.5,99.6l-8.3,6.9"/>
	<path class="st1" d="M-116.8,101.6l-8.1,7.1"/>
	<path class="st1" d="M-115,103.6l-8,7.2"/>
	<path class="st1" d="M-113.2,105.6l-7.9,7.4"/>
	<path class="st1" d="M-111.4,107.5l-7.8,7.5"/>
	<path class="st1" d="M-109.5,109.4l-7.6,7.6"/>
	<path class="st1" d="M-107.6,111.3l-7.5,7.8"/>
	<path class="st1" d="M-105.7,113.1l-7.4,7.9"/>
	<path class="st1" d="M-103.7,114.9l-7.2,8"/>
	<path class="st1" d="M-101.7,116.7l-11.8,13.6"/>
	<path class="st1" d="M-99.7,118.4l-7,8.3"/>
	<path class="st1" d="M-97.7,120.1l-6.8,8.4"/>
	<path class="st1" d="M-95.6,121.8l-6.7,8.5"/>
	<path class="st1" d="M-93.5,123.4l-6.5,8.6"/>
	<path class="st1" d="M-91.3,125l-6.4,8.7"/>
	<path class="st1" d="M-89.2,126.5l-6.2,8.8"/>
	<path class="st1" d="M-87,128l-6.1,8.9"/>
	<path class="st1" d="M-84.8,129.5l-5.9,9"/>
	<path class="st1" d="M-82.5,131l-5.8,9.1"/>
	<path class="st1" d="M-80.3,132.4l-9.3,15.4"/>
	<path class="st1" d="M-135.1,75.5l-53.4,29.9"/>
	<path class="st1" d="M-75.7,135l-5.3,9.4"/>
	<path class="st1" d="M-73.3,136.3l-5.1,9.5"/>
	<path class="st1" d="M-71,137.6l-5,9.6"/>
	<path class="st1" d="M-68.6,138.8l-4.8,9.7"/>
	<path class="st1" d="M-66.2,139.9l-4.6,9.8"/>
	<path class="st1" d="M-63.8,141l-4.5,9.8"/>
	<path class="st1" d="M-61.4,142.1l-4.3,9.9"/>
	<path class="st1" d="M-58.9,143.2l-4.1,10"/>
	<path class="st1" d="M-56.4,144.1l-3.9,10.1"/>
	<path class="st1" d="M-53.9,145.1l-6.3,16.9"/>
	<path class="st1" d="M-51.4,146l-3.6,10.2"/>
	<path class="st1" d="M-48.9,146.9l-3.4,10.2"/>
	<path class="st1" d="M-46.4,147.7l-3.2,10.3"/>
	<path class="st1" d="M-43.8,148.5l-3.1,10.4"/>
	<path class="st1" d="M-41.3,149.2l-2.9,10.4"/>
	<path class="st1" d="M-38.7,149.9l-2.7,10.5"/>
	<path class="st1" d="M-36.1,150.5l-2.5,10.5"/>
	<path class="st1" d="M-33.5,151.1l-2.3,10.5"/>
	<path class="st1" d="M-30.9,151.7l-2.2,10.6"/>
	<path class="st1" d="M-28.3,152.2l-3.3,17.7"/>
	<path class="st1" d="M-25.7,152.7l-1.8,10.7"/>
	<path class="st1" d="M-23.1,153.1l-1.6,10.7"/>
	<path class="st1" d="M-20.4,153.4l-1.4,10.7"/>
	<path class="st1" d="M-17.8,153.8l-1.2,10.7"/>
	<path class="st1" d="M-15.1,154.1l-1.1,10.7"/>
	<path class="st1" d="M-12.5,154.3l-0.9,10.8"/>
	<path class="st1" d="M-9.8,154.5l-0.7,10.8"/>
	<path class="st1" d="M-7.2,154.6l-0.5,10.8"/>
	<path class="st1" d="M-4.5,154.7l-0.3,10.8"/>
	<path class="st1" d="M-78,133.7l-30.8,52.9"/>
	<path class="st1" d="M0.8,154.8l0.1,10.8"/>
	<path class="st1" d="M3.5,154.8l0.2,10.8"/>
	<path class="st1" d="M6.2,154.7l0.4,10.8"/>
	<path class="st1" d="M8.8,154.5l0.6,10.8"/>
	<path class="st1" d="M11.5,154.4l0.8,10.8"/>
	<path class="st1" d="M14.1,154.2l1,10.8"/>
	<path class="st1" d="M16.8,153.9l1.2,10.7"/>
	<path class="st1" d="M19.4,153.6l1.4,10.7"/>
	<path class="st1" d="M22.1,153.2l1.5,10.7"/>
	<path class="st1" d="M24.7,152.8l2.9,17.8"/>
	<path class="st1" d="M27.3,152.4l1.9,10.6"/>
	<path class="st1" d="M29.9,151.9l2.1,10.6"/>
	<path class="st1" d="M32.5,151.3l2.3,10.6"/>
	<path class="st1" d="M35.1,150.8l2.5,10.5"/>
	<path class="st1" d="M37.7,150.1l2.6,10.5"/>
	<path class="st1" d="M40.3,149.5l2.8,10.4"/>
	<path class="st1" d="M42.9,148.7l3,10.4"/>
	<path class="st1" d="M45.4,148l3.2,10.3"/>
	<path class="st1" d="M48,147.2l3.3,10.3"/>
	<path class="st1" d="M50.5,146.3l5.9,17"/>
	<path class="st1" d="M53,145.4l3.7,10.1"/>
	<path class="st1" d="M55.5,144.5l3.9,10.1"/>
	<path class="st1" d="M58,143.5l4,10"/>
	<path class="st1" d="M60.4,142.5l4.2,9.9"/>
	<path class="st1" d="M62.9,141.5l4.4,9.9"/>
	<path class="st1" d="M65.3,140.4l4.6,9.8"/>
	<path class="st1" d="M67.7,139.2l4.7,9.7"/>
	<path class="st1" d="M70.1,138l4.9,9.6"/>
	<path class="st1" d="M72.4,136.8l5.1,9.5"/>
	<path class="st1" d="M74.8,135.5l8.7,15.8"/>
	<path class="st1" d="M-1.8,154.8L-2.6,216"/>
	<path class="st1" d="M79.4,132.9l5.5,9.3"/>
	<path class="st1" d="M81.7,131.5l5.7,9.2"/>
	<path class="st1" d="M83.9,130.1l5.9,9.1"/>
	<path class="st1" d="M86.2,128.6l6,9"/>
	<path class="st1" d="M88.4,127.1l6.2,8.9"/>
	<path class="st1" d="M90.5,125.6l6.3,8.8"/>
	<path class="st1" d="M92.7,124l6.5,8.7"/>
	<path class="st1" d="M94.8,122.4l6.6,8.5"/>
	<path class="st1" d="M96.9,120.7l6.8,8.4"/>
	<path class="st1" d="M98.9,119l11.5,13.8"/>
	<path class="st1" d="M101,117.3l7,8.2"/>
	<path class="st1" d="M103,115.6l7.2,8.1"/>
	<path class="st1" d="M105,113.8l7.3,7.9"/>
	<path class="st1" d="M106.9,112l7.5,7.8"/>
	<path class="st1" d="M108.8,110.1l7.6,7.7"/>
	<path class="st1" d="M110.7,108.2l7.7,7.6"/>
	<path class="st1" d="M112.5,106.3l7.9,7.4"/>
	<path class="st1" d="M114.3,104.3l8,7.3"/>
	<path class="st1" d="M116.1,102.4l8.1,7.1"/>
	<path class="st1" d="M117.9,100.4l13.7,11.7"/>
	<path class="st1" d="M119.6,98.3l8.3,6.9"/>
	<path class="st1" d="M121.2,96.2l8.5,6.7"/>
	<path class="st1" d="M122.9,94.1l8.6,6.6"/>
	<path class="st1" d="M124.5,92l8.7,6.4"/>
	<path class="st1" d="M126.1,89.9l8.8,6.3"/>
	<path class="st1" d="M127.6,87.7l8.9,6.1"/>
	<path class="st1" d="M129.1,85.5l9,6"/>
	<path class="st1" d="M130.5,83.2l9.1,5.8"/>
	<path class="st1" d="M131.9,81l9.2,5.6"/>
	<path class="st1" d="M77.1,134.2l30.5,53.1"/>
	<path class="st1" d="M134.6,76.4l9.4,5.3"/>
	<path class="st1" d="M135.9,74.1l9.5,5.2"/>
	<path class="st1" d="M137.2,71.7l9.6,5"/>
	<path class="st1" d="M138.4,69.3l9.7,4.8"/>
	<path class="st1" d="M139.6,67l9.7,4.7"/>
	<path class="st1" d="M140.7,64.5l9.8,4.5"/>
	<path class="st1" d="M141.8,62.1l9.9,4.3"/>
	<path class="st1" d="M142.8,59.7l10,4.2"/>
	<path class="st1" d="M143.8,57.2l10,4"/>
	<path class="st1" d="M144.8,54.7l16.8,6.4"/>
	<path class="st1" d="M145.7,52.2l10.2,3.6"/>
	<path class="st1" d="M146.6,49.7l10.2,3.5"/>
	<path class="st1" d="M147.4,47.2l10.3,3.3"/>
	<path class="st1" d="M148.2,44.6l10.3,3.1"/>
	<path class="st1" d="M149,42.1l10.4,2.9"/>
	<path class="st1" d="M149.7,39.5l10.4,2.8"/>
	<path class="st1" d="M150.3,36.9l10.5,2.6"/>
	<path class="st1" d="M150.9,34.3l10.5,2.4"/>
	<path class="st1" d="M151.5,31.7l10.6,2.2"/>
	<path class="st1" d="M152,29.1l17.7,3.4"/>
	<path class="st1" d="M152.5,26.5l10.6,1.8"/>
	<path class="st1" d="M152.9,23.9l10.7,1.7"/>
	<path class="st1" d="M153.3,21.2l10.7,1.5"/>
	<path class="st1" d="M153.7,18.6l10.7,1.3"/>
	<path class="st1" d="M154,15.9l10.7,1.1"/>
	<path class="st1" d="M154.2,13.3l10.8,0.9"/>
	<path class="st1" d="M154.4,10.6l10.8,0.7"/>
	<path class="st1" d="M154.6,8l10.8,0.6"/>
	<path class="st1" d="M154.7,5.3l10.8,0.4"/>
	<path class="st1" d="M154.8,2.7l18,0.3"/>
	<path class="st1" d="M133.3,78.7l52.7,31.1"/>
	<path class="st1" d="M-165.6,0c0-91.5,74.1-165.6,165.6-165.6S165.6-91.5,165.6,0S91.5,165.6,0,165.6S-165.6,91.5-165.6,0z"/>
	<path class="st1" d="M-172.8,0c0-95.4,77.4-172.8,172.8-172.8S172.8-95.4,172.8,0S95.4,172.8,0,172.8S-172.8,95.4-172.8,0z"/>
	<path class="st1" d="M-189,0c0-104.4,84.6-189,189-189S189-104.4,189,0S104.4,189,0,189S-189,104.4-189,0z"/>
	<g transform="translate(179.8896809337398,-6.301007344647358) rotate(-92.00608277927871,0,0)">
		<g>
			<path class="st1" d="M-1.1-3.8l1.2,0l0,8.5"/>
		</g>
	</g>
	<g transform="translate(158.113592803802,-86.02378607497756) rotate(-118.54898451579287,0,0)">
		<g>
			<path class="st1" d="M-1.1-3.8l1.2,0l0,8.5"/>
		</g>
	</g>
	<g transform="translate(161.4291832208879,-79.6280026412632) rotate(-116.25569234262794,0,0)">
		<g>
			<path class="st1" d="M-2.3-2.4L-2.3-2.4C-1.9-3-1.6-3.4-1.4-3.6l0,0l0,0C-1-3.9-0.6-4,0-4l0,0l0,0c0.6,0,1,0.2,1.5,0.6l0,0l0,0
				c0.4,0.4,0.6,0.8,0.6,1.4l0,0l0,0c0,0.6-0.2,1-0.7,1.4l0,0l0,0C1-0.4,0.5-0.1-0.1-0.1l0,0l0,0c1.8,0.3,2.7,1,2.7,2.2l0,0l0,0
				c0,0.9-0.3,1.6-0.9,2.1l0,0l0,0C1.2,4.7,0.5,4.9-0.4,4.9l0,0l0,0c-0.5,0-1-0.2-1.4-0.6l0,0l0,0C-2,4-2.3,3.6-2.6,3l0,0"/>
		</g>
	</g>
	<g transform="translate(151.70715391627047,-96.87589716036199) rotate(-122.56115007435031,0,0)">
		<g>
			<path class="st1" d="M-1.1-3.8l1.2,0l0,8.5"/>
		</g>
	</g>
	<g transform="translate(99.64754503114318,-149.90119001951354) rotate(-146.38583359840163,0,0)">
		<g>
			<path class="st1" d="M0.5,0L0.5,0c-0.2,0-0.5,0-0.7,0.1l0,0l0,0c-0.2,0-0.4,0.1-0.6,0.1l0,0l0,0c-0.5,0.2-0.8,0.4-1.1,0.6l0,0
				l0,0c-0.3,0.3-0.6,0.7-0.7,1l0,0l0,0c-0.1,0.2-0.1,0.4-0.1,0.6l0,0l0,0c0,0.2,0,0.4,0.1,0.7l0,0l0,0C-2.4,3.6-2.1,4-1.7,4.3l0,0
				l0,0c0.4,0.3,0.9,0.5,1.5,0.5l0,0l0,0c0.5,0,0.9,0,1.3-0.1l0,0l0,0C1.4,4.6,1.8,4.4,2,4.1l0,0l0,0C2.3,3.8,2.5,3.4,2.6,3l0,0l0,0
				c0.1-0.4,0.1-0.8,0-1.1l0,0l0,0C2.5,1.6,2.4,1.3,2.1,1l0,0l0,0C2,0.8,1.7,0.6,1.4,0.4l0,0l0,0C1.1,0.2,0.7,0.1,0.2,0.1l0,0l0,0
				C-0.4,0.1-0.7,0-1-0.2l0,0l0,0c-0.4-0.3-0.7-0.6-0.9-1l0,0l0,0c-0.2-0.4-0.3-0.7-0.3-0.9l0,0l0,0c0-0.1,0-0.2,0-0.3l0,0l0,0
				c0.1-0.4,0.3-0.7,0.7-1.1l0,0l0,0C-1.2-3.7-0.9-3.9-0.4-4l0,0l0,0c0.4-0.1,0.8-0.1,1.2,0l0,0l0,0c0.4,0.1,0.7,0.3,0.9,0.5l0,0
				l0,0c0.3,0.3,0.5,0.6,0.5,1l0,0l0,0c0.1,0.3,0.1,0.6-0.1,1l0,0l0,0C2-1.1,1.8-0.8,1.4-0.5l0,0l0,0C1.1-0.1,0.7,0,0.5,0"/>
		</g>
	</g>
	<g transform="translate(105.5660040547839,-145.7937542829094) rotate(-144.09254142523667,0,0)">
		<g>
			<path class="st1" d="M-2.5-1.7L-2.5-1.7c0-0.2,0.2-0.5,0.3-1l0,0l0,0C-2-3-1.8-3.2-1.6-3.4l0,0l0,0c0.2-0.2,0.4-0.3,0.7-0.4l0,0
				l0,0C-0.6-4-0.3-4,0-4.1l0,0l0,0c0.3,0,0.6,0,0.9,0.1l0,0l0,0c0.3,0.1,0.6,0.3,0.9,0.5l0,0l0,0C2-3.2,2.2-2.9,2.4-2.6l0,0l0,0
				C2.5-2.3,2.6-2,2.6-1.7l0,0l0,0c0,0.2,0,0.5-0.1,0.9l0,0l0,0C2.4-0.6,2.3-0.5,2.3-0.5l0,0l0,0c0,0.1-0.1,0.2-0.2,0.3l0,0
				l-4.4,4.8l5,0"/>
		</g>
	</g>
	<g transform="translate(88.91500143156348,-156.50598237902943) rotate(-150.39799915695906,0,0)">
		<g>
			<path class="st1" d="M-1.1-3.8l1.2,0l0,8.5"/>
		</g>
	</g>
	<g transform="translate(9.605877950482126,-179.74350366230334) rotate(-176.94090089347324,0,0)">
		<g>
			<path class="st1" d="M-1.1-3.8l1.2,0l0,8.5"/>
		</g>
	</g>
	<g transform="translate(16.790587145177522,-179.21516728033987) rotate(-174.6476087203083,0,0)">
		<g>
			<path class="st1" d="M-2.3-2.4L-2.3-2.4C-1.9-3-1.6-3.4-1.4-3.6l0,0l0,0C-1-3.9-0.6-4,0-4l0,0l0,0c0.6,0,1,0.2,1.5,0.6l0,0l0,0
				c0.4,0.4,0.6,0.8,0.6,1.4l0,0l0,0c0,0.6-0.2,1-0.7,1.4l0,0l0,0C1-0.4,0.5-0.1-0.1-0.1l0,0l0,0c1.8,0.3,2.7,1,2.7,2.2l0,0l0,0
				c0,0.9-0.3,1.6-0.9,2.1l0,0l0,0C1.2,4.7,0.5,4.9-0.4,4.9l0,0l0,0c-0.5,0-1-0.2-1.4-0.6l0,0l0,0C-2,4-2.3,3.6-2.6,3l0,0"/>
		</g>
	</g>
	<g transform="translate(-2.994008488495741,-179.9750980362862) rotate(-180.95306645203064,0,0)">
		<g>
			<path class="st1" d="M-1.1-3.8l1.2,0l0,8.5"/>
		</g>
	</g>
	<g transform="translate(-80.34462234279464,-161.07371498973293) rotate(-206.51032085644573,0,0)">
		<g>
			<path class="st1" d="M-1.4,4.5L-1.4,4.5C-1.7,4.3-2,3.9-2.3,3.4l0,0l0,0c-0.1-0.3-0.2-0.6-0.3-0.9l0,0l0,0c0-0.1-0.1-0.4-0.1-0.9
				l0,0l0,0c-0.1-0.7-0.1-1.4,0-2.2l0,0l0,0c0.1-0.6,0.1-1,0.1-1.1l0,0l0,0c0.1-0.4,0.2-0.7,0.4-1l0,0l0,0C-2-2.9-1.9-3.1-1.8-3.2
				l0,0l0,0c0.2-0.2,0.3-0.3,0.6-0.5l0,0l0,0C-0.9-3.9-0.5-4-0.1-4l0,0l0,0c0.5,0,1,0.1,1.3,0.3l0,0l0,0c0.3,0.2,0.6,0.5,0.9,1l0,0
				l0,0C2.3-2.4,2.4-2,2.6-1.4l0,0l0,0c0.1,0.3,0.1,0.9,0.1,1.5l0,0l0,0c0,0.6,0,1.2-0.1,1.6l0,0l0,0C2.6,2.3,2.5,2.7,2.4,3l0,0l0,0
				C2.3,3.3,2.1,3.7,1.8,4l0,0l0,0C1.5,4.3,1.3,4.6,1,4.7l0,0l0,0C0.7,4.9,0.3,5,0,5l0,0l0,0C-0.5,5-0.9,4.8-1.4,4.5"/>
		</g>
	</g>
	<g transform="translate(-73.83493869171319,-164.15968393119843) rotate(-204.21702868328077,0,0)">
		<g>
			<path class="st1" d="M-2.3-2.4L-2.3-2.4C-1.9-3-1.6-3.4-1.4-3.6l0,0l0,0C-1-3.9-0.6-4,0-4l0,0l0,0c0.6,0,1,0.2,1.5,0.6l0,0l0,0
				c0.4,0.4,0.6,0.8,0.6,1.4l0,0l0,0c0,0.6-0.2,1-0.7,1.4l0,0l0,0C1-0.4,0.5-0.1-0.1-0.1l0,0l0,0c1.8,0.3,2.7,1,2.7,2.2l0,0l0,0
				c0,0.9-0.3,1.6-0.9,2.1l0,0l0,0C1.2,4.7,0.5,4.9-0.4,4.9l0,0l0,0c-0.5,0-1-0.2-1.4-0.6l0,0l0,0C-2,4-2.3,3.6-2.6,3l0,0"/>
		</g>
	</g>
	<g transform="translate(-91.41776649902636,-155.0573828243257) rotate(-210.5224864150032,0,0)">
		<g>
			<path class="st1" d="M-1.1-3.8l1.2,0l0,8.5"/>
		</g>
	</g>
	<g transform="translate(-151.07248524824655,-97.86268032768334) rotate(-237.0653881515173,0,0)">
		<g>
			<path class="st1" d="M-1.1-3.8h1.2l0,8.5"/>
		</g>
	</g>
	<g transform="translate(-147.0355324328254,-103.82943803274468) rotate(-234.77209597835238,0,0)">
		<g>
			<path class="st1" d="M-2.3-2.4L-2.3-2.4C-1.9-3-1.6-3.4-1.4-3.6l0,0l0,0C-1-3.9-0.6-4,0-4l0,0l0,0c0.6,0,1,0.2,1.5,0.6l0,0l0,0
				c0.4,0.4,0.6,0.8,0.6,1.4l0,0l0,0c0,0.6-0.2,1-0.7,1.4l0,0l0,0C1-0.4,0.5-0.1-0.1-0.1l0,0l0,0c1.8,0.3,2.7,1,2.7,2.2l0,0l0,0
				c0,0.9-0.3,1.6-0.9,2.1l0,0l0,0C1.2,4.7,0.5,4.9-0.4,4.9l0,0l0,0c-0.5,0-1-0.2-1.4-0.6l0,0l0,0C-2,4-2.3,3.6-2.6,3l0,0"/>
		</g>
	</g>
	<g transform="translate(-157.54952309620822,-87.05255752795185) rotate(-241.0775537100748,0,0)">
		<g>
			<path class="st1" d="M-1.1-3.8l1.2,0l0,8.5"/>
		</g>
	</g>
	<g transform="translate(-179.68962119244614,-10.56598484360193) rotate(-266.63480811448983,0,0)">
		<g>
			<path class="st1" d="M-1.4,4.5L-1.4,4.5C-1.7,4.3-2,3.9-2.3,3.4l0,0l0,0c-0.1-0.3-0.2-0.6-0.3-0.9l0,0l0,0c0-0.1-0.1-0.4-0.1-0.9
				l0,0l0,0c-0.1-0.7-0.1-1.4,0-2.2l0,0l0,0c0.1-0.6,0.1-1,0.1-1.1l0,0l0,0c0.1-0.4,0.2-0.7,0.4-1l0,0l0,0C-2-2.9-1.9-3.1-1.8-3.2
				l0,0l0,0c0.2-0.2,0.3-0.3,0.6-0.5l0,0l0,0C-0.9-3.9-0.5-4-0.1-4l0,0l0,0c0.5,0,1,0.1,1.3,0.3l0,0l0,0c0.3,0.2,0.6,0.5,0.9,1l0,0
				l0,0C2.3-2.4,2.4-2,2.6-1.4l0,0l0,0c0.1,0.3,0.1,0.9,0.1,1.5l0,0l0,0c0,0.6,0,1.2-0.1,1.6l0,0l0,0C2.6,2.3,2.5,2.7,2.4,3l0,0l0,0
				C2.3,3.3,2.1,3.7,1.8,4l0,0l0,0C1.5,4.3,1.3,4.6,1,4.7l0,0l0,0C0.7,4.9,0.3,5,0,5l0,0l0,0C-0.5,5-0.9,4.8-1.4,4.5"/>
		</g>
	</g>
	<g transform="translate(-179.12290946797168,-17.74776897891194) rotate(-264.3415159413249,0,0)">
		<g>
			<path class="st1" d="M-2.3-2.4L-2.3-2.4C-1.9-3-1.6-3.4-1.4-3.6l0,0l0,0C-1-3.9-0.6-4,0-4l0,0l0,0c0.6,0,1,0.2,1.5,0.6l0,0l0,0
				c0.4,0.4,0.6,0.8,0.6,1.4l0,0l0,0c0,0.6-0.2,1-0.7,1.4l0,0l0,0C1-0.4,0.5-0.1-0.1-0.1l0,0l0,0c1.8,0.3,2.7,1,2.7,2.2l0,0l0,0
				c0,0.9-0.3,1.6-0.9,2.1l0,0l0,0C1.2,4.7,0.5,4.9-0.4,4.9l0,0l0,0c-0.5,0-1-0.2-1.4-0.6l0,0l0,0C-2,4-2.3,3.6-2.6,3l0,0"/>
		</g>
	</g>
	<g transform="translate(-179.98852465246745,2.0324845456052048) rotate(-270.6469736730473,0,0)">
		<g>
			<path class="st1" d="M-1.1-3.8l1.2,0l0,8.5"/>
		</g>
	</g>
	<g transform="translate(-160.10948376152987,82.24933561808517) rotate(-297.18987540956147,0,0)">
		<g>
			<path class="st1" d="M-1.1-3.8l1.2,0l0,8.5"/>
		</g>
	</g>
	<g transform="translate(-163.27244171402148,75.77670998889745) rotate(-294.89658323639645,0,0)">
		<g>
			<path class="st1" d="M-2.3-2.4L-2.3-2.4C-1.9-3-1.6-3.4-1.4-3.6l0,0l0,0C-1-3.9-0.6-4,0-4l0,0l0,0c0.6,0,1,0.2,1.5,0.6l0,0l0,0
				c0.4,0.4,0.6,0.8,0.6,1.4l0,0l0,0c0,0.6-0.2,1-0.7,1.4l0,0l0,0C1-0.4,0.5-0.1-0.1-0.1l0,0l0,0c1.8,0.3,2.7,1,2.7,2.2l0,0l0,0
				c0,0.9-0.3,1.6-0.9,2.1l0,0l0,0C1.2,4.7,0.5,4.9-0.4,4.9l0,0l0,0c-0.5,0-1-0.2-1.4-0.6l0,0l0,0C-2,4-2.3,3.6-2.6,3l0,0"/>
		</g>
	</g>
	<g transform="translate(-153.96224519877507,93.2503461299328) rotate(-301.2020409681189,0,0)">
		<g>
			<path class="st1" d="M-1.1-3.8l1.2,0l0,8.5"/>
		</g>
	</g>
	<g transform="translate(-96.0640493820989,152.2225292665763) rotate(-327.74494270463305,0,0)">
		<g>
			<path class="st1" d="M-1.1-3.8l1.2,0l0,8.5"/>
		</g>
	</g>
	<g transform="translate(-102.07826643093983,148.2566272463193) rotate(-325.4516505314681,0,0)">
		<g>
			<path class="st1" d="M-2.3-2.4L-2.3-2.4C-1.9-3-1.6-3.4-1.4-3.6l0,0l0,0C-1-3.9-0.6-4,0-4l0,0l0,0c0.6,0,1,0.2,1.5,0.6l0,0l0,0
				c0.4,0.4,0.6,0.8,0.6,1.4l0,0l0,0c0,0.6-0.2,1-0.7,1.4l0,0l0,0C1-0.4,0.5-0.1-0.1-0.1l0,0l0,0c1.8,0.3,2.7,1,2.7,2.2l0,0l0,0
				c0,0.9-0.3,1.6-0.9,2.1l0,0l0,0C1.2,4.7,0.5,4.9-0.4,4.9l0,0l0,0c-0.5,0-1-0.2-1.4-0.6l0,0l0,0C-2,4-2.3,3.6-2.6,3l0,0"/>
		</g>
	</g>
	<g transform="translate(-85.17786803102051,158.5709014847619) rotate(-331.75710826319045,0,0)">
		<g>
			<path class="st1" d="M-1.1-3.8h1.2l0,8.5"/>
		</g>
	</g>
	<g transform="translate(-8.434089301438377,179.80229736478722) rotate(-357.31436266760556,0,0)">
		<g>
			<path class="st1" d="M-1.4,4.5L-1.4,4.5C-1.7,4.3-2,3.9-2.3,3.4l0,0l0,0c-0.1-0.3-0.2-0.6-0.3-0.9l0,0l0,0c0-0.1-0.1-0.4-0.1-0.9
				l0,0l0,0c-0.1-0.7-0.1-1.4,0-2.2l0,0l0,0c0.1-0.6,0.1-1,0.1-1.1l0,0l0,0c0.1-0.4,0.2-0.7,0.4-1l0,0l0,0C-2-2.9-1.9-3.1-1.8-3.2
				l0,0l0,0c0.2-0.2,0.3-0.3,0.6-0.5l0,0l0,0C-0.9-3.9-0.5-4-0.1-4l0,0l0,0c0.5,0,1,0.1,1.3,0.3l0,0l0,0c0.3,0.2,0.6,0.5,0.9,1l0,0
				l0,0C2.3-2.4,2.4-2,2.6-1.4l0,0l0,0c0.1,0.3,0.1,0.9,0.1,1.5l0,0l0,0c0,0.6,0,1.2-0.1,1.6l0,0l0,0C2.6,2.3,2.5,2.7,2.4,3l0,0l0,0
				C2.3,3.3,2.1,3.7,1.8,4l0,0l0,0C1.5,4.3,1.3,4.6,1,4.7l0,0l0,0C0.7,4.9,0.3,5,0,5l0,0l0,0C-0.5,5-0.9,4.8-1.4,4.5"/>
		</g>
	</g>
	<g transform="translate(-15.622089616319736,179.3208027977225) rotate(-355.0210704944406,0,0)">
		<g>
			<path class="st1" d="M-2.3-2.4L-2.3-2.4C-1.9-3-1.6-3.4-1.4-3.6l0,0l0,0C-1-3.9-0.6-4,0-4l0,0l0,0c0.6,0,1,0.2,1.5,0.6l0,0l0,0
				c0.4,0.4,0.6,0.8,0.6,1.4l0,0l0,0c0,0.6-0.2,1-0.7,1.4l0,0l0,0C1-0.4,0.5-0.1-0.1-0.1l0,0l0,0c1.8,0.3,2.7,1,2.7,2.2l0,0l0,0
				c0,0.9-0.3,1.6-0.9,2.1l0,0l0,0C1.2,4.7,0.5,4.9-0.4,4.9l0,0l0,0c-0.5,0-1-0.2-1.4-0.6l0,0l0,0C-2,4-2.3,3.6-2.6,3l0,0"/>
		</g>
	</g>
	<g transform="translate(4.167039031663643,179.9517596071475) rotate(-361.32652822616296,0,0)">
		<g>
			<path class="st1" d="M-1.1-3.8l1.2,0l0,8.5"/>
		</g>
	</g>
	<g transform="translate(84.14247896431897,159.12273009768012) rotate(-387.86942996267715,0,0)">
		<g>
			<path class="st1" d="M-1.1-3.8l1.2,0l0,8.5"/>
		</g>
	</g>
	<g transform="translate(77.70782185458444,162.36223213117077) rotate(-385.5761377895122,0,0)">
		<g>
			<path class="st1" d="M-2.3-2.4L-2.3-2.4C-1.9-3-1.6-3.4-1.4-3.6l0,0l0,0C-1-3.9-0.6-4,0-4l0,0l0,0c0.6,0,1,0.2,1.5,0.6l0,0l0,0
				c0.4,0.4,0.6,0.8,0.6,1.4l0,0l0,0c0,0.6-0.2,1-0.7,1.4l0,0l0,0C1-0.4,0.5-0.1-0.1-0.1l0,0l0,0c1.8,0.3,2.7,1,2.7,2.2l0,0l0,0
				c0,0.9-0.3,1.6-0.9,2.1l0,0l0,0C1.2,4.7,0.5,4.9-0.4,4.9l0,0l0,0c-0.5,0-1-0.2-1.4-0.6l0,0l0,0C-2,4-2.3,3.6-2.6,3l0,0"/>
		</g>
	</g>
	<g transform="translate(95.06980833100054,152.84544986327472) rotate(-391.88159552123454,0,0)">
		<g>
			<path class="st1" d="M-1.1-3.8l1.2,0l0,8.5"/>
		</g>
	</g>
	<g transform="translate(151.70715391627056,96.87589716036187) rotate(-417.4388499256498,0,0)">
		<g>
			<path class="st1" d="M-1.4,4.5L-1.4,4.5C-1.7,4.3-2,3.9-2.3,3.4l0,0l0,0c-0.1-0.3-0.2-0.6-0.3-0.9l0,0l0,0c0-0.1-0.1-0.4-0.1-0.9
				l0,0l0,0c-0.1-0.7-0.1-1.4,0-2.2l0,0l0,0c0.1-0.6,0.1-1,0.1-1.1l0,0l0,0c0.1-0.4,0.2-0.7,0.4-1l0,0l0,0C-2-2.9-1.9-3.1-1.8-3.2
				l0,0l0,0c0.2-0.2,0.3-0.3,0.6-0.5l0,0l0,0C-0.9-3.9-0.5-4-0.1-4l0,0l0,0c0.5,0,1,0.1,1.3,0.3l0,0l0,0c0.3,0.2,0.6,0.5,0.9,1l0,0
				l0,0C2.3-2.4,2.4-2,2.6-1.4l0,0l0,0c0.1,0.3,0.1,0.9,0.1,1.5l0,0l0,0c0,0.6,0,1.2-0.1,1.6l0,0l0,0C2.6,2.3,2.5,2.7,2.4,3l0,0l0,0
				C2.3,3.3,2.1,3.7,1.8,4l0,0l0,0C1.5,4.3,1.3,4.6,1,4.7l0,0l0,0C0.7,4.9,0.3,5,0,5l0,0l0,0C-0.5,5-0.9,4.8-1.4,4.5"/>
		</g>
	</g>
	<g transform="translate(147.70917873005783,102.86884134125282) rotate(-415.1455577524848,0,0)">
		<g>
			<path class="st1" d="M-2.3-2.4L-2.3-2.4C-1.9-3-1.6-3.4-1.4-3.6l0,0l0,0C-1-3.9-0.6-4,0-4l0,0l0,0c0.6,0,1,0.2,1.5,0.6l0,0l0,0
				c0.4,0.4,0.6,0.8,0.6,1.4l0,0l0,0c0,0.6-0.2,1-0.7,1.4l0,0l0,0C1-0.4,0.5-0.1-0.1-0.1l0,0l0,0c1.8,0.3,2.7,1,2.7,2.2l0,0l0,0
				c0,0.9-0.3,1.6-0.9,2.1l0,0l0,0C1.2,4.7,0.5,4.9-0.4,4.9l0,0l0,0c-0.5,0-1-0.2-1.4-0.6l0,0l0,0C-2,4-2.3,3.6-2.6,3l0,0"/>
		</g>
	</g>
	<g transform="translate(158.11359280380196,86.02378607497765) rotate(-421.45101548420706,0,0)">
		<g>
			<path class="st1" d="M-1.1-3.8h1.2l0,8.5"/>
		</g>
	</g>
	<g transform="translate(179.8896809337398,6.301007344647363) rotate(-447.99391722072124,0,0)">
		<g>
			<path class="st1" d="M-1.1-3.8l1.2,0l0,8.5"/>
		</g>
	</g>
	<g transform="translate(179.49347125542803,13.494212710522818) rotate(-445.7006250475563,0,0)">
		<g>
			<path class="st1" d="M-2.3-2.4L-2.3-2.4C-1.9-3-1.6-3.4-1.4-3.6l0,0l0,0C-1-3.9-0.6-4,0-4l0,0l0,0c0.6,0,1,0.2,1.5,0.6l0,0l0,0
				c0.4,0.4,0.6,0.8,0.6,1.4l0,0l0,0c0,0.6-0.2,1-0.7,1.4l0,0l0,0C1-0.4,0.5-0.1-0.1-0.1l0,0l0,0c1.8,0.3,2.7,1,2.7,2.2l0,0l0,0
				c0,0.9-0.3,1.6-0.9,2.1l0,0l0,0C1.2,4.7,0.5,4.9-0.4,4.9l0,0l0,0c-0.5,0-1-0.2-1.4-0.6l0,0l0,0C-2,4-2.3,3.6-2.6,3l0,0"/>
		</g>
	</g>
	<g transform="translate(198.8301520792123,-19.662416539106246) rotate(-95.64764694922785,0,0)">
		<g>
			<path class="st1" d="M1.9-4.7l0,8.6l0,0c0,0.6-0.2,1.1-0.7,1.5l0,0l0,0C0.7,5.8,0.2,6-0.4,6l0,0l0,0c-0.3,0-0.7-0.1-1.1-0.3l0,0
				l0,0c-0.1,0-0.4-0.2-1-0.6l0,0"/>
		</g>
	</g>
	<g transform="translate(197.63089530297387,-29.36101533913621) rotate(-98.45033323593903,0,0)">
		<g>
			<path class="st1" d="M-2.9,2L3,2"/>
			<path class="st1" d="M-4.7,5.8L0-4.7L4.7,5.8"/>
		</g>
	</g>
	<g transform="translate(195.5459306255607,-41.0101087024092) rotate(-101.84447370305925,0,0)">
		<g>
			<path class="st1" d="M-3.9,5.8l0-10.5L4,5.8L4-4.7"/>
		</g>
	</g>
	<g transform="translate(192.952479889887,-51.859237406104924) rotate(-105.04370313345377,0,0)">
		<g>
			<path class="st1" d="M-3.2-4.7l0,7l0,0c0,1,0.2,1.9,0.7,2.6l0,0l0,0c0.6,0.8,1.3,1.2,2.3,1.2l0,0l0,0c1.1,0,2-0.4,2.6-1.1l0,0
				l0,0c0.5-0.7,0.8-1.6,0.8-2.7l0,0l0-7"/>
		</g>
	</g>
	<g transform="translate(189.75760199883598,-62.546722405345584) rotate(-108.24293256384829,0,0)">
		<g>
			<path class="st1" d="M-2.9,2L3,2"/>
			<path class="st1" d="M-4.7,5.8L0-4.7L4.7,5.8"/>
		</g>
	</g>
	<g transform="translate(186.11085549195843,-72.6828003591728) rotate(-111.33238451378809,0,0)">
		<g>
			<path class="st1" d="M3,5.8l-3.4-5.3"/>
			<path class="st1" d="M-2.8,5.8l0-10.5h2.7l0,0c2.2,0,3.3,0.9,3.3,2.7l0,0l0,0c0,1-0.5,1.6-1.4,2l0,0l0,0C1.2,0.3,0.2,0.4-1,0.4
				l0,0l0,0c-0.2,0-0.6,0-1,0l0,0l0,0c-0.4,0-0.7,0-0.8,0l0,0"/>
		</g>
	</g>
	<g transform="translate(182.40928904456558,-81.52846907832952) rotate(-114.08242241701588,0,0)">
		<g>
			<path class="st1" d="M3.3-4.8L0,0.5"/>
			<path class="st1" d="M-3.3-4.8L0,0.5l0,5.3"/>
		</g>
	</g>
	<g transform="translate(165.05821555630624,-112.5869685059863) rotate(-124.29807827091042,0,0)">
		<g>
			<path class="st1" d="M2.8,0.1l-4.7,0"/>
			<path class="st1" d="M-1.9,5.8l0-10.5l4.7,0"/>
		</g>
	</g>
	<g transform="translate(160.31895441091885,-119.23872213584701) rotate(-126.64037124673497,0,0)">
		<g>
			<path class="st1" d="M3.2,0l-5.6,0"/>
			<path class="st1" d="M3.2,5.8l-5.6,0l0-10.6l5.6,0"/>
		</g>
	</g>
	<g transform="translate(154.86110942484538,-126.24609612857765) rotate(-129.18765686463314,0,0)">
		<g>
			<path class="st1" d="M-0.4,0.1L-0.4,0.1C2,0.5,3.2,1.5,3.2,3l0,0l0,0c0,1.1-0.5,1.8-1.6,2.3l0,0l0,0C0.8,5.7-0.2,5.8-1.4,5.8l0,0
				l-1.3,0l0-10.5l1,0l0,0C0.9-4.8,2.2-4,2.2-2.5l0,0l0,0c0,0.6-0.3,1.2-0.8,1.7l0,0l0,0C0.9-0.2,0.3,0.1-0.4,0.1L-0.4,0.1l-2.2,0"
				/>
		</g>
	</g>
	<g transform="translate(148.71957549121214,-133.42611388222943) rotate(-131.8973683464694,0,0)">
		<g>
			<path class="st1" d="M3,5.8l-3.4-5.3"/>
			<path class="st1" d="M-2.8,5.8l0-10.5l2.7,0l0,0c2.2,0,3.3,0.9,3.3,2.7l0,0l0,0c0,1-0.5,1.6-1.4,2l0,0l0,0C1.2,0.3,0.2,0.4-1,0.4
				l0,0l0,0c-0.2,0-0.6,0-1,0l0,0l0,0c-0.4,0-0.7,0-0.8,0l0,0"/>
		</g>
	</g>
	<g transform="translate(141.792112133608,-140.7658940819485) rotate(-134.79190925968348,0,0)">
		<g>
			<path class="st1" d="M-3.2-4.7v7l0,0c0,1,0.2,1.9,0.7,2.6l0,0l0,0c0.6,0.8,1.3,1.2,2.3,1.2l0,0l0,0c1.1,0,2-0.4,2.6-1.1l0,0l0,0
				c0.5-0.7,0.8-1.6,0.8-2.7l0,0l0-7"/>
		</g>
	</g>
	<g transform="translate(133.71525737686792,-148.45965763343915) rotate(-137.991138690078,0,0)">
		<g>
			<path class="st1" d="M-2.9,2L3,2"/>
			<path class="st1" d="M-4.7,5.8L0-4.7L4.7,5.8"/>
		</g>
	</g>
	<g transform="translate(125.51968609095783,-155.4504692936866) rotate(-141.0805906400178,0,0)">
		<g>
			<path class="st1" d="M3,5.8l-3.4-5.3"/>
			<path class="st1" d="M-2.8,5.8l0-10.5l2.7,0l0,0c2.2,0,3.3,0.9,3.3,2.7l0,0l0,0c0,1-0.5,1.6-1.4,2l0,0l0,0C1.2,0.3,0.2,0.4-1,0.4
				l0,0l0,0c-0.2,0-0.6,0-1,0l0,0l0,0c-0.4,0-0.7,0-0.8,0l0,0"/>
		</g>
	</g>
	<g transform="translate(117.91680662797349,-161.29372806982022) rotate(-143.83062854324558,0,0)">
		<g>
			<path class="st1" d="M3.3-4.8L0,0.5"/>
			<path class="st1" d="M-3.3-4.8L0,0.5l0,5.3"/>
		</g>
	</g>
	<g transform="translate(78.51309462284493,-183.7273359430877) rotate(-156.86129264594314,0,0)">
		<g>
			<path class="st1" d="M-5.8,5.8l1.4-10.5L0,5.2l4.5-9.9L5.9,5.8"/>
		</g>
	</g>
	<g transform="translate(66.14689237968254,-188.53283169917833) rotate(-160.66653857558256,0,0)">
		<g>
			<path class="st1" d="M-2.9,2L3,2"/>
			<path class="st1" d="M-4.7,5.8L0-4.7L4.7,5.8"/>
		</g>
	</g>
	<g transform="translate(55.889781287119675,-191.823805477) rotate(-163.75599052552235,0,0)">
		<g>
			<path class="st1" d="M3,5.8l-3.4-5.3"/>
			<path class="st1" d="M-2.8,5.8l0-10.5l2.7,0l0,0c2.2,0,3.3,0.9,3.3,2.7l0,0l0,0c0,1-0.5,1.6-1.4,2l0,0l0,0C1.2,0.3,0.2,0.4-1,0.4
				l0,0l0,0c-0.2,0-0.6,0-1,0l0,0l0,0c-0.4,0-0.7,0-0.8,0l0,0"/>
		</g>
	</g>
	<g transform="translate(44.8994537707282,-194.68969939647616) rotate(-167.0134692312602,0,0)">
		<g>
			<path class="st1" d="M4.8,4.3L4.8,4.3C4,5,3.4,5.4,3,5.5l0,0l0,0C2.4,5.9,1.7,6,0.9,6l0,0l0,0c-1.6,0-3-0.4-4.1-1.3l0,0l0,0
				c-1.2-1-1.8-2.2-1.8-3.8l0,0l0,0c0-1.3,0.2-2.3,0.6-3.1l0,0l0,0C-3.8-3.1-3-3.8-1.9-4.4l0,0l0,0c0.9-0.5,1.6-0.7,2.3-0.7l0,0l0,0
				c0.9,0,1.7,0.2,2.5,0.5l0,0l0,0c0.6,0.3,1.3,0.8,2,1.4l0,0"/>
		</g>
	</g>
	<g transform="translate(33.16326773255993,-197.02851994901286) rotate(-170.44569576302797,0,0)">
		<g>
			<path class="st1" d="M-3.5,0.2l7,0"/>
			<path class="st1" d="M3.5,5.8l0-10.5"/>
			<path class="st1" d="M-3.5,5.8l0-10.5"/>
		</g>
	</g>
	<g transform="translate(-31.657984298994254,-197.27597935411356) rotate(-189.1168455273155,0,0)">
		<g>
			<path class="st1" d="M-2.9,2L3,2"/>
			<path class="st1" d="M-4.7,5.8L0-4.7L4.7,5.8"/>
		</g>
	</g>
	<g transform="translate(-42.12579458776412,-195.30862098317502) rotate(-192.17157194772372,0,0)">
		<g>
			<path class="st1" d="M-2.8,5.8l0-10.5l2.5,0l0,0c2.3,0,3.5,1,3.5,2.9l0,0l0,0c0,1.5-1.4,2.3-4.2,2.3l0,0l0,0c-0.3,0-0.6,0-1,0
				l0,0l0,0c-0.4,0-0.7,0-0.8,0l0,0"/>
		</g>
	</g>
	<g transform="translate(-51.44795179010384,-193.0625501142134) rotate(-194.92160985095148,0,0)">
		<g>
			<path class="st1" d="M3,5.8l-3.4-5.3"/>
			<path class="st1" d="M-2.8,5.8l0-10.5l2.7,0l0,0c2.2,0,3.3,0.9,3.3,2.7l0,0l0,0c0,1-0.5,1.6-1.4,2l0,0l0,0C1.2,0.3,0.2,0.4-1,0.4
				l0,0l0,0c-0.2,0-0.6,0-1,0l0,0l0,0c-0.4,0-0.7,0-0.8,0l0,0"/>
		</g>
	</g>
	<g transform="translate(-57.85748735327578,-191.23951254164382) rotate(-196.8326341535611,0,0)">
		<g>
			<path class="st1" d="M-0.1,5.8l0-10.4"/>
		</g>
	</g>
	<g transform="translate(-63.102959992,-189.57335371894453) rotate(-198.41096547969062,0,0)">
		<g>
			<path class="st1" d="M-1.7-4.8l0,10.6l4.4,0"/>
		</g>
	</g>
	<g transform="translate(-129.6343370038393,-152.03610975546243) rotate(-220.45273196528663,0,0)">
		<g>
			<path class="st1" d="M-5.8,5.8l1.4-10.5L0,5.2l4.5-9.9L5.9,5.8"/>
		</g>
	</g>
	<g transform="translate(-139.43846023013043,-143.0977141978527) rotate(-224.25797789492606,0,0)">
		<g>
			<path class="st1" d="M-2.9,2L3,2"/>
			<path class="st1" d="M-4.7,5.8L0-4.7L4.7,5.8"/>
		</g>
	</g>
	<g transform="translate(-146.86597638501277,-135.46374046392225) rotate(-227.31270431533426,0,0)">
		<g>
			<path class="st1" d="M3.3-4.8L0,0.5"/>
			<path class="st1" d="M-3.3-4.8L0,0.5l0,5.3"/>
		</g>
	</g>
	<g transform="translate(-186.70441032428357,-71.14424196982883) rotate(-249.14051673188078,0,0)">
		<g>
			<path class="st1" d="M1.9-4.7l0,8.6l0,0c0,0.6-0.2,1.1-0.7,1.5l0,0l0,0C0.7,5.8,0.2,6-0.4,6l0,0l0,0c-0.3,0-0.7-0.1-1.1-0.3l0,0
				l0,0c-0.1,0-0.4-0.2-1-0.6l0,0"/>
		</g>
	</g>
	<g transform="translate(-189.74802008149607,-62.57578505422184) rotate(-251.74829198186623,0,0)">
		<g>
			<path class="st1" d="M-3.2-4.7l0,7l0,0c0,1,0.2,1.9,0.7,2.6l0,0l0,0c0.6,0.8,1.3,1.2,2.3,1.2l0,0l0,0c1.1,0,2-0.4,2.6-1.1l0,0
				l0,0c0.5-0.7,0.8-1.6,0.8-2.7l0,0l0-7"/>
		</g>
	</g>
	<g transform="translate(-192.9445348363689,-51.88878950965452) rotate(-254.94752141226078,0,0)">
		<g>
			<path class="st1" d="M-3.9,5.8l0-10.5L4,5.8L4-4.7"/>
		</g>
	</g>
	<g transform="translate(-195.34246628336015,-41.9685699820033) rotate(-257.8745474982625,0,0)">
		<g>
			<path class="st1" d="M3.2,0l-5.6,0"/>
			<path class="st1" d="M3.2,5.8h-5.6V-4.8h5.6"/>
		</g>
	</g>
	<g transform="translate(-196.9362384563945,33.706942647563494) rotate(-279.71244152015686,0,0)">
		<g>
			<path class="st1" d="M1.9-4.7l0,8.6l0,0c0,0.6-0.2,1.1-0.7,1.5l0,0l0,0C0.7,5.8,0.2,6-0.4,6l0,0l0,0c-0.3,0-0.7-0.1-1.1-0.3l0,0
				l0,0c-0.1,0-0.4-0.2-1-0.6l0,0"/>
		</g>
	</g>
	<g transform="translate(-195.19867513328805,42.63234952719682) rotate(-282.32021677014234,0,0)">
		<g>
			<path class="st1" d="M-3.2-4.7l0,7l0,0c0,1,0.2,1.9,0.7,2.6l0,0l0,0c0.6,0.8,1.3,1.2,2.3,1.2l0,0l0,0c1.1,0,2-0.4,2.6-1.1l0,0
				l0,0c0.5-0.7,0.8-1.6,0.8-2.7l0,0l0-7"/>
		</g>
	</g>
	<g transform="translate(-193.09801314165347,51.31468913231218) rotate(-284.8820647068763,0,0)">
		<g>
			<path class="st1" d="M-1.7-4.8l0,10.6l4.4,0"/>
		</g>
	</g>
	<g transform="translate(-190.76181993816132,59.41353426518674) rotate(-287.299409633624,0,0)">
		<g>
			<path class="st1" d="M3.3-4.8L0,0.5"/>
			<path class="st1" d="M-3.3-4.8L0,0.5l0,5.3"/>
		</g>
	</g>
	<g transform="translate(-159.4357404895551,120.41712774579558) rotate(-307.06267849297404,0,0)">
		<g>
			<path class="st1" d="M-2.9,2L3,2"/>
			<path class="st1" d="M-4.7,5.8L0-4.7L4.7,5.8"/>
		</g>
	</g>
	<g transform="translate(-152.4670139179113,129.1272615172933) rotate(-310.26190792336854,0,0)">
		<g>
			<path class="st1" d="M-3.2-4.7l0,7l0,0c0,1,0.2,1.9,0.7,2.6l0,0l0,0c0.6,0.8,1.3,1.2,2.3,1.2l0,0l0,0c1.1,0,2-0.4,2.6-1.1l0,0
				l0,0c0.5-0.7,0.8-1.6,0.8-2.7l0,0l0-7"/>
		</g>
	</g>
	<g transform="translate(-144.2928532341013,138.20134769806734) rotate(-313.7647056925715,0,0)">
		<g>
			<path class="st1" d="M1.8,1.3l3.8,0l0,0C5.5,2.6,5,3.8,4.1,4.7l0,0l0,0C3.2,5.6,2,6.1,0.7,6.1l0,0l0,0c-1.6,0-3-0.5-4.2-1.4l0,0
				l0,0c-1.2-1-1.9-2.3-1.9-3.9l0,0l0,0c0-1.1,0.2-2,0.5-2.6l0,0l0,0c0.4-0.9,1.1-1.6,2-2.2l0,0l0,0c0.9-0.6,1.9-1,2.8-1l0,0l0,0
				c1.9,0,3.5,0.6,4.8,1.9l0,0"/>
		</g>
	</g>
	<g transform="translate(-135.57956141269767,146.7590628449928) rotate(-317.2675034617745,0,0)">
		<g>
			<path class="st1" d="M-3.2-4.7l0,7l0,0c0,1,0.2,1.9,0.7,2.6l0,0l0,0c0.6,0.8,1.3,1.2,2.3,1.2l0,0l0,0c1.1,0,2-0.4,2.6-1.1l0,0
				l0,0c0.5-0.7,0.8-1.6,0.8-2.7l0,0l0-7"/>
		</g>
	</g>
	<g transform="translate(-128.663236932875,152.85879582789755) rotate(-319.9122445980355,0,0)">
		<g>
			<path class="st1" d="M2-3.7L2-3.7C1.4-4.3,1-4.6,1-4.6l0,0l0,0C0.6-4.8,0.2-5-0.3-5l0,0l0,0c-0.6,0-1.1,0.2-1.5,0.6l0,0l0,0
				c-0.4,0.4-0.6,0.9-0.6,1.5l0,0l0,0c0,0.7,0.4,1.5,1.2,2.2l0,0l0,0C-0.4,0,0.4,0.6,1.1,1.2l0,0l0,0c0.8,0.7,1.2,1.5,1.2,2.2l0,0
				l0,0c0,0.8-0.3,1.5-0.8,1.9l0,0l0,0C1,5.8,0.4,6-0.4,6l0,0l0,0C-1,6-1.5,5.9-2,5.5l0,0l0,0C-2.1,5.3-2.5,4.9-3,4.2l0,0"/>
		</g>
	</g>
	<g transform="translate(-122.92224891761373,157.51241449814745) rotate(-322.03162207783464,0,0)">
		<g>
			<path class="st1" d="M-0.1,5.8l0-10.5"/>
			<path class="st1" d="M-2.6-4.7l5.2,0"/>
		</g>
	</g>
	<g transform="translate(-89.44028237980471,178.66302328075835) rotate(-333.4070501053717,0,0)">
		<g>
			<path class="st1" d="M2-3.7L2-3.7C1.4-4.3,1-4.6,1-4.6l0,0l0,0C0.6-4.8,0.2-5-0.3-5l0,0l0,0c-0.6,0-1.1,0.2-1.5,0.6l0,0l0,0
				c-0.4,0.4-0.6,0.9-0.6,1.5l0,0l0,0c0,0.7,0.4,1.5,1.2,2.2l0,0l0,0C-0.4,0,0.4,0.6,1.1,1.2l0,0l0,0c0.8,0.7,1.2,1.5,1.2,2.2l0,0
				l0,0c0,0.8-0.3,1.5-0.8,1.9l0,0l0,0C1,5.8,0.4,6-0.4,6l0,0l0,0C-1,6-1.5,5.9-2,5.5l0,0l0,0C-2.1,5.3-2.5,4.9-3,4.2l0,0"/>
		</g>
	</g>
	<g transform="translate(-81.9675420632555,182.2124091496198) rotate(-335.7795878972399,0,0)">
		<g>
			<path class="st1" d="M3.2,0l-5.6,0"/>
			<path class="st1" d="M3.2,5.8l-5.6,0l0-10.6l5.6,0"/>
		</g>
	</g>
	<g transform="translate(-73.65762077684845,185.72720560406327) rotate(-338.3671999365296,0,0)">
		<g>
			<path class="st1" d="M-2.8,5.8l0-10.5l2.5,0l0,0c2.3,0,3.5,1,3.5,2.9l0,0l0,0c0,1.5-1.4,2.3-4.2,2.3l0,0l0,0c-0.3,0-0.6,0-1,0
				l0,0l0,0c-0.4,0-0.7,0-0.8,0l0,0"/>
		</g>
	</g>
	<g transform="translate(-66.03133969359669,188.5733336881672) rotate(-340.7016516637503,0,0)">
		<g>
			<path class="st1" d="M-0.1,5.8l0-10.5"/>
			<path class="st1" d="M-2.6-4.7l5.2,0"/>
		</g>
	</g>
	<g transform="translate(-58.72124887250859,190.97605852790267) rotate(-342.90840305656434,0,0)">
		<g>
			<path class="st1" d="M3.2,0l-5.6,0"/>
			<path class="st1" d="M3.2,5.8l-5.6,0l0-10.6l5.6,0"/>
		</g>
	</g>
	<g transform="translate(-47.50137929933438,194.07127289905833) rotate(-346.24653460508523,0,0)">
		<g>
			<path class="st1" d="M-5.8,5.8l1.4-10.5L0,5.2l4.5-9.9L5.9,5.8"/>
		</g>
	</g>
	<g transform="translate(-35.820608078790045,196.5627737819797) rotate(-349.67204006662115,0,0)">
		<g>
			<path class="st1" d="M-0.4,0.1L-0.4,0.1C2,0.5,3.2,1.5,3.2,3l0,0l0,0c0,1.1-0.5,1.8-1.6,2.3l0,0l0,0C0.8,5.7-0.2,5.8-1.4,5.8l0,0
				l-1.3,0l0-10.5l1,0l0,0C0.9-4.8,2.2-4,2.2-2.5l0,0l0,0c0,0.6-0.3,1.2-0.8,1.7l0,0l0,0C0.9-0.2,0.3,0.1-0.4,0.1L-0.4,0.1l-2.2,0"
				/>
		</g>
	</g>
	<g transform="translate(-27.04920144617405,197.96055339669138) rotate(-352.2193256845193,0,0)">
		<g>
			<path class="st1" d="M3.2,0l-5.6,0"/>
			<path class="st1" d="M3.2,5.8l-5.6,0l0-10.6l5.6,0"/>
		</g>
	</g>
	<g transform="translate(-17.963695933736506,198.99081794997542) rotate(-354.8416632533405,0,0)">
		<g>
			<path class="st1" d="M3,5.8l-3.4-5.3"/>
			<path class="st1" d="M-2.8,5.8l0-10.5l2.7,0l0,0c2.2,0,3.3,0.9,3.3,2.7l0,0l0,0c0,1-0.5,1.6-1.4,2l0,0l0,0C1.2,0.3,0.2,0.4-1,0.4
				l0,0l0,0c-0.2,0-0.6,0-1,0l0,0l0,0c-0.4,0-0.7,0-0.8,0l0,0"/>
		</g>
	</g>
	<g transform="translate(19.27501689863141,198.86808120851742) rotate(-365.53602283070944,0,0)">
		<g>
			<path class="st1" d="M-5.5,0.3L-5.5,0.3c0-1.4,0.5-2.6,1.6-3.7l0,0l0,0C-2.7-4.5-1.5-5-0.1-5l0,0l0,0c1.6,0,2.9,0.5,4,1.6l0,0
				l0,0c1.1,1,1.6,2.3,1.6,3.9l0,0l0,0C5.5,2,5,3.3,3.9,4.4l0,0l0,0C2.9,5.5,1.6,6.1,0.1,6.1l0,0l0,0c-1.5,0-2.9-0.6-3.9-1.7l0,0
				l0,0C-4.9,3.2-5.5,1.9-5.5,0.3"/>
		</g>
	</g>
	<g transform="translate(32.615453821067696,197.11994361820877) rotate(-369.39503732220425,0,0)">
		<g>
			<path class="st1" d="M4.8,4.3L4.8,4.3C4,5,3.4,5.4,3,5.5l0,0l0,0C2.4,5.9,1.7,6,0.9,6l0,0l0,0c-1.6,0-3-0.4-4.1-1.3l0,0l0,0
				c-1.2-1-1.8-2.2-1.8-3.8l0,0l0,0c0-1.3,0.2-2.3,0.6-3.1l0,0l0,0C-3.8-3.1-3-3.8-1.9-4.4l0,0l0,0c0.9-0.5,1.6-0.7,2.3-0.7l0,0l0,0
				c0.9,0,1.7,0.2,2.5,0.5l0,0l0,0c0.6,0.3,1.3,0.8,2,1.4l0,0"/>
		</g>
	</g>
	<g transform="translate(42.348557750239834,195.26044058250665) rotate(-372.23692985193503,0,0)">
		<g>
			<path class="st1" d="M-0.1,5.8l0-10.5"/>
			<path class="st1" d="M-2.6-4.7l5.2,0"/>
		</g>
	</g>
	<g transform="translate(52.41111709971126,192.80330599956102) rotate(-375.2076428944442,0,0)">
		<g>
			<path class="st1" d="M-5.5,0.3L-5.5,0.3c0-1.4,0.5-2.6,1.6-3.7l0,0l0,0C-2.7-4.5-1.5-5-0.1-5l0,0l0,0c1.6,0,2.9,0.5,4,1.6l0,0
				l0,0c1.1,1,1.6,2.3,1.6,3.9l0,0l0,0C5.5,2,5,3.3,3.9,4.4l0,0l0,0C2.9,5.5,1.6,6.1,0.1,6.1l0,0l0,0c-1.5,0-2.9-0.6-3.9-1.7l0,0
				l0,0C-4.9,3.2-5.5,1.9-5.5,0.3"/>
		</g>
	</g>
	<g transform="translate(63.45993598421223,189.45415415049544) rotate(-378.51889016203734,0,0)">
		<g>
			<path class="st1" d="M-0.4,0.1L-0.4,0.1C2,0.5,3.2,1.5,3.2,3l0,0l0,0c0,1.1-0.5,1.8-1.6,2.3l0,0l0,0C0.8,5.7-0.2,5.8-1.4,5.8l0,0
				l-1.3,0l0-10.5l1,0l0,0C0.9-4.8,2.2-4,2.2-2.5l0,0l0,0c0,0.6-0.3,1.2-0.8,1.7l0,0l0,0C0.9-0.2,0.3,0.1-0.4,0.1L-0.4,0.1l-2.2,0"
				/>
		</g>
	</g>
	<g transform="translate(71.81730718229652,186.44654566144064) rotate(-381.06617577993546,0,0)">
		<g>
			<path class="st1" d="M3.2,0l-5.6,0"/>
			<path class="st1" d="M3.2,5.8l-5.6,0l0-10.6l5.6,0"/>
		</g>
	</g>
	<g transform="translate(80.2724864904525,182.96548284482546) rotate(-383.6885133487568,0,0)">
		<g>
			<path class="st1" d="M3,5.8l-3.4-5.3"/>
			<path class="st1" d="M-2.8,5.8l0-10.5h2.7l0,0c2.2,0,3.3,0.9,3.3,2.7l0,0l0,0c0,1-0.5,1.6-1.4,2l0,0l0,0C1.2,0.3,0.2,0.4-1,0.4
				l0,0l0,0c-0.2,0-0.6,0-1,0l0,0l0,0c-0.4,0-0.7,0-0.8,0l0,0"/>
		</g>
	</g>
	<g transform="translate(110.25145066783398,166.6273015614133) rotate(-393.4912109420242,0,0)">
		<g>
			<path class="st1" d="M-3.9,5.8l0-10.5L4,5.8L4-4.7"/>
		</g>
	</g>
	<g transform="translate(120.7494517705512,159.18420115423308) rotate(-397.18219867772103,0,0)">
		<g>
			<path class="st1" d="M-5.5,0.3L-5.5,0.3c0-1.4,0.5-2.6,1.6-3.7l0,0l0,0C-2.7-4.5-1.5-5-0.1-5l0,0l0,0c1.6,0,2.9,0.5,4,1.6l0,0
				l0,0c1.1,1,1.6,2.3,1.6,3.9l0,0l0,0C5.5,2,5,3.3,3.9,4.4l0,0l0,0C2.9,5.5,1.6,6.1,0.1,6.1l0,0l0,0c-1.5,0-2.9-0.6-3.9-1.7l0,0
				l0,0C-4.9,3.2-5.5,1.9-5.5,0.3"/>
		</g>
	</g>
	<g transform="translate(130.51893857506388,151.2773832178449) rotate(-400.78693267877475,0,0)">
		<g>
			<path class="st1" d="M-4.3-4.8L0,5.8L4.3-4.8"/>
		</g>
	</g>
	<g transform="translate(137.855932484686,144.62289541693494) rotate(-403.6277050301334,0,0)">
		<g>
			<path class="st1" d="M3.2,0l-5.6,0"/>
			<path class="st1" d="M3.2,5.8l-5.6,0l0-10.6l5.6,0"/>
		</g>
	</g>
	<g transform="translate(146.0431947032428,136.35037690036182) rotate(-406.9658365786544,0,0)">
		<g>
			<path class="st1" d="M-5.8,5.8l1.4-10.5L0,5.2l4.5-9.9L5.9,5.8"/>
		</g>
	</g>
	<g transform="translate(153.9292991975146,127.38057484782374) rotate(-410.39134204019024,0,0)">
		<g>
			<path class="st1" d="M-0.4,0.1L-0.4,0.1C2,0.5,3.2,1.5,3.2,3l0,0l0,0c0,1.1-0.5,1.8-1.6,2.3l0,0l0,0C0.8,5.7-0.2,5.8-1.4,5.8l0,0
				l-1.3,0l0-10.5l1,0l0,0C0.9-4.8,2.2-4,2.2-2.5l0,0l0,0c0,0.6-0.3,1.2-0.8,1.7l0,0l0,0C0.9-0.2,0.3,0.1-0.4,0.1L-0.4,0.1l-2.2,0"
				/>
		</g>
	</g>
	<g transform="translate(159.4384855536243,120.41349311587443) rotate(-412.9386276580884,0,0)">
		<g>
			<path class="st1" d="M3.2,0l-5.6,0"/>
			<path class="st1" d="M3.2,5.8l-5.6,0l0-10.6l5.6,0"/>
		</g>
	</g>
	<g transform="translate(164.78073493900484,112.99269619299045) rotate(-415.5609652269097,0,0)">
		<g>
			<path class="st1" d="M3,5.8l-3.4-5.3"/>
			<path class="st1" d="M-2.8,5.8l0-10.5l2.7,0l0,0c2.2,0,3.3,0.9,3.3,2.7l0,0l0,0c0,1-0.5,1.6-1.4,2l0,0l0,0C1.2,0.3,0.2,0.4-1,0.4
				l0,0l0,0c-0.2,0-0.6,0-1,0l0,0l0,0c-0.4,0-0.7,0-0.8,0l0,0"/>
		</g>
	</g>
	<g transform="translate(179.6754553395652,87.38861910180253) rotate(-424.06313573030036,0,0)">
		<g>
			<path class="st1" d="M-4.1,5.8l0-10.6l1.1,0l0,0c2,0,3.6,0.2,4.6,0.6l0,0l0,0C3.1-3.5,4-2.4,4.4-0.6l0,0l0,0
				C4.5,0.1,4.6,0.6,4.6,1l0,0l0,0c0,1.3-0.5,2.4-1.4,3.4l0,0l0,0c-0.9,1-2,1.5-3.3,1.5l0,0l0,0c-0.4,0-1.1,0-2,0l0,0l0,0
				C-3,5.8-3.7,5.8-4.1,5.8"/>
		</g>
	</g>
	<g transform="translate(183.9172013910965,78.06729809892782) rotate(-427.00024342165,0,0)">
		<g>
			<path class="st1" d="M3.2,0l-5.6,0"/>
			<path class="st1" d="M3.2,5.8l-5.6,0l0-10.6l5.6,0"/>
		</g>
	</g>
	<g transform="translate(187.86398399353044,68.02325718516089) rotate(-430.0952962634497,0,0)">
		<g>
			<path class="st1" d="M4.8,4.3L4.8,4.3C4,5,3.4,5.4,3,5.5l0,0l0,0C2.4,5.9,1.7,6,0.9,6l0,0l0,0c-1.6,0-3-0.4-4.1-1.3l0,0l0,0
				c-1.2-1-1.8-2.2-1.8-3.8l0,0l0,0c0-1.3,0.2-2.3,0.6-3.1l0,0l0,0C-3.8-3.1-3-3.8-1.9-4.4l0,0l0,0c0.9-0.5,1.6-0.7,2.3-0.7l0,0l0,0
				c0.9,0,1.7,0.2,2.5,0.5l0,0l0,0c0.6,0.3,1.3,0.8,2,1.4l0,0"/>
		</g>
	</g>
	<g transform="translate(191.26270573369115,57.78077011798536) rotate(-433.1903491052494,0,0)">
		<g>
			<path class="st1" d="M3.2,0l-5.6,0"/>
			<path class="st1" d="M3.2,5.8l-5.6,0l0-10.6l5.6,0"/>
		</g>
	</g>
	<g transform="translate(194.3026711434612,46.545805251558114) rotate(-436.5284806537704,0,0)">
		<g>
			<path class="st1" d="M-5.8,5.8l1.4-10.5L0,5.2l4.5-9.9L5.9,5.8"/>
		</g>
	</g>
	<g transform="translate(196.7366623387737,34.85291511192917) rotate(-439.9539861153062,0,0)">
		<g>
			<path class="st1" d="M-0.4,0.1L-0.4,0.1C2,0.5,3.2,1.5,3.2,3l0,0l0,0c0,1.1-0.5,1.8-1.6,2.3l0,0l0,0C0.8,5.7-0.2,5.8-1.4,5.8l0,0
				l-1.3,0l0-10.5l1,0l0,0C0.9-4.8,2.2-4,2.2-2.5l0,0l0,0c0,0.6-0.3,1.2-0.8,1.7l0,0l0,0C0.9-0.2,0.3,0.1-0.4,0.1L-0.4,0.1l-2.2,0"
				/>
		</g>
	</g>
	<g transform="translate(198.09126210434908,26.074736391880823) rotate(-442.5012717332044,0,0)">
		<g>
			<path class="st1" d="M3.2,0l-5.6,0"/>
			<path class="st1" d="M3.2,5.8h-5.6l0-10.6l5.6,0"/>
		</g>
	</g>
	<g transform="translate(199.07680561938662,16.98427108771437) rotate(-445.12360930202567,0,0)">
		<g>
			<path class="st1" d="M3,5.8l-3.4-5.3"/>
			<path class="st1" d="M-2.8,5.8l0-10.5l2.7,0l0,0c2.2,0,3.3,0.9,3.3,2.7l0,0l0,0c0,1-0.5,1.6-1.4,2l0,0l0,0C1.2,0.3,0.2,0.4-1,0.4
				l0,0l0,0c-0.2,0-0.6,0-1,0l0,0l0,0c-0.4,0-0.7,0-0.8,0l0,0"/>
		</g>
	</g>
</g>
</svg>
