<?xml version="1.0" encoding="utf-8"?>
<!-- Generator: Adobe Illustrator 22.0.1, SVG Export Plug-In . SVG Version: 6.00 Build 0)  -->
<svg version="1.1" id="Layer_1" xmlns="http://www.w3.org/2000/svg" xmlns:xlink="http://www.w3.org/1999/xlink" x="0px" y="0px"
	 viewBox="0 0 576 576" style="enable-background:new 0 0 576 576;" xml:space="preserve">
<style type="text/css">
	.st0{fill:none;stroke:#000000;stroke-linecap:round;stroke-linejoin:round;stroke-miterlimit:10;}
	.st1{fill:none;stroke:#FF0000;stroke-linecap:round;stroke-linejoin:round;stroke-miterlimit:10;}
</style>
<path class="st0" d="M70.2,288c0-120.3,97.5-217.8,217.8-217.8S505.8,167.7,505.8,288S408.3,505.8,288,505.8S70.2,408.3,70.2,288z"
	/>
<path class="st0" d="M124.2,288c0-90.5,73.3-163.8,163.8-163.8S451.8,197.5,451.8,288S378.5,451.8,288,451.8S124.2,378.5,124.2,288z
	"/>
<path class="st1" d="M459,285.1l-7.2,0.1"/>
<path class="st1" d="M458.9,282.1l-7.2,0.2"/>
<path class="st1" d="M458.8,279.2l-7.2,0.4"/>
<path class="st1" d="M458.6,276.2l-7.2,0.5"/>
<path class="st1" d="M458.4,273.3l-7.2,0.6"/>
<path class="st1" d="M458.1,270.4l-7.2,0.7"/>
<path class="st1" d="M457.8,267.5l-7.1,0.9"/>
<path class="st1" d="M457.4,264.5l-7.1,1"/>
<path class="st1" d="M457,261.6l-7.1,1.1"/>
<path class="st1" d="M463.6,257.5l-14.2,2.5"/>
<path class="st1" d="M455.9,255.8l-7.1,1.4"/>
<path class="st1" d="M455.4,253l-7,1.5"/>
<path class="st1" d="M454.7,250.1l-7,1.6"/>
<path class="st1" d="M454.1,247.2l-7,1.7"/>
<path class="st1" d="M453.3,244.4l-7,1.8"/>
<path class="st1" d="M452.6,241.5l-6.9,2"/>
<path class="st1" d="M451.7,238.7l-6.9,2.1"/>
<path class="st1" d="M450.9,235.9l-6.9,2.2"/>
<path class="st1" d="M449.9,233.1l-6.8,2.3"/>
<path class="st1" d="M455.8,227.9l-13.6,4.9"/>
<path class="st1" d="M448,227.6l-6.7,2.5"/>
<path class="st1" d="M446.9,224.8l-6.7,2.7"/>
<path class="st1" d="M445.8,222.1l-6.6,2.8"/>
<path class="st1" d="M444.6,219.4l-6.6,2.9"/>
<path class="st1" d="M443.4,216.7l-6.5,3"/>
<path class="st1" d="M442.2,214l-6.5,3.1"/>
<path class="st1" d="M440.9,211.4l-6.4,3.2"/>
<path class="st1" d="M439.5,208.8l-6.4,3.3"/>
<path class="st1" d="M438.2,206.2l-6.3,3.4"/>
<path class="st1" d="M443,200.1l-12.5,7.1"/>
<path class="st1" d="M451.8,288h54"/>
<path class="st1" d="M433.7,198.5l-6.1,3.8"/>
<path class="st1" d="M432.2,196.1l-6.1,3.9"/>
<path class="st1" d="M430.6,193.6l-6,4"/>
<path class="st1" d="M428.9,191.2l-5.9,4.1"/>
<path class="st1" d="M427.2,188.7l-5.9,4.2"/>
<path class="st1" d="M425.5,186.4l-5.8,4.3"/>
<path class="st1" d="M423.7,184l-5.7,4.4"/>
<path class="st1" d="M421.9,181.7l-5.6,4.5"/>
<path class="st1" d="M420.1,179.4l-5.6,4.6"/>
<path class="st1" d="M423.7,172.5l-11,9.3"/>
<path class="st1" d="M416.3,174.9l-5.4,4.8"/>
<path class="st1" d="M414.3,172.7l-5.3,4.9"/>
<path class="st1" d="M412.3,170.6l-5.2,4.9"/>
<path class="st1" d="M410.3,168.5l-5.1,5"/>
<path class="st1" d="M408.2,166.4l-5.1,5.1"/>
<path class="st1" d="M406.1,164.3l-5,5.2"/>
<path class="st1" d="M403.9,162.3l-4.9,5.3"/>
<path class="st1" d="M401.8,160.3l-4.8,5.4"/>
<path class="st1" d="M399.5,158.4l-4.7,5.5"/>
<path class="st1" d="M401.9,151l-9.2,11.1"/>
<path class="st1" d="M395,154.6l-4.5,5.6"/>
<path class="st1" d="M392.7,152.8l-4.4,5.7"/>
<path class="st1" d="M390.4,151l-4.3,5.8"/>
<path class="st1" d="M388,149.3l-4.2,5.8"/>
<path class="st1" d="M385.6,147.6l-4.1,5.9"/>
<path class="st1" d="M383.2,145.9l-4,6"/>
<path class="st1" d="M380.7,144.3l-3.9,6"/>
<path class="st1" d="M429.1,204.7l46.5-27.5"/>
<path class="st1" d="M375.1,140.8l-3.7,6.2"/>
<path class="st1" d="M372.6,139.4l-3.6,6.3"/>
<path class="st1" d="M370,137.9l-3.5,6.3"/>
<path class="st1" d="M367.4,136.5l-3.3,6.4"/>
<path class="st1" d="M364.8,135.2l-3.2,6.4"/>
<path class="st1" d="M362.1,133.9l-3.1,6.5"/>
<path class="st1" d="M359.5,132.7l-3,6.5"/>
<path class="st1" d="M356.8,131.4l-2.9,6.6"/>
<path class="st1" d="M354.1,130.3l-2.8,6.6"/>
<path class="st1" d="M354,122.5l-5.3,13.4"/>
<path class="st1" d="M348.6,128.1l-2.6,6.7"/>
<path class="st1" d="M345.9,127.1l-2.4,6.8"/>
<path class="st1" d="M343.1,126.1l-2.3,6.8"/>
<path class="st1" d="M340.3,125.2l-2.2,6.9"/>
<path class="st1" d="M337.5,124.3l-2.1,6.9"/>
<path class="st1" d="M334.7,123.5l-2,6.9"/>
<path class="st1" d="M331.8,122.7l-1.8,7"/>
<path class="st1" d="M329,122l-1.7,7"/>
<path class="st1" d="M326.1,121.3l-1.6,7"/>
<path class="st1" d="M324.7,113.6l-3,14.1"/>
<path class="st1" d="M320.4,120.1l-1.4,7.1"/>
<path class="st1" d="M317.5,119.6l-1.2,7.1"/>
<path class="st1" d="M314.6,119.1l-1.1,7.1"/>
<path class="st1" d="M311.7,118.6l-1,7.1"/>
<path class="st1" d="M308.7,118.3l-0.9,7.1"/>
<path class="st1" d="M305.8,117.9l-0.8,7.2"/>
<path class="st1" d="M302.9,117.6l-0.6,7.2"/>
<path class="st1" d="M300,117.4l-0.5,7.2"/>
<path class="st1" d="M297,117.2l-0.4,7.2"/>
<path class="st1" d="M294.3,109.9l-0.5,14.4"/>
<path class="st1" d="M373.8,148.5l28.3-46"/>
<path class="st1" d="M288.2,117l0,7.2"/>
<path class="st1" d="M285.3,117l0.1,7.2"/>
<path class="st1" d="M282.3,117.1l0.2,7.2"/>
<path class="st1" d="M279.4,117.2l0.4,7.2"/>
<path class="st1" d="M276.4,117.4l0.5,7.2"/>
<path class="st1" d="M273.5,117.6l0.6,7.2"/>
<path class="st1" d="M270.6,117.9l0.7,7.2"/>
<path class="st1" d="M267.7,118.2l0.9,7.1"/>
<path class="st1" d="M264.7,118.6l1,7.1"/>
<path class="st1" d="M260.7,111.9l2.2,14.2"/>
<path class="st1" d="M258.9,119.5l1.2,7.1"/>
<path class="st1" d="M256,120l1.3,7.1"/>
<path class="st1" d="M253.1,120.6l1.5,7"/>
<path class="st1" d="M250.3,121.2l1.6,7"/>
<path class="st1" d="M247.4,121.9l1.7,7"/>
<path class="st1" d="M244.6,122.6l1.8,7"/>
<path class="st1" d="M241.7,123.4l1.9,6.9"/>
<path class="st1" d="M238.9,124.2l2.1,6.9"/>
<path class="st1" d="M236.1,125.1l2.2,6.9"/>
<path class="st1" d="M231,119.2l4.6,13.6"/>
<path class="st1" d="M230.5,127l2.4,6.8"/>
<path class="st1" d="M227.7,128l2.5,6.7"/>
<path class="st1" d="M225,129l2.7,6.7"/>
<path class="st1" d="M222.3,130.1l2.8,6.6"/>
<path class="st1" d="M219.6,131.3l2.9,6.6"/>
<path class="st1" d="M216.9,132.5l3,6.5"/>
<path class="st1" d="M214.2,133.7l3.1,6.5"/>
<path class="st1" d="M211.6,135l3.2,6.4"/>
<path class="st1" d="M209,136.4l3.3,6.4"/>
<path class="st1" d="M291,124.2l1-54"/>
<path class="st1" d="M203.8,139.2l3.5,6.3"/>
<path class="st1" d="M201.2,140.6l3.7,6.2"/>
<path class="st1" d="M198.7,142.2l3.8,6.1"/>
<path class="st1" d="M196.2,143.7l3.9,6.1"/>
<path class="st1" d="M193.8,145.3l4,6"/>
<path class="st1" d="M191.3,147l4.1,5.9"/>
<path class="st1" d="M188.9,148.6l4.2,5.9"/>
<path class="st1" d="M186.5,150.4l4.3,5.8"/>
<path class="st1" d="M184.2,152.1l4.4,5.7"/>
<path class="st1" d="M177.4,148.3l8.9,11.3"/>
<path class="st1" d="M179.6,155.8l4.6,5.6"/>
<path class="st1" d="M177.3,157.7l4.7,5.5"/>
<path class="st1" d="M175.1,159.6l4.8,5.4"/>
<path class="st1" d="M172.9,161.6l4.8,5.3"/>
<path class="st1" d="M170.7,163.6l4.9,5.2"/>
<path class="st1" d="M168.6,165.6l5,5.2"/>
<path class="st1" d="M166.5,167.7l5.1,5.1"/>
<path class="st1" d="M164.5,169.8l5.2,5"/>
<path class="st1" d="M162.4,171.9l5.3,4.9"/>
<path class="st1" d="M155.1,169.3l10.7,9.6"/>
<path class="st1" d="M158.5,176.3l5.5,4.7"/>
<path class="st1" d="M156.6,178.5l5.5,4.6"/>
<path class="st1" d="M154.8,180.8l5.6,4.5"/>
<path class="st1" d="M152.9,183.1l5.7,4.4"/>
<path class="st1" d="M151.2,185.5l5.8,4.3"/>
<path class="st1" d="M149.4,187.8l5.8,4.2"/>
<path class="st1" d="M147.7,190.2l5.9,4.1"/>
<path class="st1" d="M146,192.7l6,4"/>
<path class="st1" d="M144.4,195.1l6,3.9"/>
<path class="st1" d="M136.7,193.8l12.2,7.6"/>
<path class="st1" d="M209.8,144.1L184,96.6"/>
<path class="st1" d="M139.8,202.6l6.2,3.6"/>
<path class="st1" d="M138.4,205.2l6.3,3.5"/>
<path class="st1" d="M137,207.8l6.4,3.4"/>
<path class="st1" d="M135.6,210.4l6.4,3.3"/>
<path class="st1" d="M134.3,213l6.5,3.2"/>
<path class="st1" d="M133,215.7l6.5,3"/>
<path class="st1" d="M131.8,218.4l6.6,2.9"/>
<path class="st1" d="M130.6,221.1l6.6,2.8"/>
<path class="st1" d="M129.5,223.8l6.7,2.7"/>
<path class="st1" d="M121.7,223.9l13.4,5.2"/>
<path class="st1" d="M127.4,229.3l6.8,2.5"/>
<path class="st1" d="M126.4,232l6.8,2.4"/>
<path class="st1" d="M125.5,234.8l6.8,2.2"/>
<path class="st1" d="M124.6,237.6l6.9,2.1"/>
<path class="st1" d="M123.7,240.5l6.9,2"/>
<path class="st1" d="M122.9,243.3l6.9,1.9"/>
<path class="st1" d="M122.2,246.1l7,1.8"/>
<path class="st1" d="M121.5,249l7,1.6"/>
<path class="st1" d="M120.9,251.9l7,1.5"/>
<path class="st1" d="M113.2,253.3l14.1,2.8"/>
<path class="st1" d="M119.7,257.6l7.1,1.3"/>
<path class="st1" d="M119.2,260.5l7.1,1.2"/>
<path class="st1" d="M118.8,263.4l7.1,1"/>
<path class="st1" d="M118.4,266.4l7.1,0.9"/>
<path class="st1" d="M118,269.3l7.2,0.8"/>
<path class="st1" d="M117.7,272.2l7.2,0.7"/>
<path class="st1" d="M117.5,275.1l7.2,0.5"/>
<path class="st1" d="M117.3,278.1l7.2,0.4"/>
<path class="st1" d="M117.1,281l7.2,0.3"/>
<path class="st1" d="M147.5,203.8l-46.3-27.8"/>
<path class="st1" d="M117,286.9l7.2,0"/>
<path class="st1" d="M117,289.8l7.2-0.1"/>
<path class="st1" d="M117.1,292.8l7.2-0.2"/>
<path class="st1" d="M117.2,295.7l7.2-0.3"/>
<path class="st1" d="M117.3,298.6l7.2-0.4"/>
<path class="st1" d="M117.5,301.6l7.2-0.6"/>
<path class="st1" d="M117.8,304.5l7.2-0.7"/>
<path class="st1" d="M118.1,307.4l7.2-0.8"/>
<path class="st1" d="M118.5,310.4l7.1-0.9"/>
<path class="st1" d="M111.8,314.3l14.2-2.1"/>
<path class="st1" d="M119.3,316.2l7.1-1.2"/>
<path class="st1" d="M119.8,319.1l7.1-1.3"/>
<path class="st1" d="M120.4,322l7.1-1.4"/>
<path class="st1" d="M121,324.8l7-1.6"/>
<path class="st1" d="M121.7,327.7l7-1.7"/>
<path class="st1" d="M122.4,330.6l7-1.8"/>
<path class="st1" d="M123.1,333.4l6.9-1.9"/>
<path class="st1" d="M123.9,336.2l6.9-2"/>
<path class="st1" d="M124.8,339l6.9-2.1"/>
<path class="st1" d="M118.9,344.1l13.7-4.5"/>
<path class="st1" d="M126.6,344.6l6.8-2.4"/>
<path class="st1" d="M127.6,347.4l6.8-2.5"/>
<path class="st1" d="M128.7,350.1l6.7-2.6"/>
<path class="st1" d="M129.8,352.9l6.7-2.7"/>
<path class="st1" d="M130.9,355.6l6.6-2.8"/>
<path class="st1" d="M132.1,358.3l6.6-3"/>
<path class="st1" d="M133.3,361l6.5-3.1"/>
<path class="st1" d="M134.6,363.6l6.5-3.2"/>
<path class="st1" d="M135.9,366.2l6.4-3.3"/>
<path class="st1" d="M131,372.2l12.7-6.8"/>
<path class="st1" d="M124.2,284.1l-54-1.3"/>
<path class="st1" d="M140.2,374l6.2-3.6"/>
<path class="st1" d="M141.7,376.5l6.2-3.7"/>
<path class="st1" d="M143.2,379l6.1-3.8"/>
<path class="st1" d="M144.8,381.5l6-3.9"/>
<path class="st1" d="M146.4,383.9l6-4"/>
<path class="st1" d="M148.1,386.3l5.9-4.1"/>
<path class="st1" d="M149.8,388.7l5.8-4.2"/>
<path class="st1" d="M151.6,391.1l5.7-4.3"/>
<path class="st1" d="M153.4,393.4l5.7-4.4"/>
<path class="st1" d="M149.6,400.3l11.2-9.1"/>
<path class="st1" d="M157.1,398l5.5-4.6"/>
<path class="st1" d="M159,400.2l5.4-4.7"/>
<path class="st1" d="M160.9,402.4l5.3-4.8"/>
<path class="st1" d="M162.9,404.6l5.3-4.9"/>
<path class="st1" d="M165,406.7l5.2-5"/>
<path class="st1" d="M167,408.8l5.1-5.1"/>
<path class="st1" d="M169.1,410.9l5-5.2"/>
<path class="st1" d="M171.2,412.9l4.9-5.3"/>
<path class="st1" d="M173.4,414.9l4.8-5.3"/>
<path class="st1" d="M170.9,422.3l9.5-10.9"/>
<path class="st1" d="M177.8,418.8l4.6-5.5"/>
<path class="st1" d="M180.1,420.7l4.5-5.6"/>
<path class="st1" d="M182.4,422.5l4.4-5.7"/>
<path class="st1" d="M184.7,424.3l4.3-5.7"/>
<path class="st1" d="M187.1,426.1l4.2-5.8"/>
<path class="st1" d="M189.5,427.8l4.1-5.9"/>
<path class="st1" d="M191.9,429.4l4-6"/>
<path class="st1" d="M194.4,431.1l3.9-6"/>
<path class="st1" d="M196.8,432.7l3.8-6.1"/>
<path class="st1" d="M195.6,440.4l7.5-12.3"/>
<path class="st1" d="M145,367.9l-47.1,26.3"/>
<path class="st1" d="M204.4,437.2l3.5-6.3"/>
<path class="st1" d="M207,438.6l3.4-6.3"/>
<path class="st1" d="M209.6,440l3.3-6.4"/>
<path class="st1" d="M212.2,441.3l3.2-6.5"/>
<path class="st1" d="M214.9,442.6l3.1-6.5"/>
<path class="st1" d="M217.5,443.8l3-6.6"/>
<path class="st1" d="M220.2,445l2.9-6.6"/>
<path class="st1" d="M222.9,446.1l2.7-6.7"/>
<path class="st1" d="M225.7,447.2l2.6-6.7"/>
<path class="st1" d="M225.9,455l5-13.5"/>
<path class="st1" d="M231.2,449.3l2.4-6.8"/>
<path class="st1" d="M234,450.2l2.3-6.8"/>
<path class="st1" d="M236.8,451.1l2.2-6.9"/>
<path class="st1" d="M239.6,452l2-6.9"/>
<path class="st1" d="M242.4,452.8l1.9-6.9"/>
<path class="st1" d="M245.2,453.6l1.8-7"/>
<path class="st1" d="M248.1,454.3l1.7-7"/>
<path class="st1" d="M251,454.9l1.6-7"/>
<path class="st1" d="M253.8,455.6l1.4-7.1"/>
<path class="st1" d="M255.4,463.2L258,449"/>
<path class="st1" d="M259.6,456.6l1.2-7.1"/>
<path class="st1" d="M262.5,457.1l1.1-7.1"/>
<path class="st1" d="M265.4,457.5l0.9-7.1"/>
<path class="st1" d="M268.4,457.9l0.8-7.2"/>
<path class="st1" d="M271.3,458.2l0.7-7.2"/>
<path class="st1" d="M274.2,458.4l0.6-7.2"/>
<path class="st1" d="M277.2,458.7l0.5-7.2"/>
<path class="st1" d="M280.1,458.8l0.3-7.2"/>
<path class="st1" d="M283,458.9l0.2-7.2"/>
<path class="st1" d="M205.5,429.5l-27.2,46.6"/>
<path class="st1" d="M288.9,459l0-7.2"/>
<path class="st1" d="M291.9,459l-0.2-7.2"/>
<path class="st1" d="M294.8,458.9l-0.3-7.2"/>
<path class="st1" d="M297.7,458.7l-0.4-7.2"/>
<path class="st1" d="M300.7,458.5l-0.5-7.2"/>
<path class="st1" d="M303.6,458.3l-0.7-7.2"/>
<path class="st1" d="M306.5,458l-0.8-7.2"/>
<path class="st1" d="M309.4,457.6l-0.9-7.1"/>
<path class="st1" d="M312.4,457.3l-1-7.1"/>
<path class="st1" d="M316.4,463.9l-2.3-14.2"/>
<path class="st1" d="M318.2,456.3l-1.3-7.1"/>
<path class="st1" d="M321.1,455.8l-1.4-7.1"/>
<path class="st1" d="M323.9,455.2l-1.5-7"/>
<path class="st1" d="M326.8,454.5l-1.6-7"/>
<path class="st1" d="M329.7,453.8l-1.8-7"/>
<path class="st1" d="M332.5,453.1l-1.9-7"/>
<path class="st1" d="M335.4,452.3l-2-6.9"/>
<path class="st1" d="M338.2,451.5l-2.1-6.9"/>
<path class="st1" d="M341,450.6l-2.2-6.8"/>
<path class="st1" d="M346.1,456.5l-4.7-13.6"/>
<path class="st1" d="M346.5,448.7l-2.5-6.8"/>
<path class="st1" d="M349.3,447.6l-2.6-6.7"/>
<path class="st1" d="M352,446.6l-2.7-6.7"/>
<path class="st1" d="M354.7,445.4l-2.8-6.6"/>
<path class="st1" d="M357.4,444.3l-2.9-6.6"/>
<path class="st1" d="M360.1,443l-3-6.5"/>
<path class="st1" d="M362.8,441.8l-3.1-6.5"/>
<path class="st1" d="M365.4,440.5l-3.3-6.4"/>
<path class="st1" d="M368,439.1l-3.4-6.4"/>
<path class="st1" d="M374.1,444l-7-12.6"/>
<path class="st1" d="M286.1,451.8l-0.6,54"/>
<path class="st1" d="M375.7,434.8l-3.7-6.2"/>
<path class="st1" d="M378.2,433.3l-3.8-6.1"/>
<path class="st1" d="M380.7,431.7l-3.9-6"/>
<path class="st1" d="M383.2,430.1l-4-6"/>
<path class="st1" d="M385.6,428.4l-4.1-5.9"/>
<path class="st1" d="M388,426.7l-4.2-5.8"/>
<path class="st1" d="M390.4,425l-4.3-5.8"/>
<path class="st1" d="M392.7,423.2l-4.4-5.7"/>
<path class="st1" d="M395,421.4l-4.5-5.6"/>
<path class="st1" d="M401.9,425l-9.2-11.1"/>
<path class="st1" d="M399.5,417.6l-4.7-5.5"/>
<path class="st1" d="M401.8,415.7l-4.8-5.4"/>
<path class="st1" d="M403.9,413.7l-4.9-5.3"/>
<path class="st1" d="M406.1,411.7l-5-5.2"/>
<path class="st1" d="M408.2,409.6l-5.1-5.1"/>
<path class="st1" d="M410.3,407.5l-5.1-5"/>
<path class="st1" d="M412.3,405.4l-5.2-4.9"/>
<path class="st1" d="M414.3,403.3l-5.3-4.9"/>
<path class="st1" d="M416.3,401.1l-5.4-4.8"/>
<path class="st1" d="M423.7,403.5l-11-9.3"/>
<path class="st1" d="M420.1,396.6l-5.6-4.6"/>
<path class="st1" d="M421.9,394.3l-5.6-4.5"/>
<path class="st1" d="M423.7,392l-5.7-4.4"/>
<path class="st1" d="M425.5,389.6l-5.8-4.3"/>
<path class="st1" d="M427.2,387.3l-5.9-4.2"/>
<path class="st1" d="M428.9,384.8l-5.9-4.1"/>
<path class="st1" d="M430.6,382.4l-6-4"/>
<path class="st1" d="M432.2,379.9l-6.1-3.9"/>
<path class="st1" d="M433.7,377.5l-6.1-3.8"/>
<path class="st1" d="M369.6,430l26.9,46.8"/>
<path class="st1" d="M436.7,372.4l-6.3-3.6"/>
<path class="st1" d="M438.2,369.8l-6.3-3.4"/>
<path class="st1" d="M439.5,367.2l-6.4-3.3"/>
<path class="st1" d="M440.9,364.6l-6.4-3.2"/>
<path class="st1" d="M442.2,362l-6.5-3.1"/>
<path class="st1" d="M443.4,359.3l-6.5-3"/>
<path class="st1" d="M444.6,356.6l-6.6-2.9"/>
<path class="st1" d="M445.8,353.9l-6.6-2.8"/>
<path class="st1" d="M446.9,351.2l-6.7-2.7"/>
<path class="st1" d="M454.7,351l-13.5-5.1"/>
<path class="st1" d="M449,345.7l-6.8-2.4"/>
<path class="st1" d="M449.9,342.9l-6.8-2.3"/>
<path class="st1" d="M450.9,340.1l-6.9-2.2"/>
<path class="st1" d="M451.7,337.3l-6.9-2.1"/>
<path class="st1" d="M452.6,334.5l-6.9-2"/>
<path class="st1" d="M453.3,331.6l-7-1.8"/>
<path class="st1" d="M454.1,328.8l-7-1.7"/>
<path class="st1" d="M454.7,325.9l-7-1.6"/>
<path class="st1" d="M455.4,323l-7-1.5"/>
<path class="st1" d="M463,321.5l-14.1-2.7"/>
<path class="st1" d="M456.5,317.3l-7.1-1.2"/>
<path class="st1" d="M457,314.4l-7.1-1.1"/>
<path class="st1" d="M457.4,311.5l-7.1-1"/>
<path class="st1" d="M457.8,308.5l-7.1-0.9"/>
<path class="st1" d="M458.1,305.6l-7.2-0.7"/>
<path class="st1" d="M458.4,302.7l-7.2-0.6"/>
<path class="st1" d="M458.6,299.8l-7.2-0.5"/>
<path class="st1" d="M458.8,296.8l-7.2-0.4"/>
<path class="st1" d="M458.9,293.9l-7.2-0.2"/>
<path class="st1" d="M466.2,291.1l-14.4-0.2"/>
<path class="st1" d="M429.1,371.3l46.5,27.5"/>
<path class="st1" d="M117,288c0-94.4,76.6-171,171-171s171,76.6,171,171s-76.6,171-171,171S117,382.4,117,288z"/>
<path class="st1" d="M109.8,288c0-98.4,79.8-178.2,178.2-178.2S466.2,189.6,466.2,288S386.4,466.2,288,466.2S109.8,386.4,109.8,288z
	"/>
<path class="st1" d="M93.6,288c0-107.4,87-194.4,194.4-194.4s194.4,87,194.4,194.4s-87,194.4-194.4,194.4S93.6,395.4,93.6,288z"/>
<g transform="translate(185.29012289887345,-6.382033854530606) rotate(-91.9726853204462,0,0)">
	<g>
		<path class="st1" d="M-298.8,274.1h1.2v8.5"/>
	</g>
</g>
<g transform="translate(162.8053257494766,-88.69941323146854) rotate(-118.58238197462539,0,0)">
	<g>
		<path class="st1" d="M-391.8,111.3h1.2v8.5"/>
	</g>
</g>
<g transform="translate(166.12838279375796,-82.30747493594144) rotate(-116.35588471912543,0,0)">
	<g>
		<path class="st1" d="M-388.2,127.8L-388.2,127.8c0.4-0.6,0.7-0.9,0.9-1.1l0,0l0,0c0.4-0.3,0.8-0.5,1.4-0.5l0,0l0,0
			c0.6,0,1,0.2,1.5,0.6l0,0l0,0c0.4,0.4,0.6,0.8,0.6,1.4l0,0l0,0c0,0.6-0.2,1-0.7,1.4l0,0l0,0c-0.4,0.3-0.9,0.5-1.5,0.6l0,0l0,0
			c1.8,0.3,2.7,1,2.7,2.2l0,0l0,0c0,0.9-0.3,1.6-0.9,2.1l0,0l0,0c-0.5,0.4-1.3,0.7-2.2,0.7l0,0l0,0c-0.5,0-1-0.2-1.4-0.6l0,0l0,0
			c-0.3-0.3-0.5-0.7-0.8-1.3l0,0"/>
	</g>
</g>
<g transform="translate(156.31650457678904,-99.69107481061029) rotate(-122.52775261551783,0,0)">
	<g>
		<path class="st1" d="M-398.7,84.2h1.2v8.5"/>
	</g>
</g>
<g transform="translate(102.54695590156591,-154.45802612788464) rotate(-146.41923105723413,0,0)">
	<g>
		<path class="st1" d="M-398.7-80.6L-398.7-80.6c-0.2,0-0.5,0-0.7,0.1l0,0l0,0c-0.2,0-0.4,0.1-0.6,0.1l0,0l0,0
			c-0.5,0.2-0.8,0.4-1.1,0.6l0,0l0,0c-0.3,0.3-0.6,0.7-0.7,1l0,0l0,0c-0.1,0.2-0.1,0.4-0.1,0.6l0,0l0,0c0,0.2,0,0.4,0.1,0.7l0,0l0,0
			c0.2,0.5,0.4,0.8,0.8,1.1l0,0l0,0c0.4,0.3,0.9,0.5,1.5,0.5l0,0l0,0c0.5,0,0.9,0,1.3-0.1l0,0l0,0c0.4-0.1,0.7-0.3,0.9-0.6l0,0l0,0
			c0.3-0.3,0.5-0.7,0.6-1.1l0,0l0,0c0.1-0.4,0.1-0.8,0-1.1l0,0l0,0c-0.1-0.3-0.2-0.6-0.5-0.9l0,0l0,0c-0.2-0.2-0.4-0.4-0.8-0.6l0,0
			l0,0c-0.3-0.2-0.7-0.3-1.2-0.3l0,0l0,0c-0.5,0-0.9-0.1-1.2-0.3l0,0l0,0c-0.4-0.3-0.7-0.6-0.9-1l0,0l0,0c-0.2-0.4-0.3-0.7-0.3-0.9
			l0,0l0,0c0-0.1,0-0.2,0-0.3l0,0l0,0c0.1-0.4,0.3-0.7,0.7-1.1l0,0l0,0c0.3-0.2,0.6-0.4,1.1-0.5l0,0l0,0c0.4-0.1,0.8-0.1,1.2,0l0,0
			l0,0c0.4,0.1,0.7,0.3,0.9,0.5l0,0l0,0c0.3,0.3,0.5,0.6,0.5,1l0,0l0,0c0.1,0.3,0.1,0.6-0.1,1l0,0l0,0c-0.1,0.3-0.3,0.7-0.7,1l0,0
			l0,0C-398.2-80.8-398.5-80.6-398.7-80.6"/>
	</g>
</g>
<g transform="translate(108.47022201234785,-150.357477155584) rotate(-144.19273380173416,0,0)">
	<g>
		<path class="st1" d="M-404.6-66.8L-404.6-66.8c0-0.2,0.2-0.5,0.3-1l0,0l0,0c0.2-0.3,0.4-0.5,0.6-0.7l0,0l0,0
			c0.2-0.2,0.4-0.3,0.7-0.4l0,0l0,0c0.3-0.1,0.5-0.2,0.8-0.2l0,0l0,0c0.3,0,0.6,0,0.9,0.1l0,0l0,0c0.3,0.1,0.6,0.3,0.9,0.5l0,0l0,0
			c0.2,0.2,0.4,0.5,0.6,0.8l0,0l0,0c0.1,0.3,0.2,0.6,0.2,0.9l0,0l0,0c0,0.2,0,0.5-0.1,0.9l0,0l0,0c-0.1,0.2-0.1,0.3-0.1,0.4l0,0l0,0
			c0,0.1-0.1,0.2-0.2,0.3l0,0l-4.4,4.8h5"/>
	</g>
</g>
<g transform="translate(91.67639936175648,-161.14775145829287) rotate(-150.36460169812656,0,0)">
	<g>
		<path class="st1" d="M-393.8-111.7h1.2v8.5"/>
	</g>
</g>
<g transform="translate(9.786137762522433,-185.1415445211931) rotate(-176.97429835230574,0,0)">
	<g>
		<path class="st1" d="M-303.9-276.2h1.2v8.5"/>
	</g>
</g>
<g transform="translate(16.971485538366142,-184.6215823749245) rotate(-174.74780109680574,0,0)">
	<g>
		<path class="st1" d="M-315.4-262.9L-315.4-262.9c0.4-0.6,0.7-0.9,0.9-1.1l0,0l0,0c0.4-0.3,0.8-0.5,1.4-0.5l0,0l0,0
			c0.6,0,1,0.2,1.5,0.6l0,0l0,0c0.4,0.4,0.6,0.8,0.6,1.4l0,0l0,0c0,0.6-0.2,1-0.7,1.4l0,0l0,0c-0.4,0.3-0.9,0.5-1.5,0.6l0,0l0,0
			c1.8,0.3,2.7,1,2.7,2.2l0,0l0,0c0,0.9-0.3,1.6-0.9,2.1l0,0l0,0c-0.5,0.4-1.3,0.7-2.2,0.7l0,0l0,0c-0.5,0-1-0.2-1.4-0.6l0,0l0,0
			c-0.3-0.3-0.5-0.7-0.8-1.3l0,0"/>
	</g>
</g>
<g transform="translate(-2.9757743284240568,-185.3761170354647) rotate(-180.91966899319814,0,0)">
	<g>
		<path class="st1" d="M-284.4-296.4h1.2v8.5"/>
	</g>
</g>
<g transform="translate(-82.85165278648019,-165.85766075327524) rotate(-206.5437183152782,0,0)">
	<g>
		<path class="st1" d="M-130.3-381.8L-130.3-381.8c-0.3-0.2-0.6-0.6-0.9-1.1l0,0l0,0c-0.1-0.3-0.2-0.6-0.3-0.9l0,0l0,0
			c0-0.1-0.1-0.4-0.1-0.9l0,0l0,0c-0.1-0.7-0.1-1.4,0-2.2l0,0l0,0c0.1-0.6,0.1-1,0.1-1.1l0,0l0,0c0.1-0.4,0.2-0.7,0.4-1l0,0l0,0
			c0.2-0.3,0.3-0.5,0.4-0.6l0,0l0,0c0.2-0.2,0.3-0.3,0.6-0.5l0,0l0,0c0.4-0.2,0.7-0.3,1.1-0.3l0,0l0,0c0.5,0,1,0.1,1.3,0.3l0,0l0,0
			c0.3,0.2,0.6,0.5,0.9,1l0,0l0,0c0.2,0.3,0.3,0.7,0.4,1.3l0,0l0,0c0.1,0.3,0.1,0.9,0.1,1.5l0,0l0,0c0,0.6,0,1.2-0.1,1.6l0,0l0,0
			c-0.1,0.6-0.1,1-0.2,1.2l0,0l0,0c-0.1,0.4-0.3,0.7-0.6,1.1l0,0l0,0c-0.3,0.3-0.6,0.5-0.8,0.7l0,0l0,0c-0.3,0.2-0.7,0.3-1,0.3l0,0
			l0,0C-129.4-381.4-129.8-381.5-130.3-381.8"/>
	</g>
</g>
<g transform="translate(-76.34554622285894,-168.9512283824338) rotate(-204.3172210597783,0,0)">
	<g>
		<path class="st1" d="M-146.1-383.5L-146.1-383.5c0.4-0.6,0.7-0.9,0.9-1.1l0,0l0,0c0.4-0.3,0.8-0.5,1.4-0.5l0,0l0,0
			c0.6,0,1,0.2,1.5,0.6l0,0l0,0c0.4,0.4,0.6,0.8,0.6,1.4l0,0l0,0c0,0.6-0.2,1-0.7,1.4l0,0l0,0c-0.4,0.3-0.9,0.5-1.5,0.6l0,0l0,0
			c1.8,0.3,2.7,1,2.7,2.2l0,0l0,0c0,0.9-0.3,1.6-0.9,2.1l0,0l0,0c-0.5,0.4-1.3,0.7-2.2,0.7l0,0l0,0c-0.5,0-1-0.2-1.4-0.6l0,0l0,0
			c-0.3-0.3-0.5-0.7-0.8-1.3l0,0"/>
	</g>
</g>
<g transform="translate(-94.06718976584925,-159.76396279998724) rotate(-210.48908895617063,0,0)">
	<g>
		<path class="st1" d="M-103.1-398.1h1.2v8.5"/>
	</g>
</g>
<g transform="translate(-155.6633884070774,-100.7078423442155) rotate(-237.09878561034984,0,0)">
	<g>
		<path class="st1" d="M84.3-402h1.2v8.5"/>
	</g>
</g>
<g transform="translate(-151.63337888453185,-106.67932512000633) rotate(-234.87228835484981,0,0)">
	<g>
		<path class="st1" d="M67.6-403.7L67.6-403.7c0.4-0.6,0.7-0.9,0.9-1.1l0,0l0,0c0.4-0.3,0.8-0.5,1.4-0.5l0,0l0,0
			c0.6,0,1,0.2,1.5,0.6l0,0l0,0c0.4,0.4,0.6,0.8,0.6,1.4l0,0l0,0c0,0.6-0.2,1-0.7,1.4l0,0l0,0c-0.4,0.3-0.9,0.5-1.5,0.6l0,0l0,0
			c1.8,0.3,2.7,1,2.7,2.2l0,0l0,0c0,0.9-0.3,1.6-0.9,2.1l0,0l0,0c-0.5,0.4-1.3,0.7-2.2,0.7l0,0l0,0c-0.5,0-1-0.2-1.4-0.6l0,0l0,0
			c-0.3-0.3-0.5-0.7-0.8-1.3l0,0"/>
	</g>
</g>
<g transform="translate(-162.22371639302747,-89.75870899046284) rotate(-241.04415625124224,0,0)">
	<g>
		<path class="st1" d="M111.5-395.2h1.2l0,8.5"/>
	</g>
</g>
<g transform="translate(-185.08662201800018,-10.775080044525563) rotate(-266.6682055733224,0,0)">
	<g>
		<path class="st1" d="M269.4-299.7L269.4-299.7c-0.3-0.2-0.6-0.6-0.9-1.1l0,0l0,0c-0.1-0.3-0.2-0.6-0.3-0.9l0,0l0,0
			c0-0.1-0.1-0.4-0.1-0.9l0,0l0,0c-0.1-0.7-0.1-1.4,0-2.2l0,0l0,0c0.1-0.6,0.1-1,0.1-1.1l0,0l0,0c0.1-0.4,0.2-0.7,0.4-1l0,0l0,0
			c0.2-0.3,0.3-0.5,0.4-0.6l0,0l0,0c0.2-0.2,0.3-0.3,0.6-0.5l0,0l0,0c0.4-0.2,0.7-0.3,1.1-0.3l0,0l0,0c0.5,0,1,0.1,1.3,0.3l0,0l0,0
			c0.3,0.2,0.6,0.5,0.9,1l0,0l0,0c0.2,0.3,0.3,0.7,0.4,1.3l0,0l0,0c0.1,0.3,0.1,0.9,0.1,1.5l0,0l0,0c0,0.6,0,1.2-0.1,1.6l0,0l0,0
			c-0.1,0.6-0.1,1-0.2,1.2l0,0l0,0c-0.1,0.4-0.3,0.7-0.6,1.1l0,0l0,0c-0.3,0.3-0.6,0.5-0.8,0.7l0,0l0,0c-0.3,0.2-0.7,0.3-1,0.3l0,0
			l0,0C270.3-299.3,269.9-299.4,269.4-299.7"/>
	</g>
</g>
<g transform="translate(-184.52828099822563,-17.957547489562224) rotate(-264.44170831782236,0,0)">
	<g>
		<path class="st1" d="M256.5-317L256.5-317c0.4-0.6,0.7-0.9,0.9-1.1l0,0l0,0c0.4-0.3,0.8-0.5,1.4-0.5l0,0l0,0c0.6,0,1,0.2,1.5,0.6
			l0,0l0,0c0.4,0.4,0.6,0.8,0.6,1.4l0,0l0,0c0,0.6-0.2,1-0.7,1.4l0,0l0,0c-0.4,0.3-0.9,0.5-1.5,0.6l0,0l0,0c1.8,0.3,2.7,1,2.7,2.2
			l0,0l0,0c0,0.9-0.3,1.6-0.9,2.1l0,0l0,0c-0.5,0.4-1.3,0.7-2.2,0.7l0,0l0,0c-0.5,0-1-0.2-1.4-0.6l0,0l0,0c-0.3-0.3-0.5-0.7-0.8-1.3
			l0,0"/>
	</g>
</g>
<g transform="translate(-185.38936916567854,1.9853967743896144) rotate(-270.6135762142148,0,0)">
	<g>
		<path class="st1" d="M290-288.7h1.2v8.5"/>
	</g>
</g>
<g transform="translate(-164.86335920051897,84.81292821923236) rotate(-297.2232728683939,0,0)">
	<g>
		<path class="st1" d="M386.8-128.1h1.2v8.5"/>
	</g>
</g>
<g transform="translate(-168.0338728813301,78.34396954776415) rotate(-294.99677561289394,0,0)">
	<g>
		<path class="st1" d="M380.5-141.8L380.5-141.8c0.4-0.6,0.7-0.9,0.9-1.1l0,0l0,0c0.4-0.3,0.8-0.5,1.4-0.5l0,0l0,0
			c0.6,0,1,0.2,1.5,0.6l0,0l0,0c0.4,0.4,0.6,0.8,0.6,1.4l0,0l0,0c0,0.6-0.2,1-0.7,1.4l0,0l0,0c-0.4,0.3-0.9,0.5-1.5,0.6l0,0l0,0
			c1.8,0.3,2.7,1,2.7,2.2l0,0l0,0c0,0.9-0.3,1.6-0.9,2.1l0,0l0,0c-0.5,0.4-1.3,0.7-2.2,0.7l0,0l0,0c-0.5,0-1-0.2-1.4-0.6l0,0l0,0
			c-0.3-0.3-0.5-0.7-0.8-1.3l0,0"/>
	</g>
</g>
<g transform="translate(-158.63707148595148,95.95540396643186) rotate(-301.16864350928637,0,0)">
	<g>
		<path class="st1" d="M394.4-101.1h1.2v8.5"/>
	</g>
</g>
<g transform="translate(-98.85456231873957,156.846853678263) rotate(-327.77834016346554,0,0)">
	<g>
		<path class="st1" d="M396.1,86.3l1.2,0v8.5"/>
	</g>
</g>
<g transform="translate(-104.87342175722716,152.8879505027481) rotate(-325.5518429079656,0,0)">
	<g>
		<path class="st1" d="M398.1,72.1L398.1,72.1c0.4-0.6,0.7-0.9,0.9-1.1l0,0l0,0c0.4-0.3,0.8-0.5,1.4-0.5l0,0l0,0
			c0.6,0,1,0.2,1.5,0.6l0,0l0,0c0.4,0.4,0.6,0.8,0.6,1.4l0,0l0,0c0,0.6-0.2,1-0.7,1.4l0,0l0,0c-0.4,0.3-0.9,0.5-1.5,0.6l0,0l0,0
			c1.8,0.3,2.7,1,2.7,2.2l0,0l0,0c0,0.9-0.3,1.6-0.9,2.1l0,0l0,0c-0.5,0.4-1.3,0.7-2.2,0.7l0,0l0,0c-0.5,0-1-0.2-1.4-0.6l0,0l0,0
			c-0.3-0.3-0.5-0.7-0.8-1.3l0,0"/>
	</g>
</g>
<g transform="translate(-87.82839235431928,163.2768614851956) rotate(-331.72371080435795,0,0)">
	<g>
		<path class="st1" d="M389,113.4h1.2v8.5"/>
	</g>
</g>
<g transform="translate(-8.579160360339857,185.20139850312032) rotate(-357.34776012643806,0,0)">
	<g>
		<path class="st1" d="M299.7,278.9L299.7,278.9c-0.3-0.2-0.6-0.6-0.9-1.1l0,0l0,0c-0.1-0.3-0.2-0.6-0.3-0.9l0,0l0,0
			c0-0.1-0.1-0.4-0.1-0.9l0,0l0,0c-0.1-0.7-0.1-1.4,0-2.2l0,0l0,0c0.1-0.6,0.1-1,0.1-1.1l0,0l0,0c0.1-0.4,0.2-0.7,0.4-1l0,0l0,0
			c0.2-0.3,0.3-0.5,0.4-0.6l0,0l0,0c0.2-0.2,0.3-0.3,0.6-0.5l0,0l0,0c0.4-0.2,0.7-0.3,1.1-0.3l0,0l0,0c0.5,0,1,0.1,1.3,0.3l0,0l0,0
			c0.3,0.2,0.6,0.5,0.9,1l0,0l0,0c0.2,0.3,0.3,0.7,0.4,1.3l0,0l0,0c0.1,0.3,0.1,0.9,0.1,1.5l0,0l0,0c0,0.6,0,1.2-0.1,1.6l0,0l0,0
			c-0.1,0.6-0.1,1-0.2,1.2l0,0l0,0c-0.1,0.4-0.3,0.7-0.6,1.1l0,0l0,0c-0.3,0.3-0.6,0.5-0.8,0.7l0,0l0,0c-0.3,0.2-0.7,0.3-1,0.3l0,0
			l0,0C300.6,279.3,300.1,279.2,299.7,278.9"/>
	</g>
</g>
<g transform="translate(-15.767744658770088,184.728282156187) rotate(-355.1212628709381,0,0)">
	<g>
		<path class="st1" d="M309.2,260L309.2,260c0.4-0.6,0.7-0.9,0.9-1.1l0,0l0,0c0.4-0.3,0.8-0.5,1.4-0.5l0,0l0,0c0.6,0,1,0.2,1.5,0.6
			l0,0l0,0c0.4,0.4,0.6,0.8,0.6,1.4l0,0l0,0c0,0.6-0.2,1-0.7,1.4l0,0l0,0c-0.4,0.3-0.9,0.5-1.5,0.6l0,0l0,0c1.8,0.3,2.7,1,2.7,2.2
			l0,0l0,0c0,0.9-0.3,1.6-0.9,2.1l0,0l0,0c-0.5,0.4-1.3,0.7-2.2,0.7l0,0l0,0c-0.5,0-1-0.2-1.4-0.6l0,0l0,0c-0.3-0.3-0.5-0.7-0.8-1.3
			l0,0"/>
	</g>
</g>
<g transform="translate(4.184009594613141,185.3527827244905) rotate(-361.2931307673304,0,0)">
	<g>
		<path class="st1" d="M280.4,290.6h1.2v8.5"/>
	</g>
</g>
<g transform="translate(86.76227310500548,163.84586648936994) rotate(-387.90282742150964,0,0)">
	<g>
		<path class="st1" d="M118.7,385.5h1.2v8.5"/>
	</g>
</g>
<g transform="translate(80.33137230742267,167.09288022895004) rotate(-385.6763301660097,0,0)">
	<g>
		<path class="st1" d="M132.5,381.9L132.5,381.9c0.4-0.6,0.7-0.9,0.9-1.1l0,0l0,0c0.4-0.3,0.8-0.5,1.4-0.5l0,0l0,0
			c0.6,0,1,0.2,1.5,0.6l0,0l0,0c0.4,0.4,0.6,0.8,0.6,1.4l0,0l0,0c0,0.6-0.2,1-0.7,1.4l0,0l0,0c-0.4,0.3-0.9,0.5-1.5,0.6l0,0l0,0
			c1.8,0.3,2.7,1,2.7,2.2l0,0l0,0c0,0.9-0.3,1.6-0.9,2.1l0,0l0,0c-0.5,0.4-1.3,0.7-2.2,0.7l0,0l0,0c-0.5,0-1-0.2-1.4-0.6l0,0l0,0
			c-0.3-0.3-0.5-0.7-0.8-1.3l0,0"/>
	</g>
</g>
<g transform="translate(97.83012021948487,157.4878648589825) rotate(-391.84819806240205,0,0)">
	<g>
		<path class="st1" d="M91.6,392.8h1.2v8.5"/>
	</g>
</g>
<g transform="translate(156.316504576789,99.69107481061036) rotate(-417.47224738448216,0,0)">
	<g>
		<path class="st1" d="M-89.3,402.2L-89.3,402.2c-0.3-0.2-0.6-0.6-0.9-1.1l0,0l0,0c-0.1-0.3-0.2-0.6-0.3-0.9l0,0l0,0
			c0-0.1-0.1-0.4-0.1-0.9l0,0l0,0c-0.1-0.7-0.1-1.4,0-2.2l0,0l0,0c0.1-0.6,0.1-1,0.1-1.1l0,0l0,0c0.1-0.4,0.2-0.7,0.4-1l0,0l0,0
			c0.2-0.3,0.3-0.5,0.4-0.6l0,0l0,0c0.2-0.2,0.3-0.3,0.6-0.5l0,0l0,0c0.4-0.2,0.7-0.3,1.1-0.3l0,0l0,0c0.5,0,1,0.1,1.3,0.3l0,0l0,0
			c0.3,0.2,0.6,0.5,0.9,1l0,0l0,0c0.2,0.3,0.3,0.7,0.4,1.3l0,0l0,0c0.1,0.3,0.1,0.9,0.1,1.5l0,0l0,0c0,0.6,0,1.2-0.1,1.6l0,0l0,0
			c-0.1,0.6-0.1,1-0.2,1.2l0,0l0,0c-0.1,0.4-0.3,0.7-0.6,1.1l0,0l0,0c-0.3,0.3-0.6,0.5-0.8,0.7l0,0l0,0c-0.3,0.2-0.7,0.3-1,0.3l0,0
			l0,0C-88.4,402.6-88.9,402.5-89.3,402.2"/>
	</g>
</g>
<g transform="translate(152.32550333439877,105.68869870483822) rotate(-415.2457501289822,0,0)">
	<g>
		<path class="st1" d="M-74.7,398.4L-74.7,398.4c0.4-0.6,0.7-0.9,0.9-1.1l0,0l0,0c0.4-0.3,0.8-0.5,1.4-0.5l0,0l0,0
			c0.6,0,1,0.2,1.5,0.6l0,0l0,0c0.4,0.4,0.6,0.8,0.6,1.4l0,0l0,0c0,0.6-0.2,1-0.7,1.4l0,0l0,0c-0.4,0.3-0.9,0.5-1.5,0.6l0,0l0,0
			c1.8,0.3,2.7,1,2.7,2.2l0,0l0,0c0,0.9-0.3,1.6-0.9,2.1l0,0l0,0c-0.5,0.4-1.3,0.7-2.2,0.7l0,0l0,0c-0.5,0-1-0.2-1.4-0.6l0,0l0,0
			c-0.3-0.3-0.5-0.7-0.8-1.3l0,0"/>
	</g>
</g>
<g transform="translate(162.80532574947648,88.69941323146877) rotate(-421.4176180253745,0,0)">
	<g>
		<path class="st1" d="M-116.2,386.9h1.2v8.5"/>
	</g>
</g>
<g transform="translate(185.29012289887345,6.382033854530648) rotate(-448.0273146795538,0,0)">
	<g>
		<path class="st1" d="M-279,294h1.2v8.5"/>
	</g>
</g>
<g transform="translate(184.902297777569,13.575723795628916) rotate(-445.80081742405383,0,0)">
	<g>
		<path class="st1" d="M-268.4,305.9L-268.4,305.9c0.4-0.6,0.7-0.9,0.9-1.1l0,0l0,0c0.4-0.3,0.8-0.5,1.4-0.5l0,0l0,0
			c0.6,0,1,0.2,1.5,0.6l0,0l0,0c0.4,0.4,0.6,0.8,0.6,1.4l0,0l0,0c0,0.6-0.2,1-0.7,1.4l0,0l0,0c-0.4,0.3-0.9,0.5-1.5,0.6l0,0l0,0
			c1.8,0.3,2.7,1,2.7,2.2l0,0l0,0c0,0.9-0.3,1.6-0.9,2.1l0,0l0,0c-0.5,0.4-1.3,0.7-2.2,0.7l0,0l0,0c-0.5,0-1-0.2-1.4-0.6l0,0l0,0
			c-0.3-0.3-0.5-0.7-0.8-1.3l0,0"/>
	</g>
</g>
<g transform="translate(204.11540008845517,-21.069965513258126) rotate(-95.89352610187896,0,0)">
	<g>
		<path class="st1" d="M-314.1,252.2v8.6l0,0c0,0.6-0.2,1.1-0.7,1.5l0,0l0,0c-0.5,0.4-1,0.6-1.6,0.6l0,0l0,0c-0.3,0-0.7-0.1-1.1-0.3
			l0,0l0,0c-0.1,0-0.4-0.2-1-0.6l0,0"/>
	</g>
</g>
<g transform="translate(202.8807667391897,-30.764175388241636) rotate(-98.62245748630826,0,0)">
	<g>
		<path class="st1" d="M-330.8,243.5l5.9,0"/>
		<path class="st1" d="M-332.6,247.4l4.7-10.5l4.7,10.5"/>
	</g>
</g>
<g transform="translate(200.76987575998427,-42.40868999769372) rotate(-101.92727846745166,0,0)">
	<g>
		<path class="st1" d="M-345.2,228.1v-10.5l7.9,10.5v-10.5"/>
	</g>
</g>
<g transform="translate(198.1686996347071,-53.25604646506568) rotate(-105.04231764967788,0,0)">
	<g>
		<path class="st1" d="M-356.1,198.7v7l0,0c0,1,0.2,1.9,0.7,2.6l0,0l0,0c0.6,0.8,1.3,1.2,2.3,1.2l0,0l0,0c1.1,0,2-0.4,2.6-1.1l0,0
			l0,0c0.5-0.7,0.8-1.6,0.8-2.7l0,0v-7"/>
	</g>
</g>
<g transform="translate(194.98191167582937,-63.94602504643334) rotate(-108.15735683190414,0,0)">
	<g>
		<path class="st1" d="M-366.3,185.9l5.9,0"/>
		<path class="st1" d="M-368.1,189.7l4.7-10.5l4.7,10.5"/>
	</g>
</g>
<g transform="translate(191.35748164841868,-74.09017625282799) rotate(-111.16550741474026,0,0)">
	<g>
		<path class="st1" d="M-369.5,170.3l-3.4-5.3"/>
		<path class="st1" d="M-375.4,170.4v-10.5h2.7l0,0c2.2,0,3.3,0.9,3.3,2.7l0,0l0,0c0,1-0.5,1.6-1.4,2l0,0l0,0
			c-0.7,0.3-1.6,0.4-2.9,0.4l0,0l0,0c-0.2,0-0.6,0-1,0l0,0l0,0c-0.4,0-0.7,0-0.8,0l0,0"/>
	</g>
</g>
<g transform="translate(187.68726999283345,-82.94895226967755) rotate(-113.84317589946204,0,0)">
	<g>
		<path class="st1" d="M-376.5,142.2l-3.3,5.3"/>
		<path class="st1" d="M-383.2,142.2l3.4,5.3v5.3"/>
	</g>
</g>
<g transform="translate(168.99231551303987,-116.3986138127993) rotate(-124.55831339374988,0,0)">
	<g>
		<path class="st1" d="M-397.8,73.9l-4.7,0"/>
		<path class="st1" d="M-402.5,79.6V69.1l4.7,0"/>
	</g>
</g>
<g transform="translate(164.22644120190824,-123.03136189669762) rotate(-126.83896708073696,0,0)">
	<g>
		<path class="st1" d="M-400,57.8h-5.6"/>
		<path class="st1" d="M-400,63.6h-5.6l0-10.6l5.6,0"/>
	</g>
</g>
<g transform="translate(158.74840602353927,-130.0230117517108) rotate(-129.31921886658517,0,0)">
	<g>
		<path class="st1" d="M-405.7,40.4L-405.7,40.4c2.4,0.4,3.6,1.4,3.6,2.9l0,0l0,0c0,1.1-0.5,1.8-1.6,2.3l0,0l0,0
			c-0.8,0.3-1.7,0.5-2.9,0.5l0,0l-1.3,0V35.6l1,0l0,0c2.6-0.1,3.9,0.7,3.9,2.2l0,0l0,0c0,0.6-0.3,1.2-0.8,1.7l0,0l0,0
			C-404.4,40.1-405,40.4-405.7,40.4L-405.7,40.4h-2.2"/>
	</g>
</g>
<g transform="translate(152.59483221863366,-137.1927737899014) rotate(-131.95762215153098,0,0)">
	<g>
		<path class="st1" d="M-403.7,27.4l-3.4-5.3"/>
		<path class="st1" d="M-409.5,27.4l0-10.5h2.7l0,0c2.2,0,3.3,0.9,3.3,2.7l0,0l0,0c0,1-0.5,1.6-1.4,2l0,0l0,0
			c-0.7,0.3-1.6,0.4-2.9,0.4l0,0l0,0c-0.2,0-0.6,0-1,0l0,0l0,0c-0.4,0-0.7,0-0.8,0l0,0"/>
	</g>
</g>
<g transform="translate(145.66449133852373,-144.52991373099601) rotate(-134.77599093544998,0,0)">
	<g>
		<path class="st1" d="M-410.5-3.1v7l0,0c0,1,0.2,1.9,0.7,2.6l0,0l0,0c0.6,0.8,1.3,1.2,2.3,1.2l0,0l0,0c1.1,0,2-0.4,2.6-1.1l0,0l0,0
			c0.5-0.7,0.8-1.6,0.8-2.7l0,0v-7"/>
	</g>
</g>
<g transform="translate(137.59537640678042,-152.23190333000642) rotate(-137.89103011767622,0,0)">
	<g>
		<path class="st1" d="M-409.7-18.6l5.9,0"/>
		<path class="st1" d="M-411.4-14.7l4.7-10.5l4.7,10.5"/>
	</g>
</g>
<g transform="translate(129.41695278738058,-159.24287215203358) rotate(-140.89918070051235,0,0)">
	<g>
		<path class="st1" d="M-402.1-36.1l-3.4-5.3"/>
		<path class="st1" d="M-408-36.1v-10.5h2.7l0,0c2.2,0,3.3,0.9,3.3,2.7l0,0l0,0c0,1-0.5,1.6-1.4,2l0,0l0,0c-0.7,0.3-1.6,0.4-2.9,0.4
			l0,0l0,0c-0.2,0-0.6,0-1,0l0,0l0,0c-0.4,0-0.7,0-0.8,0l0,0"/>
	</g>
</g>
<g transform="translate(121.83628149873391,-165.11499178015688) rotate(-143.57684918523415,0,0)">
	<g>
		<path class="st1" d="M-399.4-65.6l-3.3,5.3"/>
		<path class="st1" d="M-406.1-65.6l3.4,5.3v5.3"/>
	</g>
</g>
<g transform="translate(80.06950059785086,-188.93362610718813) rotate(-157.03291576388284,0,0)">
	<g>
		<path class="st1" d="M-383.4-147l1.4-10.5l4.5,9.9l4.5-9.9l1.4,10.5"/>
	</g>
</g>
<g transform="translate(67.69301309146064,-193.71292155816386) rotate(-160.73802364274223,0,0)">
	<g>
		<path class="st1" d="M-369.8-174.9l5.9,0"/>
		<path class="st1" d="M-371.5-171.1l4.7-10.5l4.7,10.5"/>
	</g>
</g>
<g transform="translate(57.434067854992165,-196.99839555089824) rotate(-163.74617422557836,0,0)">
	<g>
		<path class="st1" d="M-354.1-190.1l-3.4-5.3"/>
		<path class="st1" d="M-359.9-190.1l0-10.5h2.7l0,0c2.2,0,3.3,0.9,3.3,2.7l0,0l0,0c0,1-0.5,1.6-1.4,2l0,0l0,0
			c-0.7,0.3-1.6,0.4-2.9,0.4l0,0l0,0c-0.2,0-0.6,0-1,0l0,0l0,0c-0.4,0-0.7,0-0.8,0l0,0"/>
	</g>
</g>
<g transform="translate(46.44630302679032,-199.87441290756448) rotate(-166.917929807481,0,0)">
	<g>
		<path class="st1" d="M-340.9-211L-340.9-211c-0.8,0.6-1.4,1.1-1.8,1.2l0,0l0,0c-0.6,0.3-1.3,0.5-2.1,0.5l0,0l0,0
			c-1.6,0-3-0.4-4.1-1.3l0,0l0,0c-1.2-1-1.8-2.2-1.8-3.8l0,0l0,0c0-1.3,0.2-2.3,0.6-3.1l0,0l0,0c0.5-0.8,1.2-1.5,2.3-2.1l0,0l0,0
			c0.9-0.5,1.6-0.7,2.3-0.7l0,0l0,0c0.9,0,1.7,0.2,2.5,0.5l0,0l0,0c0.6,0.3,1.3,0.8,2,1.4l0,0"/>
	</g>
</g>
<g transform="translate(34.71580467032351,-202.24206512516616) rotate(-170.2598345884128,0,0)">
	<g>
		<path class="st1" d="M-336.1-235h7"/>
		<path class="st1" d="M-329.1-229.3v-10.5"/>
		<path class="st1" d="M-336.1-229.3v-10.5"/>
	</g>
</g>
<g transform="translate(-32.91632678236849,-202.54272495243157) rotate(-189.23074998071962,0,0)">
	<g>
		<path class="st1" d="M-241-328.5l5.9,0"/>
		<path class="st1" d="M-242.7-324.7l4.7-10.5l4.7,10.5"/>
	</g>
</g>
<g transform="translate(-43.38166179480908,-200.56188925097612) rotate(-192.2050888637487,0,0)">
	<g>
		<path class="st1" d="M-223.4-336.6v-10.5h2.5l0,0c2.3,0,3.5,1,3.5,2.9l0,0l0,0c0,1.5-1.4,2.3-4.2,2.3l0,0l0,0c-0.3,0-0.6,0-1,0
			l0,0l0,0c-0.4,0-0.7,0-0.8,0l0,0"/>
	</g>
</g>
<g transform="translate(-52.70397004674525,-198.3162412444119) rotate(-194.88275734847048,0,0)">
	<g>
		<path class="st1" d="M-201.3-346.5l-3.4-5.3"/>
		<path class="st1" d="M-207.2-346.5V-357h2.7l0,0c2.2,0,3.3,0.9,3.3,2.7l0,0l0,0c0,1-0.5,1.6-1.4,2l0,0l0,0
			c-0.7,0.3-1.6,0.4-2.9,0.4l0,0l0,0c-0.2,0-0.6,0-1,0l0,0l0,0c-0.4,0-0.7,0-0.8,0l0,0"/>
	</g>
</g>
<g transform="translate(-59.115553322295995,-196.50035968261938) rotate(-196.7434915378535,0,0)">
	<g>
		<path class="st1" d="M-192.9-353v-10.4"/>
	</g>
</g>
<g transform="translate(-64.36422110938322,-194.84426355677613) rotate(-198.2802878290849,0,0)">
	<g>
		<path class="st1" d="M-184.8-368.6l0,10.6l4.4,0"/>
	</g>
</g>
<g transform="translate(-133.35691257656094,-155.95824398872762) rotate(-220.53311950266578,0,0)">
	<g>
		<path class="st1" d="M-37.6-400.3l1.4-10.5l4.5,9.9l4.5-9.9l1.4,10.5"/>
	</g>
</g>
<g transform="translate(-143.1563981563813,-147.0145763755813) rotate(-224.23822738152523,0,0)">
	<g>
		<path class="st1" d="M-8.3-405.3l5.9,0"/>
		<path class="st1" d="M-10.1-401.5l4.7-10.5l4.7,10.5"/>
	</g>
</g>
<g transform="translate(-150.59194284148165,-139.38833075701828) rotate(-227.21256626455428,0,0)">
	<g>
		<path class="st1" d="M19-411.8l-3.3,5.3"/>
		<path class="st1" d="M12.4-411.8l3.4,5.3l0,5.3"/>
	</g>
</g>
<g transform="translate(-191.8987198086922,-72.67682805258538) rotate(-249.25707423932388,0,0)">
	<g>
		<path class="st1" d="M169.3-376.1v8.6l0,0c0,0.6-0.2,1.1-0.7,1.5l0,0l0,0c-0.5,0.4-1,0.6-1.6,0.6l0,0l0,0c-0.3,0-0.7-0.1-1.1-0.3
			l0,0l0,0c-0.1,0-0.4-0.2-1-0.6l0,0"/>
	</g>
</g>
<g transform="translate(-194.93004051558552,-64.10397261162677) rotate(-251.79622382483603,0,0)">
	<g>
		<path class="st1" d="M180.4-368.3v7l0,0c0,1,0.2,1.9,0.7,2.6l0,0l0,0c0.6,0.8,1.3,1.2,2.3,1.2l0,0l0,0c1.1,0,2-0.4,2.6-1.1l0,0
			l0,0c0.5-0.7,0.8-1.6,0.8-2.7l0,0v-7"/>
	</g>
</g>
<g transform="translate(-198.1254881316223,-53.416579379499794) rotate(-254.91126300706227,0,0)">
	<g>
		<path class="st1" d="M199.2-347.2v-10.5l7.9,10.5l0-10.5"/>
	</g>
</g>
<g transform="translate(-200.5363771948824,-43.4994416234492) rotate(-257.7612620908007,0,0)">
	<g>
		<path class="st1" d="M223.6-342.5l-5.6,0"/>
		<path class="st1" d="M223.6-336.7H218v-10.6h5.6"/>
	</g>
</g>
<g transform="translate(-202.19619197958474,34.98199463945586) rotate(-279.8155863655143,0,0)">
	<g>
		<path class="st1" d="M334.8-239.4v8.6l0,0c0,0.6-0.2,1.1-0.7,1.5l0,0l0,0c-0.5,0.4-1,0.6-1.6,0.6l0,0l0,0c-0.3,0-0.7-0.1-1.1-0.3
			l0,0l0,0c-0.1,0-0.4-0.2-1-0.6l0,0"/>
	</g>
</g>
<g transform="translate(-200.44789957965756,43.905347670910494) rotate(-282.3547359510265,0,0)">
	<g>
		<path class="st1" d="M339.7-224.4v7l0,0c0,1,0.2,1.9,0.7,2.6l0,0l0,0c0.6,0.8,1.3,1.2,2.3,1.2l0,0l0,0c1.1,0,2-0.4,2.6-1.1l0,0
			l0,0c0.5-0.7,0.8-1.6,0.8-2.7l0,0v-7"/>
	</g>
</g>
<g transform="translate(-198.34710565571407,52.587695119685684) rotate(-284.84916683679376,0,0)">
	<g>
		<path class="st1" d="M350.5-209.4v10.6l4.4,0"/>
	</g>
</g>
<g transform="translate(-196.0200511307088,60.6892045978057) rotate(-287.2028974233639,0,0)">
	<g>
		<path class="st1" d="M363.6-194.8l-3.3,5.3"/>
		<path class="st1" d="M357-194.8l3.4,5.3v5.3"/>
	</g>
</g>
<g transform="translate(-163.33926194899968,124.20678526536334) rotate(-307.2501609783908,0,0)">
	<g>
		<path class="st1" d="M400.7-53l5.9,0"/>
		<path class="st1" d="M398.9-49.1l4.7-10.5l4.7,10.5"/>
	</g>
</g>
<g transform="translate(-156.34840880371655,132.8992666065014) rotate(-310.36520016061706,0,0)">
	<g>
		<path class="st1" d="M402.7-37.6v7l0,0c0,1,0.2,1.9,0.7,2.6l0,0l0,0c0.6,0.8,1.3,1.2,2.3,1.2l0,0l0,0c1.1,0,2-0.4,2.6-1.1l0,0l0,0
			c0.5-0.7,0.8-1.6,0.8-2.7l0,0v-7"/>
	</g>
</g>
<g transform="translate(-148.16512664141095,141.96526070604267) rotate(-313.77581904115675,0,0)">
	<g>
		<path class="st1" d="M409-7.4l3.8,0l0,0c-0.1,1.3-0.6,2.5-1.5,3.4l0,0l0,0c-0.9,0.9-2.1,1.4-3.4,1.4l0,0l0,0c-1.6,0-3-0.5-4.2-1.4
			l0,0l0,0c-1.2-1-1.9-2.3-1.9-3.9l0,0l0,0c0-1.1,0.2-2,0.5-2.6l0,0l0,0c0.4-0.9,1.1-1.6,2-2.2l0,0l0,0c0.9-0.6,1.9-1,2.8-1l0,0l0,0
			c1.9,0,3.5,0.6,4.8,1.9l0,0"/>
	</g>
</g>
<g transform="translate(-139.45699004382416,150.52836253648923) rotate(-317.18643792169644,0,0)">
	<g>
		<path class="st1" d="M403.8,10.8v7l0,0c0,1,0.2,1.9,0.7,2.6l0,0l0,0c0.6,0.8,1.3,1.2,2.3,1.2l0,0l0,0c1.1,0,2-0.4,2.6-1.1l0,0l0,0
			c0.5-0.7,0.8-1.6,0.8-2.7l0,0v-7"/>
	</g>
</g>
<g transform="translate(-132.5529828733546,156.64209757078768) rotate(-319.7615806070033,0,0)">
	<g>
		<path class="st1" d="M407.9,30.1L407.9,30.1c-0.6-0.6-1-0.9-1-0.9l0,0l0,0c-0.4-0.2-0.8-0.4-1.3-0.4l0,0l0,0
			c-0.6,0-1.1,0.2-1.5,0.6l0,0l0,0c-0.4,0.4-0.6,0.9-0.6,1.5l0,0l0,0c0,0.7,0.4,1.5,1.2,2.2l0,0l0,0c0.8,0.6,1.5,1.2,2.3,1.8l0,0
			l0,0c0.8,0.7,1.2,1.5,1.2,2.2l0,0l0,0c0,0.8-0.3,1.5-0.8,1.9l0,0l0,0c-0.5,0.5-1.2,0.7-2,0.7l0,0l0,0c-0.6,0-1.1-0.2-1.5-0.6l0,0
			l0,0c-0.2-0.2-0.5-0.6-1.1-1.2l0,0"/>
	</g>
</g>
<g transform="translate(-126.82650780117068,161.31359805967878) rotate(-321.82518499522877,0,0)">
	<g>
		<path class="st1" d="M404.4,54.2V43.7"/>
		<path class="st1" d="M401.8,43.7h5.2"/>
	</g>
</g>
<g transform="translate(-90.94270085573542,183.94690853902443) rotate(-333.69237132806796,0,0)">
	<g>
		<path class="st1" d="M387.8,126.8L387.8,126.8c-0.6-0.6-1-0.9-1-0.9l0,0l0,0c-0.4-0.2-0.8-0.4-1.3-0.4l0,0l0,0
			c-0.6,0-1.1,0.2-1.5,0.6l0,0l0,0c-0.4,0.4-0.6,0.9-0.6,1.5l0,0l0,0c0,0.7,0.4,1.5,1.2,2.2l0,0l0,0c0.8,0.6,1.5,1.2,2.3,1.8l0,0
			l0,0c0.8,0.7,1.2,1.5,1.2,2.2l0,0l0,0c0,0.8-0.3,1.5-0.8,1.9l0,0l0,0c-0.5,0.5-1.2,0.7-2,0.7l0,0l0,0c-0.6,0-1.1-0.2-1.5-0.6l0,0
			l0,0c-0.2-0.2-0.5-0.6-1.1-1.2l0,0"/>
	</g>
</g>
<g transform="translate(-83.45426496132193,187.4631314679382) rotate(-336.00247391488705,0,0)">
	<g>
		<path class="st1" d="M383.4,146h-5.6"/>
		<path class="st1" d="M383.4,151.8h-5.6v-10.6h5.6"/>
	</g>
</g>
<g transform="translate(-75.13276784329209,190.95053599350274) rotate(-338.5219909005112,0,0)">
	<g>
		<path class="st1" d="M370.7,168.3v-10.5h2.5l0,0c2.3,0,3.5,1,3.5,2.9l0,0l0,0c0,1.5-1.4,2.3-4.2,2.3l0,0l0,0c-0.3,0-0.6,0-1,0l0,0
			l0,0c-0.4,0-0.7,0-0.8,0l0,0"/>
	</g>
</g>
<g transform="translate(-67.50031391096898,193.78015280704227) rotate(-340.79500968754184,0,0)">
	<g>
		<path class="st1" d="M366.7,183v-10.5"/>
		<path class="st1" d="M364.1,172.5h5.2"/>
	</g>
</g>
<g transform="translate(-60.18750685497996,196.1746773122916) rotate(-342.943688675282,0,0)">
	<g>
		<path class="st1" d="M363,190.8h-5.6"/>
		<path class="st1" d="M363,196.7h-5.6v-10.6h5.6"/>
	</g>
</g>
<g transform="translate(-48.96802158210645,199.27160576041527) rotate(-346.1939746567365,0,0)">
	<g>
		<path class="st1" d="M342.6,216.7l1.4-10.5l4.5,9.9l4.5-9.9l1.4,10.5"/>
	</g>
</g>
<g transform="translate(-37.29142252300368,201.78302655627607) rotate(-349.52933523770565,0,0)">
	<g>
		<path class="st1" d="M335.1,231L335.1,231c2.4,0.4,3.6,1.4,3.6,2.9l0,0l0,0c0,1.1-0.5,1.8-1.6,2.3l0,0l0,0
			c-0.8,0.3-1.7,0.5-2.9,0.5l0,0l-1.3,0v-10.5l1,0l0,0c2.6-0.1,3.9,0.7,3.9,2.2l0,0l0,0c0,0.6-0.3,1.2-0.8,1.7l0,0l0,0
			C336.4,230.7,335.8,231,335.1,231L335.1,231h-2.2"/>
	</g>
</g>
<g transform="translate(-28.524318948414937,203.20778338569886) rotate(-352.0095870235538,0,0)">
	<g>
		<path class="st1" d="M328.4,245.2h-5.6"/>
		<path class="st1" d="M328.4,251h-5.6v-10.6h5.6"/>
	</g>
</g>
<g transform="translate(-19.44324666370873,204.27677342070535) rotate(-354.56291570898503,0,0)">
	<g>
		<path class="st1" d="M317,265.2l-3.4-5.3"/>
		<path class="st1" d="M311.2,265.2v-10.5h2.7l0,0c2.2,0,3.3,0.9,3.3,2.7l0,0l0,0c0,1-0.5,1.6-1.4,2l0,0l0,0
			c-0.7,0.3-1.6,0.4-2.9,0.4l0,0l0,0c-0.2,0-0.6,0-1,0l0,0l0,0c-0.4,0-0.7,0-0.8,0l0,0"/>
	</g>
</g>
<g transform="translate(20.619011868639365,204.1614467757341) rotate(-365.76695644560806,0,0)">
	<g>
		<path class="st1" d="M252.2,315.8L252.2,315.8c0-1.4,0.5-2.6,1.6-3.7l0,0l0,0c1.1-1.1,2.3-1.6,3.7-1.6l0,0l0,0
			c1.6,0,2.9,0.5,4,1.6l0,0l0,0c1.1,1,1.6,2.3,1.6,3.9l0,0l0,0c0,1.5-0.5,2.8-1.6,3.9l0,0l0,0c-1.1,1.1-2.3,1.7-3.8,1.7l0,0l0,0
			c-1.5,0-2.9-0.6-3.9-1.7l0,0l0,0C252.7,318.7,252.2,317.4,252.2,315.8"/>
	</g>
</g>
<g transform="translate(33.95401704533012,202.37135352239318) rotate(-369.5244179241687,0,0)">
	<g>
		<path class="st1" d="M241.2,336L241.2,336c-0.8,0.6-1.4,1.1-1.8,1.2l0,0l0,0c-0.6,0.3-1.3,0.5-2.1,0.5l0,0l0,0
			c-1.6,0-3-0.4-4.1-1.3l0,0l0,0c-1.2-1-1.8-2.2-1.8-3.8l0,0l0,0c0-1.3,0.2-2.3,0.6-3.1l0,0l0,0c0.5-0.8,1.2-1.5,2.3-2.1l0,0l0,0
			c0.9-0.5,1.6-0.7,2.3-0.7l0,0l0,0c0.9,0,1.7,0.2,2.5,0.5l0,0l0,0c0.6,0.3,1.3,0.8,2,1.4l0,0"/>
	</g>
</g>
<g transform="translate(43.68417484238064,200.49621659358144) rotate(-372.2915238083802,0,0)">
	<g>
		<path class="st1" d="M220,348.5V338"/>
		<path class="st1" d="M217.5,338h5.2"/>
	</g>
</g>
<g transform="translate(53.746127404033096,198.03634461651086) rotate(-375.18406019187603,0,0)">
	<g>
		<path class="st1" d="M197.1,353.7L197.1,353.7c0-1.4,0.5-2.6,1.6-3.7l0,0l0,0c1.1-1.1,2.3-1.6,3.7-1.6l0,0l0,0
			c1.6,0,2.9,0.5,4,1.6l0,0l0,0c1.1,1,1.6,2.3,1.6,3.9l0,0l0,0c0,1.5-0.5,2.8-1.6,3.9l0,0l0,0c-1.1,1.1-2.3,1.7-3.8,1.7l0,0l0,0
			c-1.5,0-2.9-0.6-3.9-1.7l0,0l0,0C197.6,356.6,197.1,355.3,197.1,353.7"/>
	</g>
</g>
<g transform="translate(64.79894386323335,194.70012037543668) rotate(-378.4081693734799,0,0)">
	<g>
		<path class="st1" d="M181.9,364.3L181.9,364.3c2.4,0.4,3.6,1.4,3.6,2.9l0,0l0,0c0,1.1-0.5,1.8-1.6,2.3l0,0l0,0
			c-0.8,0.3-1.7,0.5-2.9,0.5l0,0l-1.3,0l0-10.5l1,0l0,0c2.6-0.1,3.9,0.7,3.9,2.2l0,0l0,0c0,0.6-0.3,1.2-0.8,1.7l0,0l0,0
			C183.2,364,182.6,364.3,181.9,364.3L181.9,364.3h-2.2"/>
	</g>
</g>
<g transform="translate(73.16389577598036,191.71354765608373) rotate(-380.88842115932806,0,0)">
	<g>
		<path class="st1" d="M169.6,371.7H164"/>
		<path class="st1" d="M169.6,377.6H164V367h5.6"/>
	</g>
</g>
<g transform="translate(81.63195143708253,188.26381623820814) rotate(-383.44174984475933,0,0)">
	<g>
		<path class="st1" d="M152.7,384.6l-3.4-5.3"/>
		<path class="st1" d="M146.8,384.6l0-10.5h2.7l0,0c2.2,0,3.3,0.9,3.3,2.7l0,0l0,0c0,1-0.5,1.6-1.4,2l0,0l0,0
			c-0.7,0.3-1.6,0.4-2.9,0.4l0,0l0,0c-0.2,0-0.6,0-1,0l0,0l0,0c-0.4,0-0.7,0-0.8,0l0,0"/>
	</g>
</g>
<g transform="translate(114.08516723343958,170.56264132956588) rotate(-393.7775933863361,0,0)">
	<g>
		<path class="st1" d="M75.4,405.3v-10.5l7.9,10.5v-10.5"/>
	</g>
</g>
<g transform="translate(124.55227802871258,163.0759640102069) rotate(-397.3714498658304,0,0)">
	<g>
		<path class="st1" d="M48.6,404L48.6,404c0-1.4,0.5-2.6,1.6-3.7l0,0l0,0c1.1-1.1,2.3-1.6,3.7-1.6l0,0l0,0c1.6,0,2.9,0.5,4,1.6l0,0
			l0,0c1.1,1,1.6,2.3,1.6,3.9l0,0l0,0c0,1.5-0.5,2.8-1.6,3.9l0,0l0,0c-1.1,1.1-2.3,1.7-3.8,1.7l0,0l0,0c-1.5,0-2.9-0.6-3.9-1.7l0,0
			l0,0C49.1,406.9,48.6,405.6,48.6,404"/>
	</g>
</g>
<g transform="translate(134.30224722303717,155.14492060922333) rotate(-400.88132244580373,0,0)">
	<g>
		<path class="st1" d="M25,401.4l4.2,10.6l4.4-10.6"/>
	</g>
</g>
<g transform="translate(141.6326550666825,148.48310011163608) rotate(-403.6473376300214,0,0)">
	<g>
		<path class="st1" d="M12.8,407.2H7.3"/>
		<path class="st1" d="M12.8,413H7.3l0-10.6h5.6"/>
	</g>
</g>
<g transform="translate(149.82348380336714,140.2139925293556) rotate(-406.89762361147604,0,0)">
	<g>
		<path class="st1" d="M-19.3,412.9l1.4-10.5l4.5,9.9l4.5-9.9l1.4,10.5"/>
	</g>
</g>
<g transform="translate(157.72736913769862,131.25973116268435) rotate(-410.2329841924452,0,0)">
	<g>
		<path class="st1" d="M-37.5,405.7L-37.5,405.7c2.4,0.4,3.6,1.4,3.6,2.9l0,0l0,0c0,1.1-0.5,1.8-1.6,2.3l0,0l0,0
			c-0.8,0.3-1.7,0.5-2.9,0.5l0,0l-1.3,0l0-10.5l1,0l0,0c2.6-0.1,3.9,0.7,3.9,2.2l0,0l0,0c0,0.6-0.3,1.2-0.8,1.7l0,0l0,0
			C-36.3,405.4-36.9,405.7-37.5,405.7L-37.5,405.7h-2.2"/>
	</g>
</g>
<g transform="translate(163.2598799107026,124.31110815829359) rotate(-412.7132359782933,0,0)">
	<g>
		<path class="st1" d="M-51.5,403.6H-57"/>
		<path class="st1" d="M-51.5,409.4H-57l0-10.6h5.6"/>
	</g>
</g>
<g transform="translate(168.63575964596876,116.91458663754092) rotate(-415.2665646637246,0,0)">
	<g>
		<path class="st1" d="M-69.6,406.5l-3.4-5.3"/>
		<path class="st1" d="M-75.4,406.6l0-10.5h2.7l0,0c2.2,0,3.3,0.9,3.3,2.7l0,0l0,0c0,1-0.5,1.6-1.4,2l0,0l0,0
			c-0.7,0.3-1.6,0.4-2.9,0.4l0,0l0,0c-0.2,0-0.6,0-1,0l0,0l0,0c-0.4,0-0.7,0-0.8,0l0,0"/>
	</g>
</g>
<g transform="translate(184.95704401542542,88.87030926623352) rotate(-424.3361055125267,0,0)">
	<g>
		<path class="st1" d="M-139,390.1v-10.6l1.1,0l0,0c2,0,3.6,0.2,4.6,0.6l0,0l0,0c1.4,0.6,2.3,1.8,2.7,3.5l0,0l0,0
			c0.2,0.8,0.3,1.3,0.3,1.6l0,0l0,0c0,1.3-0.5,2.4-1.4,3.4l0,0l0,0c-0.9,1-2,1.5-3.3,1.5l0,0l0,0c-0.4,0-1.1,0-2,0l0,0l0,0
			C-137.8,390.1-138.5,390.1-139,390.1"/>
	</g>
</g>
<g transform="translate(189.1606570245176,79.53166560592595) rotate(-427.19592089620915,0,0)">
	<g>
		<path class="st1" d="M-150.7,377.1h-5.6"/>
		<path class="st1" d="M-150.7,382.9h-5.6v-10.6h5.6"/>
	</g>
</g>
<g transform="translate(193.0802864572197,69.47692409424862) rotate(-430.20952497901413,0,0)">
	<g>
		<path class="st1" d="M-168.7,372.8L-168.7,372.8c-0.8,0.6-1.4,1.1-1.8,1.2l0,0l0,0c-0.6,0.3-1.3,0.5-2.1,0.5l0,0l0,0
			c-1.6,0-3-0.4-4.1-1.3l0,0l0,0c-1.2-1-1.8-2.2-1.8-3.8l0,0l0,0c0-1.3,0.2-2.3,0.6-3.1l0,0l0,0c0.5-0.8,1.2-1.5,2.3-2.1l0,0l0,0
			c0.9-0.5,1.6-0.7,2.3-0.7l0,0l0,0c0.9,0,1.7,0.2,2.5,0.5l0,0l0,0c0.6,0.3,1.3,0.8,2,1.4l0,0"/>
	</g>
</g>
<g transform="translate(196.4658867735104,59.23002054953385) rotate(-433.2231290618192,0,0)">
	<g>
		<path class="st1" d="M-189.4,358.9h-5.6"/>
		<path class="st1" d="M-189.4,364.7h-5.6v-10.6h5.6"/>
	</g>
</g>
<g transform="translate(199.50805943933486,47.995564573727385) rotate(-436.4734150432737,0,0)">
	<g>
		<path class="st1" d="M-218.5,353.2l1.4-10.5l4.5,9.9l4.5-9.9l1.4,10.5"/>
	</g>
</g>
<g transform="translate(201.9625020106503,36.30685584842175) rotate(-439.80877562424286,0,0)">
	<g>
		<path class="st1" d="M-232.9,334.5L-232.9,334.5c2.4,0.4,3.6,1.4,3.6,2.9l0,0l0,0c0,1.1-0.5,1.8-1.6,2.3l0,0l0,0
			c-0.8,0.3-1.7,0.5-2.9,0.5l0,0l-1.3,0v-10.5l1,0l0,0c2.6-0.1,3.9,0.7,3.9,2.2l0,0l0,0c0,0.6-0.3,1.2-0.8,1.7l0,0l0,0
			C-231.6,334.2-232.2,334.5-232.9,334.5L-232.9,334.5h-2.2"/>
	</g>
</g>
<g transform="translate(203.34448354317976,27.5329078115172) rotate(-442.289027410091,0,0)">
	<g>
		<path class="st1" d="M-243.5,324h-5.6"/>
		<path class="st1" d="M-243.5,329.8h-5.6v-10.6h5.6"/>
	</g>
</g>
<g transform="translate(204.36917124459922,18.446729921470943) rotate(-444.84235609552235,0,0)">
	<g>
		<path class="st1" d="M-257.9,318.5l-3.4-5.3"/>
		<path class="st1" d="M-263.8,318.5l0-10.5h2.7l0,0c2.2,0,3.3,0.9,3.3,2.7l0,0l0,0c0,1-0.5,1.6-1.4,2l0,0l0,0
			c-0.7,0.3-1.6,0.4-2.9,0.4l0,0l0,0c-0.2,0-0.6,0-1,0l0,0l0,0c-0.4,0-0.7,0-0.8,0l0,0"/>
	</g>
</g>
</svg>
