<?xml version="1.0" encoding="utf-8"?>
<!-- Generator: Adobe Illustrator 22.0.1, SVG Export Plug-In . SVG Version: 6.00 Build 0)  -->
<svg version="1.1" id="Layer_1" xmlns="http://www.w3.org/2000/svg" xmlns:xlink="http://www.w3.org/1999/xlink" x="0px" y="0px"
	 viewBox="0 0 576 576" style="enable-background:new 0 0 576 576;" xml:space="preserve">
<style type="text/css">
	.st0{fill:none;stroke:#000000;stroke-linecap:round;stroke-linejoin:round;stroke-miterlimit:10;}
	.st1{fill:none;stroke:#FF0000;stroke-linecap:round;stroke-linejoin:round;stroke-miterlimit:10;}
</style>
<path class="st0" d="M75.6,288c0-117.3,95.1-212.4,212.4-212.4S500.4,170.7,500.4,288S405.3,500.4,288,500.4S75.6,405.3,75.6,288z"
	/>
<path class="st0" d="M129.6,288c0-87.5,70.9-158.4,158.4-158.4S446.4,200.5,446.4,288S375.5,446.4,288,446.4S129.6,375.5,129.6,288z
	"/>
<path class="st1" d="M453.6,285.2l-7.2,0.1"/>
<path class="st1" d="M453.5,282.3l-7.2,0.2"/>
<path class="st1" d="M453.4,279.5l-7.2,0.4"/>
<path class="st1" d="M453.2,276.6l-7.2,0.5"/>
<path class="st1" d="M453,273.8l-7.2,0.6"/>
<path class="st1" d="M452.7,270.9l-7.2,0.7"/>
<path class="st1" d="M452.4,268.1l-7.1,0.9"/>
<path class="st1" d="M452,265.3l-7.1,1"/>
<path class="st1" d="M451.6,262.5l-7.1,1.1"/>
<path class="st1" d="M458.2,258.4l-14.2,2.5"/>
<path class="st1" d="M450.6,256.9l-7.1,1.4"/>
<path class="st1" d="M450.1,254.1l-7,1.5"/>
<path class="st1" d="M449.5,251.3l-7,1.6"/>
<path class="st1" d="M448.8,248.5l-7,1.7"/>
<path class="st1" d="M448.1,245.7l-7,1.8"/>
<path class="st1" d="M447.4,243l-6.9,2"/>
<path class="st1" d="M446.6,240.3l-6.9,2.1"/>
<path class="st1" d="M445.7,237.5l-6.9,2.2"/>
<path class="st1" d="M444.8,234.8l-6.8,2.3"/>
<path class="st1" d="M450.7,229.7l-13.6,4.9"/>
<path class="st1" d="M442.9,229.5l-6.7,2.5"/>
<path class="st1" d="M441.9,226.8l-6.7,2.7"/>
<path class="st1" d="M440.8,224.2l-6.6,2.8"/>
<path class="st1" d="M439.7,221.6l-6.6,2.9"/>
<path class="st1" d="M438.5,219l-6.5,3"/>
<path class="st1" d="M437.3,216.4l-6.5,3.1"/>
<path class="st1" d="M436.1,213.8l-6.4,3.2"/>
<path class="st1" d="M434.8,211.3l-6.4,3.3"/>
<path class="st1" d="M433.4,208.8l-6.3,3.4"/>
<path class="st1" d="M438.3,202.7l-12.5,7.1"/>
<path class="st1" d="M446.4,288h54"/>
<path class="st1" d="M429.1,201.4l-6.1,3.8"/>
<path class="st1" d="M427.6,199l-6.1,3.9"/>
<path class="st1" d="M426.1,196.6l-6,4"/>
<path class="st1" d="M424.5,194.2l-5.9,4.1"/>
<path class="st1" d="M422.8,191.9l-5.9,4.2"/>
<path class="st1" d="M421.2,189.6l-5.8,4.3"/>
<path class="st1" d="M419.5,187.3l-5.7,4.4"/>
<path class="st1" d="M417.7,185l-5.6,4.5"/>
<path class="st1" d="M415.9,182.8l-5.6,4.6"/>
<path class="st1" d="M419.6,176l-11,9.3"/>
<path class="st1" d="M412.2,178.5l-5.4,4.8"/>
<path class="st1" d="M410.3,176.4l-5.3,4.9"/>
<path class="st1" d="M408.4,174.3l-5.2,4.9"/>
<path class="st1" d="M406.4,172.2l-5.1,5"/>
<path class="st1" d="M404.4,170.2l-5.1,5.1"/>
<path class="st1" d="M402.4,168.2l-5,5.2"/>
<path class="st1" d="M400.3,166.3l-4.9,5.3"/>
<path class="st1" d="M398.2,164.4l-4.8,5.4"/>
<path class="st1" d="M396,162.5l-4.7,5.5"/>
<path class="st1" d="M398.5,155.1l-9.2,11.1"/>
<path class="st1" d="M391.6,158.8l-4.5,5.6"/>
<path class="st1" d="M389.4,157.1l-4.4,5.7"/>
<path class="st1" d="M387.1,155.4l-4.3,5.8"/>
<path class="st1" d="M384.8,153.7l-4.2,5.8"/>
<path class="st1" d="M382.5,152l-4.1,5.9"/>
<path class="st1" d="M380.2,150.4l-4,6"/>
<path class="st1" d="M377.8,148.9l-3.9,6"/>
<path class="st1" d="M424.4,207.5l46.5-27.5"/>
<path class="st1" d="M372.4,145.5l-3.7,6.2"/>
<path class="st1" d="M369.9,144.1l-3.6,6.3"/>
<path class="st1" d="M367.4,142.7l-3.5,6.3"/>
<path class="st1" d="M364.9,141.3l-3.3,6.4"/>
<path class="st1" d="M362.4,140l-3.2,6.4"/>
<path class="st1" d="M359.8,138.8l-3.1,6.5"/>
<path class="st1" d="M357.2,137.6l-3,6.5"/>
<path class="st1" d="M354.6,136.4l-2.9,6.6"/>
<path class="st1" d="M352,135.3l-2.8,6.6"/>
<path class="st1" d="M352,127.5l-5.3,13.4"/>
<path class="st1" d="M346.7,133.2l-2.6,6.7"/>
<path class="st1" d="M344,132.2l-2.4,6.8"/>
<path class="st1" d="M341.4,131.2L339,138"/>
<path class="st1" d="M338.6,130.3l-2.2,6.9"/>
<path class="st1" d="M335.9,129.5l-2.1,6.9"/>
<path class="st1" d="M333.2,128.7l-2,6.9"/>
<path class="st1" d="M330.4,127.9l-1.8,7"/>
<path class="st1" d="M327.7,127.2l-1.7,7"/>
<path class="st1" d="M324.9,126.6l-1.6,7"/>
<path class="st1" d="M323.6,118.9l-3,14.1"/>
<path class="st1" d="M319.3,125.4l-1.4,7.1"/>
<path class="st1" d="M316.5,124.9l-1.2,7.1"/>
<path class="st1" d="M313.7,124.4l-1.1,7.1"/>
<path class="st1" d="M310.9,124l-1,7.1"/>
<path class="st1" d="M308.1,123.6l-0.9,7.1"/>
<path class="st1" d="M305.3,123.3l-0.8,7.2"/>
<path class="st1" d="M302.4,123l-0.6,7.2"/>
<path class="st1" d="M299.6,122.8l-0.5,7.2"/>
<path class="st1" d="M296.7,122.6l-0.4,7.2"/>
<path class="st1" d="M294.1,115.3l-0.5,14.4"/>
<path class="st1" d="M371,153.1l28.3-46"/>
<path class="st1" d="M288.2,122.4l0,7.2"/>
<path class="st1" d="M285.3,122.4l0.1,7.2"/>
<path class="st1" d="M282.5,122.5l0.2,7.2"/>
<path class="st1" d="M279.7,122.6l0.4,7.2"/>
<path class="st1" d="M276.8,122.8l0.5,7.2"/>
<path class="st1" d="M274,123l0.6,7.2"/>
<path class="st1" d="M271.1,123.3l0.7,7.2"/>
<path class="st1" d="M268.3,123.6l0.9,7.1"/>
<path class="st1" d="M265.5,123.9l1,7.1"/>
<path class="st1" d="M261.6,117.2l2.2,14.2"/>
<path class="st1" d="M259.8,124.8l1.2,7.1"/>
<path class="st1" d="M257,125.3l1.3,7.1"/>
<path class="st1" d="M254.2,125.9l1.5,7"/>
<path class="st1" d="M251.5,126.5l1.6,7"/>
<path class="st1" d="M248.7,127.1l1.7,7"/>
<path class="st1" d="M245.9,127.8l1.8,7"/>
<path class="st1" d="M243.2,128.6l1.9,6.9"/>
<path class="st1" d="M240.4,129.4l2.1,6.9"/>
<path class="st1" d="M237.7,130.2l2.2,6.9"/>
<path class="st1" d="M232.7,124.3l4.6,13.6"/>
<path class="st1" d="M232.3,132l2.4,6.8"/>
<path class="st1" d="M229.7,133l2.5,6.7"/>
<path class="st1" d="M227,134l2.7,6.7"/>
<path class="st1" d="M224.4,135.1l2.8,6.6"/>
<path class="st1" d="M221.7,136.2l2.9,6.6"/>
<path class="st1" d="M219.1,137.4l3,6.5"/>
<path class="st1" d="M216.6,138.6l3.1,6.5"/>
<path class="st1" d="M214,139.9l3.2,6.4"/>
<path class="st1" d="M211.5,141.2l3.3,6.4"/>
<path class="st1" d="M290.9,129.6l1-54"/>
<path class="st1" d="M206.4,143.9l3.5,6.3"/>
<path class="st1" d="M204,145.3l3.7,6.2"/>
<path class="st1" d="M201.5,146.8l3.8,6.1"/>
<path class="st1" d="M199.1,148.3l3.9,6.1"/>
<path class="st1" d="M196.7,149.8l4,6"/>
<path class="st1" d="M194.4,151.4l4.1,5.9"/>
<path class="st1" d="M192,153l4.2,5.9"/>
<path class="st1" d="M189.7,154.7l4.3,5.8"/>
<path class="st1" d="M187.4,156.4l4.4,5.7"/>
<path class="st1" d="M180.7,152.5l8.9,11.3"/>
<path class="st1" d="M183,160l4.6,5.6"/>
<path class="st1" d="M180.8,161.8l4.7,5.5"/>
<path class="st1" d="M178.6,163.6l4.8,5.4"/>
<path class="st1" d="M176.5,165.5l4.8,5.3"/>
<path class="st1" d="M174.4,167.5l4.9,5.2"/>
<path class="st1" d="M172.4,169.5l5,5.2"/>
<path class="st1" d="M170.3,171.5l5.1,5.1"/>
<path class="st1" d="M168.4,173.5l5.2,5"/>
<path class="st1" d="M166.4,175.6l5.3,4.9"/>
<path class="st1" d="M159.1,172.9l10.7,9.6"/>
<path class="st1" d="M162.6,179.8l5.5,4.7"/>
<path class="st1" d="M160.8,182l5.5,4.6"/>
<path class="st1" d="M159,184.2l5.6,4.5"/>
<path class="st1" d="M157.2,186.4l5.7,4.4"/>
<path class="st1" d="M155.5,188.7l5.8,4.3"/>
<path class="st1" d="M153.8,191l5.8,4.2"/>
<path class="st1" d="M152.1,193.3l5.9,4.1"/>
<path class="st1" d="M150.5,195.7l6,4"/>
<path class="st1" d="M149,198.1l6,3.9"/>
<path class="st1" d="M141.3,196.6l12.2,7.6"/>
<path class="st1" d="M212.4,148.8l-25.8-47.4"/>
<path class="st1" d="M144.5,205.3l6.2,3.6"/>
<path class="st1" d="M143.1,207.8l6.3,3.5"/>
<path class="st1" d="M141.7,210.3l6.4,3.4"/>
<path class="st1" d="M140.4,212.9l6.4,3.3"/>
<path class="st1" d="M139.2,215.4l6.5,3.2"/>
<path class="st1" d="M137.9,218l6.5,3"/>
<path class="st1" d="M136.8,220.6l6.6,2.9"/>
<path class="st1" d="M135.6,223.2l6.6,2.8"/>
<path class="st1" d="M134.5,225.8l6.7,2.7"/>
<path class="st1" d="M126.8,225.9l13.4,5.2"/>
<path class="st1" d="M132.5,231.1l6.8,2.5"/>
<path class="st1" d="M131.5,233.8l6.8,2.4"/>
<path class="st1" d="M130.6,236.5l6.8,2.2"/>
<path class="st1" d="M129.7,239.2l6.9,2.1"/>
<path class="st1" d="M128.9,242l6.9,2"/>
<path class="st1" d="M128.2,244.7l6.9,1.9"/>
<path class="st1" d="M127.4,247.5l7,1.8"/>
<path class="st1" d="M126.8,250.2l7,1.6"/>
<path class="st1" d="M126.1,253l7,1.5"/>
<path class="st1" d="M118.5,254.4l14.1,2.8"/>
<path class="st1" d="M125,258.6l7.1,1.3"/>
<path class="st1" d="M124.6,261.4l7.1,1.2"/>
<path class="st1" d="M124.1,264.2l7.1,1"/>
<path class="st1" d="M123.7,267l7.1,0.9"/>
<path class="st1" d="M123.4,269.9l7.2,0.8"/>
<path class="st1" d="M123.1,272.7l7.2,0.7"/>
<path class="st1" d="M122.9,275.5l7.2,0.5"/>
<path class="st1" d="M122.7,278.4l7.2,0.4"/>
<path class="st1" d="M122.5,281.2l7.2,0.3"/>
<path class="st1" d="M152.1,206.6l-46.3-27.8"/>
<path class="st1" d="M122.4,286.9l7.2,0"/>
<path class="st1" d="M122.4,289.8l7.2-0.1"/>
<path class="st1" d="M122.5,292.6l7.2-0.2"/>
<path class="st1" d="M122.6,295.5l7.2-0.3"/>
<path class="st1" d="M122.7,298.3l7.2-0.4"/>
<path class="st1" d="M122.9,301.2l7.2-0.6"/>
<path class="st1" d="M123.2,304l7.2-0.7"/>
<path class="st1" d="M123.5,306.8l7.2-0.8"/>
<path class="st1" d="M123.8,309.6l7.1-0.9"/>
<path class="st1" d="M117.1,313.5l14.2-2.1"/>
<path class="st1" d="M124.7,315.3l7.1-1.2"/>
<path class="st1" d="M125.2,318.1l7.1-1.3"/>
<path class="st1" d="M125.7,320.9l7.1-1.4"/>
<path class="st1" d="M126.3,323.7l7-1.6"/>
<path class="st1" d="M126.9,326.4l7-1.7"/>
<path class="st1" d="M127.6,329.2l7-1.8"/>
<path class="st1" d="M128.3,332l6.9-1.9"/>
<path class="st1" d="M129.1,334.7l6.9-2"/>
<path class="st1" d="M130,337.4l6.9-2.1"/>
<path class="st1" d="M124,342.4l13.7-4.5"/>
<path class="st1" d="M131.7,342.8l6.8-2.4"/>
<path class="st1" d="M132.7,345.5l6.8-2.5"/>
<path class="st1" d="M133.7,348.2l6.7-2.6"/>
<path class="st1" d="M134.8,350.8l6.7-2.7"/>
<path class="st1" d="M135.9,353.5l6.6-2.8"/>
<path class="st1" d="M137,356.1l6.6-3"/>
<path class="st1" d="M138.2,358.6l6.5-3.1"/>
<path class="st1" d="M139.5,361.2l6.5-3.2"/>
<path class="st1" d="M140.7,363.8l6.4-3.3"/>
<path class="st1" d="M135.7,369.7l12.7-6.8"/>
<path class="st1" d="M129.6,284.2l-54-1.3"/>
<path class="st1" d="M144.8,371.3l6.2-3.6"/>
<path class="st1" d="M146.3,373.7l6.2-3.7"/>
<path class="st1" d="M147.8,376.1l6.1-3.8"/>
<path class="st1" d="M149.3,378.5l6-3.9"/>
<path class="st1" d="M150.9,380.9l6-4"/>
<path class="st1" d="M152.5,383.2l5.9-4.1"/>
<path class="st1" d="M154.2,385.6l5.8-4.2"/>
<path class="st1" d="M155.9,387.8l5.7-4.3"/>
<path class="st1" d="M157.6,390.1l5.7-4.4"/>
<path class="st1" d="M153.8,396.9l11.2-9.1"/>
<path class="st1" d="M161.2,394.5l5.5-4.6"/>
<path class="st1" d="M163.1,396.7l5.4-4.7"/>
<path class="st1" d="M165,398.8l5.3-4.8"/>
<path class="st1" d="M166.9,400.9l5.3-4.9"/>
<path class="st1" d="M168.8,403l5.2-5"/>
<path class="st1" d="M170.8,405l5.1-5.1"/>
<path class="st1" d="M172.9,407l5-5.2"/>
<path class="st1" d="M174.9,409l4.9-5.3"/>
<path class="st1" d="M177,410.9l4.8-5.3"/>
<path class="st1" d="M174.4,418.2l9.5-10.9"/>
<path class="st1" d="M181.3,414.7l4.6-5.5"/>
<path class="st1" d="M183.5,416.5l4.5-5.6"/>
<path class="st1" d="M185.7,418.3l4.4-5.7"/>
<path class="st1" d="M188,420l4.3-5.7"/>
<path class="st1" d="M190.3,421.7l4.2-5.8"/>
<path class="st1" d="M192.6,423.4l4.1-5.9"/>
<path class="st1" d="M194.9,425l4-6"/>
<path class="st1" d="M197.3,426.6l3.9-6"/>
<path class="st1" d="M199.7,428.1l3.8-6.1"/>
<path class="st1" d="M198.4,435.8l7.5-12.3"/>
<path class="st1" d="M149.7,365.3l-47.1,26.3"/>
<path class="st1" d="M207.1,432.5l3.5-6.3"/>
<path class="st1" d="M209.5,433.8l3.4-6.3"/>
<path class="st1" d="M212.1,435.2l3.3-6.4"/>
<path class="st1" d="M214.6,436.4l3.2-6.5"/>
<path class="st1" d="M217.2,437.7l3.1-6.5"/>
<path class="st1" d="M219.8,438.9l3-6.6"/>
<path class="st1" d="M222.4,440l2.9-6.6"/>
<path class="st1" d="M225,441.1l2.7-6.7"/>
<path class="st1" d="M227.6,442.2l2.6-6.7"/>
<path class="st1" d="M227.8,450l5-13.5"/>
<path class="st1" d="M233,444.2l2.4-6.8"/>
<path class="st1" d="M235.7,445.1l2.3-6.8"/>
<path class="st1" d="M238.4,446l2.2-6.9"/>
<path class="st1" d="M241.1,446.8l2-6.9"/>
<path class="st1" d="M243.8,447.6l1.9-6.9"/>
<path class="st1" d="M246.6,448.3l1.8-7"/>
<path class="st1" d="M249.4,449l1.7-7"/>
<path class="st1" d="M252.1,449.7l1.6-7"/>
<path class="st1" d="M254.9,450.3l1.4-7.1"/>
<path class="st1" d="M256.4,457.9l2.6-14.2"/>
<path class="st1" d="M260.5,451.3l1.2-7.1"/>
<path class="st1" d="M263.3,451.8l1.1-7.1"/>
<path class="st1" d="M266.2,452.2l0.9-7.1"/>
<path class="st1" d="M269,452.5l0.8-7.2"/>
<path class="st1" d="M271.8,452.8l0.7-7.2"/>
<path class="st1" d="M274.7,453.1l0.6-7.2"/>
<path class="st1" d="M277.5,453.3l0.5-7.2"/>
<path class="st1" d="M280.3,453.4l0.3-7.2"/>
<path class="st1" d="M283.2,453.5l0.2-7.2"/>
<path class="st1" d="M208.2,424.8L181,471.5"/>
<path class="st1" d="M288.9,453.6l0-7.2"/>
<path class="st1" d="M291.7,453.6l-0.2-7.2"/>
<path class="st1" d="M294.6,453.5l-0.3-7.2"/>
<path class="st1" d="M297.4,453.3l-0.4-7.2"/>
<path class="st1" d="M300.3,453.1l-0.5-7.2"/>
<path class="st1" d="M303.1,452.9l-0.7-7.2"/>
<path class="st1" d="M305.9,452.6l-0.8-7.2"/>
<path class="st1" d="M308.8,452.3l-0.9-7.1"/>
<path class="st1" d="M311.6,451.9l-1-7.1"/>
<path class="st1" d="M315.6,458.6l-2.3-14.2"/>
<path class="st1" d="M317.2,451l-1.3-7.1"/>
<path class="st1" d="M320,450.5l-1.4-7.1"/>
<path class="st1" d="M322.8,449.9l-1.5-7"/>
<path class="st1" d="M325.6,449.3l-1.6-7"/>
<path class="st1" d="M328.4,448.6l-1.8-7"/>
<path class="st1" d="M331.1,447.9l-1.9-7"/>
<path class="st1" d="M333.9,447.1l-2-6.9"/>
<path class="st1" d="M336.6,446.3l-2.1-6.9"/>
<path class="st1" d="M339.3,445.5l-2.2-6.8"/>
<path class="st1" d="M344.4,451.4l-4.7-13.6"/>
<path class="st1" d="M344.7,443.6l-2.5-6.8"/>
<path class="st1" d="M347.4,442.6l-2.6-6.7"/>
<path class="st1" d="M350,441.6l-2.7-6.7"/>
<path class="st1" d="M352.6,440.5l-2.8-6.6"/>
<path class="st1" d="M355.3,439.3l-2.9-6.6"/>
<path class="st1" d="M357.8,438.1l-3-6.5"/>
<path class="st1" d="M360.4,436.9l-3.1-6.5"/>
<path class="st1" d="M363,435.7l-3.3-6.4"/>
<path class="st1" d="M365.5,434.3l-3.4-6.4"/>
<path class="st1" d="M371.5,439.3l-7-12.6"/>
<path class="st1" d="M286.1,446.4l-0.6,54"/>
<path class="st1" d="M372.9,430.2l-3.7-6.2"/>
<path class="st1" d="M375.4,428.7l-3.8-6.1"/>
<path class="st1" d="M377.8,427.1l-3.9-6"/>
<path class="st1" d="M380.2,425.6l-4-6"/>
<path class="st1" d="M382.5,424l-4.1-5.9"/>
<path class="st1" d="M384.8,422.3l-4.2-5.8"/>
<path class="st1" d="M387.1,420.6l-4.3-5.8"/>
<path class="st1" d="M389.4,418.9l-4.4-5.7"/>
<path class="st1" d="M391.6,417.2l-4.5-5.6"/>
<path class="st1" d="M398.5,420.9l-9.2-11.1"/>
<path class="st1" d="M396,413.5l-4.7-5.5"/>
<path class="st1" d="M398.2,411.6l-4.8-5.4"/>
<path class="st1" d="M400.3,409.7l-4.9-5.3"/>
<path class="st1" d="M402.4,407.8l-5-5.2"/>
<path class="st1" d="M404.4,405.8l-5.1-5.1"/>
<path class="st1" d="M406.4,403.8l-5.1-5"/>
<path class="st1" d="M408.4,401.7l-5.2-4.9"/>
<path class="st1" d="M410.3,399.6l-5.3-4.9"/>
<path class="st1" d="M412.2,397.5l-5.4-4.8"/>
<path class="st1" d="M419.6,400l-11-9.3"/>
<path class="st1" d="M415.9,393.2l-5.6-4.6"/>
<path class="st1" d="M417.7,391l-5.6-4.5"/>
<path class="st1" d="M419.5,388.7l-5.7-4.4"/>
<path class="st1" d="M421.2,386.4l-5.8-4.3"/>
<path class="st1" d="M422.8,384.1l-5.9-4.2"/>
<path class="st1" d="M424.5,381.8l-5.9-4.1"/>
<path class="st1" d="M426.1,379.4l-6-4"/>
<path class="st1" d="M427.6,377l-6.1-3.9"/>
<path class="st1" d="M429.1,374.6l-6.1-3.8"/>
<path class="st1" d="M366.9,425.4l26.9,46.8"/>
<path class="st1" d="M432,369.7l-6.3-3.6"/>
<path class="st1" d="M433.4,367.2l-6.3-3.4"/>
<path class="st1" d="M434.8,364.7l-6.4-3.3"/>
<path class="st1" d="M436.1,362.2l-6.4-3.2"/>
<path class="st1" d="M437.3,359.6l-6.5-3.1"/>
<path class="st1" d="M438.5,357l-6.5-3"/>
<path class="st1" d="M439.7,354.4l-6.6-2.9"/>
<path class="st1" d="M440.8,351.8l-6.6-2.8"/>
<path class="st1" d="M441.9,349.2l-6.7-2.7"/>
<path class="st1" d="M449.6,349.1l-13.5-5.1"/>
<path class="st1" d="M443.9,343.9l-6.8-2.4"/>
<path class="st1" d="M444.8,341.2l-6.8-2.3"/>
<path class="st1" d="M445.7,338.5l-6.9-2.2"/>
<path class="st1" d="M446.6,335.7l-6.9-2.1"/>
<path class="st1" d="M447.4,333l-6.9-2"/>
<path class="st1" d="M448.1,330.3l-7-1.8"/>
<path class="st1" d="M448.8,327.5l-7-1.7"/>
<path class="st1" d="M449.5,324.7l-7-1.6"/>
<path class="st1" d="M450.1,321.9l-7-1.5"/>
<path class="st1" d="M457.7,320.5l-14.1-2.7"/>
<path class="st1" d="M451.2,316.3l-7.1-1.2"/>
<path class="st1" d="M451.6,313.5l-7.1-1.1"/>
<path class="st1" d="M452,310.7l-7.1-1"/>
<path class="st1" d="M452.4,307.9l-7.1-0.9"/>
<path class="st1" d="M452.7,305.1l-7.2-0.7"/>
<path class="st1" d="M453,302.2l-7.2-0.6"/>
<path class="st1" d="M453.2,299.4l-7.2-0.5"/>
<path class="st1" d="M453.4,296.5l-7.2-0.4"/>
<path class="st1" d="M453.5,293.7l-7.2-0.2"/>
<path class="st1" d="M460.8,291l-14.4-0.2"/>
<path class="st1" d="M424.4,368.5l46.5,27.5"/>
<path class="st1" d="M122.4,288c0-91.5,74.1-165.6,165.6-165.6S453.6,196.5,453.6,288S379.5,453.6,288,453.6S122.4,379.5,122.4,288z
	"/>
<path class="st1" d="M115.2,288c0-95.4,77.4-172.8,172.8-172.8S460.8,192.6,460.8,288S383.4,460.8,288,460.8S115.2,383.4,115.2,288z
	"/>
<path class="st1" d="M99,288c0-104.4,84.6-189,189-189s189,84.6,189,189s-84.6,189-189,189S99,392.4,99,288z"/>
<g transform="translate(179.8896809337398,-6.301007344647358) rotate(-92.00608277927871,0,0)">
	<g>
		<path class="st1" d="M-299,274h1.2v8.5"/>
	</g>
</g>
<g transform="translate(158.113592803802,-86.02378607497756) rotate(-118.54898451579287,0,0)">
	<g>
		<path class="st1" d="M-391.7,111.6h1.2v8.5"/>
	</g>
</g>
<g transform="translate(161.4291832208879,-79.6280026412632) rotate(-116.25569234262794,0,0)">
	<g>
		<path class="st1" d="M-388,128.4L-388,128.4c0.4-0.6,0.7-0.9,0.9-1.1l0,0l0,0c0.4-0.3,0.8-0.5,1.4-0.5l0,0l0,0
			c0.6,0,1,0.2,1.5,0.6l0,0l0,0c0.4,0.4,0.6,0.8,0.6,1.4l0,0l0,0c0,0.6-0.2,1-0.7,1.4l0,0l0,0c-0.4,0.3-0.9,0.5-1.5,0.6l0,0l0,0
			c1.8,0.3,2.7,1,2.7,2.2l0,0l0,0c0,0.9-0.3,1.6-0.9,2.1l0,0l0,0c-0.5,0.4-1.3,0.7-2.2,0.7l0,0l0,0c-0.5,0-1-0.2-1.4-0.6l0,0l0,0
			c-0.3-0.3-0.5-0.7-0.8-1.3l0,0"/>
	</g>
</g>
<g transform="translate(151.70715391627047,-96.87589716036199) rotate(-122.56115007435031,0,0)">
	<g>
		<path class="st1" d="M-398.8,84h1.2v8.5"/>
	</g>
</g>
<g transform="translate(99.64754503114318,-149.90119001951354) rotate(-146.38583359840163,0,0)">
	<g>
		<path class="st1" d="M-398.8-80.4L-398.8-80.4c-0.2,0-0.5,0-0.7,0.1l0,0l0,0c-0.2,0-0.4,0.1-0.6,0.1l0,0l0,0
			c-0.5,0.2-0.8,0.4-1.1,0.6l0,0l0,0c-0.3,0.3-0.6,0.7-0.7,1l0,0l0,0c-0.1,0.2-0.1,0.4-0.1,0.6l0,0l0,0c0,0.2,0,0.4,0.1,0.7l0,0l0,0
			c0.2,0.5,0.4,0.8,0.8,1.1l0,0l0,0c0.4,0.3,0.9,0.5,1.5,0.5l0,0l0,0c0.5,0,0.9,0,1.3-0.1l0,0l0,0c0.4-0.1,0.7-0.3,0.9-0.6l0,0l0,0
			c0.3-0.3,0.5-0.7,0.6-1.1l0,0l0,0c0.1-0.4,0.1-0.8,0-1.1l0,0l0,0c-0.1-0.3-0.2-0.6-0.5-0.9l0,0l0,0c-0.2-0.2-0.4-0.4-0.8-0.6l0,0
			l0,0c-0.3-0.2-0.7-0.3-1.2-0.3l0,0l0,0c-0.5,0-0.9-0.1-1.2-0.3l0,0l0,0c-0.4-0.3-0.7-0.6-0.9-1l0,0l0,0c-0.2-0.4-0.3-0.7-0.3-0.9
			l0,0l0,0c0-0.1,0-0.2,0-0.3l0,0l0,0c0.1-0.4,0.3-0.7,0.7-1.1l0,0l0,0c0.3-0.2,0.6-0.4,1.1-0.5l0,0l0,0c0.4-0.1,0.8-0.1,1.2,0l0,0
			l0,0c0.4,0.1,0.7,0.3,0.9,0.5l0,0l0,0c0.3,0.3,0.5,0.6,0.5,1l0,0l0,0c0.1,0.3,0.1,0.6-0.1,1l0,0l0,0c-0.1,0.3-0.3,0.7-0.7,1l0,0
			l0,0C-398.2-80.6-398.5-80.4-398.8-80.4"/>
	</g>
</g>
<g transform="translate(105.5660040547839,-145.7937542829094) rotate(-144.09254142523667,0,0)">
	<g>
		<path class="st1" d="M-404.7-66.1L-404.7-66.1c0-0.2,0.2-0.5,0.3-1l0,0l0,0c0.2-0.3,0.4-0.5,0.6-0.7l0,0l0,0
			c0.2-0.2,0.4-0.3,0.7-0.4l0,0l0,0c0.3-0.1,0.5-0.2,0.8-0.2l0,0l0,0c0.3,0,0.6,0,0.9,0.1l0,0l0,0c0.3,0.1,0.6,0.3,0.9,0.5l0,0l0,0
			c0.2,0.2,0.4,0.5,0.6,0.8l0,0l0,0c0.1,0.3,0.2,0.6,0.2,0.9l0,0l0,0c0,0.2,0,0.5-0.1,0.9l0,0l0,0c-0.1,0.2-0.1,0.3-0.1,0.4l0,0l0,0
			c0,0.1-0.1,0.2-0.2,0.3l0,0l-4.4,4.8l5,0"/>
	</g>
</g>
<g transform="translate(88.91500143156348,-156.50598237902943) rotate(-150.39799915695906,0,0)">
	<g>
		<path class="st1" d="M-393.7-111.9h1.2v8.5"/>
	</g>
</g>
<g transform="translate(9.605877950482126,-179.74350366230334) rotate(-176.94090089347324,0,0)">
	<g>
		<path class="st1" d="M-304-276h1.2v8.5"/>
	</g>
</g>
<g transform="translate(16.790587145177522,-179.21516728033987) rotate(-174.6476087203083,0,0)">
	<g>
		<path class="st1" d="M-315.9-262.3L-315.9-262.3c0.4-0.6,0.7-0.9,0.9-1.1l0,0l0,0c0.4-0.3,0.8-0.5,1.4-0.5l0,0l0,0
			c0.6,0,1,0.2,1.5,0.6l0,0l0,0c0.4,0.4,0.6,0.8,0.6,1.4l0,0l0,0c0,0.6-0.2,1-0.7,1.4l0,0l0,0c-0.4,0.3-0.9,0.5-1.5,0.6l0,0l0,0
			c1.8,0.3,2.7,1,2.7,2.2l0,0l0,0c0,0.9-0.3,1.6-0.9,2.1l0,0l0,0c-0.5,0.4-1.3,0.7-2.2,0.7l0,0l0,0c-0.5,0-1-0.2-1.4-0.6l0,0l0,0
			c-0.3-0.3-0.5-0.7-0.8-1.3l0,0"/>
	</g>
</g>
<g transform="translate(-2.994008488495741,-179.9750980362862) rotate(-180.95306645203064,0,0)">
	<g>
		<path class="st1" d="M-284.2-296.5h1.2v8.5"/>
	</g>
</g>
<g transform="translate(-80.34462234279464,-161.07371498973293) rotate(-206.51032085644573,0,0)">
	<g>
		<path class="st1" d="M-130.5-381.8L-130.5-381.8c-0.3-0.2-0.6-0.6-0.9-1.1l0,0l0,0c-0.1-0.3-0.2-0.6-0.3-0.9l0,0l0,0
			c0-0.1-0.1-0.4-0.1-0.9l0,0l0,0c-0.1-0.7-0.1-1.4,0-2.2l0,0l0,0c0.1-0.6,0.1-1,0.1-1.1l0,0l0,0c0.1-0.4,0.2-0.7,0.4-1l0,0l0,0
			c0.2-0.3,0.3-0.5,0.4-0.6l0,0l0,0c0.2-0.2,0.3-0.3,0.6-0.5l0,0l0,0c0.4-0.2,0.7-0.3,1.1-0.3l0,0l0,0c0.5,0,1,0.1,1.3,0.3l0,0l0,0
			c0.3,0.2,0.6,0.5,0.9,1l0,0l0,0c0.2,0.3,0.3,0.7,0.4,1.3l0,0l0,0c0.1,0.3,0.1,0.9,0.1,1.5l0,0l0,0c0,0.6,0,1.2-0.1,1.6l0,0l0,0
			c-0.1,0.6-0.1,1-0.2,1.2l0,0l0,0c-0.1,0.4-0.3,0.7-0.6,1.1l0,0l0,0c-0.3,0.3-0.6,0.5-0.8,0.7l0,0l0,0c-0.3,0.2-0.7,0.3-1,0.3l0,0
			l0,0C-129.6-381.3-130.1-381.5-130.5-381.8"/>
	</g>
</g>
<g transform="translate(-73.83493869171319,-164.15968393119843) rotate(-204.21702868328077,0,0)">
	<g>
		<path class="st1" d="M-146.8-383.2L-146.8-383.2c0.4-0.6,0.7-0.9,0.9-1.1l0,0l0,0c0.4-0.3,0.8-0.5,1.4-0.5l0,0l0,0
			c0.6,0,1,0.2,1.5,0.6l0,0l0,0c0.4,0.4,0.6,0.8,0.6,1.4l0,0l0,0c0,0.6-0.2,1-0.7,1.4l0,0l0,0c-0.4,0.3-0.9,0.5-1.5,0.6l0,0l0,0
			c1.8,0.3,2.7,1,2.7,2.2l0,0l0,0c0,0.9-0.3,1.6-0.9,2.1l0,0l0,0c-0.5,0.4-1.3,0.7-2.2,0.7l0,0l0,0c-0.5,0-1-0.2-1.4-0.6l0,0l0,0
			c-0.3-0.3-0.5-0.7-0.8-1.3l0,0"/>
	</g>
</g>
<g transform="translate(-91.41776649902636,-155.0573828243257) rotate(-210.5224864150032,0,0)">
	<g>
		<path class="st1" d="M-102.9-398.1h1.2v8.5"/>
	</g>
</g>
<g transform="translate(-151.07248524824655,-97.86268032768334) rotate(-237.0653881515173,0,0)">
	<g>
		<path class="st1" d="M84.1-402.1h1.2v8.5"/>
	</g>
</g>
<g transform="translate(-147.0355324328254,-103.82943803274468) rotate(-234.77209597835238,0,0)">
	<g>
		<path class="st1" d="M66.9-403.8L66.9-403.8c0.4-0.6,0.7-0.9,0.9-1.1l0,0l0,0c0.4-0.3,0.8-0.5,1.4-0.5l0,0l0,0
			c0.6,0,1,0.2,1.5,0.6l0,0l0,0c0.4,0.4,0.6,0.8,0.6,1.4l0,0l0,0c0,0.6-0.2,1-0.7,1.4l0,0l0,0c-0.4,0.3-0.9,0.5-1.5,0.6l0,0l0,0
			c1.8,0.3,2.7,1,2.7,2.2l0,0l0,0c0,0.9-0.3,1.6-0.9,2.1l0,0l0,0c-0.5,0.4-1.3,0.7-2.2,0.7l0,0l0,0c-0.5,0-1-0.2-1.4-0.6l0,0l0,0
			c-0.3-0.3-0.5-0.7-0.8-1.3l0,0"/>
	</g>
</g>
<g transform="translate(-157.54952309620822,-87.05255752795185) rotate(-241.0775537100748,0,0)">
	<g>
		<path class="st1" d="M111.7-395.1h1.2v8.5"/>
	</g>
</g>
<g transform="translate(-179.68962119244614,-10.56598484360193) rotate(-266.63480811448983,0,0)">
	<g>
		<path class="st1" d="M269.2-299.9L269.2-299.9c-0.3-0.2-0.6-0.6-0.9-1.1l0,0l0,0c-0.1-0.3-0.2-0.6-0.3-0.9l0,0l0,0
			c0-0.1-0.1-0.4-0.1-0.9l0,0l0,0c-0.1-0.7-0.1-1.4,0-2.2l0,0l0,0c0.1-0.6,0.1-1,0.1-1.1l0,0l0,0c0.1-0.4,0.2-0.7,0.4-1l0,0l0,0
			c0.2-0.3,0.3-0.5,0.4-0.6l0,0l0,0c0.2-0.2,0.3-0.3,0.6-0.5l0,0l0,0c0.4-0.2,0.7-0.3,1.1-0.3l0,0l0,0c0.5,0,1,0.1,1.3,0.3l0,0l0,0
			c0.3,0.2,0.6,0.5,0.9,1l0,0l0,0c0.2,0.3,0.3,0.7,0.4,1.3l0,0l0,0c0.1,0.3,0.1,0.9,0.1,1.5l0,0l0,0c0,0.6,0,1.2-0.1,1.6l0,0l0,0
			c-0.1,0.6-0.1,1-0.2,1.2l0,0l0,0c-0.1,0.4-0.3,0.7-0.6,1.1l0,0l0,0c-0.3,0.3-0.6,0.5-0.8,0.7l0,0l0,0c-0.3,0.2-0.7,0.3-1,0.3l0,0
			l0,0C270.1-299.5,269.7-299.6,269.2-299.9"/>
	</g>
</g>
<g transform="translate(-179.12290946797168,-17.74776897891194) rotate(-264.3415159413249,0,0)">
	<g>
		<path class="st1" d="M255.9-317.4L255.9-317.4c0.4-0.6,0.7-0.9,0.9-1.1l0,0l0,0c0.4-0.3,0.8-0.5,1.4-0.5l0,0l0,0
			c0.6,0,1,0.2,1.5,0.6l0,0l0,0c0.4,0.4,0.6,0.8,0.6,1.4l0,0l0,0c0,0.6-0.2,1-0.7,1.4l0,0l0,0c-0.4,0.3-0.9,0.5-1.5,0.6l0,0l0,0
			c1.8,0.3,2.7,1,2.7,2.2l0,0l0,0c0,0.9-0.3,1.6-0.9,2.1l0,0l0,0c-0.5,0.4-1.3,0.7-2.2,0.7l0,0l0,0c-0.5,0-1-0.2-1.4-0.6l0,0l0,0
			c-0.3-0.3-0.5-0.7-0.8-1.3l0,0"/>
	</g>
</g>
<g transform="translate(-179.98852465246745,2.0324845456052048) rotate(-270.6469736730473,0,0)">
	<g>
		<path class="st1" d="M290.2-288.5h1.2v8.5"/>
	</g>
</g>
<g transform="translate(-160.10948376152987,82.24933561808517) rotate(-297.18987540956147,0,0)">
	<g>
		<path class="st1" d="M386.7-128.4h1.2v8.5"/>
	</g>
</g>
<g transform="translate(-163.27244171402148,75.77670998889745) rotate(-294.89658323639645,0,0)">
	<g>
		<path class="st1" d="M380.2-142.4L380.2-142.4c0.4-0.6,0.7-0.9,0.9-1.1l0,0l0,0c0.4-0.3,0.8-0.5,1.4-0.5l0,0l0,0
			c0.6,0,1,0.2,1.5,0.6l0,0l0,0c0.4,0.4,0.6,0.8,0.6,1.4l0,0l0,0c0,0.6-0.2,1-0.7,1.4l0,0l0,0c-0.4,0.3-0.9,0.5-1.5,0.6l0,0l0,0
			c1.8,0.3,2.7,1,2.7,2.2l0,0l0,0c0,0.9-0.3,1.6-0.9,2.1l0,0l0,0c-0.5,0.4-1.3,0.7-2.2,0.7l0,0l0,0c-0.5,0-1-0.2-1.4-0.6l0,0l0,0
			c-0.3-0.3-0.5-0.7-0.8-1.3l0,0"/>
	</g>
</g>
<g transform="translate(-153.96224519877507,93.2503461299328) rotate(-301.2020409681189,0,0)">
	<g>
		<path class="st1" d="M394.5-100.9h1.2v8.5"/>
	</g>
</g>
<g transform="translate(-96.0640493820989,152.2225292665763) rotate(-327.74494270463305,0,0)">
	<g>
		<path class="st1" d="M396.2,86.1h1.2l0,8.5"/>
	</g>
</g>
<g transform="translate(-102.07826643093983,148.2566272463193) rotate(-325.4516505314681,0,0)">
	<g>
		<path class="st1" d="M398.3,71.4L398.3,71.4c0.4-0.6,0.7-0.9,0.9-1.1l0,0l0,0c0.4-0.3,0.8-0.5,1.4-0.5l0,0l0,0
			c0.6,0,1,0.2,1.5,0.6l0,0l0,0c0.4,0.4,0.6,0.8,0.6,1.4l0,0l0,0c0,0.6-0.2,1-0.7,1.4l0,0l0,0c-0.4,0.3-0.9,0.5-1.5,0.6l0,0l0,0
			c1.8,0.3,2.7,1,2.7,2.2l0,0l0,0c0,0.9-0.3,1.6-0.9,2.1l0,0l0,0c-0.5,0.4-1.3,0.7-2.2,0.7l0,0l0,0c-0.5,0-1-0.2-1.4-0.6l0,0l0,0
			c-0.3-0.3-0.5-0.7-0.8-1.3l0,0"/>
	</g>
</g>
<g transform="translate(-85.17786803102051,158.5709014847619) rotate(-331.75710826319045,0,0)">
	<g>
		<path class="st1" d="M388.9,113.6h1.2v8.5"/>
	</g>
</g>
<g transform="translate(-8.434089301438377,179.80229736478722) rotate(-357.31436266760556,0,0)">
	<g>
		<path class="st1" d="M299.8,278.7L299.8,278.7c-0.3-0.2-0.6-0.6-0.9-1.1l0,0l0,0c-0.1-0.3-0.2-0.6-0.3-0.9l0,0l0,0
			c0-0.1-0.1-0.4-0.1-0.9l0,0l0,0c-0.1-0.7-0.1-1.4,0-2.2l0,0l0,0c0.1-0.6,0.1-1,0.1-1.1l0,0l0,0c0.1-0.4,0.2-0.7,0.4-1l0,0l0,0
			c0.2-0.3,0.3-0.5,0.4-0.6l0,0l0,0c0.2-0.2,0.3-0.3,0.6-0.5l0,0l0,0c0.4-0.2,0.7-0.3,1.1-0.3l0,0l0,0c0.5,0,1,0.1,1.3,0.3l0,0l0,0
			c0.3,0.2,0.6,0.5,0.9,1l0,0l0,0c0.2,0.3,0.3,0.7,0.4,1.3l0,0l0,0c0.1,0.3,0.1,0.9,0.1,1.5l0,0l0,0c0,0.6,0,1.2-0.1,1.6l0,0l0,0
			c-0.1,0.6-0.1,1-0.2,1.2l0,0l0,0c-0.1,0.4-0.3,0.7-0.6,1.1l0,0l0,0c-0.3,0.3-0.6,0.5-0.8,0.7l0,0l0,0c-0.3,0.2-0.7,0.3-1,0.3l0,0
			l0,0C300.7,279.1,300.3,279,299.8,278.7"/>
	</g>
</g>
<g transform="translate(-15.622089616319736,179.3208027977225) rotate(-355.0210704944406,0,0)">
	<g>
		<path class="st1" d="M309.6,259.5L309.6,259.5c0.4-0.6,0.7-0.9,0.9-1.1l0,0l0,0c0.4-0.3,0.8-0.5,1.4-0.5l0,0l0,0
			c0.6,0,1,0.2,1.5,0.6l0,0l0,0c0.4,0.4,0.6,0.8,0.6,1.4l0,0l0,0c0,0.6-0.2,1-0.7,1.4l0,0l0,0c-0.4,0.3-0.9,0.5-1.5,0.6l0,0l0,0
			c1.8,0.3,2.7,1,2.7,2.2l0,0l0,0c0,0.9-0.3,1.6-0.9,2.1l0,0l0,0c-0.5,0.4-1.3,0.7-2.2,0.7l0,0l0,0c-0.5,0-1-0.2-1.4-0.6l0,0l0,0
			c-0.3-0.3-0.5-0.7-0.8-1.3l0,0"/>
	</g>
</g>
<g transform="translate(4.167039031663643,179.9517596071475) rotate(-361.32652822616296,0,0)">
	<g>
		<path class="st1" d="M280.2,290.8h1.2v8.5"/>
	</g>
</g>
<g transform="translate(84.14247896431897,159.12273009768012) rotate(-387.86942996267715,0,0)">
	<g>
		<path class="st1" d="M118.9,385.4h1.2v8.5"/>
	</g>
</g>
<g transform="translate(77.70782185458444,162.36223213117077) rotate(-385.5761377895122,0,0)">
	<g>
		<path class="st1" d="M133.2,381.7L133.2,381.7c0.4-0.6,0.7-0.9,0.9-1.1l0,0l0,0c0.4-0.3,0.8-0.5,1.4-0.5l0,0l0,0
			c0.6,0,1,0.2,1.5,0.6l0,0l0,0c0.4,0.4,0.6,0.8,0.6,1.4l0,0l0,0c0,0.6-0.2,1-0.7,1.4l0,0l0,0c-0.4,0.3-0.9,0.5-1.5,0.6l0,0l0,0
			c1.8,0.3,2.7,1,2.7,2.2l0,0l0,0c0,0.9-0.3,1.6-0.9,2.1l0,0l0,0c-0.5,0.4-1.3,0.7-2.2,0.7l0,0l0,0c-0.5,0-1-0.2-1.4-0.6l0,0l0,0
			c-0.3-0.3-0.5-0.7-0.8-1.3l0,0"/>
	</g>
</g>
<g transform="translate(95.06980833100054,152.84544986327472) rotate(-391.88159552123454,0,0)">
	<g>
		<path class="st1" d="M91.4,392.9h1.2l0,8.5"/>
	</g>
</g>
<g transform="translate(151.70715391627056,96.87589716036187) rotate(-417.4388499256498,0,0)">
	<g>
		<path class="st1" d="M-89.1,402.2L-89.1,402.2c-0.3-0.2-0.6-0.6-0.9-1.1l0,0l0,0c-0.1-0.3-0.2-0.6-0.3-0.9l0,0l0,0
			c0-0.1-0.1-0.4-0.1-0.9l0,0l0,0c-0.1-0.7-0.1-1.4,0-2.2l0,0l0,0c0.1-0.6,0.1-1,0.1-1.1l0,0l0,0c0.1-0.4,0.2-0.7,0.4-1l0,0l0,0
			c0.2-0.3,0.3-0.5,0.4-0.6l0,0l0,0c0.2-0.2,0.3-0.3,0.6-0.5l0,0l0,0c0.4-0.2,0.7-0.3,1.1-0.3l0,0l0,0c0.5,0,1,0.1,1.3,0.3l0,0l0,0
			c0.3,0.2,0.6,0.5,0.9,1l0,0l0,0c0.2,0.3,0.3,0.7,0.4,1.3l0,0l0,0c0.1,0.3,0.1,0.9,0.1,1.5l0,0l0,0c0,0.6,0,1.2-0.1,1.6l0,0l0,0
			c-0.1,0.6-0.1,1-0.2,1.2l0,0l0,0c-0.1,0.4-0.3,0.7-0.6,1.1l0,0l0,0c-0.3,0.3-0.6,0.5-0.8,0.7l0,0l0,0c-0.3,0.2-0.7,0.3-1,0.3l0,0
			l0,0C-88.2,402.7-88.6,402.5-89.1,402.2"/>
	</g>
</g>
<g transform="translate(147.70917873005783,102.86884134125282) rotate(-415.1455577524848,0,0)">
	<g>
		<path class="st1" d="M-74,398.5L-74,398.5c0.4-0.6,0.7-0.9,0.9-1.1l0,0l0,0c0.4-0.3,0.8-0.5,1.4-0.5l0,0l0,0c0.6,0,1,0.2,1.5,0.6
			l0,0l0,0c0.4,0.4,0.6,0.8,0.6,1.4l0,0l0,0c0,0.6-0.2,1-0.7,1.4l0,0l0,0c-0.4,0.3-0.9,0.5-1.5,0.6l0,0l0,0c1.8,0.3,2.7,1,2.7,2.2
			l0,0l0,0c0,0.9-0.3,1.6-0.9,2.1l0,0l0,0c-0.5,0.4-1.3,0.7-2.2,0.7l0,0l0,0c-0.5,0-1-0.2-1.4-0.6l0,0l0,0c-0.3-0.3-0.5-0.7-0.8-1.3
			l0,0"/>
	</g>
</g>
<g transform="translate(158.11359280380196,86.02378607497765) rotate(-421.45101548420706,0,0)">
	<g>
		<path class="st1" d="M-116.4,386.8h1.2v8.5"/>
	</g>
</g>
<g transform="translate(179.8896809337398,6.301007344647363) rotate(-447.99391722072124,0,0)">
	<g>
		<path class="st1" d="M-278.8,294.1h1.2v8.5"/>
	</g>
</g>
<g transform="translate(179.49347125542803,13.494212710522818) rotate(-445.7006250475563,0,0)">
	<g>
		<path class="st1" d="M-267.9,306.3L-267.9,306.3c0.4-0.6,0.7-0.9,0.9-1.1l0,0l0,0c0.4-0.3,0.8-0.5,1.4-0.5l0,0l0,0
			c0.6,0,1,0.2,1.5,0.6l0,0l0,0c0.4,0.4,0.6,0.8,0.6,1.4l0,0l0,0c0,0.6-0.2,1-0.7,1.4l0,0l0,0c-0.4,0.3-0.9,0.5-1.5,0.6l0,0l0,0
			c1.8,0.3,2.7,1,2.7,2.2l0,0l0,0c0,0.9-0.3,1.6-0.9,2.1l0,0l0,0c-0.5,0.4-1.3,0.7-2.2,0.7l0,0l0,0c-0.5,0-1-0.2-1.4-0.6l0,0l0,0
			c-0.3-0.3-0.5-0.7-0.8-1.3l0,0"/>
	</g>
</g>
<g transform="translate(198.8301520792123,-19.662416539106246) rotate(-95.64764694922785,0,0)">
	<g>
		<path class="st1" d="M-313,253.5v8.6l0,0c0,0.6-0.2,1.1-0.7,1.5l0,0l0,0c-0.5,0.4-1,0.6-1.6,0.6l0,0l0,0c-0.3,0-0.7-0.1-1.1-0.3
			l0,0l0,0c-0.1,0-0.4-0.2-1-0.6l0,0"/>
	</g>
</g>
<g transform="translate(197.63089530297387,-29.36101533913621) rotate(-98.45033323593903,0,0)">
	<g>
		<path class="st1" d="M-330.1,244.5l5.9,0"/>
		<path class="st1" d="M-331.8,248.3l4.7-10.5l4.7,10.5"/>
	</g>
</g>
<g transform="translate(195.5459306255607,-41.0101087024092) rotate(-101.84447370305925,0,0)">
	<g>
		<path class="st1" d="M-344.9,228.5V218l7.9,10.5V218"/>
	</g>
</g>
<g transform="translate(192.952479889887,-51.859237406104924) rotate(-105.04370313345377,0,0)">
	<g>
		<path class="st1" d="M-356.1,198.7v7l0,0c0,1,0.2,1.9,0.7,2.6l0,0l0,0c0.6,0.8,1.3,1.2,2.3,1.2l0,0l0,0c1.1,0,2-0.4,2.6-1.1l0,0
			l0,0c0.5-0.7,0.8-1.6,0.8-2.7l0,0v-7"/>
	</g>
</g>
<g transform="translate(189.75760199883598,-62.546722405345584) rotate(-108.24293256384829,0,0)">
	<g>
		<path class="st1" d="M-366.6,185.3l5.9,0"/>
		<path class="st1" d="M-368.3,189.2l4.7-10.5l4.7,10.5"/>
	</g>
</g>
<g transform="translate(186.11085549195843,-72.6828003591728) rotate(-111.33238451378809,0,0)">
	<g>
		<path class="st1" d="M-370,169.3l-3.4-5.3"/>
		<path class="st1" d="M-375.9,169.3v-10.5h2.7l0,0c2.2,0,3.3,0.9,3.3,2.7l0,0l0,0c0,1-0.5,1.6-1.4,2l0,0l0,0
			c-0.7,0.3-1.6,0.4-2.9,0.4l0,0l0,0c-0.2,0-0.6,0-1,0l0,0l0,0c-0.4,0-0.7,0-0.8,0l0,0"/>
	</g>
</g>
<g transform="translate(182.40928904456558,-81.52846907832952) rotate(-114.08242241701588,0,0)">
	<g>
		<path class="st1" d="M-377.1,140.6l-3.3,5.3"/>
		<path class="st1" d="M-383.8,140.6l3.4,5.3v5.3"/>
	</g>
</g>
<g transform="translate(165.05821555630624,-112.5869685059863) rotate(-124.29807827091042,0,0)">
	<g>
		<path class="st1" d="M-397.4,75.7h-4.7"/>
		<path class="st1" d="M-402.2,81.4V70.9h4.7"/>
	</g>
</g>
<g transform="translate(160.31895441091885,-119.23872213584701) rotate(-126.64037124673497,0,0)">
	<g>
		<path class="st1" d="M-399.8,59.2l-5.6,0"/>
		<path class="st1" d="M-399.8,65l-5.6,0V54.5h5.6"/>
	</g>
</g>
<g transform="translate(154.86110942484538,-126.24609612857765) rotate(-129.18765686463314,0,0)">
	<g>
		<path class="st1" d="M-405.6,41.4L-405.6,41.4c2.4,0.4,3.6,1.4,3.6,2.9l0,0l0,0c0,1.1-0.5,1.8-1.6,2.3l0,0l0,0
			c-0.8,0.3-1.7,0.5-2.9,0.5l0,0l-1.3,0V36.5l1,0l0,0c2.6-0.1,3.9,0.7,3.9,2.2l0,0l0,0c0,0.6-0.3,1.2-0.8,1.7l0,0l0,0
			C-404.3,41.1-404.9,41.4-405.6,41.4L-405.6,41.4h-2.2"/>
	</g>
</g>
<g transform="translate(148.71957549121214,-133.42611388222943) rotate(-131.8973683464694,0,0)">
	<g>
		<path class="st1" d="M-403.7,27.8l-3.4-5.3"/>
		<path class="st1" d="M-409.5,27.8V17.3l2.7,0l0,0c2.2,0,3.3,0.9,3.3,2.7l0,0l0,0c0,1-0.5,1.6-1.4,2l0,0l0,0
			c-0.7,0.3-1.6,0.4-2.9,0.4l0,0l0,0c-0.2,0-0.6,0-1,0l0,0l0,0c-0.4,0-0.7,0-0.8,0l0,0"/>
	</g>
</g>
<g transform="translate(141.792112133608,-140.7658940819485) rotate(-134.79190925968348,0,0)">
	<g>
		<path class="st1" d="M-410.5-3.2v7l0,0c0,1,0.2,1.9,0.7,2.6l0,0l0,0c0.6,0.8,1.3,1.2,2.3,1.2l0,0l0,0c1.1,0,2-0.4,2.6-1.1l0,0l0,0
			c0.5-0.7,0.8-1.6,0.8-2.7l0,0v-7"/>
	</g>
</g>
<g transform="translate(133.71525737686792,-148.45965763343915) rotate(-137.991138690078,0,0)">
	<g>
		<path class="st1" d="M-409.6-19.3l5.9,0"/>
		<path class="st1" d="M-411.4-15.5l4.7-10.5l4.7,10.5"/>
	</g>
</g>
<g transform="translate(125.51968609095783,-155.4504692936866) rotate(-141.0805906400178,0,0)">
	<g>
		<path class="st1" d="M-402-37.4l-3.4-5.3"/>
		<path class="st1" d="M-407.8-37.4v-10.5l2.7,0l0,0c2.2,0,3.3,0.9,3.3,2.7l0,0l0,0c0,1-0.5,1.6-1.4,2l0,0l0,0
			c-0.7,0.3-1.6,0.4-2.9,0.4l0,0l0,0c-0.2,0-0.6,0-1,0l0,0l0,0c-0.4,0-0.7,0-0.8,0l0,0"/>
	</g>
</g>
<g transform="translate(117.91680662797349,-161.29372806982022) rotate(-143.83062854324558,0,0)">
	<g>
		<path class="st1" d="M-399.1-67.3l-3.3,5.3"/>
		<path class="st1" d="M-405.8-67.3l3.4,5.3v5.3"/>
	</g>
</g>
<g transform="translate(78.51309462284493,-183.7273359430877) rotate(-156.86129264594314,0,0)">
	<g>
		<path class="st1" d="M-383.8-145.9l1.4-10.5l4.5,9.9l4.5-9.9l1.4,10.5"/>
	</g>
</g>
<g transform="translate(66.14689237968254,-188.53283169917833) rotate(-160.66653857558256,0,0)">
	<g>
		<path class="st1" d="M-370-174.5l5.9,0"/>
		<path class="st1" d="M-371.8-170.6l4.7-10.5l4.7,10.5"/>
	</g>
</g>
<g transform="translate(55.889781287119675,-191.823805477) rotate(-163.75599052552235,0,0)">
	<g>
		<path class="st1" d="M-354-190.2l-3.4-5.3"/>
		<path class="st1" d="M-359.9-190.1v-10.5h2.7l0,0c2.2,0,3.3,0.9,3.3,2.7l0,0l0,0c0,1-0.5,1.6-1.4,2l0,0l0,0
			c-0.7,0.3-1.6,0.4-2.9,0.4l0,0l0,0c-0.2,0-0.6,0-1,0l0,0l0,0c-0.4,0-0.7,0-0.8,0l0,0"/>
	</g>
</g>
<g transform="translate(44.8994537707282,-194.68969939647616) rotate(-167.0134692312602,0,0)">
	<g>
		<path class="st1" d="M-340.5-211.6L-340.5-211.6c-0.8,0.6-1.4,1.1-1.8,1.2l0,0l0,0c-0.6,0.3-1.3,0.5-2.1,0.5l0,0l0,0
			c-1.6,0-3-0.4-4.1-1.3l0,0l0,0c-1.2-1-1.8-2.2-1.8-3.8l0,0l0,0c0-1.3,0.2-2.3,0.6-3.1l0,0l0,0c0.5-0.8,1.2-1.5,2.3-2.1l0,0l0,0
			c0.9-0.5,1.6-0.7,2.3-0.7l0,0l0,0c0.9,0,1.7,0.2,2.5,0.5l0,0l0,0c0.6,0.3,1.3,0.8,2,1.4l0,0"/>
	</g>
</g>
<g transform="translate(33.16326773255993,-197.02851994901286) rotate(-170.44569576302797,0,0)">
	<g>
		<path class="st1" d="M-335.3-236h7"/>
		<path class="st1" d="M-328.3-230.4v-10.5"/>
		<path class="st1" d="M-335.3-230.4v-10.5"/>
	</g>
</g>
<g transform="translate(-31.657984298994254,-197.27597935411356) rotate(-189.1168455273155,0,0)">
	<g>
		<path class="st1" d="M-241.6-328l5.9,0"/>
		<path class="st1" d="M-243.4-324.2l4.7-10.5l4.7,10.5"/>
	</g>
</g>
<g transform="translate(-42.12579458776412,-195.30862098317502) rotate(-192.17157194772372,0,0)">
	<g>
		<path class="st1" d="M-223.6-336.5l0-10.5h2.5l0,0c2.3,0,3.5,1,3.5,2.9l0,0l0,0c0,1.5-1.4,2.3-4.2,2.3l0,0l0,0c-0.3,0-0.6,0-1,0
			l0,0l0,0c-0.4,0-0.7,0-0.8,0l0,0"/>
	</g>
</g>
<g transform="translate(-51.44795179010384,-193.0625501142134) rotate(-194.92160985095148,0,0)">
	<g>
		<path class="st1" d="M-201.1-346.7l-3.4-5.3"/>
		<path class="st1" d="M-206.9-346.7v-10.5h2.7l0,0c2.2,0,3.3,0.9,3.3,2.7l0,0l0,0c0,1-0.5,1.6-1.4,2l0,0l0,0
			c-0.7,0.3-1.6,0.4-2.9,0.4l0,0l0,0c-0.2,0-0.6,0-1,0l0,0l0,0c-0.4,0-0.7,0-0.8,0l0,0"/>
	</g>
</g>
<g transform="translate(-57.85748735327578,-191.23951254164382) rotate(-196.8326341535611,0,0)">
	<g>
		<path class="st1" d="M-192.3-353.3v-10.4"/>
	</g>
</g>
<g transform="translate(-63.102959992,-189.57335371894453) rotate(-198.41096547969062,0,0)">
	<g>
		<path class="st1" d="M-184-369v10.6l4.4,0"/>
	</g>
</g>
<g transform="translate(-129.6343370038393,-152.03610975546243) rotate(-220.45273196528663,0,0)">
	<g>
		<path class="st1" d="M-38.1-400.2l1.4-10.5l4.5,9.9l4.5-9.9l1.4,10.5"/>
	</g>
</g>
<g transform="translate(-139.43846023013043,-143.0977141978527) rotate(-224.25797789492606,0,0)">
	<g>
		<path class="st1" d="M-8.2-405.3l5.9,0"/>
		<path class="st1" d="M-9.9-401.5l4.7-10.5l4.7,10.5"/>
	</g>
</g>
<g transform="translate(-146.86597638501277,-135.46374046392225) rotate(-227.31270431533426,0,0)">
	<g>
		<path class="st1" d="M19.8-411.8l-3.3,5.3"/>
		<path class="st1" d="M13.1-411.8l3.4,5.3l0,5.3"/>
	</g>
</g>
<g transform="translate(-186.70441032428357,-71.14424196982883) rotate(-249.14051673188078,0,0)">
	<g>
		<path class="st1" d="M168.5-376.4v8.6l0,0c0,0.6-0.2,1.1-0.7,1.5l0,0l0,0c-0.5,0.4-1,0.6-1.6,0.6l0,0l0,0c-0.3,0-0.7-0.1-1.1-0.3
			l0,0l0,0c-0.1,0-0.4-0.2-1-0.6l0,0"/>
	</g>
</g>
<g transform="translate(-189.74802008149607,-62.57578505422184) rotate(-251.74829198186623,0,0)">
	<g>
		<path class="st1" d="M180.1-368.4v7l0,0c0,1,0.2,1.9,0.7,2.6l0,0l0,0c0.6,0.8,1.3,1.2,2.3,1.2l0,0l0,0c1.1,0,2-0.4,2.6-1.1l0,0
			l0,0c0.5-0.7,0.8-1.6,0.8-2.7l0,0v-7"/>
	</g>
</g>
<g transform="translate(-192.9445348363689,-51.88878950965452) rotate(-254.94752141226078,0,0)">
	<g>
		<path class="st1" d="M199.4-347.1l0-10.5l7.9,10.5v-10.5"/>
	</g>
</g>
<g transform="translate(-195.34246628336015,-41.9685699820033) rotate(-257.8745474982625,0,0)">
	<g>
		<path class="st1" d="M224.3-342.1h-5.6"/>
		<path class="st1" d="M224.3-336.3h-5.6v-10.6h5.6"/>
	</g>
</g>
<g transform="translate(-196.9362384563945,33.706942647563494) rotate(-279.71244152015686,0,0)">
	<g>
		<path class="st1" d="M334.4-240v8.6l0,0c0,0.6-0.2,1.1-0.7,1.5l0,0l0,0c-0.5,0.4-1,0.6-1.6,0.6l0,0l0,0c-0.3,0-0.7-0.1-1.1-0.3
			l0,0l0,0c-0.1,0-0.4-0.2-1-0.6l0,0"/>
	</g>
</g>
<g transform="translate(-195.19867513328805,42.63234952719682) rotate(-282.32021677014234,0,0)">
	<g>
		<path class="st1" d="M339.6-224.6v7l0,0c0,1,0.2,1.9,0.7,2.6l0,0l0,0c0.6,0.8,1.3,1.2,2.3,1.2l0,0l0,0c1.1,0,2-0.4,2.6-1.1l0,0
			l0,0c0.5-0.7,0.8-1.6,0.8-2.7l0,0v-7"/>
	</g>
</g>
<g transform="translate(-193.09801314165347,51.31468913231218) rotate(-284.8820647068763,0,0)">
	<g>
		<path class="st1" d="M350.6-209.2l0,10.6l4.4,0"/>
	</g>
</g>
<g transform="translate(-190.76181993816132,59.41353426518674) rotate(-287.299409633624,0,0)">
	<g>
		<path class="st1" d="M363.9-194.2l-3.3,5.3"/>
		<path class="st1" d="M357.3-194.2l3.4,5.3v5.3"/>
	</g>
</g>
<g transform="translate(-159.4357404895551,120.41712774579558) rotate(-307.06267849297404,0,0)">
	<g>
		<path class="st1" d="M400.5-54.3l5.9,0"/>
		<path class="st1" d="M398.7-50.5l4.7-10.5l4.7,10.5"/>
	</g>
</g>
<g transform="translate(-152.4670139179113,129.1272615172933) rotate(-310.26190792336854,0,0)">
	<g>
		<path class="st1" d="M402.7-38.4v7l0,0c0,1,0.2,1.9,0.7,2.6l0,0l0,0c0.6,0.8,1.3,1.2,2.3,1.2l0,0l0,0c1.1,0,2-0.4,2.6-1.1l0,0l0,0
			c0.5-0.7,0.8-1.6,0.8-2.7l0,0v-7"/>
	</g>
</g>
<g transform="translate(-144.2928532341013,138.20134769806734) rotate(-313.7647056925715,0,0)">
	<g>
		<path class="st1" d="M409-7.5h3.8l0,0c-0.1,1.3-0.6,2.5-1.5,3.4l0,0l0,0c-0.9,0.9-2.1,1.4-3.4,1.4l0,0l0,0c-1.6,0-3-0.5-4.2-1.4
			l0,0l0,0c-1.2-1-1.9-2.3-1.9-3.9l0,0l0,0c0-1.1,0.2-2,0.5-2.6l0,0l0,0c0.4-0.9,1.1-1.6,2-2.2l0,0l0,0c0.9-0.6,1.9-1,2.8-1l0,0l0,0
			c1.9,0,3.5,0.6,4.8,1.9l0,0"/>
	</g>
</g>
<g transform="translate(-135.57956141269767,146.7590628449928) rotate(-317.2675034617745,0,0)">
	<g>
		<path class="st1" d="M403.7,11.4v7l0,0c0,1,0.2,1.9,0.7,2.6l0,0l0,0c0.6,0.8,1.3,1.2,2.3,1.2l0,0l0,0c1.1,0,2-0.4,2.6-1.1l0,0l0,0
			c0.5-0.7,0.8-1.6,0.8-2.7l0,0v-7"/>
	</g>
</g>
<g transform="translate(-128.663236932875,152.85879582789755) rotate(-319.9122445980355,0,0)">
	<g>
		<path class="st1" d="M407.8,31.2L407.8,31.2c-0.6-0.6-1-0.9-1-0.9l0,0l0,0c-0.4-0.2-0.8-0.4-1.3-0.4l0,0l0,0
			c-0.6,0-1.1,0.2-1.5,0.6l0,0l0,0c-0.4,0.4-0.6,0.9-0.6,1.5l0,0l0,0c0,0.7,0.4,1.5,1.2,2.2l0,0l0,0c0.8,0.6,1.5,1.2,2.3,1.8l0,0
			l0,0c0.8,0.7,1.2,1.5,1.2,2.2l0,0l0,0c0,0.8-0.3,1.5-0.8,1.9l0,0l0,0c-0.5,0.5-1.2,0.7-2,0.7l0,0l0,0c-0.6,0-1.1-0.2-1.5-0.6l0,0
			l0,0c-0.2-0.2-0.5-0.6-1.1-1.2l0,0"/>
	</g>
</g>
<g transform="translate(-122.92224891761373,157.51241449814745) rotate(-322.03162207783464,0,0)">
	<g>
		<path class="st1" d="M404.2,55.7V45.2"/>
		<path class="st1" d="M401.6,45.2h5.2"/>
	</g>
</g>
<g transform="translate(-89.44028237980471,178.66302328075835) rotate(-333.4070501053717,0,0)">
	<g>
		<path class="st1" d="M388.4,124.9L388.4,124.9c-0.6-0.6-1-0.9-1-0.9l0,0l0,0c-0.4-0.2-0.8-0.4-1.3-0.4l0,0l0,0
			c-0.6,0-1.1,0.2-1.5,0.6l0,0l0,0c-0.4,0.4-0.6,0.9-0.6,1.5l0,0l0,0c0,0.7,0.4,1.5,1.2,2.2l0,0l0,0c0.8,0.6,1.5,1.2,2.3,1.8l0,0
			l0,0c0.8,0.7,1.2,1.5,1.2,2.2l0,0l0,0c0,0.8-0.3,1.5-0.8,1.9l0,0l0,0c-0.5,0.5-1.2,0.7-2,0.7l0,0l0,0c-0.6,0-1.1-0.2-1.5-0.6l0,0
			l0,0c-0.2-0.2-0.5-0.6-1.1-1.2l0,0"/>
	</g>
</g>
<g transform="translate(-81.9675420632555,182.2124091496198) rotate(-335.7795878972399,0,0)">
	<g>
		<path class="st1" d="M384,144.5h-5.6"/>
		<path class="st1" d="M384,150.3h-5.6v-10.6h5.6"/>
	</g>
</g>
<g transform="translate(-73.65762077684845,185.72720560406327) rotate(-338.3671999365296,0,0)">
	<g>
		<path class="st1" d="M371.1,167.3v-10.5h2.5l0,0c2.3,0,3.5,1,3.5,2.9l0,0l0,0c0,1.5-1.4,2.3-4.2,2.3l0,0l0,0c-0.3,0-0.6,0-1,0l0,0
			l0,0c-0.4,0-0.7,0-0.8,0l0,0"/>
	</g>
</g>
<g transform="translate(-66.03133969359669,188.5733336881672) rotate(-340.7016516637503,0,0)">
	<g>
		<path class="st1" d="M366.9,182.4v-10.5"/>
		<path class="st1" d="M364.4,171.9h5.2"/>
	</g>
</g>
<g transform="translate(-58.72124887250859,190.97605852790267) rotate(-342.90840305656434,0,0)">
	<g>
		<path class="st1" d="M363.1,190.6h-5.6"/>
		<path class="st1" d="M363.1,196.4h-5.6l0-10.6h5.6"/>
	</g>
</g>
<g transform="translate(-47.50137929933438,194.07127289905833) rotate(-346.24653460508523,0,0)">
	<g>
		<path class="st1" d="M342.4,217.1l1.4-10.5l4.5,9.9l4.5-9.9l1.4,10.5"/>
	</g>
</g>
<g transform="translate(-35.820608078790045,196.5627737819797) rotate(-349.67204006662115,0,0)">
	<g>
		<path class="st1" d="M334.6,231.8L334.6,231.8c2.4,0.4,3.6,1.4,3.6,2.9l0,0l0,0c0,1.1-0.5,1.8-1.6,2.3l0,0l0,0
			c-0.8,0.3-1.7,0.5-2.9,0.5l0,0l-1.3,0V227l1,0l0,0c2.6-0.1,3.9,0.7,3.9,2.2l0,0l0,0c0,0.6-0.3,1.2-0.8,1.7l0,0l0,0
			C335.8,231.5,335.3,231.8,334.6,231.8L334.6,231.8h-2.2"/>
	</g>
</g>
<g transform="translate(-27.04920144617405,197.96055339669138) rotate(-352.2193256845193,0,0)">
	<g>
		<path class="st1" d="M327.5,246.3H322"/>
		<path class="st1" d="M327.5,252.2H322v-10.6l5.6,0"/>
	</g>
</g>
<g transform="translate(-17.963695933736506,198.99081794997542) rotate(-354.8416632533405,0,0)">
	<g>
		<path class="st1" d="M315.8,266.7l-3.4-5.3"/>
		<path class="st1" d="M309.9,266.7v-10.5h2.7l0,0c2.2,0,3.3,0.9,3.3,2.7l0,0l0,0c0,1-0.5,1.6-1.4,2l0,0l0,0
			c-0.7,0.3-1.6,0.4-2.9,0.4l0,0l0,0c-0.2,0-0.6,0-1,0l0,0l0,0c-0.4,0-0.7,0-0.8,0l0,0"/>
	</g>
</g>
<g transform="translate(19.27501689863141,198.86808120851742) rotate(-365.53602283070944,0,0)">
	<g>
		<path class="st1" d="M253.4,314.8L253.4,314.8c0-1.4,0.5-2.6,1.6-3.7l0,0l0,0c1.1-1.1,2.3-1.6,3.7-1.6l0,0l0,0
			c1.6,0,2.9,0.5,4,1.6l0,0l0,0c1.1,1,1.6,2.3,1.6,3.9l0,0l0,0c0,1.5-0.5,2.8-1.6,3.9l0,0l0,0c-1.1,1.1-2.3,1.7-3.8,1.7l0,0l0,0
			c-1.5,0-2.9-0.6-3.9-1.7l0,0l0,0C254,317.7,253.4,316.3,253.4,314.8"/>
	</g>
</g>
<g transform="translate(32.615453821067696,197.11994361820877) rotate(-369.39503732220425,0,0)">
	<g>
		<path class="st1" d="M241.9,335.5L241.9,335.5c-0.8,0.6-1.4,1.1-1.8,1.2l0,0l0,0c-0.6,0.3-1.3,0.5-2.1,0.5l0,0l0,0
			c-1.6,0-3-0.4-4.1-1.3l0,0l0,0c-1.2-1-1.8-2.2-1.8-3.8l0,0l0,0c0-1.3,0.2-2.3,0.6-3.1l0,0l0,0c0.5-0.8,1.2-1.5,2.3-2.1l0,0l0,0
			c0.9-0.5,1.6-0.7,2.3-0.7l0,0l0,0c0.9,0,1.7,0.2,2.5,0.5l0,0l0,0c0.6,0.3,1.3,0.8,2,1.4l0,0"/>
	</g>
</g>
<g transform="translate(42.348557750239834,195.26044058250665) rotate(-372.23692985193503,0,0)">
	<g>
		<path class="st1" d="M220.4,348.3v-10.5"/>
		<path class="st1" d="M217.8,337.8h5.2"/>
	</g>
</g>
<g transform="translate(52.41111709971126,192.80330599956102) rotate(-375.2076428944442,0,0)">
	<g>
		<path class="st1" d="M196.9,353.8L196.9,353.8c0-1.4,0.5-2.6,1.6-3.7l0,0l0,0c1.1-1.1,2.3-1.6,3.7-1.6l0,0l0,0
			c1.6,0,2.9,0.5,4,1.6l0,0l0,0c1.1,1,1.6,2.3,1.6,3.9l0,0l0,0c0,1.5-0.5,2.8-1.6,3.9l0,0l0,0c-1.1,1.1-2.3,1.7-3.8,1.7l0,0l0,0
			c-1.5,0-2.9-0.6-3.9-1.7l0,0l0,0C197.4,356.7,196.9,355.4,196.9,353.8"/>
	</g>
</g>
<g transform="translate(63.45993598421223,189.45415415049544) rotate(-378.51889016203734,0,0)">
	<g>
		<path class="st1" d="M181.2,364.7L181.2,364.7c2.4,0.4,3.6,1.4,3.6,2.9l0,0l0,0c0,1.1-0.5,1.8-1.6,2.3l0,0l0,0
			c-0.8,0.3-1.7,0.5-2.9,0.5l0,0l-1.3,0v-10.5l1,0l0,0c2.6-0.1,3.9,0.7,3.9,2.2l0,0l0,0c0,0.6-0.3,1.2-0.8,1.7l0,0l0,0
			C182.5,364.4,181.9,364.7,181.2,364.7L181.2,364.7H179"/>
	</g>
</g>
<g transform="translate(71.81730718229652,186.44654566144064) rotate(-381.06617577993546,0,0)">
	<g>
		<path class="st1" d="M168.4,372.3h-5.6"/>
		<path class="st1" d="M168.4,378.1h-5.6v-10.6h5.6"/>
	</g>
</g>
<g transform="translate(80.2724864904525,182.96548284482546) rotate(-383.6885133487568,0,0)">
	<g>
		<path class="st1" d="M151.1,385.2l-3.4-5.3"/>
		<path class="st1" d="M145.2,385.2v-10.5h2.7l0,0c2.2,0,3.3,0.9,3.3,2.7l0,0l0,0c0,1-0.5,1.6-1.4,2l0,0l0,0
			c-0.7,0.3-1.6,0.4-2.9,0.4l0,0l0,0c-0.2,0-0.6,0-1,0l0,0l0,0c-0.4,0-0.7,0-0.8,0l0,0"/>
	</g>
</g>
<g transform="translate(110.25145066783398,166.6273015614133) rotate(-393.4912109420242,0,0)">
	<g>
		<path class="st1" d="M77.4,404.9v-10.5l7.9,10.5l0-10.5"/>
	</g>
</g>
<g transform="translate(120.7494517705512,159.18420115423308) rotate(-397.18219867772103,0,0)">
	<g>
		<path class="st1" d="M49.9,403.8L49.9,403.8c0-1.4,0.5-2.6,1.6-3.7l0,0l0,0c1.1-1.1,2.3-1.6,3.7-1.6l0,0l0,0c1.6,0,2.9,0.5,4,1.6
			l0,0l0,0c1.1,1,1.6,2.3,1.6,3.9l0,0l0,0c0,1.5-0.5,2.8-1.6,3.9l0,0l0,0c-1.1,1.1-2.3,1.7-3.8,1.7l0,0l0,0c-1.5,0-2.9-0.6-3.9-1.7
			l0,0l0,0C50.5,406.7,49.9,405.4,49.9,403.8"/>
	</g>
</g>
<g transform="translate(130.51893857506388,151.2773832178449) rotate(-400.78693267877475,0,0)">
	<g>
		<path class="st1" d="M25.7,401.4l4.2,10.6l4.4-10.6"/>
	</g>
</g>
<g transform="translate(137.855932484686,144.62289541693494) rotate(-403.6277050301334,0,0)">
	<g>
		<path class="st1" d="M13,407.2H7.4"/>
		<path class="st1" d="M13,413H7.4l0-10.6H13"/>
	</g>
</g>
<g transform="translate(146.0431947032428,136.35037690036182) rotate(-406.9658365786544,0,0)">
	<g>
		<path class="st1" d="M-19.8,412.8l1.4-10.5l4.5,9.9l4.5-9.9l1.4,10.5"/>
	</g>
</g>
<g transform="translate(153.9292991975146,127.38057484782374) rotate(-410.39134204019024,0,0)">
	<g>
		<path class="st1" d="M-38.7,405.6L-38.7,405.6c2.4,0.4,3.6,1.4,3.6,2.9l0,0l0,0c0,1.1-0.5,1.8-1.6,2.3l0,0l0,0
			c-0.8,0.3-1.7,0.5-2.9,0.5l0,0l-1.3,0v-10.5l1,0l0,0c2.6-0.1,3.9,0.7,3.9,2.2l0,0l0,0c0,0.6-0.3,1.2-0.8,1.7l0,0l0,0
			C-37.4,405.3-38,405.6-38.7,405.6L-38.7,405.6h-2.2"/>
	</g>
</g>
<g transform="translate(159.4384855536243,120.41349311587443) rotate(-412.9386276580884,0,0)">
	<g>
		<path class="st1" d="M-53,403.4h-5.6"/>
		<path class="st1" d="M-53,409.2h-5.6v-10.6h5.6"/>
	</g>
</g>
<g transform="translate(164.78073493900484,112.99269619299045) rotate(-415.5609652269097,0,0)">
	<g>
		<path class="st1" d="M-71.6,406.2l-3.4-5.3"/>
		<path class="st1" d="M-77.5,406.2l0-10.5h2.7l0,0c2.2,0,3.3,0.9,3.3,2.7l0,0l0,0c0,1-0.5,1.6-1.4,2l0,0l0,0
			c-0.7,0.3-1.6,0.4-2.9,0.4l0,0l0,0c-0.2,0-0.6,0-1,0l0,0l0,0c-0.4,0-0.7,0-0.8,0l0,0"/>
	</g>
</g>
<g transform="translate(179.6754553395652,87.38861910180253) rotate(-424.06313573030036,0,0)">
	<g>
		<path class="st1" d="M-137.1,390.8l0-10.6l1.1,0l0,0c2,0,3.6,0.2,4.6,0.6l0,0l0,0c1.4,0.6,2.3,1.8,2.7,3.5l0,0l0,0
			c0.2,0.8,0.3,1.3,0.3,1.6l0,0l0,0c0,1.3-0.5,2.4-1.4,3.4l0,0l0,0c-0.9,1-2,1.5-3.3,1.5l0,0l0,0c-0.4,0-1.1,0-2,0l0,0l0,0
			C-136,390.8-136.7,390.8-137.1,390.8"/>
	</g>
</g>
<g transform="translate(183.9172013910965,78.06729809892782) rotate(-427.00024342165,0,0)">
	<g>
		<path class="st1" d="M-149.4,377.6h-5.6"/>
		<path class="st1" d="M-149.4,383.4l-5.6,0l0-10.6h5.6"/>
	</g>
</g>
<g transform="translate(187.86398399353044,68.02325718516089) rotate(-430.0952962634497,0,0)">
	<g>
		<path class="st1" d="M-167.9,373.2L-167.9,373.2c-0.8,0.6-1.4,1.1-1.8,1.2l0,0l0,0c-0.6,0.3-1.3,0.5-2.1,0.5l0,0l0,0
			c-1.6,0-3-0.4-4.1-1.3l0,0l0,0c-1.2-1-1.8-2.2-1.8-3.8l0,0l0,0c0-1.3,0.2-2.3,0.6-3.1l0,0l0,0c0.5-0.8,1.2-1.5,2.3-2.1l0,0l0,0
			c0.9-0.5,1.6-0.7,2.3-0.7l0,0l0,0c0.9,0,1.7,0.2,2.5,0.5l0,0l0,0c0.6,0.3,1.3,0.8,2,1.4l0,0"/>
	</g>
</g>
<g transform="translate(191.26270573369115,57.78077011798536) rotate(-433.1903491052494,0,0)">
	<g>
		<path class="st1" d="M-189.2,359h-5.6"/>
		<path class="st1" d="M-189.2,364.8h-5.6l0-10.6h5.6"/>
	</g>
</g>
<g transform="translate(194.3026711434612,46.545805251558114) rotate(-436.5284806537704,0,0)">
	<g>
		<path class="st1" d="M-218.8,353l1.4-10.5l4.5,9.9l4.5-9.9l1.4,10.5"/>
	</g>
</g>
<g transform="translate(196.7366623387737,34.85291511192917) rotate(-439.9539861153062,0,0)">
	<g>
		<path class="st1" d="M-233.7,333.9L-233.7,333.9c2.4,0.4,3.6,1.4,3.6,2.9l0,0l0,0c0,1.1-0.5,1.8-1.6,2.3l0,0l0,0
			c-0.8,0.3-1.7,0.5-2.9,0.5l0,0l-1.3,0v-10.5l1,0l0,0c2.6-0.1,3.9,0.7,3.9,2.2l0,0l0,0c0,0.6-0.3,1.2-0.8,1.7l0,0l0,0
			C-232.5,333.7-233.1,333.9-233.7,333.9L-233.7,333.9h-2.2"/>
	</g>
</g>
<g transform="translate(198.09126210434908,26.074736391880823) rotate(-442.5012717332044,0,0)">
	<g>
		<path class="st1" d="M-244.7,323.1h-5.6"/>
		<path class="st1" d="M-244.7,328.9h-5.6v-10.6h5.6"/>
	</g>
</g>
<g transform="translate(199.07680561938662,16.98427108771437) rotate(-445.12360930202567,0,0)">
	<g>
		<path class="st1" d="M-259.4,317.2l-3.4-5.3"/>
		<path class="st1" d="M-265.3,317.2v-10.5h2.7l0,0c2.2,0,3.3,0.9,3.3,2.7l0,0l0,0c0,1-0.5,1.6-1.4,2l0,0l0,0
			c-0.7,0.3-1.6,0.4-2.9,0.4l0,0l0,0c-0.2,0-0.6,0-1,0l0,0l0,0c-0.4,0-0.7,0-0.8,0l0,0"/>
	</g>
</g>
</svg>
