<?xml version="1.0" encoding="utf-8"?>
<!-- Generator: Adobe Illustrator 16.0.3, SVG Export Plug-In . SVG Version: 6.00 Build 0)  -->
<!DOCTYPE svg PUBLIC "-//W3C//DTD SVG 1.1//EN" "http://www.w3.org/Graphics/SVG/1.1/DTD/svg11.dtd">
<svg version="1.1" id="Layer_1" xmlns="http://www.w3.org/2000/svg" xmlns:xlink="http://www.w3.org/1999/xlink" x="0px" y="0px"
	 width="576px" height="576px" viewBox="0 0 576 576" enable-background="new 0 0 576 576" xml:space="preserve">
<path fill="none" stroke="#00FF00" stroke-width="0.5" stroke-linecap="round" stroke-miterlimit="10" d="M238.032,288
	c0-27.597,22.371-49.968,49.968-49.968s49.968,22.371,49.968,49.968S315.597,337.968,288,337.968S238.032,315.597,238.032,288z"/>
<path fill="none" stroke="#00FF00" stroke-width="0.5" stroke-linecap="round" stroke-miterlimit="10" d="M244.8,288
	c0-23.859,19.341-43.2,43.2-43.2c23.858,0,43.2,19.341,43.2,43.2c0,23.859-19.342,43.2-43.2,43.2
	C264.141,331.2,244.8,311.859,244.8,288z"/>
<path fill="none" stroke="#FF0000" stroke-width="0.5" stroke-linecap="round" stroke-miterlimit="10" d="M332.64,288l3.886,0.485"
	/>
<path fill="none" stroke="#FF0000" stroke-width="0.5" stroke-linecap="round" stroke-miterlimit="10" d="M332.64,288l3.886-0.485"
	/>
<path fill="none" stroke="#FF0000" stroke-width="0.5" stroke-linecap="round" stroke-miterlimit="10" d="M336.525,287.515v0.971"/>
</svg>
