<?xml version="1.0" encoding="utf-8"?>
<!-- Generator: Adobe Illustrator 16.0.3, SVG Export Plug-In . SVG Version: 6.00 Build 0)  -->
<!DOCTYPE svg PUBLIC "-//W3C//DTD SVG 1.1//EN" "http://www.w3.org/Graphics/SVG/1.1/DTD/svg11.dtd">
<svg version="1.1" id="Layer_1" xmlns="http://www.w3.org/2000/svg" xmlns:xlink="http://www.w3.org/1999/xlink" x="0px" y="0px"
	 width="612px" height="792px" viewBox="0 0 612 792" enable-background="new 0 0 612 792" xml:space="preserve">
<g id="ELLIPSE">
	<path fill="none" stroke="#00FF00" stroke-miterlimit="10" d="M194.4,393.741c-1.243,0-2.25,1.012-2.25,2.259
		c0,1.248,1.007,2.259,2.25,2.259c1.243,0,2.25-1.011,2.25-2.259S195.643,393.741,194.4,393.741"/>
</g>
<g id="ELLIPSE_1_">
	<path fill="none" stroke="#00FF00" stroke-miterlimit="10" d="M237.6,393.741c-1.242,0-2.25,1.012-2.25,2.259
		c0,1.248,1.008,2.259,2.25,2.259c1.243,0,2.25-1.011,2.25-2.259S238.843,393.741,237.6,393.741"/>
</g>
<g id="LWPOLYLINE">
	<path fill="none" stroke="#00FF00" stroke-miterlimit="10" d="M230.252,391.5h15.935c2.485,0,4.5-2.015,4.5-4.5
		c0-0.436-0.062-0.869-0.188-1.286c-5.681-19.054-25.731-29.895-44.784-24.214c-11.639,3.47-20.744,12.575-24.213,24.214
		c-0.71,2.382,0.645,4.888,3.026,5.598c0.417,0.125,0.851,0.188,1.286,0.188h15.935c-0.925,2.929-0.925,6.071,0,9h-15.935
		c-2.485,0-4.5,2.015-4.5,4.5c0,0.436,0.063,0.868,0.188,1.286c5.68,19.053,25.731,29.894,44.785,24.213
		c11.639-3.47,20.743-12.574,24.213-24.213c0.709-2.382-0.645-4.89-3.026-5.6c-0.417-0.124-0.851-0.188-1.286-0.188h-15.935
		C231.177,397.571,231.177,394.429,230.252,391.5z"/>
</g>
<g id="CIRCLE">
	<path fill="none" stroke="#00FF00" stroke-miterlimit="10" d="M264.877,396c0-26.995-21.883-48.878-48.877-48.878
		S167.123,369.005,167.123,396c0,26.994,21.883,48.878,48.877,48.878S264.877,422.994,264.877,396L264.877,396z"/>
</g>
<g id="ELLIPSE_2_">
	<path fill="none" stroke="#00FF00" stroke-miterlimit="10" d="M194.4,393.741c-1.243,0-2.25,1.012-2.25,2.259
		c0,1.248,1.007,2.259,2.25,2.259c1.243,0,2.25-1.011,2.25-2.259S195.643,393.741,194.4,393.741"/>
</g>
<g id="ELLIPSE_3_">
	<path fill="none" stroke="#00FF00" stroke-miterlimit="10" d="M237.6,393.741c-1.242,0-2.25,1.012-2.25,2.259
		c0,1.248,1.008,2.259,2.25,2.259c1.243,0,2.25-1.011,2.25-2.259S238.843,393.741,237.6,393.741"/>
</g>
<g id="LWPOLYLINE_1_">
	<path fill="none" stroke="#00FF00" stroke-miterlimit="10" d="M246.187,391.5h-15.935c0.925,2.929,0.925,6.071,0,9h15.935
		c0.436,0,0.869,0.062,1.286,0.188c2.382,0.711,3.736,3.218,3.026,5.6c-3.47,11.639-12.574,20.743-24.213,24.213
		c-19.053,5.681-39.104-5.16-44.785-24.213c-0.124-0.418-0.188-0.852-0.188-1.286c0-2.485,2.014-4.5,4.5-4.5h15.935
		c-0.925-2.929-0.925-6.071,0-9h-15.935c-0.435,0-0.868-0.063-1.286-0.188c-2.381-0.71-3.736-3.216-3.026-5.598
		c3.47-11.639,12.574-20.744,24.213-24.214c19.053-5.681,39.104,5.16,44.784,24.214c0.125,0.417,0.188,0.85,0.188,1.286
		C250.687,389.485,248.672,391.5,246.187,391.5z"/>
</g>
<g id="CIRCLE_1_">
	<path fill="none" stroke="#00FF00" stroke-miterlimit="10" d="M264.877,396c0-26.995-21.883-48.878-48.877-48.878
		S167.123,369.005,167.123,396c0,26.994,21.883,48.878,48.877,48.878S264.877,422.994,264.877,396L264.877,396z"/>
</g>
<g id="MhxYqK.tif">
	<g>
		<path fill="none" stroke="#FF0000" stroke-width="0.5" stroke-miterlimit="10" d="M254.818,393.941
			c-0.241-0.641-0.136-1.074,0.218-1.372c0.473-0.4,1.2-0.263,1.557,0.238c0.467,0.656,0.093,1.482-0.395,1.731
			c-0.336,0.17-0.717,0.201-1.092,0.176c-0.507-0.034-0.933-0.282-1.348-0.581c-0.375-0.27-0.763-0.513-1.225-0.597
			c-0.605-0.11-1.176-0.019-1.688,0.326c-0.795,0.535-1.218,1.324-1.131,2.357c0.07,0.841,0.479,1.479,1.147,1.903
			c0.788,0.501,1.581,0.396,2.361-0.022c0.229-0.124,0.435-0.294,0.655-0.436c0.545-0.352,1.128-0.537,1.767-0.438
			c0.609,0.095,0.98,0.515,1.106,1.025c0.142,0.576-0.158,1.157-0.665,1.333c-0.572,0.197-1.021,0.014-1.266-0.479
			c-0.163-0.331-0.209-0.679-0.021-1.023"/>
	</g>
</g>
<g id="MhxYqK.tif_1_">
	<g>
		<path fill="none" stroke="#FF0000" stroke-width="0.5" stroke-miterlimit="10" d="M180.31,393.941
			c-0.241-0.641-0.136-1.074,0.218-1.373c0.473-0.4,1.2-0.262,1.557,0.238c0.467,0.656,0.093,1.482-0.395,1.732
			c-0.336,0.17-0.717,0.2-1.092,0.176c-0.507-0.033-0.933-0.281-1.348-0.58c-0.375-0.27-0.764-0.514-1.226-0.598
			c-0.605-0.109-1.176-0.018-1.688,0.326c-0.795,0.535-1.218,1.324-1.131,2.357c0.07,0.841,0.479,1.479,1.147,1.903
			c0.788,0.501,1.581,0.397,2.361-0.022c0.229-0.124,0.435-0.294,0.655-0.436c0.545-0.351,1.128-0.537,1.767-0.438
			c0.609,0.095,0.98,0.515,1.106,1.025c0.142,0.576-0.158,1.157-0.665,1.333c-0.572,0.197-1.021,0.014-1.266-0.479
			c-0.163-0.331-0.209-0.679-0.021-1.023"/>
	</g>
</g>
</svg>
