  0
SECTION
  2
HEADER
  9
$ACADVER
  1
AC1012
  9
$DWGCODEPAGE
  3
ansi_932
  9
$INSBASE
 10
0.0
 20
0.0
 30
0.0
  9
$EXTMIN
 10
1.000000000000000E+20
 20
1.000000000000000E+20
 30
1.000000000000000E+20
  9
$EXTMAX
 10
-1.000000000000000E+20
 20
-1.000000000000000E+20
 30
-1.000000000000000E+20
  9
$LIMMIN
 10
0.0
 20
0.0
  9
$LIMMAX
 10
12.0
 20
9.0
  9
$ORTHOMODE
 70
     0
  9
$REGENMODE
 70
     1
  9
$FILLMODE
 70
     1
  9
$QTEXTMODE
 70
     0
  9
$MIRRTEXT
 70
     1
  9
$DRAGMODE
 70
     2
  9
$LTSCALE
 40
1.0
  9
$OSMODE
 70
    37
  9
$ATTMODE
 70
     1
  9
$TEXTSIZE
 40
0.2
  9
$TRACEWID
 40
0.05
  9
$TEXTSTYLE
  7
STANDARD
  9
$CLAYER
  8
0
  9
$CELTYPE
  6
BYLAYER
  9
$CECOLOR
 62
   256
  9
$CELTSCALE
 40
1.0
  9
$DELOBJ
 70
     1
  9
$DISPSILH
 70
     0
  9
$DIMSCALE
 40
1.0
  9
$DIMASZ
 40
0.18
  9
$DIMEXO
 40
0.0625
  9
$DIMDLI
 40
0.38
  9
$DIMRND
 40
0.0
  9
$DIMDLE
 40
0.0
  9
$DIMEXE
 40
0.18
  9
$DIMTP
 40
0.0
  9
$DIMTM
 40
0.0
  9
$DIMTXT
 40
0.18
  9
$DIMCEN
 40
0.09
  9
$DIMTSZ
 40
0.0
  9
$DIMTOL
 70
     0
  9
$DIMLIM
 70
     0
  9
$DIMTIH
 70
     1
  9
$DIMTOH
 70
     1
  9
$DIMSE1
 70
     0
  9
$DIMSE2
 70
     0
  9
$DIMTAD
 70
     0
  9
$DIMZIN
 70
     0
  9
$DIMBLK
  1

  9
$DIMASO
 70
     1
  9
$DIMSHO
 70
     1
  9
$DIMPOST
  1

  9
$DIMAPOST
  1

  9
$DIMALT
 70
     0
  9
$DIMALTD
 70
     2
  9
$DIMALTF
 40
25.4
  9
$DIMLFAC
 40
1.0
  9
$DIMTOFL
 70
     0
  9
$DIMTVP
 40
0.0
  9
$DIMTIX
 70
     0
  9
$DIMSOXD
 70
     0
  9
$DIMSAH
 70
     0
  9
$DIMBLK1
  1

  9
$DIMBLK2
  1

  9
$DIMSTYLE
  2
STANDARD
  9
$DIMCLRD
 70
     0
  9
$DIMCLRE
 70
     0
  9
$DIMCLRT
 70
     0
  9
$DIMTFAC
 40
1.0
  9
$DIMGAP
 40
0.09
  9
$DIMJUST
 70
     0
  9
$DIMSD1
 70
     0
  9
$DIMSD2
 70
     0
  9
$DIMTOLJ
 70
     1
  9
$DIMTZIN
 70
     0
  9
$DIMALTZ
 70
     0
  9
$DIMALTTZ
 70
     0
  9
$DIMFIT
 70
     3
  9
$DIMUPT
 70
     0
  9
$DIMUNIT
 70
     2
  9
$DIMDEC
 70
     4
  9
$DIMTDEC
 70
     4
  9
$DIMALTU
 70
     2
  9
$DIMALTTD
 70
     2
  9
$DIMTXSTY
  7
STANDARD
  9
$DIMAUNIT
 70
     0
  9
$LUNITS
 70
     2
  9
$LUPREC
 70
     4
  9
$SKETCHINC
 40
0.1
  9
$FILLETRAD
 40
0.5
  9
$AUNITS
 70
     0
  9
$AUPREC
 70
     0
  9
$MENU
  1
.
  9
$ELEVATION
 40
0.0
  9
$PELEVATION
 40
0.0
  9
$THICKNESS
 40
0.0
  9
$LIMCHECK
 70
     0
  9
$CHAMFERA
 40
0.5
  9
$CHAMFERB
 40
0.5
  9
$CHAMFERC
 40
1.0
  9
$CHAMFERD
 40
0.0
  9
$SKPOLY
 70
     0
  9
$TDCREATE
 40
2458110.143460648
  9
$TDUPDATE
 40
2458110.14346066
  9
$TDINDWG
 40
0.0000000116
  9
$TDUSRTIMER
 40
0.0000000116
  9
$USRTIMER
 70
     1
  9
$ANGBASE
 50
0.0
  9
$ANGDIR
 70
     0
  9
$PDMODE
 70
     0
  9
$PDSIZE
 40
0.0
  9
$PLINEWID
 40
0.0
  9
$COORDS
 70
     1
  9
$SPLFRAME
 70
     0
  9
$SPLINETYPE
 70
     6
  9
$SPLINESEGS
 70
     8
  9
$ATTDIA
 70
     0
  9
$ATTREQ
 70
     1
  9
$HANDLING
 70
     1
  9
$HANDSEED
  5
7C
  9
$SURFTAB1
 70
     6
  9
$SURFTAB2
 70
     6
  9
$SURFTYPE
 70
     6
  9
$SURFU
 70
     6
  9
$SURFV
 70
     6
  9
$UCSNAME
  2

  9
$UCSORG
 10
0.0
 20
0.0
 30
0.0
  9
$UCSXDIR
 10
1.0
 20
0.0
 30
0.0
  9
$UCSYDIR
 10
0.0
 20
1.0
 30
0.0
  9
$PUCSNAME
  2

  9
$PUCSORG
 10
0.0
 20
0.0
 30
0.0
  9
$PUCSXDIR
 10
1.0
 20
0.0
 30
0.0
  9
$PUCSYDIR
 10
0.0
 20
1.0
 30
0.0
  9
$USERI1
 70
     0
  9
$USERI2
 70
     0
  9
$USERI3
 70
     0
  9
$USERI4
 70
     0
  9
$USERI5
 70
     0
  9
$USERR1
 40
0.0
  9
$USERR2
 40
0.0
  9
$USERR3
 40
0.0
  9
$USERR4
 40
0.0
  9
$USERR5
 40
0.0
  9
$WORLDVIEW
 70
     1
  9
$SHADEDGE
 70
     3
  9
$SHADEDIF
 70
    70
  9
$TILEMODE
 70
     1
  9
$MAXACTVP
 70
    64
  9
$PINSBASE
 10
0.0
 20
0.0
 30
0.0
  9
$PLIMCHECK
 70
     0
  9
$PEXTMIN
 10
1.000000000000000E+20
 20
1.000000000000000E+20
 30
1.000000000000000E+20
  9
$PEXTMAX
 10
-1.000000000000000E+20
 20
-1.000000000000000E+20
 30
-1.000000000000000E+20
  9
$PLIMMIN
 10
0.0
 20
0.0
  9
$PLIMMAX
 10
12.0
 20
9.0
  9
$UNITMODE
 70
     0
  9
$VISRETAIN
 70
     1
  9
$PLINEGEN
 70
     0
  9
$PSLTSCALE
 70
     1
  9
$TREEDEPTH
 70
  3020
  9
$PICKSTYLE
 70
     1
  9
$CMLSTYLE
  2
STANDARD
  9
$CMLJUST
 70
     0
  9
$CMLSCALE
 40
1.0
  9
$SAVEIMAGES
 70
     1
  0
ENDSEC
  0
SECTION
  2
CLASSES
  0
CLASS
  1
ACDBDICTIONARYWDFLT
  2
AcDbDictionaryWithDefault
  3
ObjectDBX Classes
 90
    32768
280
     0
281
     0
  0
CLASS
  1
VISUALSTYLE
  2
AcDbVisualStyle
  3
ObjectDBX Classes
 90
     4095
280
     0
281
     0
  0
CLASS
  1
XRECORD
  2
AcDbXrecord
  3
AutoCAD 2000
 90
    32768
280
     0
281
     0
  0
CLASS
  1
LWPOLYLINE
  2
AcDbPolyline
  3
AutoCAD 2000
 90
    32768
280
     0
281
     1
  0
CLASS
  1
HATCH
  2
AcDbHatch
  3
AutoCAD 2000
 90
    32768
280
     0
281
     1
  0
CLASS
  1
ACDBPLACEHOLDER
  2
AcDbPlaceHolder
  3
ObjectDBX Classes
 90
        0
280
     0
281
     0
  0
CLASS
  1
LAYOUT
  2
AcDbLayout
  3
ObjectDBX Classes
 90
        0
280
     0
281
     0
  0
ENDSEC
  0
SECTION
  2
TABLES
  0
TABLE
  2
VPORT
  5
8
330
0
100
AcDbSymbolTable
 70
     1
  0
VPORT
  5
29
330
8
100
AcDbSymbolTableRecord
100
AcDbViewportTableRecord
  2
*ACTIVE
 70
     0
 10
0.0
 20
0.0
 11
1.0
 21
1.0
 12
0.0
 22
0.0
 13
0.0
 23
0.0
 14
0.5
 24
0.5
 15
0.5
 25
0.5
 16
0.0
 26
0.0
 36
1.0
 17
4.25
 27
-5.5
 37
0.0
 40
11.0
 41
0.7727272727272727
 42
50.0
 43
0.0
 44
0.0
 50
0.0
 51
0.0
 71
     0
 72
   100
 73
     1
 74
     3
 75
     0
 76
     0
 77
     0
 78
     0
  0
ENDTAB
  0
TABLE
  2
LTYPE
  5
5
330
0
100
AcDbSymbolTable
 70
     1
  0
LTYPE
  5
14
330
5
100
AcDbSymbolTableRecord
100
AcDbLinetypeTableRecord
  2
BYBLOCK
 70
     0
  3

 72
    65
 73
     0
 40
0.0
  0
LTYPE
  5
15
330
5
100
AcDbSymbolTableRecord
100
AcDbLinetypeTableRecord
  2
BYLAYER
 70
     0
  3

 72
    65
 73
     0
 40
0.0
  0
LTYPE
  5
16
330
5
100
AcDbSymbolTableRecord
100
AcDbLinetypeTableRecord
  2
CONTINUOUS
 70
     0
  3
Solid line
 72
    65
 73
     0
 40
0.0
  0
ENDTAB
  0
TABLE
  2
LAYER
  5
2
330
0
100
AcDbSymbolTable
 70
     2
  0
LAYER
  5
10
330
2
100
AcDbSymbolTableRecord
100
AcDbLayerTableRecord
  2
0
 70
     0
 62
     7
  6
CONTINUOUS
  0
LAYER
  5
3B
330
2
100
AcDbSymbolTableRecord
100
AcDbLayerTableRecord
  2
LAYER_1
 70
     0
 62
     7
  6
CONTINUOUS
  0
ENDTAB
  0
TABLE
  2
STYLE
  5
3
330
0
100
AcDbSymbolTable
 70
     1
  0
STYLE
  5
11
330
3
100
AcDbSymbolTableRecord
100
AcDbTextStyleTableRecord
  2
STANDARD
 70
     0
 40
0.0
 41
1.0
 50
0.0
 71
     0
 42
0.2
  3
txt
  4

  0
ENDTAB
  0
TABLE
  2
VIEW
  5
6
330
0
100
AcDbSymbolTable
 70
     0
  0
ENDTAB
  0
TABLE
  2
UCS
  5
7
330
0
100
AcDbSymbolTable
 70
     0
  0
ENDTAB
  0
TABLE
  2
APPID
  5
9
330
0
100
AcDbSymbolTable
 70
     1
  0
APPID
  5
12
330
9
100
AcDbSymbolTableRecord
100
AcDbRegAppTableRecord
  2
ACAD
 70
     0
  0
ENDTAB
  0
TABLE
  2
DIMSTYLE
  5
A
330
0
100
AcDbSymbolTable
 70
     1
  0
DIMSTYLE
105
27
330
A
100
AcDbSymbolTableRecord
100
AcDbDimStyleTableRecord
  2
STANDARD
 70
     0
  3

  4

  5

  6

  7

 40
1.0
 41
0.18
 42
0.0625
 43
0.38
 44
0.18
 45
0.0
 46
0.0
 47
0.0
 48
0.0
140
0.18
141
0.09
142
0.0
143
25.4
144
1.0
145
0.0
146
1.0
147
0.09
 71
     0
 72
     0
 73
     1
 74
     1
 75
     0
 76
     0
 77
     0
 78
     0
170
     0
171
     2
172
     0
173
     0
174
     0
175
     0
176
     0
177
     0
178
     0
270
     2
271
     4
272
     4
273
     2
274
     2
340
11
275
     0
280
     0
281
     0
282
     0
283
     1
284
     0
285
     0
286
     0
287
     3
288
     0
  0
ENDTAB
  0
TABLE
  2
BLOCK_RECORD
  5
1
330
0
100
AcDbSymbolTable
 70
     1
  0
BLOCK_RECORD
  5
1F
330
1
100
AcDbSymbolTableRecord
100
AcDbBlockTableRecord
  2
*MODEL_SPACE
  0
BLOCK_RECORD
  5
1B
330
1
100
AcDbSymbolTableRecord
100
AcDbBlockTableRecord
  2
*PAPER_SPACE
  0
ENDTAB
  0
ENDSEC
  0
SECTION
  2
BLOCKS
  0
BLOCK
  5
20
330
1F
100
AcDbEntity
  8
0
100
AcDbBlockBegin
  2
*MODEL_SPACE
 70
     0
 71
     0
 10
0.0
 20
0.0
 30
0.0
  3
*MODEL_SPACE
  1

  0
ENDBLK
  5
21
330
1F
100
AcDbEntity
  8
0
100
AcDbBlockEnd
  0
BLOCK
  5
1C
330
1B
100
AcDbEntity
 67
     1
  8
0
100
AcDbBlockBegin
  2
*PAPER_SPACE
 70
     0
 71
     0
 10
0.0
 20
0.0
 30
0.0
  3
*PAPER_SPACE
  1

  0
ENDBLK
  5
1D
330
1B
100
AcDbEntity
 67
     1
  8
0
100
AcDbBlockEnd
  0
ENDSEC
  0
SECTION
  2
ENTITIES
  0
SPLINE
  5
3C
330
1F
100
AcDbEntity
  8
LAYER_1
 62
   250
100
AcDbSpline
210
0.0
220
0.0
230
1.0
 70
    11
 71
     3
 72
    17
 73
    13
 74
     0
 42
0.0000000001
 43
0.0000000001
 40
0.0
 40
0.0
 40
0.0
 40
0.0
 40
1.0
 40
1.0
 40
1.0
 40
2.0
 40
2.0
 40
2.0
 40
3.0
 40
3.0
 40
3.0
 40
4.0
 40
4.0
 40
4.0
 40
4.0
 10
3.68963623046875
 20
-3.454861111111111
 30
0.0
 10
3.68963623046875
 20
-3.4893798828125
 30
0.0
 10
3.661655002170139
 20
-3.517361111111111
 30
0.0
 10
3.62713623046875
 20
-3.517361111111111
 30
0.0
 10
3.592617458767361
 20
-3.517361111111111
 30
0.0
 10
3.56463623046875
 20
-3.4893798828125
 30
0.0
 10
3.56463623046875
 20
-3.454861111111111
 30
0.0
 10
3.56463623046875
 20
-3.420342339409722
 30
0.0
 10
3.592617458767361
 20
-3.392361111111111
 30
0.0
 10
3.62713623046875
 20
-3.392361111111111
 30
0.0
 10
3.661655002170139
 20
-3.392361111111111
 30
0.0
 10
3.68963623046875
 20
-3.420342339409722
 30
0.0
 10
3.68963623046875
 20
-3.454861111111111
 30
0.0
  0
SPLINE
  5
3D
330
1F
100
AcDbEntity
  8
LAYER_1
 62
   250
100
AcDbSpline
210
0.0
220
0.0
230
1.0
 70
    11
 71
     3
 72
    17
 73
    13
 74
     0
 42
0.0000000001
 43
0.0000000001
 40
0.0
 40
0.0
 40
0.0
 40
0.0
 40
1.0
 40
1.0
 40
1.0
 40
2.0
 40
2.0
 40
2.0
 40
3.0
 40
3.0
 40
3.0
 40
4.0
 40
4.0
 40
4.0
 40
4.0
 10
3.877115885416667
 20
-3.454861111111111
 30
0.0
 10
3.877115885416667
 20
-3.592936197916667
 30
0.0
 10
3.765190972222222
 20
-3.704861111111111
 30
0.0
 10
3.627115885416667
 20
-3.704861111111111
 30
0.0
 10
3.489040798611111
 20
-3.704861111111111
 30
0.0
 10
3.377115885416667
 20
-3.592936197916667
 30
0.0
 10
3.377115885416667
 20
-3.454861111111111
 30
0.0
 10
3.377115885416667
 20
-3.316786024305555
 30
0.0
 10
3.489040798611111
 20
-3.204861111111111
 30
0.0
 10
3.627115885416667
 20
-3.204861111111111
 30
0.0
 10
3.765190972222222
 20
-3.204861111111111
 30
0.0
 10
3.877115885416667
 20
-3.316786024305555
 30
0.0
 10
3.877115885416667
 20
-3.454861111111111
 30
0.0
  0
SPLINE
  5
3E
330
1F
100
AcDbEntity
  8
LAYER_1
 62
   250
100
AcDbSpline
210
0.0
220
0.0
230
1.0
 70
    11
 71
     3
 72
    17
 73
    13
 74
     0
 42
0.0000000001
 43
0.0000000001
 40
0.0
 40
0.0
 40
0.0
 40
0.0
 40
1.0
 40
1.0
 40
1.0
 40
2.0
 40
2.0
 40
2.0
 40
3.0
 40
3.0
 40
3.0
 40
4.0
 40
4.0
 40
4.0
 40
4.0
 10
10.15047200520833
 20
-5.256476508246528
 30
0.0
 10
10.15047200520833
 20
-5.290995279947916
 30
0.0
 10
10.12250434027778
 20
-5.318976508246528
 30
0.0
 10
10.08797200520833
 20
-5.318976508246528
 30
0.0
 10
10.053466796875
 20
-5.318976508246528
 30
0.0
 10
10.02547200520833
 20
-5.290995279947916
 30
0.0
 10
10.02547200520833
 20
-5.256476508246528
 30
0.0
 10
10.02547200520833
 20
-5.221957736545138
 30
0.0
 10
10.053466796875
 20
-5.193976508246528
 30
0.0
 10
10.08797200520833
 20
-5.193976508246528
 30
0.0
 10
10.12250434027778
 20
-5.193976508246528
 30
0.0
 10
10.15047200520833
 20
-5.221957736545138
 30
0.0
 10
10.15047200520833
 20
-5.256476508246528
 30
0.0
  0
SPLINE
  5
3F
330
1F
100
AcDbEntity
  8
LAYER_1
 62
   250
100
AcDbSpline
210
0.0
220
0.0
230
1.0
 70
    11
 71
     3
 72
    17
 73
    13
 74
     0
 42
0.0000000001
 43
0.0000000001
 40
0.0
 40
0.0
 40
0.0
 40
0.0
 40
1.0
 40
1.0
 40
1.0
 40
2.0
 40
2.0
 40
2.0
 40
3.0
 40
3.0
 40
3.0
 40
4.0
 40
4.0
 40
4.0
 40
4.0
 10
10.33795844184028
 20
-5.256476508246528
 30
0.0
 10
10.33795844184028
 20
-5.394551595052083
 30
0.0
 10
10.22603352864583
 20
-5.506476508246528
 30
0.0
 10
10.08795844184028
 20
-5.506476508246528
 30
0.0
 10
9.949883355034721
 20
-5.506476508246528
 30
0.0
 10
9.837958441840277
 20
-5.394551595052083
 30
0.0
 10
9.837958441840277
 20
-5.256476508246528
 30
0.0
 10
9.837958441840277
 20
-5.118401421440972
 30
0.0
 10
9.949883355034721
 20
-5.006476508246528
 30
0.0
 10
10.08795844184028
 20
-5.006476508246528
 30
0.0
 10
10.22603352864583
 20
-5.006476508246528
 30
0.0
 10
10.33795844184028
 20
-5.118401421440972
 30
0.0
 10
10.33795844184028
 20
-5.256476508246528
 30
0.0
  0
SPLINE
  5
40
330
1F
100
AcDbEntity
  8
LAYER_1
 62
   250
100
AcDbSpline
210
0.0
220
0.0
230
1.0
 70
    11
 71
     3
 72
    17
 73
    13
 74
     0
 42
0.0000000001
 43
0.0000000001
 40
0.0
 40
0.0
 40
0.0
 40
0.0
 40
1.0
 40
1.0
 40
1.0
 40
2.0
 40
2.0
 40
2.0
 40
3.0
 40
3.0
 40
3.0
 40
4.0
 40
4.0
 40
4.0
 40
4.0
 10
3.777092827690972
 20
-3.454861111111111
 30
0.0
 10
3.777092827690972
 20
-3.537706163194444
 30
0.0
 10
3.709940592447917
 20
-3.6048583984375
 30
0.0
 10
3.627095540364583
 20
-3.6048583984375
 30
0.0
 10
3.54425048828125
 20
-3.6048583984375
 30
0.0
 10
3.477098253038194
 20
-3.537706163194444
 30
0.0
 10
3.477098253038194
 20
-3.454861111111111
 30
0.0
 10
3.477098253038194
 20
-3.372016059027778
 30
0.0
 10
3.54425048828125
 20
-3.304863823784722
 30
0.0
 10
3.627095540364583
 20
-3.304863823784722
 30
0.0
 10
3.709940592447917
 20
-3.304863823784722
 30
0.0
 10
3.777092827690972
 20
-3.372016059027778
 30
0.0
 10
3.777092827690972
 20
-3.454861111111111
 30
0.0
  0
SPLINE
  5
41
330
1F
100
AcDbEntity
  8
LAYER_1
 62
   250
100
AcDbSpline
210
0.0
220
0.0
230
1.0
 70
    11
 71
     3
 72
    17
 73
    13
 74
     0
 42
0.0000000001
 43
0.0000000001
 40
0.0
 40
0.0
 40
0.0
 40
0.0
 40
1.0
 40
1.0
 40
1.0
 40
2.0
 40
2.0
 40
2.0
 40
3.0
 40
3.0
 40
3.0
 40
4.0
 40
4.0
 40
4.0
 40
4.0
 10
3.727098253038194
 20
-3.454861111111111
 30
0.0
 10
3.727098253038194
 20
-3.510091145833333
 30
0.0
 10
3.682325575086805
 20
-3.554863823784722
 30
0.0
 10
3.627095540364583
 20
-3.554863823784722
 30
0.0
 10
3.571865505642361
 20
-3.554863823784722
 30
0.0
 10
3.527092827690972
 20
-3.510091145833333
 30
0.0
 10
3.527092827690972
 20
-3.454861111111111
 30
0.0
 10
3.527092827690972
 20
-3.399631076388889
 30
0.0
 10
3.571865505642361
 20
-3.3548583984375
 30
0.0
 10
3.627095540364583
 20
-3.3548583984375
 30
0.0
 10
3.682325575086805
 20
-3.3548583984375
 30
0.0
 10
3.727098253038194
 20
-3.399631076388889
 30
0.0
 10
3.727098253038194
 20
-3.454861111111111
 30
0.0
  0
SPLINE
  5
42
330
1F
100
AcDbEntity
  8
LAYER_1
 62
   250
100
AcDbSpline
210
0.0
220
0.0
230
1.0
 70
    11
 71
     3
 72
    17
 73
    13
 74
     0
 42
0.0000000001
 43
0.0000000001
 40
0.0
 40
0.0
 40
0.0
 40
0.0
 40
1.0
 40
1.0
 40
1.0
 40
2.0
 40
2.0
 40
2.0
 40
3.0
 40
3.0
 40
3.0
 40
4.0
 40
4.0
 40
4.0
 40
4.0
 10
8.08193630642361
 20
-5.106479220920138
 30
0.0
 10
8.08193630642361
 20
-5.140997992621528
 30
0.0
 10
8.053955078125
 20
-5.168979220920138
 30
0.0
 10
8.01943630642361
 20
-5.168979220920138
 30
0.0
 10
7.984917534722221
 20
-5.168979220920138
 30
0.0
 10
7.956936306423611
 20
-5.140997992621528
 30
0.0
 10
7.956936306423611
 20
-5.106479220920138
 30
0.0
 10
7.956936306423611
 20
-5.07196044921875
 30
0.0
 10
7.984917534722221
 20
-5.043979220920138
 30
0.0
 10
8.01943630642361
 20
-5.043979220920138
 30
0.0
 10
8.053955078125
 20
-5.043979220920138
 30
0.0
 10
8.08193630642361
 20
-5.07196044921875
 30
0.0
 10
8.08193630642361
 20
-5.106479220920138
 30
0.0
  0
SPLINE
  5
43
330
1F
100
AcDbEntity
  8
LAYER_1
 62
   250
100
AcDbSpline
210
0.0
220
0.0
230
1.0
 70
    11
 71
     3
 72
    17
 73
    13
 74
     0
 42
0.0000000001
 43
0.0000000001
 40
0.0
 40
0.0
 40
0.0
 40
0.0
 40
1.0
 40
1.0
 40
1.0
 40
2.0
 40
2.0
 40
2.0
 40
3.0
 40
3.0
 40
3.0
 40
4.0
 40
4.0
 40
4.0
 40
4.0
 10
8.119398328993055
 20
-5.106479220920138
 30
0.0
 10
8.119398328993055
 20
-5.161709255642361
 30
0.0
 10
8.074625651041666
 20
-5.20648193359375
 30
0.0
 10
8.019395616319445
 20
-5.20648193359375
 30
0.0
 10
7.964165581597221
 20
-5.20648193359375
 30
0.0
 10
7.919392903645833
 20
-5.161709255642361
 30
0.0
 10
7.919392903645833
 20
-5.106479220920138
 30
0.0
 10
7.919392903645833
 20
-5.051249186197916
 30
0.0
 10
7.964165581597221
 20
-5.006476508246528
 30
0.0
 10
8.019395616319445
 20
-5.006476508246528
 30
0.0
 10
8.074625651041666
 20
-5.006476508246528
 30
0.0
 10
8.119398328993055
 20
-5.051249186197916
 30
0.0
 10
8.119398328993055
 20
-5.106479220920138
 30
0.0
  0
SPLINE
  5
44
330
1F
100
AcDbEntity
  8
LAYER_1
 62
   250
100
AcDbSpline
210
0.0
220
0.0
230
1.0
 70
    11
 71
     3
 72
    17
 73
    13
 74
     0
 42
0.0000000001
 43
0.0000000001
 40
0.0
 40
0.0
 40
0.0
 40
0.0
 40
1.0
 40
1.0
 40
1.0
 40
2.0
 40
2.0
 40
2.0
 40
3.0
 40
3.0
 40
3.0
 40
4.0
 40
4.0
 40
4.0
 40
4.0
 10
0.6311509874131944
 20
-5.056484646267361
 30
0.0
 10
0.6311509874131944
 20
-5.09100341796875
 30
0.0
 10
0.6031697591145833
 20
-5.118984646267361
 30
0.0
 10
0.5686509874131944
 20
-5.118984646267361
 30
0.0
 10
0.5341322157118056
 20
-5.118984646267361
 30
0.0
 10
0.5061509874131944
 20
-5.09100341796875
 30
0.0
 10
0.5061509874131944
 20
-5.056484646267361
 30
0.0
 10
0.5061509874131944
 20
-5.021965874565972
 30
0.0
 10
0.5341322157118056
 20
-4.993984646267361
 30
0.0
 10
0.5686509874131944
 20
-4.993984646267361
 30
0.0
 10
0.6031697591145833
 20
-4.993984646267361
 30
0.0
 10
0.6311509874131944
 20
-5.021965874565972
 30
0.0
 10
0.6311509874131944
 20
-5.056484646267361
 30
0.0
  0
SPLINE
  5
45
330
1F
100
AcDbEntity
  8
LAYER_1
 62
   250
100
AcDbSpline
210
0.0
220
0.0
230
1.0
 70
    11
 71
     3
 72
    17
 73
    13
 74
     0
 42
0.0000000001
 43
0.0000000001
 40
0.0
 40
0.0
 40
0.0
 40
0.0
 40
1.0
 40
1.0
 40
1.0
 40
2.0
 40
2.0
 40
2.0
 40
3.0
 40
3.0
 40
3.0
 40
4.0
 40
4.0
 40
4.0
 40
4.0
 10
0.6686130099826388
 20
-5.056484646267361
 30
0.0
 10
0.6686130099826388
 20
-5.111714680989583
 30
0.0
 10
0.62384033203125
 20
-5.156487358940972
 30
0.0
 10
0.5686102973090278
 20
-5.156487358940972
 30
0.0
 10
0.5133802625868056
 20
-5.156487358940972
 30
0.0
 10
0.4686075846354166
 20
-5.111714680989583
 30
0.0
 10
0.4686075846354166
 20
-5.056484646267361
 30
0.0
 10
0.4686075846354166
 20
-5.001254611545138
 30
0.0
 10
0.5133802625868056
 20
-4.95648193359375
 30
0.0
 10
0.5686102973090278
 20
-4.95648193359375
 30
0.0
 10
0.62384033203125
 20
-4.95648193359375
 30
0.0
 10
0.6686130099826388
 20
-5.001254611545138
 30
0.0
 10
0.6686130099826388
 20
-5.056484646267361
 30
0.0
  0
SPLINE
  5
46
330
1F
100
AcDbEntity
  8
LAYER_1
 62
   250
100
AcDbSpline
210
0.0
220
0.0
230
1.0
 70
    11
 71
     3
 72
    17
 73
    13
 74
     0
 42
0.0000000001
 43
0.0000000001
 40
0.0
 40
0.0
 40
0.0
 40
0.0
 40
1.0
 40
1.0
 40
1.0
 40
2.0
 40
2.0
 40
2.0
 40
3.0
 40
3.0
 40
3.0
 40
4.0
 40
4.0
 40
4.0
 40
4.0
 10
1.316128200954861
 20
-5.106479220920138
 30
0.0
 10
1.316128200954861
 20
-5.140997992621528
 30
0.0
 10
1.28814697265625
 20
-5.168979220920138
 30
0.0
 10
1.253628200954861
 20
-5.168979220920138
 30
0.0
 10
1.219109429253472
 20
-5.168979220920138
 30
0.0
 10
1.191128200954861
 20
-5.140997992621528
 30
0.0
 10
1.191128200954861
 20
-5.106479220920138
 30
0.0
 10
1.191128200954861
 20
-5.07196044921875
 30
0.0
 10
1.219109429253472
 20
-5.043979220920138
 30
0.0
 10
1.253628200954861
 20
-5.043979220920138
 30
0.0
 10
1.28814697265625
 20
-5.043979220920138
 30
0.0
 10
1.316128200954861
 20
-5.07196044921875
 30
0.0
 10
1.316128200954861
 20
-5.106479220920138
 30
0.0
  0
SPLINE
  5
47
330
1F
100
AcDbEntity
  8
LAYER_1
 62
   250
100
AcDbSpline
210
0.0
220
0.0
230
1.0
 70
    11
 71
     3
 72
    17
 73
    13
 74
     0
 42
0.0000000001
 43
0.0000000001
 40
0.0
 40
0.0
 40
0.0
 40
0.0
 40
1.0
 40
1.0
 40
1.0
 40
2.0
 40
2.0
 40
2.0
 40
3.0
 40
3.0
 40
3.0
 40
4.0
 40
4.0
 40
4.0
 40
4.0
 10
1.40362548828125
 20
-5.106479220920138
 30
0.0
 10
1.40362548828125
 20
-5.189324273003472
 30
0.0
 10
1.336473253038194
 20
-5.256476508246528
 30
0.0
 10
1.253628200954861
 20
-5.256476508246528
 30
0.0
 10
1.170783148871528
 20
-5.256476508246528
 30
0.0
 10
1.103630913628472
 20
-5.189324273003472
 30
0.0
 10
1.103630913628472
 20
-5.106479220920138
 30
0.0
 10
1.103630913628472
 20
-5.023634168836805
 30
0.0
 10
1.170783148871528
 20
-4.95648193359375
 30
0.0
 10
1.253628200954861
 20
-4.95648193359375
 30
0.0
 10
1.336473253038194
 20
-4.95648193359375
 30
0.0
 10
1.40362548828125
 20
-5.023634168836805
 30
0.0
 10
1.40362548828125
 20
-5.106479220920138
 30
0.0
  0
SPLINE
  5
48
330
1F
100
AcDbEntity
  8
LAYER_1
 62
   250
100
AcDbSpline
210
0.0
220
0.0
230
1.0
 70
    11
 71
     3
 72
    17
 73
    13
 74
     0
 42
0.0000000001
 43
0.0000000001
 40
0.0
 40
0.0
 40
0.0
 40
0.0
 40
1.0
 40
1.0
 40
1.0
 40
2.0
 40
2.0
 40
2.0
 40
3.0
 40
3.0
 40
3.0
 40
4.0
 40
4.0
 40
4.0
 40
4.0
 10
2.088643391927083
 20
-5.106479220920138
 30
0.0
 10
2.088643391927083
 20
-5.140997992621528
 30
0.0
 10
2.060662163628472
 20
-5.168979220920138
 30
0.0
 10
2.026143391927083
 20
-5.168979220920138
 30
0.0
 10
1.991624620225694
 20
-5.168979220920138
 30
0.0
 10
1.963643391927083
 20
-5.140997992621528
 30
0.0
 10
1.963643391927083
 20
-5.106479220920138
 30
0.0
 10
1.963643391927083
 20
-5.07196044921875
 30
0.0
 10
1.991624620225694
 20
-5.043979220920138
 30
0.0
 10
2.026143391927083
 20
-5.043979220920138
 30
0.0
 10
2.060662163628472
 20
-5.043979220920138
 30
0.0
 10
2.088643391927083
 20
-5.07196044921875
 30
0.0
 10
2.088643391927083
 20
-5.106479220920138
 30
0.0
  0
SPLINE
  5
49
330
1F
100
AcDbEntity
  8
LAYER_1
 62
   250
100
AcDbSpline
210
0.0
220
0.0
230
1.0
 70
    11
 71
     3
 72
    17
 73
    13
 74
     0
 42
0.0000000001
 43
0.0000000001
 40
0.0
 40
0.0
 40
0.0
 40
0.0
 40
1.0
 40
1.0
 40
1.0
 40
2.0
 40
2.0
 40
2.0
 40
3.0
 40
3.0
 40
3.0
 40
4.0
 40
4.0
 40
4.0
 40
4.0
 10
2.176140679253472
 20
-5.106479220920138
 30
0.0
 10
2.176140679253472
 20
-5.189324273003472
 30
0.0
 10
2.108988444010417
 20
-5.256476508246528
 30
0.0
 10
2.026143391927083
 20
-5.256476508246528
 30
0.0
 10
1.94329833984375
 20
-5.256476508246528
 30
0.0
 10
1.876146104600694
 20
-5.189324273003472
 30
0.0
 10
1.876146104600694
 20
-5.106479220920138
 30
0.0
 10
1.876146104600694
 20
-5.023634168836805
 30
0.0
 10
1.94329833984375
 20
-4.95648193359375
 30
0.0
 10
2.026143391927083
 20
-4.95648193359375
 30
0.0
 10
2.108988444010417
 20
-4.95648193359375
 30
0.0
 10
2.176140679253472
 20
-5.023634168836805
 30
0.0
 10
2.176140679253472
 20
-5.106479220920138
 30
0.0
  0
SPLINE
  5
4A
330
1F
100
AcDbEntity
  8
LAYER_1
 62
   250
100
AcDbSpline
210
0.0
220
0.0
230
1.0
 70
    11
 71
     3
 72
    17
 73
    13
 74
     0
 42
0.0000000001
 43
0.0000000001
 40
0.0
 40
0.0
 40
0.0
 40
0.0
 40
1.0
 40
1.0
 40
1.0
 40
2.0
 40
2.0
 40
2.0
 40
3.0
 40
3.0
 40
3.0
 40
4.0
 40
4.0
 40
4.0
 40
4.0
 10
2.836161295572917
 20
-5.106479220920138
 30
0.0
 10
2.836161295572917
 20
-5.140997992621528
 30
0.0
 10
2.808180067274305
 20
-5.168979220920138
 30
0.0
 10
2.773661295572917
 20
-5.168979220920138
 30
0.0
 10
2.739142523871528
 20
-5.168979220920138
 30
0.0
 10
2.711161295572917
 20
-5.140997992621528
 30
0.0
 10
2.711161295572917
 20
-5.106479220920138
 30
0.0
 10
2.711161295572917
 20
-5.07196044921875
 30
0.0
 10
2.739142523871528
 20
-5.043979220920138
 30
0.0
 10
2.773661295572917
 20
-5.043979220920138
 30
0.0
 10
2.808180067274305
 20
-5.043979220920138
 30
0.0
 10
2.836161295572917
 20
-5.07196044921875
 30
0.0
 10
2.836161295572917
 20
-5.106479220920138
 30
0.0
  0
SPLINE
  5
4B
330
1F
100
AcDbEntity
  8
LAYER_1
 62
   250
100
AcDbSpline
210
0.0
220
0.0
230
1.0
 70
    11
 71
     3
 72
    17
 73
    13
 74
     0
 42
0.0000000001
 43
0.0000000001
 40
0.0
 40
0.0
 40
0.0
 40
0.0
 40
1.0
 40
1.0
 40
1.0
 40
2.0
 40
2.0
 40
2.0
 40
3.0
 40
3.0
 40
3.0
 40
4.0
 40
4.0
 40
4.0
 40
4.0
 10
2.923658582899305
 20
-5.106479220920138
 30
0.0
 10
2.923658582899305
 20
-5.189324273003472
 30
0.0
 10
2.85650634765625
 20
-5.256476508246528
 30
0.0
 10
2.773661295572917
 20
-5.256476508246528
 30
0.0
 10
2.690816243489583
 20
-5.256476508246528
 30
0.0
 10
2.623664008246528
 20
-5.189324273003472
 30
0.0
 10
2.623664008246528
 20
-5.106479220920138
 30
0.0
 10
2.623664008246528
 20
-5.023634168836805
 30
0.0
 10
2.690816243489583
 20
-4.95648193359375
 30
0.0
 10
2.773661295572917
 20
-4.95648193359375
 30
0.0
 10
2.85650634765625
 20
-4.95648193359375
 30
0.0
 10
2.923658582899305
 20
-5.023634168836805
 30
0.0
 10
2.923658582899305
 20
-5.106479220920138
 30
0.0
  0
SPLINE
  5
4C
330
1F
100
AcDbEntity
  8
LAYER_1
 62
   250
100
AcDbSpline
210
0.0
220
0.0
230
1.0
 70
    11
 71
     3
 72
    17
 73
    13
 74
     0
 42
0.0000000001
 43
0.0000000001
 40
0.0
 40
0.0
 40
0.0
 40
0.0
 40
1.0
 40
1.0
 40
1.0
 40
2.0
 40
2.0
 40
2.0
 40
3.0
 40
3.0
 40
3.0
 40
4.0
 40
4.0
 40
4.0
 40
4.0
 10
3.589619954427083
 20
-5.106479220920138
 30
0.0
 10
3.589619954427083
 20
-5.140997992621528
 30
0.0
 10
3.561638726128472
 20
-5.168979220920138
 30
0.0
 10
3.527119954427083
 20
-5.168979220920138
 30
0.0
 10
3.492601182725694
 20
-5.168979220920138
 30
0.0
 10
3.464619954427083
 20
-5.140997992621528
 30
0.0
 10
3.464619954427083
 20
-5.106479220920138
 30
0.0
 10
3.464619954427083
 20
-5.07196044921875
 30
0.0
 10
3.492601182725694
 20
-5.043979220920138
 30
0.0
 10
3.527119954427083
 20
-5.043979220920138
 30
0.0
 10
3.561638726128472
 20
-5.043979220920138
 30
0.0
 10
3.589619954427083
 20
-5.07196044921875
 30
0.0
 10
3.589619954427083
 20
-5.106479220920138
 30
0.0
  0
SPLINE
  5
4D
330
1F
100
AcDbEntity
  8
LAYER_1
 62
   250
100
AcDbSpline
210
0.0
220
0.0
230
1.0
 70
    11
 71
     3
 72
    17
 73
    13
 74
     0
 42
0.0000000001
 43
0.0000000001
 40
0.0
 40
0.0
 40
0.0
 40
0.0
 40
1.0
 40
1.0
 40
1.0
 40
2.0
 40
2.0
 40
2.0
 40
3.0
 40
3.0
 40
3.0
 40
4.0
 40
4.0
 40
4.0
 40
4.0
 10
3.677117241753472
 20
-5.106479220920138
 30
0.0
 10
3.677117241753472
 20
-5.189324273003472
 30
0.0
 10
3.609965006510417
 20
-5.256476508246528
 30
0.0
 10
3.527119954427083
 20
-5.256476508246528
 30
0.0
 10
3.44427490234375
 20
-5.256476508246528
 30
0.0
 10
3.377122667100694
 20
-5.189324273003472
 30
0.0
 10
3.377122667100694
 20
-5.106479220920138
 30
0.0
 10
3.377122667100694
 20
-5.023634168836805
 30
0.0
 10
3.44427490234375
 20
-4.95648193359375
 30
0.0
 10
3.527119954427083
 20
-4.95648193359375
 30
0.0
 10
3.609965006510417
 20
-4.95648193359375
 30
0.0
 10
3.677117241753472
 20
-5.023634168836805
 30
0.0
 10
3.677117241753472
 20
-5.106479220920138
 30
0.0
  0
SPLINE
  5
4E
330
1F
100
AcDbEntity
  8
LAYER_1
 62
   250
100
AcDbSpline
210
0.0
220
0.0
230
1.0
 70
    11
 71
     3
 72
    17
 73
    13
 74
     0
 42
0.0000000001
 43
0.0000000001
 40
0.0
 40
0.0
 40
0.0
 40
0.0
 40
1.0
 40
1.0
 40
1.0
 40
2.0
 40
2.0
 40
2.0
 40
3.0
 40
3.0
 40
3.0
 40
4.0
 40
4.0
 40
4.0
 40
4.0
 10
4.360175238715278
 20
-5.106479220920138
 30
0.0
 10
4.360175238715278
 20
-5.140997992621528
 30
0.0
 10
4.332194010416666
 20
-5.168979220920138
 30
0.0
 10
4.297675238715278
 20
-5.168979220920138
 30
0.0
 10
4.263156467013888
 20
-5.168979220920138
 30
0.0
 10
4.235175238715278
 20
-5.140997992621528
 30
0.0
 10
4.235175238715278
 20
-5.106479220920138
 30
0.0
 10
4.235175238715278
 20
-5.07196044921875
 30
0.0
 10
4.263156467013888
 20
-5.043979220920138
 30
0.0
 10
4.297675238715278
 20
-5.043979220920138
 30
0.0
 10
4.332194010416666
 20
-5.043979220920138
 30
0.0
 10
4.360175238715278
 20
-5.07196044921875
 30
0.0
 10
4.360175238715278
 20
-5.106479220920138
 30
0.0
  0
SPLINE
  5
4F
330
1F
100
AcDbEntity
  8
LAYER_1
 62
   250
100
AcDbSpline
210
0.0
220
0.0
230
1.0
 70
    11
 71
     3
 72
    17
 73
    13
 74
     0
 42
0.0000000001
 43
0.0000000001
 40
0.0
 40
0.0
 40
0.0
 40
0.0
 40
1.0
 40
1.0
 40
1.0
 40
2.0
 40
2.0
 40
2.0
 40
3.0
 40
3.0
 40
3.0
 40
4.0
 40
4.0
 40
4.0
 40
4.0
 10
4.447672526041666
 20
-5.106479220920138
 30
0.0
 10
4.447672526041666
 20
-5.189324273003472
 30
0.0
 10
4.380520290798611
 20
-5.256476508246528
 30
0.0
 10
4.297675238715278
 20
-5.256476508246528
 30
0.0
 10
4.214830186631945
 20
-5.256476508246528
 30
0.0
 10
4.147677951388888
 20
-5.189324273003472
 30
0.0
 10
4.147677951388888
 20
-5.106479220920138
 30
0.0
 10
4.147677951388888
 20
-5.023634168836805
 30
0.0
 10
4.214830186631945
 20
-4.95648193359375
 30
0.0
 10
4.297675238715278
 20
-4.95648193359375
 30
0.0
 10
4.380520290798611
 20
-4.95648193359375
 30
0.0
 10
4.447672526041666
 20
-5.023634168836805
 30
0.0
 10
4.447672526041666
 20
-5.106479220920138
 30
0.0
  0
SPLINE
  5
50
330
1F
100
AcDbEntity
  8
LAYER_1
 62
   250
100
AcDbSpline
210
0.0
220
0.0
230
1.0
 70
    11
 71
     3
 72
    17
 73
    13
 74
     0
 42
0.0000000001
 43
0.0000000001
 40
0.0
 40
0.0
 40
0.0
 40
0.0
 40
1.0
 40
1.0
 40
1.0
 40
2.0
 40
2.0
 40
2.0
 40
3.0
 40
3.0
 40
3.0
 40
4.0
 40
4.0
 40
4.0
 40
4.0
 10
5.087972005208333
 20
-5.106479220920138
 30
0.0
 10
5.087972005208333
 20
-5.140997992621528
 30
0.0
 10
5.059990776909722
 20
-5.168979220920138
 30
0.0
 10
5.025472005208333
 20
-5.168979220920138
 30
0.0
 10
4.990953233506944
 20
-5.168979220920138
 30
0.0
 10
4.962972005208333
 20
-5.140997992621528
 30
0.0
 10
4.962972005208333
 20
-5.106479220920138
 30
0.0
 10
4.962972005208333
 20
-5.07196044921875
 30
0.0
 10
4.990953233506944
 20
-5.043979220920138
 30
0.0
 10
5.025472005208333
 20
-5.043979220920138
 30
0.0
 10
5.059990776909722
 20
-5.043979220920138
 30
0.0
 10
5.087972005208333
 20
-5.07196044921875
 30
0.0
 10
5.087972005208333
 20
-5.106479220920138
 30
0.0
  0
SPLINE
  5
51
330
1F
100
AcDbEntity
  8
LAYER_1
 62
   250
100
AcDbSpline
210
0.0
220
0.0
230
1.0
 70
    11
 71
     3
 72
    17
 73
    13
 74
     0
 42
0.0000000001
 43
0.0000000001
 40
0.0
 40
0.0
 40
0.0
 40
0.0
 40
1.0
 40
1.0
 40
1.0
 40
2.0
 40
2.0
 40
2.0
 40
3.0
 40
3.0
 40
3.0
 40
4.0
 40
4.0
 40
4.0
 40
4.0
 10
5.175469292534722
 20
-5.106479220920138
 30
0.0
 10
5.175469292534722
 20
-5.189324273003472
 30
0.0
 10
5.108317057291666
 20
-5.256476508246528
 30
0.0
 10
5.025472005208333
 20
-5.256476508246528
 30
0.0
 10
4.942626953125
 20
-5.256476508246528
 30
0.0
 10
4.875474717881944
 20
-5.189324273003472
 30
0.0
 10
4.875474717881944
 20
-5.106479220920138
 30
0.0
 10
4.875474717881944
 20
-5.023634168836805
 30
0.0
 10
4.942626953125
 20
-4.95648193359375
 30
0.0
 10
5.025472005208333
 20
-4.95648193359375
 30
0.0
 10
5.108317057291666
 20
-4.95648193359375
 30
0.0
 10
5.175469292534722
 20
-5.023634168836805
 30
0.0
 10
5.175469292534722
 20
-5.106479220920138
 30
0.0
  0
SPLINE
  5
52
330
1F
100
AcDbEntity
  8
LAYER_1
 62
   250
100
AcDbSpline
210
0.0
220
0.0
230
1.0
 70
    11
 71
     3
 72
    17
 73
    13
 74
     0
 42
0.0000000001
 43
0.0000000001
 40
0.0
 40
0.0
 40
0.0
 40
0.0
 40
1.0
 40
1.0
 40
1.0
 40
2.0
 40
2.0
 40
2.0
 40
3.0
 40
3.0
 40
3.0
 40
4.0
 40
4.0
 40
4.0
 40
4.0
 10
5.843058268229166
 20
-5.106479220920138
 30
0.0
 10
5.843058268229166
 20
-5.140997992621528
 30
0.0
 10
5.815077039930555
 20
-5.168979220920138
 30
0.0
 10
5.780558268229166
 20
-5.168979220920138
 30
0.0
 10
5.746039496527778
 20
-5.168979220920138
 30
0.0
 10
5.718058268229166
 20
-5.140997992621528
 30
0.0
 10
5.718058268229166
 20
-5.106479220920138
 30
0.0
 10
5.718058268229166
 20
-5.07196044921875
 30
0.0
 10
5.746039496527778
 20
-5.043979220920138
 30
0.0
 10
5.780558268229166
 20
-5.043979220920138
 30
0.0
 10
5.815077039930555
 20
-5.043979220920138
 30
0.0
 10
5.843058268229166
 20
-5.07196044921875
 30
0.0
 10
5.843058268229166
 20
-5.106479220920138
 30
0.0
  0
SPLINE
  5
53
330
1F
100
AcDbEntity
  8
LAYER_1
 62
   250
100
AcDbSpline
210
0.0
220
0.0
230
1.0
 70
    11
 71
     3
 72
    17
 73
    13
 74
     0
 42
0.0000000001
 43
0.0000000001
 40
0.0
 40
0.0
 40
0.0
 40
0.0
 40
1.0
 40
1.0
 40
1.0
 40
2.0
 40
2.0
 40
2.0
 40
3.0
 40
3.0
 40
3.0
 40
4.0
 40
4.0
 40
4.0
 40
4.0
 10
5.930555555555555
 20
-5.106479220920138
 30
0.0
 10
5.930555555555555
 20
-5.189324273003472
 30
0.0
 10
5.8634033203125
 20
-5.256476508246528
 30
0.0
 10
5.780558268229166
 20
-5.256476508246528
 30
0.0
 10
5.697713216145833
 20
-5.256476508246528
 30
0.0
 10
5.630560980902778
 20
-5.189324273003472
 30
0.0
 10
5.630560980902778
 20
-5.106479220920138
 30
0.0
 10
5.630560980902778
 20
-5.023634168836805
 30
0.0
 10
5.697713216145833
 20
-4.95648193359375
 30
0.0
 10
5.780558268229166
 20
-4.95648193359375
 30
0.0
 10
5.8634033203125
 20
-4.95648193359375
 30
0.0
 10
5.930555555555555
 20
-5.023634168836805
 30
0.0
 10
5.930555555555555
 20
-5.106479220920138
 30
0.0
  0
SPLINE
  5
54
330
1F
100
AcDbEntity
  8
LAYER_1
 62
   250
100
AcDbSpline
210
0.0
220
0.0
230
1.0
 70
    11
 71
     3
 72
    17
 73
    13
 74
     0
 42
0.0000000001
 43
0.0000000001
 40
0.0
 40
0.0
 40
0.0
 40
0.0
 40
1.0
 40
1.0
 40
1.0
 40
2.0
 40
2.0
 40
2.0
 40
3.0
 40
3.0
 40
3.0
 40
4.0
 40
4.0
 40
4.0
 40
4.0
 10
6.617702907986111
 20
-5.106479220920138
 30
0.0
 10
6.617702907986111
 20
-5.140997992621528
 30
0.0
 10
6.5897216796875
 20
-5.168979220920138
 30
0.0
 10
6.555202907986111
 20
-5.168979220920138
 30
0.0
 10
6.520684136284721
 20
-5.168979220920138
 30
0.0
 10
6.492702907986111
 20
-5.140997992621528
 30
0.0
 10
6.492702907986111
 20
-5.106479220920138
 30
0.0
 10
6.492702907986111
 20
-5.07196044921875
 30
0.0
 10
6.520684136284721
 20
-5.043979220920138
 30
0.0
 10
6.555202907986111
 20
-5.043979220920138
 30
0.0
 10
6.5897216796875
 20
-5.043979220920138
 30
0.0
 10
6.617702907986111
 20
-5.07196044921875
 30
0.0
 10
6.617702907986111
 20
-5.106479220920138
 30
0.0
  0
SPLINE
  5
55
330
1F
100
AcDbEntity
  8
LAYER_1
 62
   250
100
AcDbSpline
210
0.0
220
0.0
230
1.0
 70
    11
 71
     3
 72
    17
 73
    13
 74
     0
 42
0.0000000001
 43
0.0000000001
 40
0.0
 40
0.0
 40
0.0
 40
0.0
 40
1.0
 40
1.0
 40
1.0
 40
2.0
 40
2.0
 40
2.0
 40
3.0
 40
3.0
 40
3.0
 40
4.0
 40
4.0
 40
4.0
 40
4.0
 10
6.7052001953125
 20
-5.106479220920138
 30
0.0
 10
6.7052001953125
 20
-5.189324273003472
 30
0.0
 10
6.638047960069444
 20
-5.256476508246528
 30
0.0
 10
6.555202907986111
 20
-5.256476508246528
 30
0.0
 10
6.472357855902778
 20
-5.256476508246528
 30
0.0
 10
6.405205620659721
 20
-5.189324273003472
 30
0.0
 10
6.405205620659721
 20
-5.106479220920138
 30
0.0
 10
6.405205620659721
 20
-5.023634168836805
 30
0.0
 10
6.472357855902778
 20
-4.95648193359375
 30
0.0
 10
6.555202907986111
 20
-4.95648193359375
 30
0.0
 10
6.638047960069444
 20
-4.95648193359375
 30
0.0
 10
6.7052001953125
 20
-5.023634168836805
 30
0.0
 10
6.7052001953125
 20
-5.106479220920138
 30
0.0
  0
SPLINE
  5
56
330
1F
100
AcDbEntity
  8
LAYER_1
 62
   250
100
AcDbSpline
210
0.0
220
0.0
230
1.0
 70
    11
 71
     3
 72
    17
 73
    13
 74
     0
 42
0.0000000001
 43
0.0000000001
 40
0.0
 40
0.0
 40
0.0
 40
0.0
 40
1.0
 40
1.0
 40
1.0
 40
2.0
 40
2.0
 40
2.0
 40
3.0
 40
3.0
 40
3.0
 40
4.0
 40
4.0
 40
4.0
 40
4.0
 10
7.383572048611111
 20
-5.106479220920138
 30
0.0
 10
7.383572048611111
 20
-5.140997992621528
 30
0.0
 10
7.3555908203125
 20
-5.168979220920138
 30
0.0
 10
7.321072048611111
 20
-5.168979220920138
 30
0.0
 10
7.286553276909721
 20
-5.168979220920138
 30
0.0
 10
7.258572048611111
 20
-5.140997992621528
 30
0.0
 10
7.258572048611111
 20
-5.106479220920138
 30
0.0
 10
7.258572048611111
 20
-5.07196044921875
 30
0.0
 10
7.286553276909721
 20
-5.043979220920138
 30
0.0
 10
7.321072048611111
 20
-5.043979220920138
 30
0.0
 10
7.3555908203125
 20
-5.043979220920138
 30
0.0
 10
7.383572048611111
 20
-5.07196044921875
 30
0.0
 10
7.383572048611111
 20
-5.106479220920138
 30
0.0
  0
SPLINE
  5
57
330
1F
100
AcDbEntity
  8
LAYER_1
 62
   250
100
AcDbSpline
210
0.0
220
0.0
230
1.0
 70
    11
 71
     3
 72
    17
 73
    13
 74
     0
 42
0.0000000001
 43
0.0000000001
 40
0.0
 40
0.0
 40
0.0
 40
0.0
 40
1.0
 40
1.0
 40
1.0
 40
2.0
 40
2.0
 40
2.0
 40
3.0
 40
3.0
 40
3.0
 40
4.0
 40
4.0
 40
4.0
 40
4.0
 10
7.4710693359375
 20
-5.106479220920138
 30
0.0
 10
7.4710693359375
 20
-5.189324273003472
 30
0.0
 10
7.403917100694444
 20
-5.256476508246528
 30
0.0
 10
7.321072048611111
 20
-5.256476508246528
 30
0.0
 10
7.238226996527778
 20
-5.256476508246528
 30
0.0
 10
7.171074761284721
 20
-5.189324273003472
 30
0.0
 10
7.171074761284721
 20
-5.106479220920138
 30
0.0
 10
7.171074761284721
 20
-5.023634168836805
 30
0.0
 10
7.238226996527778
 20
-4.95648193359375
 30
0.0
 10
7.321072048611111
 20
-4.95648193359375
 30
0.0
 10
7.403917100694444
 20
-4.95648193359375
 30
0.0
 10
7.4710693359375
 20
-5.023634168836805
 30
0.0
 10
7.4710693359375
 20
-5.106479220920138
 30
0.0
  0
SPLINE
  5
58
330
1F
100
AcDbEntity
  8
LAYER_1
 62
   250
100
AcDbSpline
210
0.0
220
0.0
230
1.0
 70
    11
 71
     3
 72
    17
 73
    13
 74
     0
 42
0.0000000001
 43
0.0000000001
 40
0.0
 40
0.0
 40
0.0
 40
0.0
 40
1.0
 40
1.0
 40
1.0
 40
2.0
 40
2.0
 40
2.0
 40
3.0
 40
3.0
 40
3.0
 40
4.0
 40
4.0
 40
4.0
 40
4.0
 10
10.00046115451389
 20
-5.703016493055555
 30
0.0
 10
10.00046115451389
 20
-5.737521701388888
 30
0.0
 10
9.972479926215277
 20
-5.765516493055555
 30
0.0
 10
9.937961154513888
 20
-5.765516493055555
 30
0.0
 10
9.9034423828125
 20
-5.765516493055555
 30
0.0
 10
9.875461154513888
 20
-5.737521701388888
 30
0.0
 10
9.875461154513888
 20
-5.703016493055555
 30
0.0
 10
9.875461154513888
 20
-5.668484157986111
 30
0.0
 10
9.9034423828125
 20
-5.640516493055555
 30
0.0
 10
9.937961154513888
 20
-5.640516493055555
 30
0.0
 10
9.972479926215277
 20
-5.640516493055555
 30
0.0
 10
10.00046115451389
 20
-5.668484157986111
 30
0.0
 10
10.00046115451389
 20
-5.703016493055555
 30
0.0
  0
SPLINE
  5
59
330
1F
100
AcDbEntity
  8
LAYER_1
 62
   250
100
AcDbSpline
210
0.0
220
0.0
230
1.0
 70
    11
 71
     3
 72
    17
 73
    13
 74
     0
 42
0.0000000001
 43
0.0000000001
 40
0.0
 40
0.0
 40
0.0
 40
0.0
 40
1.0
 40
1.0
 40
1.0
 40
2.0
 40
2.0
 40
2.0
 40
3.0
 40
3.0
 40
3.0
 40
4.0
 40
4.0
 40
4.0
 40
4.0
 10
10.08795844184028
 20
-5.703016493055555
 30
0.0
 10
10.08795844184028
 20
-5.785861545138888
 30
0.0
 10
10.02080620659722
 20
-5.853000217013888
 30
0.0
 10
9.937961154513888
 20
-5.853000217013888
 30
0.0
 10
9.855116102430555
 20
-5.853000217013888
 30
0.0
 10
9.7879638671875
 20
-5.785861545138888
 30
0.0
 10
9.7879638671875
 20
-5.703016493055555
 30
0.0
 10
9.7879638671875
 20
-5.620171440972222
 30
0.0
 10
9.855116102430555
 20
-5.553005642361111
 30
0.0
 10
9.937961154513888
 20
-5.553005642361111
 30
0.0
 10
10.02080620659722
 20
-5.553005642361111
 30
0.0
 10
10.08795844184028
 20
-5.620171440972222
 30
0.0
 10
10.08795844184028
 20
-5.703016493055555
 30
0.0
  0
SPLINE
  5
5A
330
1F
100
AcDbEntity
  8
LAYER_1
 62
   250
100
AcDbSpline
210
0.0
220
0.0
230
1.0
 70
    11
 71
     3
 72
    17
 73
    13
 74
     0
 42
0.0000000001
 43
0.0000000001
 40
0.0
 40
0.0
 40
0.0
 40
0.0
 40
1.0
 40
1.0
 40
1.0
 40
2.0
 40
2.0
 40
2.0
 40
3.0
 40
3.0
 40
3.0
 40
4.0
 40
4.0
 40
4.0
 40
4.0
 10
3.977118598090278
 20
-3.454861111111111
 30
0.0
 10
3.977118598090278
 20
-3.648166232638889
 30
0.0
 10
3.820421006944444
 20
-3.804863823784722
 30
0.0
 10
3.627115885416667
 20
-3.804863823784722
 30
0.0
 10
3.433810763888889
 20
-3.804863823784722
 30
0.0
 10
3.277113172743055
 20
-3.648166232638889
 30
0.0
 10
3.277113172743055
 20
-3.454861111111111
 30
0.0
 10
3.277113172743055
 20
-3.261555989583333
 30
0.0
 10
3.433810763888889
 20
-3.1048583984375
 30
0.0
 10
3.627115885416667
 20
-3.1048583984375
 30
0.0
 10
3.820421006944444
 20
-3.1048583984375
 30
0.0
 10
3.977118598090278
 20
-3.261555989583333
 30
0.0
 10
3.977118598090278
 20
-3.454861111111111
 30
0.0
  0
SPLINE
  5
5B
330
1F
100
AcDbEntity
  8
LAYER_1
 62
   250
100
AcDbSpline
210
0.0
220
0.0
230
1.0
 70
    11
 71
     3
 72
    17
 73
    13
 74
     0
 42
0.0000000001
 43
0.0000000001
 40
0.0
 40
0.0
 40
0.0
 40
0.0
 40
1.0
 40
1.0
 40
1.0
 40
2.0
 40
2.0
 40
2.0
 40
3.0
 40
3.0
 40
3.0
 40
4.0
 40
4.0
 40
4.0
 40
4.0
 10
5.493082682291666
 20
-5.5
 30
0.0
 10
5.493082682291666
 20
-5.534518771701388
 30
0.0
 10
5.465087890625
 20
-5.5625
 30
0.0
 10
5.430582682291666
 20
-5.5625
 30
0.0
 10
5.396050347222222
 20
-5.5625
 30
0.0
 10
5.368082682291666
 20
-5.534518771701388
 30
0.0
 10
5.368082682291666
 20
-5.5
 30
0.0
 10
5.368082682291666
 20
-5.465481228298611
 30
0.0
 10
5.396050347222222
 20
-5.4375
 30
0.0
 10
5.430582682291666
 20
-5.4375
 30
0.0
 10
5.465087890625
 20
-5.4375
 30
0.0
 10
5.493082682291666
 20
-5.465481228298611
 30
0.0
 10
5.493082682291666
 20
-5.5
 30
0.0
  0
SPLINE
  5
5C
330
1F
100
AcDbEntity
  8
LAYER_1
 62
   250
100
AcDbSpline
210
0.0
220
0.0
230
1.0
 70
    11
 71
     3
 72
    17
 73
    13
 74
     0
 42
0.0000000001
 43
0.0000000001
 40
0.0
 40
0.0
 40
0.0
 40
0.0
 40
1.0
 40
1.0
 40
1.0
 40
2.0
 40
2.0
 40
2.0
 40
3.0
 40
3.0
 40
3.0
 40
4.0
 40
4.0
 40
4.0
 40
4.0
 10
5.780558268229166
 20
-5.5
 30
0.0
 10
5.780558268229166
 20
-5.693305121527778
 30
0.0
 10
5.623860677083333
 20
-5.850002712673611
 30
0.0
 10
5.430555555555555
 20
-5.850002712673611
 30
0.0
 10
5.237250434027778
 20
-5.850002712673611
 30
0.0
 10
5.080552842881944
 20
-5.693305121527778
 30
0.0
 10
5.080552842881944
 20
-5.5
 30
0.0
 10
5.080552842881944
 20
-5.306694878472222
 30
0.0
 10
5.237250434027778
 20
-5.149997287326388
 30
0.0
 10
5.430555555555555
 20
-5.149997287326388
 30
0.0
 10
5.623860677083333
 20
-5.149997287326388
 30
0.0
 10
5.780558268229166
 20
-5.306694878472222
 30
0.0
 10
5.780558268229166
 20
-5.5
 30
0.0
  0
SPLINE
  5
5D
330
1F
100
AcDbEntity
  8
LAYER_1
 62
   250
100
AcDbSpline
210
0.0
220
0.0
230
1.0
 70
    11
 71
     3
 72
    17
 73
    13
 74
     0
 42
0.0000000001
 43
0.0000000001
 40
0.0
 40
0.0
 40
0.0
 40
0.0
 40
1.0
 40
1.0
 40
1.0
 40
2.0
 40
2.0
 40
2.0
 40
3.0
 40
3.0
 40
3.0
 40
4.0
 40
4.0
 40
4.0
 40
4.0
 10
6.253824869791666
 20
-5.5
 30
0.0
 10
6.253824869791666
 20
-5.534518771701388
 30
0.0
 10
6.225830078125
 20
-5.5625
 30
0.0
 10
6.191324869791666
 20
-5.5625
 30
0.0
 10
6.156792534722222
 20
-5.5625
 30
0.0
 10
6.128824869791666
 20
-5.534518771701388
 30
0.0
 10
6.128824869791666
 20
-5.5
 30
0.0
 10
6.128824869791666
 20
-5.465481228298611
 30
0.0
 10
6.156792534722222
 20
-5.4375
 30
0.0
 10
6.191324869791666
 20
-5.4375
 30
0.0
 10
6.225830078125
 20
-5.4375
 30
0.0
 10
6.253824869791666
 20
-5.465481228298611
 30
0.0
 10
6.253824869791666
 20
-5.5
 30
0.0
  0
SPLINE
  5
5E
330
1F
100
AcDbEntity
  8
LAYER_1
 62
   250
100
AcDbSpline
210
0.0
220
0.0
230
1.0
 70
    11
 71
     3
 72
    17
 73
    13
 74
     0
 42
0.0000000001
 43
0.0000000001
 40
0.0
 40
0.0
 40
0.0
 40
0.0
 40
1.0
 40
1.0
 40
1.0
 40
2.0
 40
2.0
 40
2.0
 40
3.0
 40
3.0
 40
3.0
 40
4.0
 40
4.0
 40
4.0
 40
4.0
 10
6.541300455729166
 20
-5.5
 30
0.0
 10
6.541300455729166
 20
-5.693305121527778
 30
0.0
 10
6.384602864583333
 20
-5.850002712673611
 30
0.0
 10
6.191297743055555
 20
-5.850002712673611
 30
0.0
 10
5.997992621527778
 20
-5.850002712673611
 30
0.0
 10
5.841295030381944
 20
-5.693305121527778
 30
0.0
 10
5.841295030381944
 20
-5.5
 30
0.0
 10
5.841295030381944
 20
-5.306694878472222
 30
0.0
 10
5.997992621527778
 20
-5.149997287326388
 30
0.0
 10
6.191297743055555
 20
-5.149997287326388
 30
0.0
 10
6.384602864583333
 20
-5.149997287326388
 30
0.0
 10
6.541300455729166
 20
-5.306694878472222
 30
0.0
 10
6.541300455729166
 20
-5.5
 30
0.0
  0
SPLINE
  5
5F
330
1F
100
AcDbEntity
  8
LAYER_1
 62
   250
100
AcDbSpline
210
0.0
220
0.0
230
1.0
 70
    11
 71
     3
 72
    17
 73
    13
 74
     0
 42
0.0000000001
 43
0.0000000001
 40
0.0
 40
0.0
 40
0.0
 40
0.0
 40
1.0
 40
1.0
 40
1.0
 40
2.0
 40
2.0
 40
2.0
 40
3.0
 40
3.0
 40
3.0
 40
4.0
 40
4.0
 40
4.0
 40
4.0
 10
7.014567057291666
 20
-5.5
 30
0.0
 10
7.014567057291666
 20
-5.534518771701388
 30
0.0
 10
6.986572265625
 20
-5.5625
 30
0.0
 10
6.952067057291666
 20
-5.5625
 30
0.0
 10
6.917534722222221
 20
-5.5625
 30
0.0
 10
6.889567057291666
 20
-5.534518771701388
 30
0.0
 10
6.889567057291666
 20
-5.5
 30
0.0
 10
6.889567057291666
 20
-5.465481228298611
 30
0.0
 10
6.917534722222221
 20
-5.4375
 30
0.0
 10
6.952067057291666
 20
-5.4375
 30
0.0
 10
6.986572265625
 20
-5.4375
 30
0.0
 10
7.014567057291666
 20
-5.465481228298611
 30
0.0
 10
7.014567057291666
 20
-5.5
 30
0.0
  0
SPLINE
  5
60
330
1F
100
AcDbEntity
  8
LAYER_1
 62
   250
100
AcDbSpline
210
0.0
220
0.0
230
1.0
 70
    11
 71
     3
 72
    17
 73
    13
 74
     0
 42
0.0000000001
 43
0.0000000001
 40
0.0
 40
0.0
 40
0.0
 40
0.0
 40
1.0
 40
1.0
 40
1.0
 40
2.0
 40
2.0
 40
2.0
 40
3.0
 40
3.0
 40
3.0
 40
4.0
 40
4.0
 40
4.0
 40
4.0
 10
7.302042643229166
 20
-5.5
 30
0.0
 10
7.302042643229166
 20
-5.693305121527778
 30
0.0
 10
7.145345052083333
 20
-5.850002712673611
 30
0.0
 10
6.952039930555555
 20
-5.850002712673611
 30
0.0
 10
6.758734809027778
 20
-5.850002712673611
 30
0.0
 10
6.602037217881944
 20
-5.693305121527778
 30
0.0
 10
6.602037217881944
 20
-5.5
 30
0.0
 10
6.602037217881944
 20
-5.306694878472222
 30
0.0
 10
6.758734809027778
 20
-5.149997287326388
 30
0.0
 10
6.952039930555555
 20
-5.149997287326388
 30
0.0
 10
7.145345052083333
 20
-5.149997287326388
 30
0.0
 10
7.302042643229166
 20
-5.306694878472222
 30
0.0
 10
7.302042643229166
 20
-5.5
 30
0.0
  0
SPLINE
  5
61
330
1F
100
AcDbEntity
  8
LAYER_1
 62
   250
100
AcDbSpline
210
0.0
220
0.0
230
1.0
 70
    11
 71
     3
 72
    17
 73
    13
 74
     0
 42
0.0000000001
 43
0.0000000001
 40
0.0
 40
0.0
 40
0.0
 40
0.0
 40
1.0
 40
1.0
 40
1.0
 40
2.0
 40
2.0
 40
2.0
 40
3.0
 40
3.0
 40
3.0
 40
4.0
 40
4.0
 40
4.0
 40
4.0
 10
7.775309244791666
 20
-5.5
 30
0.0
 10
7.775309244791666
 20
-5.534518771701388
 30
0.0
 10
7.747314453125
 20
-5.5625
 30
0.0
 10
7.712809244791666
 20
-5.5625
 30
0.0
 10
7.678276909722221
 20
-5.5625
 30
0.0
 10
7.650309244791666
 20
-5.534518771701388
 30
0.0
 10
7.650309244791666
 20
-5.5
 30
0.0
 10
7.650309244791666
 20
-5.465481228298611
 30
0.0
 10
7.678276909722221
 20
-5.4375
 30
0.0
 10
7.712809244791666
 20
-5.4375
 30
0.0
 10
7.747314453125
 20
-5.4375
 30
0.0
 10
7.775309244791666
 20
-5.465481228298611
 30
0.0
 10
7.775309244791666
 20
-5.5
 30
0.0
  0
SPLINE
  5
62
330
1F
100
AcDbEntity
  8
LAYER_1
 62
   250
100
AcDbSpline
210
0.0
220
0.0
230
1.0
 70
    11
 71
     3
 72
    17
 73
    13
 74
     0
 42
0.0000000001
 43
0.0000000001
 40
0.0
 40
0.0
 40
0.0
 40
0.0
 40
1.0
 40
1.0
 40
1.0
 40
2.0
 40
2.0
 40
2.0
 40
3.0
 40
3.0
 40
3.0
 40
4.0
 40
4.0
 40
4.0
 40
4.0
 10
8.062784830729166
 20
-5.5
 30
0.0
 10
8.062784830729166
 20
-5.693305121527778
 30
0.0
 10
7.906087239583333
 20
-5.850002712673611
 30
0.0
 10
7.712782118055555
 20
-5.850002712673611
 30
0.0
 10
7.519476996527778
 20
-5.850002712673611
 30
0.0
 10
7.362779405381944
 20
-5.693305121527778
 30
0.0
 10
7.362779405381944
 20
-5.5
 30
0.0
 10
7.362779405381944
 20
-5.306694878472222
 30
0.0
 10
7.519476996527778
 20
-5.149997287326388
 30
0.0
 10
7.712782118055555
 20
-5.149997287326388
 30
0.0
 10
7.906087239583333
 20
-5.149997287326388
 30
0.0
 10
8.062784830729166
 20
-5.306694878472222
 30
0.0
 10
8.062784830729166
 20
-5.5
 30
0.0
  0
SPLINE
  5
63
330
1F
100
AcDbEntity
  8
LAYER_1
 62
   250
100
AcDbSpline
210
0.0
220
0.0
230
1.0
 70
    11
 71
     3
 72
    17
 73
    13
 74
     0
 42
0.0000000001
 43
0.0000000001
 40
0.0
 40
0.0
 40
0.0
 40
0.0
 40
1.0
 40
1.0
 40
1.0
 40
2.0
 40
2.0
 40
2.0
 40
3.0
 40
3.0
 40
3.0
 40
4.0
 40
4.0
 40
4.0
 40
4.0
 10
8.531928168402777
 20
-5.5
 30
0.0
 10
8.531928168402777
 20
-5.534518771701388
 30
0.0
 10
8.50393337673611
 20
-5.5625
 30
0.0
 10
8.469428168402777
 20
-5.5625
 30
0.0
 10
8.434895833333332
 20
-5.5625
 30
0.0
 10
8.406928168402777
 20
-5.534518771701388
 30
0.0
 10
8.406928168402777
 20
-5.5
 30
0.0
 10
8.406928168402777
 20
-5.465481228298611
 30
0.0
 10
8.434895833333332
 20
-5.4375
 30
0.0
 10
8.469428168402777
 20
-5.4375
 30
0.0
 10
8.50393337673611
 20
-5.4375
 30
0.0
 10
8.531928168402777
 20
-5.465481228298611
 30
0.0
 10
8.531928168402777
 20
-5.5
 30
0.0
  0
SPLINE
  5
64
330
1F
100
AcDbEntity
  8
LAYER_1
 62
   250
100
AcDbSpline
210
0.0
220
0.0
230
1.0
 70
    11
 71
     3
 72
    17
 73
    13
 74
     0
 42
0.0000000001
 43
0.0000000001
 40
0.0
 40
0.0
 40
0.0
 40
0.0
 40
1.0
 40
1.0
 40
1.0
 40
2.0
 40
2.0
 40
2.0
 40
3.0
 40
3.0
 40
3.0
 40
4.0
 40
4.0
 40
4.0
 40
4.0
 10
8.819403754340277
 20
-5.5
 30
0.0
 10
8.819403754340277
 20
-5.693305121527778
 30
0.0
 10
8.662706163194445
 20
-5.850002712673611
 30
0.0
 10
8.469401041666666
 20
-5.850002712673611
 30
0.0
 10
8.27609592013889
 20
-5.850002712673611
 30
0.0
 10
8.119398328993055
 20
-5.693305121527778
 30
0.0
 10
8.119398328993055
 20
-5.5
 30
0.0
 10
8.119398328993055
 20
-5.306694878472222
 30
0.0
 10
8.27609592013889
 20
-5.149997287326388
 30
0.0
 10
8.469401041666666
 20
-5.149997287326388
 30
0.0
 10
8.662706163194445
 20
-5.149997287326388
 30
0.0
 10
8.819403754340277
 20
-5.306694878472222
 30
0.0
 10
8.819403754340277
 20
-5.5
 30
0.0
  0
SPLINE
  5
65
330
1F
100
AcDbEntity
  8
LAYER_1
 62
   250
100
AcDbSpline
210
0.0
220
0.0
230
1.0
 70
    11
 71
     3
 72
    17
 73
    13
 74
     0
 42
0.0000000001
 43
0.0000000001
 40
0.0
 40
0.0
 40
0.0
 40
0.0
 40
1.0
 40
1.0
 40
1.0
 40
2.0
 40
2.0
 40
2.0
 40
3.0
 40
3.0
 40
3.0
 40
4.0
 40
4.0
 40
4.0
 40
4.0
 10
4.737982855902778
 20
-5.500006781684028
 30
0.0
 10
4.737982855902778
 20
-5.534532335069444
 30
0.0
 10
4.709988064236111
 20
-5.5625
 30
0.0
 10
4.675482855902778
 20
-5.5625
 30
0.0
 10
4.640950520833333
 20
-5.5625
 30
0.0
 10
4.612982855902778
 20
-5.534532335069444
 30
0.0
 10
4.612982855902778
 20
-5.500006781684028
 30
0.0
 10
4.612982855902778
 20
-5.465488009982638
 30
0.0
 10
4.640950520833333
 20
-5.437506781684028
 30
0.0
 10
4.675482855902778
 20
-5.437506781684028
 30
0.0
 10
4.709988064236111
 20
-5.437506781684028
 30
0.0
 10
4.737982855902778
 20
-5.465488009982638
 30
0.0
 10
4.737982855902778
 20
-5.500006781684028
 30
0.0
  0
SPLINE
  5
66
330
1F
100
AcDbEntity
  8
LAYER_1
 62
   250
100
AcDbSpline
210
0.0
220
0.0
230
1.0
 70
    11
 71
     3
 72
    17
 73
    13
 74
     0
 42
0.0000000001
 43
0.0000000001
 40
0.0
 40
0.0
 40
0.0
 40
0.0
 40
1.0
 40
1.0
 40
1.0
 40
2.0
 40
2.0
 40
2.0
 40
3.0
 40
3.0
 40
3.0
 40
4.0
 40
4.0
 40
4.0
 40
4.0
 10
5.025472005208333
 20
-5.500006781684028
 30
0.0
 10
5.025472005208333
 20
-5.693318684895833
 30
0.0
 10
4.868760850694444
 20
-5.850002712673611
 30
0.0
 10
4.675455729166666
 20
-5.850002712673611
 30
0.0
 10
4.482150607638888
 20
-5.850002712673611
 30
0.0
 10
4.325466579861111
 20
-5.693318684895833
 30
0.0
 10
4.325466579861111
 20
-5.500006781684028
 30
0.0
 10
4.325466579861111
 20
-5.30670166015625
 30
0.0
 10
4.482150607638888
 20
-5.150004069010416
 30
0.0
 10
4.675455729166666
 20
-5.150004069010416
 30
0.0
 10
4.868760850694444
 20
-5.150004069010416
 30
0.0
 10
5.025472005208333
 20
-5.30670166015625
 30
0.0
 10
5.025472005208333
 20
-5.500006781684028
 30
0.0
  0
SPLINE
  5
67
330
1F
100
AcDbEntity
  8
LAYER_1
 62
   250
100
AcDbSpline
210
0.0
220
0.0
230
1.0
 70
    11
 71
     3
 72
    17
 73
    13
 74
     0
 42
0.0000000001
 43
0.0000000001
 40
0.0
 40
0.0
 40
0.0
 40
0.0
 40
1.0
 40
1.0
 40
1.0
 40
2.0
 40
2.0
 40
2.0
 40
3.0
 40
3.0
 40
3.0
 40
4.0
 40
4.0
 40
4.0
 40
4.0
 10
0.9343736436631944
 20
-5.500006781684028
 30
0.0
 10
0.9343736436631944
 20
-5.534532335069444
 30
0.0
 10
0.9063924153645833
 20
-5.5625
 30
0.0
 10
0.8718736436631944
 20
-5.5625
 30
0.0
 10
0.8373548719618055
 20
-5.5625
 30
0.0
 10
0.8093736436631944
 20
-5.534532335069444
 30
0.0
 10
0.8093736436631944
 20
-5.500006781684028
 30
0.0
 10
0.8093736436631944
 20
-5.465488009982638
 30
0.0
 10
0.8373548719618055
 20
-5.437506781684028
 30
0.0
 10
0.8718736436631944
 20
-5.437506781684028
 30
0.0
 10
0.9063924153645833
 20
-5.437506781684028
 30
0.0
 10
0.9343736436631944
 20
-5.465488009982638
 30
0.0
 10
0.9343736436631944
 20
-5.500006781684028
 30
0.0
  0
SPLINE
  5
68
330
1F
100
AcDbEntity
  8
LAYER_1
 62
   250
100
AcDbSpline
210
0.0
220
0.0
230
1.0
 70
    11
 71
     3
 72
    17
 73
    13
 74
     0
 42
0.0000000001
 43
0.0000000001
 40
0.0
 40
0.0
 40
0.0
 40
0.0
 40
1.0
 40
1.0
 40
1.0
 40
2.0
 40
2.0
 40
2.0
 40
3.0
 40
3.0
 40
3.0
 40
4.0
 40
4.0
 40
4.0
 40
4.0
 10
1.221856011284722
 20
-5.500006781684028
 30
0.0
 10
1.221856011284722
 20
-5.693318684895833
 30
0.0
 10
1.065158420138889
 20
-5.850002712673611
 30
0.0
 10
0.871853298611111
 20
-5.850002712673611
 30
0.0
 10
0.6785481770833333
 20
-5.850002712673611
 30
0.0
 10
0.5218505859375
 20
-5.693318684895833
 30
0.0
 10
0.5218505859375
 20
-5.500006781684028
 30
0.0
 10
0.5218505859375
 20
-5.30670166015625
 30
0.0
 10
0.6785481770833333
 20
-5.150004069010416
 30
0.0
 10
0.871853298611111
 20
-5.150004069010416
 30
0.0
 10
1.065158420138889
 20
-5.150004069010416
 30
0.0
 10
1.221856011284722
 20
-5.30670166015625
 30
0.0
 10
1.221856011284722
 20
-5.500006781684028
 30
0.0
  0
SPLINE
  5
69
330
1F
100
AcDbEntity
  8
LAYER_1
 62
   250
100
AcDbSpline
210
0.0
220
0.0
230
1.0
 70
    11
 71
     3
 72
    17
 73
    13
 74
     0
 42
0.0000000001
 43
0.0000000001
 40
0.0
 40
0.0
 40
0.0
 40
0.0
 40
1.0
 40
1.0
 40
1.0
 40
2.0
 40
2.0
 40
2.0
 40
3.0
 40
3.0
 40
3.0
 40
4.0
 40
4.0
 40
4.0
 40
4.0
 10
1.695115831163194
 20
-5.500006781684028
 30
0.0
 10
1.695115831163194
 20
-5.534532335069444
 30
0.0
 10
1.667134602864583
 20
-5.5625
 30
0.0
 10
1.632615831163194
 20
-5.5625
 30
0.0
 10
1.598097059461805
 20
-5.5625
 30
0.0
 10
1.570115831163194
 20
-5.534532335069444
 30
0.0
 10
1.570115831163194
 20
-5.500006781684028
 30
0.0
 10
1.570115831163194
 20
-5.465488009982638
 30
0.0
 10
1.598097059461805
 20
-5.437506781684028
 30
0.0
 10
1.632615831163194
 20
-5.437506781684028
 30
0.0
 10
1.667134602864583
 20
-5.437506781684028
 30
0.0
 10
1.695115831163194
 20
-5.465488009982638
 30
0.0
 10
1.695115831163194
 20
-5.500006781684028
 30
0.0
  0
SPLINE
  5
6A
330
1F
100
AcDbEntity
  8
LAYER_1
 62
   250
100
AcDbSpline
210
0.0
220
0.0
230
1.0
 70
    11
 71
     3
 72
    17
 73
    13
 74
     0
 42
0.0000000001
 43
0.0000000001
 40
0.0
 40
0.0
 40
0.0
 40
0.0
 40
1.0
 40
1.0
 40
1.0
 40
2.0
 40
2.0
 40
2.0
 40
3.0
 40
3.0
 40
3.0
 40
4.0
 40
4.0
 40
4.0
 40
4.0
 10
1.982598198784722
 20
-5.500006781684028
 30
0.0
 10
1.982598198784722
 20
-5.693318684895833
 30
0.0
 10
1.825900607638889
 20
-5.850002712673611
 30
0.0
 10
1.632595486111111
 20
-5.850002712673611
 30
0.0
 10
1.439290364583333
 20
-5.850002712673611
 30
0.0
 10
1.2825927734375
 20
-5.693318684895833
 30
0.0
 10
1.2825927734375
 20
-5.500006781684028
 30
0.0
 10
1.2825927734375
 20
-5.30670166015625
 30
0.0
 10
1.439290364583333
 20
-5.150004069010416
 30
0.0
 10
1.632595486111111
 20
-5.150004069010416
 30
0.0
 10
1.825900607638889
 20
-5.150004069010416
 30
0.0
 10
1.982598198784722
 20
-5.30670166015625
 30
0.0
 10
1.982598198784722
 20
-5.500006781684028
 30
0.0
  0
SPLINE
  5
6B
330
1F
100
AcDbEntity
  8
LAYER_1
 62
   250
100
AcDbSpline
210
0.0
220
0.0
230
1.0
 70
    11
 71
     3
 72
    17
 73
    13
 74
     0
 42
0.0000000001
 43
0.0000000001
 40
0.0
 40
0.0
 40
0.0
 40
0.0
 40
1.0
 40
1.0
 40
1.0
 40
2.0
 40
2.0
 40
2.0
 40
3.0
 40
3.0
 40
3.0
 40
4.0
 40
4.0
 40
4.0
 40
4.0
 10
2.455858018663194
 20
-5.500006781684028
 30
0.0
 10
2.455858018663194
 20
-5.534532335069444
 30
0.0
 10
2.427876790364583
 20
-5.5625
 30
0.0
 10
2.393358018663194
 20
-5.5625
 30
0.0
 10
2.358839246961805
 20
-5.5625
 30
0.0
 10
2.330858018663194
 20
-5.534532335069444
 30
0.0
 10
2.330858018663194
 20
-5.500006781684028
 30
0.0
 10
2.330858018663194
 20
-5.465488009982638
 30
0.0
 10
2.358839246961805
 20
-5.437506781684028
 30
0.0
 10
2.393358018663194
 20
-5.437506781684028
 30
0.0
 10
2.427876790364583
 20
-5.437506781684028
 30
0.0
 10
2.455858018663194
 20
-5.465488009982638
 30
0.0
 10
2.455858018663194
 20
-5.500006781684028
 30
0.0
  0
SPLINE
  5
6C
330
1F
100
AcDbEntity
  8
LAYER_1
 62
   250
100
AcDbSpline
210
0.0
220
0.0
230
1.0
 70
    11
 71
     3
 72
    17
 73
    13
 74
     0
 42
0.0000000001
 43
0.0000000001
 40
0.0
 40
0.0
 40
0.0
 40
0.0
 40
1.0
 40
1.0
 40
1.0
 40
2.0
 40
2.0
 40
2.0
 40
3.0
 40
3.0
 40
3.0
 40
4.0
 40
4.0
 40
4.0
 40
4.0
 10
2.743340386284722
 20
-5.500006781684028
 30
0.0
 10
2.743340386284722
 20
-5.693318684895833
 30
0.0
 10
2.586642795138889
 20
-5.850002712673611
 30
0.0
 10
2.393337673611111
 20
-5.850002712673611
 30
0.0
 10
2.200032552083333
 20
-5.850002712673611
 30
0.0
 10
2.0433349609375
 20
-5.693318684895833
 30
0.0
 10
2.0433349609375
 20
-5.500006781684028
 30
0.0
 10
2.0433349609375
 20
-5.30670166015625
 30
0.0
 10
2.200032552083333
 20
-5.150004069010416
 30
0.0
 10
2.393337673611111
 20
-5.150004069010416
 30
0.0
 10
2.586642795138889
 20
-5.150004069010416
 30
0.0
 10
2.743340386284722
 20
-5.30670166015625
 30
0.0
 10
2.743340386284722
 20
-5.500006781684028
 30
0.0
  0
SPLINE
  5
6D
330
1F
100
AcDbEntity
  8
LAYER_1
 62
   250
100
AcDbSpline
210
0.0
220
0.0
230
1.0
 70
    11
 71
     3
 72
    17
 73
    13
 74
     0
 42
0.0000000001
 43
0.0000000001
 40
0.0
 40
0.0
 40
0.0
 40
0.0
 40
1.0
 40
1.0
 40
1.0
 40
2.0
 40
2.0
 40
2.0
 40
3.0
 40
3.0
 40
3.0
 40
4.0
 40
4.0
 40
4.0
 40
4.0
 10
3.216600206163194
 20
-5.500006781684028
 30
0.0
 10
3.216600206163194
 20
-5.534532335069444
 30
0.0
 10
3.188618977864583
 20
-5.5625
 30
0.0
 10
3.154100206163194
 20
-5.5625
 30
0.0
 10
3.119581434461805
 20
-5.5625
 30
0.0
 10
3.091600206163194
 20
-5.534532335069444
 30
0.0
 10
3.091600206163194
 20
-5.500006781684028
 30
0.0
 10
3.091600206163194
 20
-5.465488009982638
 30
0.0
 10
3.119581434461805
 20
-5.437506781684028
 30
0.0
 10
3.154100206163194
 20
-5.437506781684028
 30
0.0
 10
3.188618977864583
 20
-5.437506781684028
 30
0.0
 10
3.216600206163194
 20
-5.465488009982638
 30
0.0
 10
3.216600206163194
 20
-5.500006781684028
 30
0.0
  0
SPLINE
  5
6E
330
1F
100
AcDbEntity
  8
LAYER_1
 62
   250
100
AcDbSpline
210
0.0
220
0.0
230
1.0
 70
    11
 71
     3
 72
    17
 73
    13
 74
     0
 42
0.0000000001
 43
0.0000000001
 40
0.0
 40
0.0
 40
0.0
 40
0.0
 40
1.0
 40
1.0
 40
1.0
 40
2.0
 40
2.0
 40
2.0
 40
3.0
 40
3.0
 40
3.0
 40
4.0
 40
4.0
 40
4.0
 40
4.0
 10
3.504082573784722
 20
-5.500006781684028
 30
0.0
 10
3.504082573784722
 20
-5.693318684895833
 30
0.0
 10
3.347384982638889
 20
-5.850002712673611
 30
0.0
 10
3.154079861111111
 20
-5.850002712673611
 30
0.0
 10
2.960774739583333
 20
-5.850002712673611
 30
0.0
 10
2.8040771484375
 20
-5.693318684895833
 30
0.0
 10
2.8040771484375
 20
-5.500006781684028
 30
0.0
 10
2.8040771484375
 20
-5.30670166015625
 30
0.0
 10
2.960774739583333
 20
-5.150004069010416
 30
0.0
 10
3.154079861111111
 20
-5.150004069010416
 30
0.0
 10
3.347384982638889
 20
-5.150004069010416
 30
0.0
 10
3.504082573784722
 20
-5.30670166015625
 30
0.0
 10
3.504082573784722
 20
-5.500006781684028
 30
0.0
  0
SPLINE
  5
6F
330
1F
100
AcDbEntity
  8
LAYER_1
 62
   250
100
AcDbSpline
210
0.0
220
0.0
230
1.0
 70
    11
 71
     3
 72
    17
 73
    13
 74
     0
 42
0.0000000001
 43
0.0000000001
 40
0.0
 40
0.0
 40
0.0
 40
0.0
 40
1.0
 40
1.0
 40
1.0
 40
2.0
 40
2.0
 40
2.0
 40
3.0
 40
3.0
 40
3.0
 40
4.0
 40
4.0
 40
4.0
 40
4.0
 10
3.977349175347222
 20
-5.500006781684028
 30
0.0
 10
3.977349175347222
 20
-5.534532335069444
 30
0.0
 10
3.949354383680555
 20
-5.5625
 30
0.0
 10
3.914849175347222
 20
-5.5625
 30
0.0
 10
3.880323621961805
 20
-5.5625
 30
0.0
 10
3.852342393663194
 20
-5.534532335069444
 30
0.0
 10
3.852342393663194
 20
-5.500006781684028
 30
0.0
 10
3.852342393663194
 20
-5.465488009982638
 30
0.0
 10
3.880323621961805
 20
-5.437506781684028
 30
0.0
 10
3.914849175347222
 20
-5.437506781684028
 30
0.0
 10
3.949354383680555
 20
-5.437506781684028
 30
0.0
 10
3.977349175347222
 20
-5.465488009982638
 30
0.0
 10
3.977349175347222
 20
-5.500006781684028
 30
0.0
  0
SPLINE
  5
70
330
1F
100
AcDbEntity
  8
LAYER_1
 62
   250
100
AcDbSpline
210
0.0
220
0.0
230
1.0
 70
    11
 71
     3
 72
    17
 73
    13
 74
     0
 42
0.0000000001
 43
0.0000000001
 40
0.0
 40
0.0
 40
0.0
 40
0.0
 40
1.0
 40
1.0
 40
1.0
 40
2.0
 40
2.0
 40
2.0
 40
3.0
 40
3.0
 40
3.0
 40
4.0
 40
4.0
 40
4.0
 40
4.0
 10
4.264824761284722
 20
-5.500006781684028
 30
0.0
 10
4.264824761284722
 20
-5.693318684895833
 30
0.0
 10
4.108127170138888
 20
-5.850002712673611
 30
0.0
 10
3.914822048611111
 20
-5.850002712673611
 30
0.0
 10
3.721516927083333
 20
-5.850002712673611
 30
0.0
 10
3.5648193359375
 20
-5.693318684895833
 30
0.0
 10
3.5648193359375
 20
-5.500006781684028
 30
0.0
 10
3.5648193359375
 20
-5.30670166015625
 30
0.0
 10
3.721516927083333
 20
-5.150004069010416
 30
0.0
 10
3.914822048611111
 20
-5.150004069010416
 30
0.0
 10
4.108127170138888
 20
-5.150004069010416
 30
0.0
 10
4.264824761284722
 20
-5.30670166015625
 30
0.0
 10
4.264824761284722
 20
-5.500006781684028
 30
0.0
  0
SPLINE
  5
71
330
1F
100
AcDbEntity
  8
LAYER_1
 62
   250
100
AcDbSpline
210
0.0
220
0.0
230
1.0
 70
    11
 71
     3
 72
    17
 73
    13
 74
     0
 42
0.0000000001
 43
0.0000000001
 40
0.0
 40
0.0
 40
0.0
 40
0.0
 40
1.0
 40
1.0
 40
1.0
 40
2.0
 40
2.0
 40
2.0
 40
3.0
 40
3.0
 40
3.0
 40
4.0
 40
4.0
 40
4.0
 40
4.0
 10
4.077094184027778
 20
-3.454861111111111
 30
0.0
 10
4.077094184027778
 20
-3.703382703993055
 30
0.0
 10
3.875617133246528
 20
-3.904859754774305
 30
0.0
 10
3.627095540364583
 20
-3.904859754774305
 30
0.0
 10
3.378573947482639
 20
-3.904859754774305
 30
0.0
 10
3.177096896701389
 20
-3.703382703993055
 30
0.0
 10
3.177096896701389
 20
-3.454861111111111
 30
0.0
 10
3.177096896701389
 20
-3.206339518229167
 30
0.0
 10
3.378573947482639
 20
-3.004862467447917
 30
0.0
 10
3.627095540364583
 20
-3.004862467447917
 30
0.0
 10
3.875617133246528
 20
-3.004862467447917
 30
0.0
 10
4.077094184027778
 20
-3.206339518229167
 30
0.0
 10
4.077094184027778
 20
-3.454861111111111
 30
0.0
  0
SPLINE
  5
72
330
1F
100
AcDbEntity
  8
LAYER_1
 62
   250
100
AcDbSpline
210
0.0
220
0.0
230
1.0
 70
    11
 71
     3
 72
    17
 73
    13
 74
     0
 42
0.0000000001
 43
0.0000000001
 40
0.0
 40
0.0
 40
0.0
 40
0.0
 40
1.0
 40
1.0
 40
1.0
 40
2.0
 40
2.0
 40
2.0
 40
3.0
 40
3.0
 40
3.0
 40
4.0
 40
4.0
 40
4.0
 40
4.0
 10
9.400499131944445
 20
-5.384039984809028
 30
0.0
 10
9.400499131944445
 20
-5.418558756510416
 30
0.0
 10
9.372517903645832
 20
-5.446539984809028
 30
0.0
 10
9.337999131944445
 20
-5.446539984809028
 30
0.0
 10
9.303480360243055
 20
-5.446539984809028
 30
0.0
 10
9.275499131944445
 20
-5.418558756510416
 30
0.0
 10
9.275499131944445
 20
-5.384039984809028
 30
0.0
 10
9.275499131944445
 20
-5.349521213107638
 30
0.0
 10
9.303480360243055
 20
-5.321539984809028
 30
0.0
 10
9.337999131944445
 20
-5.321539984809028
 30
0.0
 10
9.372517903645832
 20
-5.321539984809028
 30
0.0
 10
9.400499131944445
 20
-5.349521213107638
 30
0.0
 10
9.400499131944445
 20
-5.384039984809028
 30
0.0
  0
SPLINE
  5
73
330
1F
100
AcDbEntity
  8
LAYER_1
 62
   250
100
AcDbSpline
210
0.0
220
0.0
230
1.0
 70
    11
 71
     3
 72
    17
 73
    13
 74
     0
 42
0.0000000001
 43
0.0000000001
 40
0.0
 40
0.0
 40
0.0
 40
0.0
 40
1.0
 40
1.0
 40
1.0
 40
2.0
 40
2.0
 40
2.0
 40
3.0
 40
3.0
 40
3.0
 40
4.0
 40
4.0
 40
4.0
 40
4.0
 10
9.787950303819445
 20
-5.384039984809028
 30
0.0
 10
9.787950303819445
 20
-5.632568359375
 30
0.0
 10
9.586480034722221
 20
-5.834038628472222
 30
0.0
 10
9.337958441840277
 20
-5.834038628472222
 30
0.0
 10
9.089436848958332
 20
-5.834038628472222
 30
0.0
 10
8.88796657986111
 20
-5.632568359375
 30
0.0
 10
8.88796657986111
 20
-5.384039984809028
 30
0.0
 10
8.88796657986111
 20
-5.135518391927083
 30
0.0
 10
9.089436848958332
 20
-4.934041341145833
 30
0.0
 10
9.337958441840277
 20
-4.934041341145833
 30
0.0
 10
9.586480034722221
 20
-4.934041341145833
 30
0.0
 10
9.787950303819445
 20
-5.135518391927083
 30
0.0
 10
9.787950303819445
 20
-5.384039984809028
 30
0.0
  0
POLYLINE
  5
74
330
1F
100
AcDbEntity
  8
LAYER_1
 62
   250
100
AcDb2dPolyline
 66
     1
 10
0.0
 20
0.0
 30
0.0
  0
VERTEX
  5
75
330
74
100
AcDbEntity
  8
LAYER_1
 62
   250
100
AcDbVertex
100
AcDb2dVertex
 10
10.44906955295139
 20
-5.893527560763888
 30
0.0
  0
VERTEX
  5
76
330
74
100
AcDbEntity
  8
LAYER_1
 62
   250
100
AcDbVertex
100
AcDb2dVertex
 10
0.4425523546006944
 20
-5.893527560763888
 30
0.0
  0
VERTEX
  5
77
330
74
100
AcDbEntity
  8
LAYER_1
 62
   250
100
AcDbVertex
100
AcDb2dVertex
 10
0.4425523546006944
 20
-4.893520779079861
 30
0.0
  0
VERTEX
  5
78
330
74
100
AcDbEntity
  8
LAYER_1
 62
   250
100
AcDbVertex
100
AcDb2dVertex
 10
10.44906955295139
 20
-4.893520779079861
 30
0.0
  0
VERTEX
  5
79
330
74
100
AcDbEntity
  8
LAYER_1
 62
   250
100
AcDbVertex
100
AcDb2dVertex
 10
10.44906955295139
 20
-5.893527560763888
 30
0.0
  0
SEQEND
  5
7A
330
74
100
AcDbEntity
  8
LAYER_1
  0
ENDSEC
  0
SECTION
  2
OBJECTS
  0
DICTIONARY
  5
C
330
0
100
AcDbDictionary
  3
ACAD_GROUP
350
D
  3
ACAD_LAYOUT
350
1A
  3
ACAD_MLINESTYLE
350
17
  3
ACAD_PLOTSETTINGS
350
19
  3
ACAD_TABLESTYLE
350
7B
  3
ACAD_VISUALSTYLE
350
2A
1001
ACAD
1000
TREAT_AS_HARD
1070
     0
  0
DICTIONARY
  5
D
102
{ACAD_REACTORS
330
C
102
}
330
C
100
AcDbDictionary
1001
ACAD
1000
TREAT_AS_HARD
1070
     0
  0
DICTIONARY
  5
1A
102
{ACAD_REACTORS
330
C
102
}
330
C
100
AcDbDictionary
1001
ACAD
1000
TREAT_AS_HARD
1070
     0
  0
DICTIONARY
  5
17
102
{ACAD_REACTORS
330
C
102
}
330
C
100
AcDbDictionary
  3
STANDARD
350
18
1001
ACAD
1000
TREAT_AS_HARD
1070
     0
  0
DICTIONARY
  5
19
102
{ACAD_REACTORS
330
C
102
}
330
C
100
AcDbDictionary
1001
ACAD
1000
TREAT_AS_HARD
1070
     0
  0
DICTIONARY
  5
7B
102
{ACAD_REACTORS
330
C
102
}
330
C
100
AcDbDictionary
1001
ACAD
1000
TREAT_AS_HARD
1070
     0
  0
DICTIONARY
  5
2A
102
{ACAD_REACTORS
330
C
102
}
330
C
100
AcDbDictionary
  3
2DWIREFRAME
350
2F
  3
3DWIREFRAME
350
30
  3
3D_HIDDEN
350
31
  3
BASIC
350
32
  3
BRIGHTEN
350
36
  3
COLORCHANGE
350
3A
  3
CONCEPTUAL
350
34
  3
DIM
350
35
  3
FACEPATTERN
350
39
  3
FLAT
350
2B
  3
FLATWITHEDGES
350
2C
  3
GOURAUD
350
2D
  3
GOURAUDWITHEDGES
350
2E
  3
LINEPATTERN
350
38
  3
REALISTIC
350
33
  3
THICKEN
350
37
1001
ACAD
1000
TREAT_AS_HARD
1070
     0
  0
MLINESTYLE
  5
18
102
{ACAD_REACTORS
330
17
102
}
330
17
100
AcDbMlineStyle
  2
Standard
 70
     0
  3

 62
   256
 51
90.0
 52
90.0
 71
     2
 49
0.5
 62
   256
  6
BYLAYER
 49
-0.5
 62
   256
  6
BYLAYER
  0
VISUALSTYLE
  5
2F
102
{ACAD_REACTORS
330
2A
102
}
330
2A
100
AcDbVisualStyle
  2
2dWireframe
 70
     4
 71
     0
 72
     2
 73
     0
 90
        0
 40
-0.6
 41
-30.0
 62
     5
 63
     7
 74
     1
 91
        4
 64
     7
 65
   257
 75
     1
175
     1
 42
1.0
 92
        0
 66
   257
 43
1.0
 76
     1
 77
     6
 78
     2
 67
     7
 79
     5
170
     0
171
     0
290
     0
174
     0
 93
        1
 44
0.0
173
     0
291
     0
 45
0.0
1001
ACAD
1000
AcDbSavedByObjectVersion
1070
     0
  0
VISUALSTYLE
  5
30
102
{ACAD_REACTORS
330
2A
102
}
330
2A
100
AcDbVisualStyle
  2
3dWireframe
 70
     5
 71
     0
 72
     2
 73
     0
 90
        0
 40
-0.6
 41
-30.0
 62
     5
 63
     7
 74
     1
 91
        4
 64
     7
 65
   257
 75
     1
175
     1
 42
1.0
 92
        0
 66
   257
 43
1.0
 76
     1
 77
     6
 78
     2
 67
     7
 79
     5
170
     0
171
     0
290
     0
174
     0
 93
        1
 44
0.0
173
     0
291
     0
 45
0.0
1001
ACAD
1000
AcDbSavedByObjectVersion
1070
     0
  0
VISUALSTYLE
  5
31
102
{ACAD_REACTORS
330
2A
102
}
330
2A
100
AcDbVisualStyle
  2
3D Hidden
 70
     6
 71
     1
 72
     2
 73
     2
 90
        0
 40
-0.6
 41
-30.0
 62
     5
 63
     7
 74
     2
 91
        2
 64
     7
 65
   257
 75
     2
175
     1
 42
40.0
 92
        0
 66
   257
 43
1.0
 76
     1
 77
     6
 78
     2
 67
     7
 79
     3
170
     0
171
     0
290
     0
174
     0
 93
        1
 44
0.0
173
     0
291
     0
 45
0.0
1001
ACAD
1000
AcDbSavedByObjectVersion
1070
     0
  0
VISUALSTYLE
  5
32
102
{ACAD_REACTORS
330
2A
102
}
330
2A
100
AcDbVisualStyle
  2
Basic
 70
     7
 71
     1
 72
     0
 73
     1
 90
        0
 40
-0.6
 41
-30.0
 62
     5
 63
     7
 74
     0
 91
        4
 64
     7
 65
   257
 75
     1
175
     1
 42
1.0
 92
        8
 66
     7
 43
1.0
 76
     1
 77
     6
 78
     2
 67
     7
 79
     5
170
     0
171
     0
290
     0
174
     0
 93
        1
 44
0.0
173
     0
291
     1
 45
0.0
1001
ACAD
1000
AcDbSavedByObjectVersion
1070
     0
  0
VISUALSTYLE
  5
36
102
{ACAD_REACTORS
330
2A
102
}
330
2A
100
AcDbVisualStyle
  2
Brighten
 70
    12
 71
     2
 72
     2
 73
     0
 90
        0
 40
-0.6
 41
-30.0
 62
     5
 63
     7
 74
     1
 91
        4
 64
     7
 65
   257
 75
     1
175
     1
 42
1.0
 92
        8
 66
     7
 43
1.0
 76
     1
 77
     6
 78
     2
 67
     7
 79
     5
170
     0
171
     0
290
     0
174
     0
 93
        1
 44
50.0
173
     0
291
     1
 45
0.0
1001
ACAD
1000
AcDbSavedByObjectVersion
1070
     0
  0
VISUALSTYLE
  5
3A
102
{ACAD_REACTORS
330
2A
102
}
330
2A
100
AcDbVisualStyle
  2
ColorChange
 70
    16
 71
     2
 72
     2
 73
     3
 90
        0
 40
-0.6
 41
-30.0
 62
     5
 63
     8
 74
     1
 91
        4
 64
     7
 65
   257
 75
     1
175
     1
 42
1.0
 92
        8
 66
     8
 43
1.0
 76
     1
 77
     6
 78
     2
 67
     7
 79
     5
170
     0
171
     0
290
     0
174
     0
 93
        1
 44
0.0
173
     0
291
     1
 45
0.0
1001
ACAD
1000
AcDbSavedByObjectVersion
1070
     0
  0
VISUALSTYLE
  5
34
102
{ACAD_REACTORS
330
2A
102
}
330
2A
100
AcDbVisualStyle
  2
Conceptual
 70
     9
 71
     3
 72
     2
 73
     0
 90
        0
 40
-0.6
 41
-30.0
 62
     5
 63
     7
 74
     2
 91
        2
 64
     7
 65
   257
 75
     1
175
     1
 42
40.0
 92
        8
 66
     7
 43
1.0
 76
     1
 77
     6
 78
     2
 67
     7
 79
     3
170
     0
171
     0
290
     0
174
     0
 93
        1
 44
0.0
173
     0
291
     0
 45
0.0
1001
ACAD
1000
AcDbSavedByObjectVersion
1070
     0
  0
VISUALSTYLE
  5
35
102
{ACAD_REACTORS
330
2A
102
}
330
2A
100
AcDbVisualStyle
  2
Dim
 70
    11
 71
     2
 72
     2
 73
     0
 90
        0
 40
-0.6
 41
-30.0
 62
     5
 63
     7
 74
     1
 91
        4
 64
     7
 65
   257
 75
     1
175
     1
 42
1.0
 92
        8
 66
     7
 43
1.0
 76
     1
 77
     6
 78
     2
 67
     7
 79
     5
170
     0
171
     0
290
     0
174
     0
 93
        1
 44
-50.0
173
     0
291
     1
 45
0.0
1001
ACAD
1000
AcDbSavedByObjectVersion
1070
     0
  0
VISUALSTYLE
  5
39
102
{ACAD_REACTORS
330
2A
102
}
330
2A
100
AcDbVisualStyle
  2
Facepattern
 70
    15
 71
     2
 72
     2
 73
     0
 90
        0
 40
-0.6
 41
-30.0
 62
     5
 63
     7
 74
     1
 91
        4
 64
     7
 65
   257
 75
     1
175
     1
 42
1.0
 92
        8
 66
     7
 43
1.0
 76
     1
 77
     6
 78
     2
 67
     7
 79
     5
170
     0
171
     0
290
     0
174
     0
 93
        1
 44
0.0
173
     0
291
     1
 45
0.0
1001
ACAD
1000
AcDbSavedByObjectVersion
1070
     0
  0
VISUALSTYLE
  5
2B
102
{ACAD_REACTORS
330
2A
102
}
330
2A
100
AcDbVisualStyle
  2
Flat
 70
     0
 71
     2
 72
     1
 73
     1
 90
        2
 40
-0.6
 41
30.0
 62
     5
 63
     7
 74
     0
 91
        4
 64
     7
 65
   257
 75
     1
175
     1
 42
1.0
 92
        8
 66
     7
 43
1.0
 76
     1
 77
     6
 78
     2
 67
     7
 79
     5
170
     0
171
     0
290
     0
174
     0
 93
       13
 44
0.0
173
     0
291
     1
 45
0.0
1001
ACAD
1000
AcDbSavedByObjectVersion
1070
     0
  0
VISUALSTYLE
  5
2C
102
{ACAD_REACTORS
330
2A
102
}
330
2A
100
AcDbVisualStyle
  2
FlatWithEdges
 70
     1
 71
     2
 72
     1
 73
     1
 90
        2
 40
-0.6
 41
30.0
 62
     5
 63
     7
 74
     1
 91
        4
 64
     7
 65
   257
 75
     1
175
     1
 42
1.0
 92
        0
 66
   257
 43
1.0
 76
     1
 77
     6
 78
     2
 67
     7
 79
     5
170
     0
171
     0
290
     0
174
     0
 93
       13
 44
0.0
173
     0
291
     1
 45
0.0
1001
ACAD
1000
AcDbSavedByObjectVersion
1070
     0
  0
VISUALSTYLE
  5
2D
102
{ACAD_REACTORS
330
2A
102
}
330
2A
100
AcDbVisualStyle
  2
Gouraud
 70
     2
 71
     2
 72
     2
 73
     1
 90
        2
 40
-0.6
 41
30.0
 62
     5
 63
     7
 74
     0
 91
        4
 64
     7
 65
   257
 75
     1
175
     1
 42
1.0
 92
        0
 66
     7
 43
1.0
 76
     1
 77
     6
 78
     2
 67
     7
 79
     5
170
     0
171
     0
290
     0
174
     0
 93
       13
 44
0.0
173
     0
291
     1
 45
0.0
1001
ACAD
1000
AcDbSavedByObjectVersion
1070
     0
  0
VISUALSTYLE
  5
2E
102
{ACAD_REACTORS
330
2A
102
}
330
2A
100
AcDbVisualStyle
  2
GouraudWithEdges
 70
     3
 71
     2
 72
     2
 73
     1
 90
        2
 40
-0.6
 41
30.0
 62
     5
 63
     7
 74
     1
 91
        4
 64
     7
 65
   257
 75
     1
175
     1
 42
1.0
 92
        0
 66
   257
 43
1.0
 76
     1
 77
     6
 78
     2
 67
     7
 79
     5
170
     0
171
     0
290
     0
174
     0
 93
       13
 44
0.0
173
     0
291
     1
 45
0.0
1001
ACAD
1000
AcDbSavedByObjectVersion
1070
     0
  0
VISUALSTYLE
  5
38
102
{ACAD_REACTORS
330
2A
102
}
330
2A
100
AcDbVisualStyle
  2
Linepattern
 70
    14
 71
     2
 72
     2
 73
     0
 90
        0
 40
-0.6
 41
-30.0
 62
     5
 63
     7
 74
     1
 91
        4
 64
     7
 65
   257
 75
     7
175
     7
 42
1.0
 92
        8
 66
     7
 43
1.0
 76
     1
 77
     6
 78
     2
 67
     7
 79
     5
170
     0
171
     0
290
     0
174
     0
 93
        1
 44
0.0
173
     0
291
     1
 45
0.0
1001
ACAD
1000
AcDbSavedByObjectVersion
1070
     0
  0
VISUALSTYLE
  5
33
102
{ACAD_REACTORS
330
2A
102
}
330
2A
100
AcDbVisualStyle
  2
Realistic
 70
     8
 71
     2
 72
     2
 73
     0
 90
        0
 40
-0.6
 41
-30.0
 62
     5
 63
     7
 74
     1
 91
        0
 64
     7
 65
   257
 75
     1
175
     1
 42
1.0
 92
        8
 66
     8
 43
1.0
 76
     1
 77
     6
 78
     2
 67
     7
 79
     5
170
     0
171
     0
290
     0
174
     0
 93
       13
 44
0.0
173
     0
291
     0
 45
0.0
1001
ACAD
1000
AcDbSavedByObjectVersion
1070
     0
  0
VISUALSTYLE
  5
37
102
{ACAD_REACTORS
330
2A
102
}
330
2A
100
AcDbVisualStyle
  2
Thicken
 70
    13
 71
     2
 72
     2
 73
     0
 90
        0
 40
-0.6
 41
-30.0
 62
     5
 63
     7
 74
     1
 91
        4
 64
     7
 65
   257
 75
     1
175
     1
 42
1.0
 92
       12
 66
     7
 43
1.0
 76
     1
 77
     6
 78
     2
 67
     7
 79
     5
170
     0
171
     0
290
     0
174
     0
 93
        1
 44
0.0
173
     0
291
     1
 45
0.0
1001
ACAD
1000
AcDbSavedByObjectVersion
1070
     0
  0
ENDSEC
  0
EOF
