<?xml version="1.0" encoding="utf-8"?>
<!-- Generator: Adobe Illustrator 16.0.3, SVG Export Plug-In . SVG Version: 6.00 Build 0)  -->
<!DOCTYPE svg PUBLIC "-//W3C//DTD SVG 1.1//EN" "http://www.w3.org/Graphics/SVG/1.1/DTD/svg11.dtd">
<svg version="1.1" id="Layer_1" xmlns="http://www.w3.org/2000/svg" xmlns:xlink="http://www.w3.org/1999/xlink" x="0px" y="0px"
	 width="612px" height="792px" viewBox="0 0 612 792" enable-background="new 0 0 612 792" xml:space="preserve">
<circle fill="none" stroke="#231F20" stroke-miterlimit="10" cx="261.154" cy="248.75" r="4.5"/>
<circle fill="none" stroke="#231F20" stroke-miterlimit="10" cx="261.152" cy="248.75" r="18"/>
<circle fill="none" stroke="#231F20" stroke-miterlimit="10" cx="726.334" cy="378.466" r="4.5"/>
<circle fill="none" stroke="#231F20" stroke-miterlimit="10" cx="726.333" cy="378.466" r="18"/>
<circle fill="none" stroke="#231F20" stroke-miterlimit="10" cx="261.151" cy="248.75" r="10.8"/>
<circle fill="none" stroke="#231F20" stroke-miterlimit="10" cx="261.151" cy="248.75" r="7.2"/>
<circle fill="none" stroke="#231F20" stroke-miterlimit="10" cx="577.399" cy="367.667" r="4.5"/>
<circle fill="none" stroke="#231F20" stroke-miterlimit="10" cx="577.396" cy="367.667" r="7.2"/>
<circle fill="none" stroke="#231F20" stroke-miterlimit="10" cx="40.943" cy="364.067" r="4.5"/>
<circle fill="none" stroke="#231F20" stroke-miterlimit="10" cx="40.94" cy="364.067" r="7.2"/>
<circle fill="none" stroke="#231F20" stroke-miterlimit="10" cx="90.261" cy="367.667" r="4.5"/>
<circle fill="none" stroke="#231F20" stroke-miterlimit="10" cx="90.261" cy="367.667" r="10.8"/>
<circle fill="none" stroke="#231F20" stroke-miterlimit="10" cx="145.882" cy="367.667" r="4.5"/>
<circle fill="none" stroke="#231F20" stroke-miterlimit="10" cx="145.882" cy="367.667" r="10.8"/>
<circle fill="none" stroke="#231F20" stroke-miterlimit="10" cx="199.704" cy="367.667" r="4.5"/>
<circle fill="none" stroke="#231F20" stroke-miterlimit="10" cx="199.704" cy="367.667" r="10.8"/>
<circle fill="none" stroke="#231F20" stroke-miterlimit="10" cx="253.953" cy="367.667" r="4.5"/>
<circle fill="none" stroke="#231F20" stroke-miterlimit="10" cx="253.953" cy="367.667" r="10.8"/>
<circle fill="none" stroke="#231F20" stroke-miterlimit="10" cx="309.433" cy="367.667" r="4.5"/>
<circle fill="none" stroke="#231F20" stroke-miterlimit="10" cx="309.433" cy="367.667" r="10.8"/>
<circle fill="none" stroke="#231F20" stroke-miterlimit="10" cx="361.834" cy="367.667" r="4.5"/>
<circle fill="none" stroke="#231F20" stroke-miterlimit="10" cx="361.834" cy="367.667" r="10.8"/>
<circle fill="none" stroke="#231F20" stroke-miterlimit="10" cx="416.2" cy="367.667" r="4.5"/>
<circle fill="none" stroke="#231F20" stroke-miterlimit="10" cx="416.2" cy="367.667" r="10.8"/>
<circle fill="none" stroke="#231F20" stroke-miterlimit="10" cx="471.975" cy="367.667" r="4.5"/>
<circle fill="none" stroke="#231F20" stroke-miterlimit="10" cx="471.975" cy="367.667" r="10.8"/>
<circle fill="none" stroke="#231F20" stroke-miterlimit="10" cx="527.117" cy="367.667" r="4.5"/>
<circle fill="none" stroke="#231F20" stroke-miterlimit="10" cx="527.117" cy="367.667" r="10.8"/>
<circle fill="none" stroke="#231F20" stroke-miterlimit="10" cx="715.533" cy="410.617" r="4.5"/>
<circle fill="none" stroke="#231F20" stroke-miterlimit="10" cx="715.533" cy="410.617" r="10.8"/>
<circle fill="none" stroke="#231F20" stroke-miterlimit="10" cx="261.152" cy="248.75" r="25.2"/>
<circle fill="none" stroke="#231F20" stroke-miterlimit="10" cx="391.002" cy="396" r="4.5"/>
<circle fill="none" stroke="#231F20" stroke-miterlimit="10" cx="391" cy="396" r="25.2"/>
<circle fill="none" stroke="#231F20" stroke-miterlimit="10" cx="445.775" cy="396" r="4.5"/>
<circle fill="none" stroke="#231F20" stroke-miterlimit="10" cx="445.773" cy="396" r="25.2"/>
<circle fill="none" stroke="#231F20" stroke-miterlimit="10" cx="500.549" cy="396" r="4.5"/>
<circle fill="none" stroke="#231F20" stroke-miterlimit="10" cx="500.547" cy="396" r="25.2"/>
<circle fill="none" stroke="#231F20" stroke-miterlimit="10" cx="555.322" cy="396" r="4.5"/>
<circle fill="none" stroke="#231F20" stroke-miterlimit="10" cx="555.32" cy="396" r="25.2"/>
<circle fill="none" stroke="#231F20" stroke-miterlimit="10" cx="609.799" cy="396" r="4.5"/>
<circle fill="none" stroke="#231F20" stroke-miterlimit="10" cx="609.797" cy="396" r="25.2"/>
<circle fill="none" stroke="#231F20" stroke-miterlimit="10" cx="336.635" cy="396" r="4.5"/>
<circle fill="none" stroke="#231F20" stroke-miterlimit="10" cx="336.634" cy="396" r="25.2"/>
<circle fill="none" stroke="#231F20" stroke-miterlimit="10" cx="62.775" cy="396" r="4.5"/>
<circle fill="none" stroke="#231F20" stroke-miterlimit="10" cx="62.773" cy="396" r="25.2"/>
<circle fill="none" stroke="#231F20" stroke-miterlimit="10" cx="117.548" cy="396" r="4.5"/>
<circle fill="none" stroke="#231F20" stroke-miterlimit="10" cx="117.547" cy="396" r="25.2"/>
<circle fill="none" stroke="#231F20" stroke-miterlimit="10" cx="172.322" cy="396" r="4.5"/>
<circle fill="none" stroke="#231F20" stroke-miterlimit="10" cx="172.32" cy="396" r="25.2"/>
<circle fill="none" stroke="#231F20" stroke-miterlimit="10" cx="227.095" cy="396" r="4.5"/>
<circle fill="none" stroke="#231F20" stroke-miterlimit="10" cx="227.094" cy="396" r="25.2"/>
<circle fill="none" stroke="#231F20" stroke-miterlimit="10" cx="281.869" cy="396" r="4.5"/>
<circle fill="none" stroke="#231F20" stroke-miterlimit="10" cx="281.867" cy="396" r="25.2"/>
<circle fill="none" stroke="#231F20" stroke-miterlimit="10" cx="261.151" cy="248.75" r="32.4"/>
<circle fill="none" stroke="#231F20" stroke-miterlimit="10" cx="672.336" cy="387.651" r="4.5"/>
<circle fill="none" stroke="#231F20" stroke-miterlimit="10" cx="672.333" cy="387.651" r="32.399"/>
<rect x="31.864" y="352.333" fill="none" stroke="#231F20" stroke-miterlimit="10" width="720.469" height="72"/>
</svg>
