  0
SECTION
  2
HEADER
  9
$ACADVER
  1
AC1024
  9
$ACADMAINTVER
 70
     6
  9
$DWGCODEPAGE
  3
UNDEFINED
  9
$INSBASE
 10
0.0
 20
0.0
 30
0.0
  9
$EXTMIN
 10
1.000000000000000E+20
 20
1.000000000000000E+20
 30
1.000000000000000E+20
  9
$EXTMAX
 10
-1.000000000000000E+20
 20
-1.000000000000000E+20
 30
-1.000000000000000E+20
  9
$LIMMIN
 10
0.0
 20
0.0
  9
$LIMMAX
 10
12.0
 20
9.0
  9
$ORTHOMODE
 70
     0
  9
$REGENMODE
 70
     1
  9
$FILLMODE
 70
     1
  9
$QTEXTMODE
 70
     0
  9
$MIRRTEXT
 70
     1
  9
$LTSCALE
 40
1.0
  9
$ATTMODE
 70
     1
  9
$TEXTSIZE
 40
0.2
  9
$TRACEWID
 40
0.05
  9
$TEXTSTYLE
  7
Standard
  9
$CLAYER
  8
0
  9
$CELTYPE
  6
ByLayer
  9
$CECOLOR
 62
   256
  9
$CELTSCALE
 40
1.0
  9
$DISPSILH
 70
     0
  9
$DIMSCALE
 40
1.0
  9
$DIMASZ
 40
0.18
  9
$DIMEXO
 40
0.0625
  9
$DIMDLI
 40
0.38
  9
$DIMRND
 40
0.0
  9
$DIMDLE
 40
0.0
  9
$DIMEXE
 40
0.18
  9
$DIMTP
 40
0.0
  9
$DIMTM
 40
0.0
  9
$DIMTXT
 40
0.18
  9
$DIMCEN
 40
0.09
  9
$DIMTSZ
 40
0.0
  9
$DIMTOL
 70
     0
  9
$DIMLIM
 70
     0
  9
$DIMTIH
 70
     1
  9
$DIMTOH
 70
     1
  9
$DIMSE1
 70
     0
  9
$DIMSE2
 70
     0
  9
$DIMTAD
 70
     0
  9
$DIMZIN
 70
     0
  9
$DIMBLK
  1

  9
$DIMASO
 70
     1
  9
$DIMSHO
 70
     1
  9
$DIMPOST
  1

  9
$DIMAPOST
  1

  9
$DIMALT
 70
     0
  9
$DIMALTD
 70
     2
  9
$DIMALTF
 40
25.4
  9
$DIMLFAC
 40
1.0
  9
$DIMTOFL
 70
     0
  9
$DIMTVP
 40
0.0
  9
$DIMTIX
 70
     0
  9
$DIMSOXD
 70
     0
  9
$DIMSAH
 70
     0
  9
$DIMBLK1
  1

  9
$DIMBLK2
  1

  9
$DIMSTYLE
  2
Standard
  9
$DIMCLRD
 70
     0
  9
$DIMCLRE
 70
     0
  9
$DIMCLRT
 70
     0
  9
$DIMTFAC
 40
1.0
  9
$DIMGAP
 40
0.09
  9
$DIMJUST
 70
     0
  9
$DIMSD1
 70
     0
  9
$DIMSD2
 70
     0
  9
$DIMTOLJ
 70
     1
  9
$DIMTZIN
 70
     0
  9
$DIMALTZ
 70
     0
  9
$DIMALTTZ
 70
     0
  9
$DIMUPT
 70
     0
  9
$DIMDEC
 70
     4
  9
$DIMTDEC
 70
     4
  9
$DIMALTU
 70
     2
  9
$DIMALTTD
 70
     2
  9
$DIMTXSTY
  7
Standard
  9
$DIMAUNIT
 70
     0
  9
$DIMADEC
 70
     0
  9
$DIMALTRND
 40
0.0
  9
$DIMAZIN
 70
     0
  9
$DIMDSEP
 70
    46
  9
$DIMATFIT
 70
     3
  9
$DIMFRAC
 70
     0
  9
$DIMLDRBLK
  1

  9
$DIMLUNIT
 70
     2
  9
$DIMLWD
 70
    -2
  9
$DIMLWE
 70
    -2
  9
$DIMTMOVE
 70
     0
  9
$DIMFXL
 40
1.0
  9
$DIMFXLON
 70
     0
  9
$DIMJOGANG
 40
0.7853981633974483
  9
$DIMTFILL
 70
     0
  9
$DIMTFILLCLR
 70
     0
  9
$DIMARCSYM
 70
     0
  9
$DIMLTYPE
  6

  9
$DIMLTEX1
  6

  9
$DIMLTEX2
  6

  9
$DIMTXTDIRECTION
 70
     0
  9
$LUNITS
 70
     2
  9
$LUPREC
 70
     4
  9
$SKETCHINC
 40
0.1
  9
$FILLETRAD
 40
0.5
  9
$AUNITS
 70
     0
  9
$AUPREC
 70
     0
  9
$MENU
  1
.
  9
$ELEVATION
 40
0.0
  9
$PELEVATION
 40
0.0
  9
$THICKNESS
 40
0.0
  9
$LIMCHECK
 70
     0
  9
$CHAMFERA
 40
0.5
  9
$CHAMFERB
 40
0.5
  9
$CHAMFERC
 40
1.0
  9
$CHAMFERD
 40
0.0
  9
$SKPOLY
 70
     0
  9
$TDCREATE
 40
2458378.132824062
  9
$TDUCREATE
 40
2458378.466157407
  9
$TDUPDATE
 40
2458378.132824062
  9
$TDUUPDATE
 40
2458378.466157407
  9
$TDINDWG
 40
0.0000000116
  9
$TDUSRTIMER
 40
0.0000000116
  9
$USRTIMER
 70
     1
  9
$ANGBASE
 50
0.0
  9
$ANGDIR
 70
     0
  9
$PDMODE
 70
     0
  9
$PDSIZE
 40
0.0
  9
$PLINEWID
 40
0.0
  9
$SPLFRAME
 70
     0
  9
$SPLINETYPE
 70
     6
  9
$SPLINESEGS
 70
     8
  9
$HANDSEED
  5
7D
  9
$SURFTAB1
 70
     6
  9
$SURFTAB2
 70
     6
  9
$SURFTYPE
 70
     6
  9
$SURFU
 70
     6
  9
$SURFV
 70
     6
  9
$UCSBASE
  2

  9
$UCSNAME
  2

  9
$UCSORG
 10
0.0
 20
0.0
 30
0.0
  9
$UCSXDIR
 10
1.0
 20
0.0
 30
0.0
  9
$UCSYDIR
 10
0.0
 20
1.0
 30
0.0
  9
$UCSORTHOREF
  2

  9
$UCSORTHOVIEW
 70
     0
  9
$UCSORGTOP
 10
0.0
 20
0.0
 30
0.0
  9
$UCSORGBOTTOM
 10
0.0
 20
0.0
 30
0.0
  9
$UCSORGLEFT
 10
0.0
 20
0.0
 30
0.0
  9
$UCSORGRIGHT
 10
0.0
 20
0.0
 30
0.0
  9
$UCSORGFRONT
 10
0.0
 20
0.0
 30
0.0
  9
$UCSORGBACK
 10
0.0
 20
0.0
 30
0.0
  9
$PUCSBASE
  2

  9
$PUCSNAME
  2

  9
$PUCSORG
 10
0.0
 20
0.0
 30
0.0
  9
$PUCSXDIR
 10
1.0
 20
0.0
 30
0.0
  9
$PUCSYDIR
 10
0.0
 20
1.0
 30
0.0
  9
$PUCSORTHOREF
  2

  9
$PUCSORTHOVIEW
 70
     0
  9
$PUCSORGTOP
 10
0.0
 20
0.0
 30
0.0
  9
$PUCSORGBOTTOM
 10
0.0
 20
0.0
 30
0.0
  9
$PUCSORGLEFT
 10
0.0
 20
0.0
 30
0.0
  9
$PUCSORGRIGHT
 10
0.0
 20
0.0
 30
0.0
  9
$PUCSORGFRONT
 10
0.0
 20
0.0
 30
0.0
  9
$PUCSORGBACK
 10
0.0
 20
0.0
 30
0.0
  9
$USERI1
 70
     0
  9
$USERI2
 70
     0
  9
$USERI3
 70
     0
  9
$USERI4
 70
     0
  9
$USERI5
 70
     0
  9
$USERR1
 40
0.0
  9
$USERR2
 40
0.0
  9
$USERR3
 40
0.0
  9
$USERR4
 40
0.0
  9
$USERR5
 40
0.0
  9
$WORLDVIEW
 70
     1
  9
$SHADEDGE
 70
     3
  9
$SHADEDIF
 70
    70
  9
$TILEMODE
 70
     1
  9
$MAXACTVP
 70
    64
  9
$PINSBASE
 10
0.0
 20
0.0
 30
0.0
  9
$PLIMCHECK
 70
     0
  9
$PEXTMIN
 10
1.000000000000000E+20
 20
1.000000000000000E+20
 30
1.000000000000000E+20
  9
$PEXTMAX
 10
-1.000000000000000E+20
 20
-1.000000000000000E+20
 30
-1.000000000000000E+20
  9
$PLIMMIN
 10
0.0
 20
0.0
  9
$PLIMMAX
 10
12.0
 20
9.0
  9
$UNITMODE
 70
     0
  9
$VISRETAIN
 70
     1
  9
$PLINEGEN
 70
     0
  9
$PSLTSCALE
 70
     1
  9
$TREEDEPTH
 70
  3020
  9
$CMLSTYLE
  2
Standard
  9
$CMLJUST
 70
     0
  9
$CMLSCALE
 40
1.0
  9
$PROXYGRAPHICS
 70
     1
  9
$MEASUREMENT
 70
     0
  9
$CELWEIGHT
370
    -1
  9
$ENDCAPS
280
     0
  9
$JOINSTYLE
280
     0
  9
$LWDISPLAY
290
     1
  9
$INSUNITS
 70
     1
  9
$HYPERLINKBASE
  1

  9
$STYLESHEET
  1

  9
$XEDIT
290
     1
  9
$CEPSNTYPE
380
     0
  9
$PSTYLEMODE
290
     1
  9
$FINGERPRINTGUID
  2
{2C5F8B5E-26A2-DE2B-27B0-E41FD6651579}
  9
$VERSIONGUID
  2
{FAEB1C32-E019-11D5-929B-00C0DF256EC4}
  9
$EXTNAMES
290
     1
  9
$PSVPSCALE
 40
0.0
  9
$OLESTARTUP
290
     0
  9
$SORTENTS
280
   127
  9
$INDEXCTL
280
     0
  9
$HIDETEXT
280
     1
  9
$XCLIPFRAME
280
     2
  9
$HALOGAP
280
     0
  9
$OBSCOLOR
 70
   257
  9
$OBSLTYPE
280
     0
  9
$INTERSECTIONDISPLAY
280
     0
  9
$INTERSECTIONCOLOR
 70
   257
  9
$DIMASSOC
280
     2
  9
$PROJECTNAME
  1

  9
$CAMERADISPLAY
290
     0
  9
$LENSLENGTH
 40
50.0
  9
$CAMERAHEIGHT
 40
0.0
  9
$STEPSPERSEC
 40
2.0
  9
$STEPSIZE
 40
6.0
  9
$3DDWFPREC
 40
2.0
  9
$PSOLWIDTH
 40
0.25
  9
$PSOLHEIGHT
 40
4.0
  9
$LOFTANG1
 40
1.570796326794897
  9
$LOFTANG2
 40
1.570796326794897
  9
$LOFTMAG1
 40
0.0
  9
$LOFTMAG2
 40
0.0
  9
$LOFTPARAM
 70
     7
  9
$LOFTNORMALS
280
     1
  9
$LATITUDE
 40
37.795
  9
$LONGITUDE
 40
-122.394
  9
$NORTHDIRECTION
 40
0.0
  9
$TIMEZONE
 70
 -8000
  9
$LIGHTGLYPHDISPLAY
280
     1
  9
$TILEMODELIGHTSYNCH
280
     1
  9
$CMATERIAL
347
3C
  9
$SOLIDHIST
280
     1
  9
$SHOWHIST
280
     1
  9
$DWFFRAME
280
     2
  9
$DGNFRAME
280
     2
  9
$REALWORLDSCALE
290
     1
  9
$INTERFERECOLOR
 62
   256
  9
$CSHADOW
280
     0
  9
$SHADOWPLANELOCATION
 40
0.0
  0
ENDSEC
  0
SECTION
  2
CLASSES
  0
CLASS
  1
ACDBDICTIONARYWDFLT
  2
AcDbDictionaryWithDefault
  3
ObjectDBX Classes
 90
        0
 91
        4
280
     0
281
     0
  0
CLASS
  1
VISUALSTYLE
  2
AcDbVisualStyle
  3
ObjectDBX Classes
 90
     4095
 91
        4
280
     0
281
     0
  0
CLASS
  1
MATERIAL
  2
AcDbMaterial
  3
ObjectDBX Classes
 90
     1153
 91
        4
280
     0
281
     0
  0
CLASS
  1
SUN
  2
AcDbSun
  3
SCENEOE
 90
     1024
 91
        4
280
     0
281
     0
  0
ENDSEC
  0
SECTION
  2
TABLES
  0
TABLE
  2
VPORT
  5
8
330
0
100
AcDbSymbolTable
 70
     1
  0
VPORT
  5
29
330
8
100
AcDbSymbolTableRecord
100
AcDbViewportTableRecord
  2
*Active
 70
     0
 10
0.0
 20
0.0
 11
1.0
 21
1.0
 12
0.0
 22
0.0
 13
0.0
 23
0.0
 14
0.5
 24
0.5
 15
0.5
 25
0.5
 16
0.0
 26
0.0
 36
1.0
 17
4.25
 27
5.5
 37
0.0
 40
11.0
 41
0.7727272727272727
 42
50.0
 43
0.0
 44
0.0
 50
0.0
 51
0.0
 71
     0
 72
   100
 73
     1
 74
     3
 75
     0
 76
     0
 77
     0
 78
     0
281
     0
 65
     1
110
0.0
120
0.0
130
0.0
111
1.0
121
0.0
131
0.0
112
0.0
122
1.0
132
0.0
 79
     0
146
0.0
 60
     3
 61
     5
292
     1
282
     1
141
0.0
142
0.0
 63
   250
361
3F
  0
ENDTAB
  0
TABLE
  2
LTYPE
  5
5
330
0
100
AcDbSymbolTable
 70
     1
  0
LTYPE
  5
14
330
5
100
AcDbSymbolTableRecord
100
AcDbLinetypeTableRecord
  2
ByBlock
 70
     0
  3

 72
    65
 73
     0
 40
0.0
  0
LTYPE
  5
15
330
5
100
AcDbSymbolTableRecord
100
AcDbLinetypeTableRecord
  2
ByLayer
 70
     0
  3

 72
    65
 73
     0
 40
0.0
  0
LTYPE
  5
16
330
5
100
AcDbSymbolTableRecord
100
AcDbLinetypeTableRecord
  2
Continuous
 70
     0
  3
Solid line
 72
    65
 73
     0
 40
0.0
  0
ENDTAB
  0
TABLE
  2
LAYER
  5
2
330
0
100
AcDbSymbolTable
 70
     2
  0
LAYER
  5
10
330
2
100
AcDbSymbolTableRecord
100
AcDbLayerTableRecord
  2
0
 70
     0
 62
     7
  6
Continuous
370
    -3
390
F
347
3E
  0
LAYER
  5
40
330
2
100
AcDbSymbolTableRecord
100
AcDbLayerTableRecord
  2
Layer 1
 70
     0
 62
     7
  6
Continuous
370
    -3
390
F
347
3E
  0
ENDTAB
  0
TABLE
  2
STYLE
  5
3
330
0
100
AcDbSymbolTable
 70
     1
  0
STYLE
  5
11
330
3
100
AcDbSymbolTableRecord
100
AcDbTextStyleTableRecord
  2
Standard
 70
     0
 40
0.0
 41
1.0
 50
0.0
 71
     0
 42
0.2
  3
txt
  4

  0
ENDTAB
  0
TABLE
  2
VIEW
  5
6
330
0
100
AcDbSymbolTable
 70
     0
  0
ENDTAB
  0
TABLE
  2
UCS
  5
7
330
0
100
AcDbSymbolTable
 70
     0
  0
ENDTAB
  0
TABLE
  2
APPID
  5
9
330
0
100
AcDbSymbolTable
 70
     1
  0
APPID
  5
12
330
9
100
AcDbSymbolTableRecord
100
AcDbRegAppTableRecord
  2
ACAD
 70
     0
  0
ENDTAB
  0
TABLE
  2
DIMSTYLE
  5
A
330
0
100
AcDbSymbolTable
 70
     1
100
AcDbDimStyleTable
  0
DIMSTYLE
105
27
330
A
100
AcDbSymbolTableRecord
100
AcDbDimStyleTableRecord
  2
Standard
 70
     0
178
     0
340
11
  0
ENDTAB
  0
TABLE
  2
BLOCK_RECORD
  5
1
330
0
100
AcDbSymbolTable
 70
    13
  0
BLOCK_RECORD
  5
1F
330
1
100
AcDbSymbolTableRecord
100
AcDbBlockTableRecord
  2
*Model_Space
340
22
 70
     0
280
     1
281
     0
  0
BLOCK_RECORD
  5
1B
330
1
100
AcDbSymbolTableRecord
100
AcDbBlockTableRecord
  2
*Paper_Space
340
1E
 70
     0
280
     1
281
     0
  0
BLOCK_RECORD
  5
23
330
1
100
AcDbSymbolTableRecord
100
AcDbBlockTableRecord
  2
*Paper_Space0
340
26
 70
     0
280
     1
281
     0
  0
BLOCK_RECORD
  5
41
330
1
100
AcDbSymbolTableRecord
100
AcDbBlockTableRecord
  2
block 2
340
0
102
{BLKREFS
331
42
102
}
 70
     0
280
     1
281
     0
  0
BLOCK_RECORD
  5
46
330
1
100
AcDbSymbolTableRecord
100
AcDbBlockTableRecord
  2
block 3
340
0
102
{BLKREFS
331
47
102
}
 70
     0
280
     1
281
     0
  0
BLOCK_RECORD
  5
4B
330
1
100
AcDbSymbolTableRecord
100
AcDbBlockTableRecord
  2
block 4
340
0
102
{BLKREFS
331
4C
102
}
 70
     0
280
     1
281
     0
  0
BLOCK_RECORD
  5
50
330
1
100
AcDbSymbolTableRecord
100
AcDbBlockTableRecord
  2
block 5
340
0
102
{BLKREFS
331
51
102
}
 70
     0
280
     1
281
     0
  0
BLOCK_RECORD
  5
55
330
1
100
AcDbSymbolTableRecord
100
AcDbBlockTableRecord
  2
block 6
340
0
102
{BLKREFS
331
56
102
}
 70
     0
280
     1
281
     0
  0
BLOCK_RECORD
  5
5A
330
1
100
AcDbSymbolTableRecord
100
AcDbBlockTableRecord
  2
block 7
340
0
102
{BLKREFS
331
5B
102
}
 70
     0
280
     1
281
     0
  0
BLOCK_RECORD
  5
5F
330
1
100
AcDbSymbolTableRecord
100
AcDbBlockTableRecord
  2
block 8
340
0
102
{BLKREFS
331
60
102
}
 70
     0
280
     1
281
     0
  0
BLOCK_RECORD
  5
64
330
1
100
AcDbSymbolTableRecord
100
AcDbBlockTableRecord
  2
block 9
340
0
102
{BLKREFS
331
65
102
}
 70
     0
280
     1
281
     0
  0
BLOCK_RECORD
  5
69
330
1
100
AcDbSymbolTableRecord
100
AcDbBlockTableRecord
  2
block 10
340
0
102
{BLKREFS
331
6A
102
}
 70
     0
280
     1
281
     0
  0
BLOCK_RECORD
  5
6D
330
1
100
AcDbSymbolTableRecord
100
AcDbBlockTableRecord
  2
block 11
340
0
102
{BLKREFS
331
6E
102
}
 70
     0
280
     1
281
     0
  0
BLOCK_RECORD
  5
72
330
1
100
AcDbSymbolTableRecord
100
AcDbBlockTableRecord
  2
block 12
340
0
102
{BLKREFS
331
73
102
}
 70
     0
280
     1
281
     0
  0
BLOCK_RECORD
  5
76
330
1
100
AcDbSymbolTableRecord
100
AcDbBlockTableRecord
  2
block 13
340
0
102
{BLKREFS
331
77
102
}
 70
     0
280
     1
281
     0
  0
ENDTAB
  0
ENDSEC
  0
SECTION
  2
BLOCKS
  0
BLOCK
  5
20
330
1F
100
AcDbEntity
  8
0
100
AcDbBlockBegin
  2
*Model_Space
 70
     0
 10
0.0
 20
0.0
 30
0.0
  3
*Model_Space
  1

  0
ENDBLK
  5
21
330
1F
100
AcDbEntity
  8
0
100
AcDbBlockEnd
  0
BLOCK
  5
1C
330
1B
100
AcDbEntity
 67
     1
  8
0
100
AcDbBlockBegin
  2
*Paper_Space
 70
     0
 10
0.0
 20
0.0
 30
0.0
  3
*Paper_Space
  1

  0
ENDBLK
  5
1D
330
1B
100
AcDbEntity
 67
     1
  8
0
100
AcDbBlockEnd
  0
BLOCK
  5
24
330
23
100
AcDbEntity
  8
0
100
AcDbBlockBegin
  2
*Paper_Space0
 70
     0
 10
0.0
 20
0.0
 30
0.0
  3
*Paper_Space0
  1

  0
ENDBLK
  5
25
330
23
100
AcDbEntity
  8
0
100
AcDbBlockEnd
  0
BLOCK
  5
43
330
41
100
AcDbEntity
  8
0
100
AcDbBlockBegin
  2
block 2
 70
     0
 10
0.0
 20
0.0
 30
0.0
  3
block 2
  1

  0
SPLINE
  5
45
330
41
100
AcDbEntity
  8
Layer 1
 62
     3
420
    65280
370
    35
100
AcDbSpline
210
0.0
220
0.0
230
1.0
 70
    11
 71
     3
 72
    17
 73
    13
 74
     0
 42
0.0000000001
 43
0.0000000001
 12
1.0
 22
0.0
 32
0.0
 13
1.0
 23
0.0
 33
0.0
 40
0.0
 40
0.0
 40
0.0
 40
0.0
 40
1.0
 40
1.0
 40
1.0
 40
2.0
 40
2.0
 40
2.0
 40
3.0
 40
3.0
 40
3.0
 40
4.0
 40
4.0
 40
4.0
 40
4.0
 10
2.699999809265137
 20
6.031375037299262
 30
0.0
 10
2.682735972934299
 20
6.031375037299262
 30
0.0
 10
2.668749809265137
 20
6.017319573296441
 30
0.0
 10
2.668749809265137
 20
6.0
 30
0.0
 10
2.668749809265137
 20
5.982666863335504
 30
0.0
 10
2.682735972934299
 20
5.968624962700738
 30
0.0
 10
2.699999809265137
 20
5.968624962700738
 30
0.0
 10
2.717263645595974
 20
5.968624962700738
 30
0.0
 10
2.731249809265137
 20
5.982666439480251
 30
0.0
 10
2.731249809265137
 20
6.0
 30
0.0
 10
2.731249809265137
 20
6.017333560519748
 30
0.0
 10
2.7172638575236
 20
6.031375037299262
 30
0.0
 10
2.699999809265137
 20
6.031375037299262
 30
0.0
  0
ENDBLK
  5
44
330
41
100
AcDbEntity
  8
0
100
AcDbBlockEnd
  0
BLOCK
  5
48
330
46
100
AcDbEntity
  8
0
100
AcDbBlockBegin
  2
block 3
 70
     0
 10
0.0
 20
0.0
 30
0.0
  3
block 3
  1

  0
SPLINE
  5
4A
330
46
100
AcDbEntity
  8
Layer 1
 62
     3
420
    65280
370
    35
100
AcDbSpline
210
0.0
220
0.0
230
1.0
 70
    11
 71
     3
 72
    17
 73
    13
 74
     0
 42
0.0000000001
 43
0.0000000001
 12
1.0
 22
0.0
 32
0.0
 13
1.0
 23
0.0
 33
0.0
 40
0.0
 40
0.0
 40
0.0
 40
0.0
 40
1.0
 40
1.0
 40
1.0
 40
2.0
 40
2.0
 40
2.0
 40
3.0
 40
3.0
 40
3.0
 40
4.0
 40
4.0
 40
4.0
 40
4.0
 10
3.299999978807237
 20
6.031375037299262
 30
0.0
 10
3.282749917772081
 20
6.031375037299262
 30
0.0
 10
3.268749978807237
 20
6.017319573296441
 30
0.0
 10
3.268749978807237
 20
6.0
 30
0.0
 10
3.268749978807237
 20
5.982666863335504
 30
0.0
 10
3.282749917772081
 20
5.968624962700738
 30
0.0
 10
3.299999978807237
 20
5.968624962700738
 30
0.0
 10
3.317263815138075
 20
5.968624962700738
 30
0.0
 10
3.331249978807237
 20
5.982666439480251
 30
0.0
 10
3.331249978807237
 20
6.0
 30
0.0
 10
3.331249978807237
 20
6.017333560519748
 30
0.0
 10
3.317263815138075
 20
6.031375037299262
 30
0.0
 10
3.299999978807237
 20
6.031375037299262
 30
0.0
  0
ENDBLK
  5
49
330
46
100
AcDbEntity
  8
0
100
AcDbBlockEnd
  0
BLOCK
  5
4D
330
4B
100
AcDbEntity
  8
0
100
AcDbBlockBegin
  2
block 4
 70
     0
 10
0.0
 20
0.0
 30
0.0
  3
block 4
  1

  0
SPLINE
  5
4F
330
4B
100
AcDbEntity
  8
Layer 1
 62
     3
420
    65280
370
    35
100
AcDbSpline
210
0.0
220
0.0
230
1.0
 70
    11
 71
     3
 72
    59
 73
    55
 74
     0
 42
0.0000000001
 43
0.0000000001
 12
1.0
 22
0.0
 32
0.0
 13
1.0
 23
0.0
 33
0.0
 40
0.0
 40
0.0
 40
0.0
 40
0.0
 40
1.0
 40
1.0
 40
1.0
 40
2.0
 40
2.0
 40
2.0
 40
3.0
 40
3.0
 40
3.0
 40
4.0
 40
4.0
 40
4.0
 40
5.0
 40
5.0
 40
5.0
 40
6.0
 40
6.0
 40
6.0
 40
7.0
 40
7.0
 40
7.0
 40
8.0
 40
8.0
 40
8.0
 40
9.0
 40
9.0
 40
9.0
 40
10.0
 40
10.0
 40
10.0
 40
11.0
 40
11.0
 40
11.0
 40
12.0
 40
12.0
 40
12.0
 40
13.0
 40
13.0
 40
13.0
 40
14.0
 40
14.0
 40
14.0
 40
15.0
 40
15.0
 40
15.0
 40
16.0
 40
16.0
 40
16.0
 40
17.0
 40
17.0
 40
17.0
 40
18.0
 40
18.0
 40
18.0
 40
18.0
 10
3.197944323221842
 20
6.0625
 30
0.0
 10
3.197944323221842
 20
6.0625
 30
0.0
 10
3.419263733757866
 20
6.0625
 30
0.0
 10
3.419263733757866
 20
6.0625
 30
0.0
 10
3.45377763112386
 20
6.0625
 30
0.0
 10
3.481763733757866
 20
6.090486314561631
 30
0.0
 10
3.481763733757866
 20
6.125
 30
0.0
 10
3.481763733757866
 20
6.131055619981553
 30
0.0
 10
3.480902671813965
 20
6.137069278293185
 30
0.0
 10
3.479152573479546
 20
6.14286126030816
 30
0.0
 10
3.40024979909261
 20
6.407500372992621
 30
0.0
 10
3.121777534484863
 20
6.558069441053602
 30
0.0
 10
2.857152620951334
 20
6.479166666666666
 30
0.0
 10
2.695499738057454
 20
6.430972205268012
 30
0.0
 10
2.569041464063856
 20
6.304513719346788
 30
0.0
 10
2.520860989888509
 20
6.14286126030816
 30
0.0
 10
2.510999785529243
 20
6.1097780863444
 30
0.0
 10
2.529819382561577
 20
6.074972364637587
 30
0.0
 10
2.562888781229655
 20
6.065111372205946
 30
0.0
 10
2.568680551317003
 20
6.063375261094834
 30
0.0
 10
2.574708196851942
 20
6.062500423855251
 30
0.0
 10
2.580749829610189
 20
6.062500423855251
 30
0.0
 10
2.580749829610189
 20
6.062500423855251
 30
0.0
 10
2.802069240146213
 20
6.062500423855251
 30
0.0
 10
2.802069240146213
 20
6.062500423855251
 30
0.0
 10
2.789221975538466
 20
6.021820068359375
 30
0.0
 10
2.789221975538466
 20
5.978180779351129
 30
0.0
 10
2.802069240146213
 20
5.937500423855251
 30
0.0
 10
2.802069240146213
 20
5.937500423855251
 30
0.0
 10
2.580749829610189
 20
5.937500423855251
 30
0.0
 10
2.580749829610189
 20
5.937500423855251
 30
0.0
 10
2.546235932244195
 20
5.937500423855251
 30
0.0
 10
2.518249829610189
 20
5.909514109293619
 30
0.0
 10
2.518249829610189
 20
5.875000423855251
 30
0.0
 10
2.518249829610189
 20
5.868944803873697
 30
0.0
 10
2.519124878777398
 20
5.862944708930121
 30
0.0
 10
2.520860989888509
 20
5.857139163547092
 30
0.0
 10
2.599749777052137
 20
5.592514038085938
 30
0.0
 10
2.878236028883192
 20
5.441944546169704
 30
0.0
 10
3.142874929640028
 20
5.520847320556641
 30
0.0
 10
3.304527600606282
 20
5.569041781955295
 30
0.0
 10
3.430972099304199
 20
5.695486280653212
 30
0.0
 10
3.479166560702854
 20
5.857139163547092
 30
0.0
 10
3.489013777838813
 20
5.89022233751085
 30
0.0
 10
3.470208168029785
 20
5.925056033664279
 30
0.0
 10
3.437138769361708
 20
5.93491702609592
 30
0.0
 10
3.43134699927436
 20
5.936639149983724
 30
0.0
 10
3.42531935373942
 20
5.937527974446614
 30
0.0
 10
3.419277720981174
 20
5.937527974446614
 30
0.0
 10
3.419277720981174
 20
5.937527974446614
 30
0.0
 10
3.197958310445149
 20
5.937527974446614
 30
0.0
 10
3.197958310445149
 20
5.937527974446614
 30
0.0
 10
3.21079158782959
 20
5.978180355495876
 30
0.0
 10
3.21079158782959
 20
6.021819644504123
 30
0.0
 10
3.197944323221842
 20
6.0625
 30
0.0
  0
ENDBLK
  5
4E
330
4B
100
AcDbEntity
  8
0
100
AcDbBlockEnd
  0
BLOCK
  5
52
330
50
100
AcDbEntity
  8
0
100
AcDbBlockBegin
  2
block 5
 70
     0
 10
0.0
 20
0.0
 30
0.0
  3
block 5
  1

  0
SPLINE
  5
54
330
50
100
AcDbEntity
  8
Layer 1
 62
     3
420
    65280
370
    35
100
AcDbSpline
210
0.0
220
0.0
230
1.0
 70
    11
 71
     3
 72
    20
 73
    16
 74
     0
 42
0.0000000001
 43
0.0000000001
 12
1.0
 22
0.0
 32
0.0
 13
1.0
 23
0.0
 33
0.0
 40
0.0
 40
0.0
 40
0.0
 40
0.0
 40
1.0
 40
1.0
 40
1.0
 40
2.0
 40
2.0
 40
2.0
 40
3.0
 40
3.0
 40
3.0
 40
4.0
 40
4.0
 40
4.0
 40
5.0
 40
5.0
 40
5.0
 40
5.0
 10
3.678847312927246
 20
6.0
 30
0.0
 10
3.678847312927246
 20
6.374930487738715
 30
0.0
 10
3.374916818406847
 20
6.678860982259114
 30
0.0
 10
3.000000105963813
 20
6.678860982259114
 30
0.0
 10
2.625083393520779
 20
6.678860982259114
 30
0.0
 10
2.321152687072754
 20
6.374930487738715
 30
0.0
 10
2.321152687072754
 20
6.0
 30
0.0
 10
2.321152687072754
 20
5.625083499484592
 30
0.0
 10
2.625083181593153
 20
5.321139017740885
 30
0.0
 10
2.999999894036187
 20
5.321139017740885
 30
0.0
 10
3.374916606479221
 20
5.321139017740885
 30
0.0
 10
3.678847312927246
 20
5.625083499484592
 30
0.0
 10
3.678847312927246
 20
6.0
 30
0.0
 10
3.678847312927246
 20
6.0
 30
0.0
 10
3.678847312927246
 20
6.0
 30
0.0
 10
3.678847312927246
 20
6.0
 30
0.0
  0
ENDBLK
  5
53
330
50
100
AcDbEntity
  8
0
100
AcDbBlockEnd
  0
BLOCK
  5
57
330
55
100
AcDbEntity
  8
0
100
AcDbBlockBegin
  2
block 6
 70
     0
 10
0.0
 20
0.0
 30
0.0
  3
block 6
  1

  0
SPLINE
  5
59
330
55
100
AcDbEntity
  8
Layer 1
 62
     3
420
    65280
370
    35
100
AcDbSpline
210
0.0
220
0.0
230
1.0
 70
    11
 71
     3
 72
    17
 73
    13
 74
     0
 42
0.0000000001
 43
0.0000000001
 12
1.0
 22
0.0
 32
0.0
 13
1.0
 23
0.0
 33
0.0
 40
0.0
 40
0.0
 40
0.0
 40
0.0
 40
1.0
 40
1.0
 40
1.0
 40
2.0
 40
2.0
 40
2.0
 40
3.0
 40
3.0
 40
3.0
 40
4.0
 40
4.0
 40
4.0
 40
4.0
 10
2.699999809265137
 20
6.031375037299262
 30
0.0
 10
2.682735972934299
 20
6.031375037299262
 30
0.0
 10
2.668749809265137
 20
6.017319573296441
 30
0.0
 10
2.668749809265137
 20
6.0
 30
0.0
 10
2.668749809265137
 20
5.982666863335504
 30
0.0
 10
2.682735972934299
 20
5.968624962700738
 30
0.0
 10
2.699999809265137
 20
5.968624962700738
 30
0.0
 10
2.717263645595974
 20
5.968624962700738
 30
0.0
 10
2.731249809265137
 20
5.982666439480251
 30
0.0
 10
2.731249809265137
 20
6.0
 30
0.0
 10
2.731249809265137
 20
6.017333560519748
 30
0.0
 10
2.7172638575236
 20
6.031375037299262
 30
0.0
 10
2.699999809265137
 20
6.031375037299262
 30
0.0
  0
ENDBLK
  5
58
330
55
100
AcDbEntity
  8
0
100
AcDbBlockEnd
  0
BLOCK
  5
5C
330
5A
100
AcDbEntity
  8
0
100
AcDbBlockBegin
  2
block 7
 70
     0
 10
0.0
 20
0.0
 30
0.0
  3
block 7
  1

  0
SPLINE
  5
5E
330
5A
100
AcDbEntity
  8
Layer 1
 62
     3
420
    65280
370
    35
100
AcDbSpline
210
0.0
220
0.0
230
1.0
 70
    11
 71
     3
 72
    17
 73
    13
 74
     0
 42
0.0000000001
 43
0.0000000001
 12
1.0
 22
0.0
 32
0.0
 13
1.0
 23
0.0
 33
0.0
 40
0.0
 40
0.0
 40
0.0
 40
0.0
 40
1.0
 40
1.0
 40
1.0
 40
2.0
 40
2.0
 40
2.0
 40
3.0
 40
3.0
 40
3.0
 40
4.0
 40
4.0
 40
4.0
 40
4.0
 10
3.299999978807237
 20
6.031375037299262
 30
0.0
 10
3.282749917772081
 20
6.031375037299262
 30
0.0
 10
3.268749978807237
 20
6.017319573296441
 30
0.0
 10
3.268749978807237
 20
6.0
 30
0.0
 10
3.268749978807237
 20
5.982666863335504
 30
0.0
 10
3.282749917772081
 20
5.968624962700738
 30
0.0
 10
3.299999978807237
 20
5.968624962700738
 30
0.0
 10
3.317263815138075
 20
5.968624962700738
 30
0.0
 10
3.331249978807237
 20
5.982666439480251
 30
0.0
 10
3.331249978807237
 20
6.0
 30
0.0
 10
3.331249978807237
 20
6.017333560519748
 30
0.0
 10
3.317263815138075
 20
6.031375037299262
 30
0.0
 10
3.299999978807237
 20
6.031375037299262
 30
0.0
  0
ENDBLK
  5
5D
330
5A
100
AcDbEntity
  8
0
100
AcDbBlockEnd
  0
BLOCK
  5
61
330
5F
100
AcDbEntity
  8
0
100
AcDbBlockBegin
  2
block 8
 70
     0
 10
0.0
 20
0.0
 30
0.0
  3
block 8
  1

  0
SPLINE
  5
63
330
5F
100
AcDbEntity
  8
Layer 1
 62
     3
420
    65280
370
    35
100
AcDbSpline
210
0.0
220
0.0
230
1.0
 70
    11
 71
     3
 72
    59
 73
    55
 74
     0
 42
0.0000000001
 43
0.0000000001
 12
1.0
 22
0.0
 32
0.0
 13
1.0
 23
0.0
 33
0.0
 40
0.0
 40
0.0
 40
0.0
 40
0.0
 40
1.0
 40
1.0
 40
1.0
 40
2.0
 40
2.0
 40
2.0
 40
3.0
 40
3.0
 40
3.0
 40
4.0
 40
4.0
 40
4.0
 40
5.0
 40
5.0
 40
5.0
 40
6.0
 40
6.0
 40
6.0
 40
7.0
 40
7.0
 40
7.0
 40
8.0
 40
8.0
 40
8.0
 40
9.0
 40
9.0
 40
9.0
 40
10.0
 40
10.0
 40
10.0
 40
11.0
 40
11.0
 40
11.0
 40
12.0
 40
12.0
 40
12.0
 40
13.0
 40
13.0
 40
13.0
 40
14.0
 40
14.0
 40
14.0
 40
15.0
 40
15.0
 40
15.0
 40
16.0
 40
16.0
 40
16.0
 40
17.0
 40
17.0
 40
17.0
 40
18.0
 40
18.0
 40
18.0
 40
18.0
 10
3.419263733757866
 20
6.0625
 30
0.0
 10
3.419263733757866
 20
6.0625
 30
0.0
 10
3.197944323221842
 20
6.0625
 30
0.0
 10
3.197944323221842
 20
6.0625
 30
0.0
 10
3.21079158782959
 20
6.021819644504123
 30
0.0
 10
3.21079158782959
 20
5.978180355495876
 30
0.0
 10
3.197944323221842
 20
5.9375
 30
0.0
 10
3.197944323221842
 20
5.9375
 30
0.0
 10
3.419263733757866
 20
5.9375
 30
0.0
 10
3.419263733757866
 20
5.9375
 30
0.0
 10
3.42531935373942
 20
5.9375
 30
0.0
 10
3.431333223978678
 20
5.936638726128472
 30
0.0
 10
3.437124782138401
 20
5.934889051649305
 30
0.0
 10
3.470208168029785
 20
5.925014071994357
 30
0.0
 10
3.489013565911187
 20
5.890194786919488
 30
0.0
 10
3.479152573479546
 20
5.857111189100477
 30
0.0
 10
3.430958112080892
 20
5.695458306206597
 30
0.0
 10
3.304513613382975
 20
5.56901380750868
 30
0.0
 10
3.142860942416721
 20
5.520819346110025
 30
0.0
 10
2.878236028883192
 20
5.44191657172309
 30
0.0
 10
2.599749777052137
 20
5.592486063639322
 30
0.0
 10
2.520847002665202
 20
5.857111189100477
 30
0.0
 10
2.519124878777398
 20
5.862916734483506
 30
0.0
 10
2.518235842386881
 20
5.868944380018446
 30
0.0
 10
2.518235842386881
 20
5.874972449408637
 30
0.0
 10
2.518235842386881
 20
5.909486134847005
 30
0.0
 10
2.546208169725206
 20
5.937472449408637
 30
0.0
 10
2.580735842386881
 20
5.937472449408637
 30
0.0
 10
2.580735842386881
 20
5.937472449408637
 30
0.0
 10
2.802055252922905
 20
5.937472449408637
 30
0.0
 10
2.802055252922905
 20
5.937472449408637
 30
0.0
 10
2.789207988315158
 20
5.978152804904513
 30
0.0
 10
2.789207988315158
 20
6.02179209391276
 30
0.0
 10
2.802055252922905
 20
6.062472449408637
 30
0.0
 10
2.802055252922905
 20
6.062472449408637
 30
0.0
 10
2.580735842386881
 20
6.062472449408637
 30
0.0
 10
2.580735842386881
 20
6.062472449408637
 30
0.0
 10
2.574694209628635
 20
6.062472449408637
 30
0.0
 10
2.568680339389377
 20
6.06334728664822
 30
0.0
 10
2.562874794006348
 20
6.065083397759332
 30
0.0
 10
2.52980539533827
 20
6.074944390190972
 30
0.0
 10
2.510985798305935
 20
6.109750111897786
 30
0.0
 10
2.520847002665202
 20
6.142833285861545
 30
0.0
 10
2.569041464063856
 20
6.304486168755425
 30
0.0
 10
2.695485962761773
 20
6.430944230821397
 30
0.0
 10
2.857138633728027
 20
6.479138692220052
 30
0.0
 10
3.121763547261556
 20
6.558041466606987
 30
0.0
 10
3.40024979909261
 20
6.407471974690755
 30
0.0
 10
3.479138586256239
 20
6.142833285861545
 30
0.0
 10
3.48087469736735
 20
6.137041727701822
 30
0.0
 10
3.481749746534559
 20
6.131027645534939
 30
0.0
 10
3.481749746534559
 20
6.124972025553385
 30
0.0
 10
3.481763733757866
 20
6.090486314561631
 30
0.0
 10
3.45377763112386
 20
6.0625
 30
0.0
 10
3.419263733757866
 20
6.0625
 30
0.0
  0
ENDBLK
  5
62
330
5F
100
AcDbEntity
  8
0
100
AcDbBlockEnd
  0
BLOCK
  5
66
330
64
100
AcDbEntity
  8
0
100
AcDbBlockBegin
  2
block 9
 70
     0
 10
0.0
 20
0.0
 30
0.0
  3
block 9
  1

  0
SPLINE
  5
68
330
64
100
AcDbEntity
  8
Layer 1
 62
     3
420
    65280
370
    35
100
AcDbSpline
210
0.0
220
0.0
230
1.0
 70
    11
 71
     3
 72
    20
 73
    16
 74
     0
 42
0.0000000001
 43
0.0000000001
 12
1.0
 22
0.0
 32
0.0
 13
1.0
 23
0.0
 33
0.0
 40
0.0
 40
0.0
 40
0.0
 40
0.0
 40
1.0
 40
1.0
 40
1.0
 40
2.0
 40
2.0
 40
2.0
 40
3.0
 40
3.0
 40
3.0
 40
4.0
 40
4.0
 40
4.0
 40
5.0
 40
5.0
 40
5.0
 40
5.0
 10
3.678847312927246
 20
6.0
 30
0.0
 10
3.678847312927246
 20
6.374930487738715
 30
0.0
 10
3.374916818406847
 20
6.678860982259114
 30
0.0
 10
3.000000105963813
 20
6.678860982259114
 30
0.0
 10
2.625083393520779
 20
6.678860982259114
 30
0.0
 10
2.321152687072754
 20
6.374930487738715
 30
0.0
 10
2.321152687072754
 20
6.0
 30
0.0
 10
2.321152687072754
 20
5.625083499484592
 30
0.0
 10
2.625083181593153
 20
5.321139017740885
 30
0.0
 10
2.999999894036187
 20
5.321139017740885
 30
0.0
 10
3.374916606479221
 20
5.321139017740885
 30
0.0
 10
3.678847312927246
 20
5.625083499484592
 30
0.0
 10
3.678847312927246
 20
6.0
 30
0.0
 10
3.678847312927246
 20
6.0
 30
0.0
 10
3.678847312927246
 20
6.0
 30
0.0
 10
3.678847312927246
 20
6.0
 30
0.0
  0
ENDBLK
  5
67
330
64
100
AcDbEntity
  8
0
100
AcDbBlockEnd
  0
BLOCK
  5
6B
330
69
100
AcDbEntity
  8
0
100
AcDbBlockBegin
  2
block 10
 70
     0
 10
0.0
 20
0.0
 30
0.0
  3
block 10
  1

  0
INSERT
  5
6E
330
69
100
AcDbEntity
  8
Layer 1
100
AcDbBlockReference
  2
block 11
 10
0.0
 20
0.0
 30
0.0
  0
ENDBLK
  5
6C
330
69
100
AcDbEntity
  8
0
100
AcDbBlockEnd
  0
BLOCK
  5
6F
330
6D
100
AcDbEntity
  8
0
100
AcDbBlockBegin
  2
block 11
 70
     0
 10
0.0
 20
0.0
 30
0.0
  3
block 11
  1

  0
SPLINE
  5
71
330
6D
100
AcDbEntity
  8
Layer 1
 62
     1
420
 16711680
370
    18
100
AcDbSpline
210
0.0
220
0.0
230
1.0
 70
     8
 71
     3
 72
    53
 73
    49
 74
     0
 42
0.0000000001
 43
0.0000000001
 12
1.0
 22
0.0
 32
0.0
 13
1.0
 23
0.0
 33
0.0
 40
0.0
 40
0.0
 40
0.0
 40
0.0
 40
1.0
 40
1.0
 40
1.0
 40
2.0
 40
2.0
 40
2.0
 40
3.0
 40
3.0
 40
3.0
 40
4.0
 40
4.0
 40
4.0
 40
5.0
 40
5.0
 40
5.0
 40
6.0
 40
6.0
 40
6.0
 40
7.0
 40
7.0
 40
7.0
 40
8.0
 40
8.0
 40
8.0
 40
9.0
 40
9.0
 40
9.0
 40
10.0
 40
10.0
 40
10.0
 40
11.0
 40
11.0
 40
11.0
 40
12.0
 40
12.0
 40
12.0
 40
13.0
 40
13.0
 40
13.0
 40
14.0
 40
14.0
 40
14.0
 40
15.0
 40
15.0
 40
15.0
 40
16.0
 40
16.0
 40
16.0
 40
16.0
 10
3.539138687981499
 20
6.028597089979383
 30
0.0
 10
3.535791503058539
 20
6.037499745686849
 30
0.0
 10
3.537249777052137
 20
6.043513827853732
 30
0.0
 10
3.542166497972276
 20
6.047652774386935
 30
0.0
 10
3.54873604244656
 20
6.053208245171441
 30
0.0
 10
3.558833122253418
 20
6.051305558946397
 30
0.0
 10
3.563791380988227
 20
6.044347127278646
 30
0.0
 10
3.570277637905544
 20
6.035235934787326
 30
0.0
 10
3.565082867940267
 20
6.023763868543837
 30
0.0
 10
3.558305422465006
 20
6.020305633544922
 30
0.0
 10
3.553638776143392
 20
6.0179443359375
 30
0.0
 10
3.548347155253092
 20
6.017514122856988
 30
0.0
 10
3.543138821919759
 20
6.01786126030816
 30
0.0
 10
3.536097102695041
 20
6.018333435058594
 30
0.0
 10
3.530180507236057
 20
6.021778106689453
 30
0.0
 10
3.524416499667697
 20
6.025930616590712
 30
0.0
 10
3.519208166334364
 20
6.029680464002821
 30
0.0
 10
3.513819270663791
 20
6.033055623372396
 30
0.0
 10
3.507402526007758
 20
6.034222073025173
 30
0.0
 10
3.498999807569716
 20
6.03574964735243
 30
0.0
 10
3.491069263882107
 20
6.034486134847005
 30
0.0
 10
3.483958032396104
 20
6.029694451226129
 30
0.0
 10
3.472916391160753
 20
6.022263844807942
 30
0.0
 10
3.467041333516439
 20
6.011305491129557
 30
0.0
 10
3.468249744839138
 20
5.996958414713541
 30
0.0
 10
3.469222068786621
 20
5.985277811686197
 30
0.0
 10
3.474902576870388
 20
5.976416693793403
 30
0.0
 10
3.48418034447564
 20
5.970527648925781
 30
0.0
 10
3.495124710930718
 20
5.963569217258029
 30
0.0
 10
3.506138589647081
 20
5.965027703179254
 30
0.0
 10
3.516971906026204
 20
5.970833248562283
 30
0.0
 10
3.520152515835232
 20
5.972555372450087
 30
0.0
 10
3.523013538784451
 20
5.974916670057508
 30
0.0
 10
3.526069111294216
 20
5.976888868543837
 30
0.0
 10
3.533638530307346
 20
5.981777615017361
 30
0.0
 10
3.541735861036512
 20
5.984347025553385
 30
0.0
 10
3.550610754224989
 20
5.982972039116754
 30
0.0
 10
3.559069209628635
 20
5.981652577718099
 30
0.0
 10
3.564222017923991
 20
5.975819057888454
 30
0.0
 10
3.565971692403157
 20
5.968736012776692
 30
0.0
 10
3.567943890889485
 20
5.960736168755425
 30
0.0
 10
3.563777393764919
 20
5.952666388617621
 30
0.0
 10
3.556735462612576
 20
5.950222015380859
 30
0.0
 10
3.54879093170166
 20
5.947486029730903
 30
0.0
 10
3.542554961310493
 20
5.950027465820312
 30
0.0
 10
3.539152039421929
 20
5.956874847412109
 30
0.0
 10
3.536888228522407
 20
5.961471981472439
 30
0.0
 10
3.536249266730414
 20
5.966305202907986
 30
0.0
 10
3.538860427008735
 20
5.971083323160807
 30
0.0
  0
ENDBLK
  5
70
330
6D
100
AcDbEntity
  8
0
100
AcDbBlockEnd
  0
BLOCK
  5
74
330
72
100
AcDbEntity
  8
0
100
AcDbBlockBegin
  2
block 12
 70
     0
 10
0.0
 20
0.0
 30
0.0
  3
block 12
  1

  0
INSERT
  5
77
330
72
100
AcDbEntity
  8
Layer 1
100
AcDbBlockReference
  2
block 13
 10
0.0
 20
0.0
 30
0.0
  0
ENDBLK
  5
75
330
72
100
AcDbEntity
  8
0
100
AcDbBlockEnd
  0
BLOCK
  5
78
330
76
100
AcDbEntity
  8
0
100
AcDbBlockBegin
  2
block 13
 70
     0
 10
0.0
 20
0.0
 30
0.0
  3
block 13
  1

  0
SPLINE
  5
7A
330
76
100
AcDbEntity
  8
Layer 1
 62
     1
420
 16711680
370
    18
100
AcDbSpline
210
0.0
220
0.0
230
1.0
 70
     8
 71
     3
 72
    53
 73
    49
 74
     0
 42
0.0000000001
 43
0.0000000001
 12
1.0
 22
0.0
 32
0.0
 13
1.0
 23
0.0
 33
0.0
 40
0.0
 40
0.0
 40
0.0
 40
0.0
 40
1.0
 40
1.0
 40
1.0
 40
2.0
 40
2.0
 40
2.0
 40
3.0
 40
3.0
 40
3.0
 40
4.0
 40
4.0
 40
4.0
 40
5.0
 40
5.0
 40
5.0
 40
6.0
 40
6.0
 40
6.0
 40
7.0
 40
7.0
 40
7.0
 40
8.0
 40
8.0
 40
8.0
 40
9.0
 40
9.0
 40
9.0
 40
10.0
 40
10.0
 40
10.0
 40
11.0
 40
11.0
 40
11.0
 40
12.0
 40
12.0
 40
12.0
 40
13.0
 40
13.0
 40
13.0
 40
14.0
 40
14.0
 40
14.0
 40
15.0
 40
15.0
 40
15.0
 40
16.0
 40
16.0
 40
16.0
 40
16.0
 10
2.504305415683322
 20
6.028597089979383
 30
0.0
 10
2.500958230760362
 20
6.037499745686849
 30
0.0
 10
2.50241650475396
 20
6.043513827853732
 30
0.0
 10
2.507333225674099
 20
6.047666337754991
 30
0.0
 10
2.513902770148383
 20
6.053221808539496
 30
0.0
 10
2.523999849955241
 20
6.051305135091146
 30
0.0
 10
2.528958320617676
 20
6.044360690646701
 30
0.0
 10
2.535444365607368
 20
6.035249498155381
 30
0.0
 10
2.530250019497342
 20
6.023777431911892
 30
0.0
 10
2.523472150166829
 20
6.02030520968967
 30
0.0
 10
2.518805503845215
 20
6.017943912082248
 30
0.0
 10
2.513513882954915
 20
6.017527262369791
 30
0.0
 10
2.508305549621582
 20
6.017860836452908
 30
0.0
 10
2.501263830396864
 20
6.018319023980035
 30
0.0
 10
2.49534723493788
 20
6.021763695610894
 30
0.0
 10
2.48958322736952
 20
6.025916205512153
 30
0.0
 10
2.484374894036187
 20
6.029666052924262
 30
0.0
 10
2.478972011142307
 20
6.033055199517144
 30
0.0
 10
2.472555478413899
 20
6.034221649169922
 30
0.0
 10
2.464152759975857
 20
6.035735660129123
 30
0.0
 10
2.456222216288249
 20
6.034471723768446
 30
0.0
 10
2.449110984802246
 20
6.029694027370876
 30
0.0
 10
2.438069343566895
 20
6.022263420952691
 30
0.0
 10
2.43219428592258
 20
6.011305067274305
 30
0.0
 10
2.43340269724528
 20
5.99695799085829
 30
0.0
 10
2.434375021192762
 20
5.985277387830946
 30
0.0
 10
2.44005552927653
 20
5.97641626993815
 30
0.0
 10
2.449333296881782
 20
5.970527225070529
 30
0.0
 10
2.46027766333686
 20
5.963568793402778
 30
0.0
 10
2.471291542053223
 20
5.965013292100694
 30
0.0
 10
2.482125070359972
 20
5.970832824707031
 30
0.0
 10
2.485305680168999
 20
5.972554948594834
 30
0.0
 10
2.488166703118218
 20
5.974916246202256
 30
0.0
 10
2.491222275627984
 20
5.976888444688584
 30
0.0
 10
2.498791694641113
 20
5.981763627794053
 30
0.0
 10
2.50688902537028
 20
5.984346601698133
 30
0.0
 10
2.515763918558756
 20
5.982971615261501
 30
0.0
 10
2.524222162034776
 20
5.981652153862847
 30
0.0
 10
2.529374970330132
 20
5.975818634033203
 30
0.0
 10
2.531125068664551
 20
5.968735588921441
 30
0.0
 10
2.533097267150879
 20
5.960735744900173
 30
0.0
 10
2.528930558098687
 20
5.952665964762369
 30
0.0
 10
2.521889050801595
 20
5.950221591525607
 30
0.0
 10
2.513944519890679
 20
5.94748560587565
 30
0.0
 10
2.507708549499512
 20
5.95002704196506
 30
0.0
 10
2.504305627610948
 20
5.956874423556857
 30
0.0
 10
2.502041816711426
 20
5.961471557617188
 30
0.0
 10
2.501402854919434
 20
5.966304779052734
 30
0.0
 10
2.504014015197754
 20
5.971082899305555
 30
0.0
  0
ENDBLK
  5
79
330
76
100
AcDbEntity
  8
0
100
AcDbBlockEnd
  0
ENDSEC
  0
SECTION
  2
ENTITIES
  0
INSERT
  5
42
330
1F
100
AcDbEntity
  8
Layer 1
100
AcDbBlockReference
  2
block 2
 10
0.0
 20
0.0
 30
0.0
  0
INSERT
  5
47
330
1F
100
AcDbEntity
  8
Layer 1
100
AcDbBlockReference
  2
block 3
 10
0.0
 20
0.0
 30
0.0
  0
INSERT
  5
4C
330
1F
100
AcDbEntity
  8
Layer 1
100
AcDbBlockReference
  2
block 4
 10
0.0
 20
0.0
 30
0.0
  0
INSERT
  5
51
330
1F
100
AcDbEntity
  8
Layer 1
100
AcDbBlockReference
  2
block 5
 10
0.0
 20
0.0
 30
0.0
  0
INSERT
  5
56
330
1F
100
AcDbEntity
  8
Layer 1
100
AcDbBlockReference
  2
block 6
 10
0.0
 20
0.0
 30
0.0
  0
INSERT
  5
5B
330
1F
100
AcDbEntity
  8
Layer 1
100
AcDbBlockReference
  2
block 7
 10
0.0
 20
0.0
 30
0.0
  0
INSERT
  5
60
330
1F
100
AcDbEntity
  8
Layer 1
100
AcDbBlockReference
  2
block 8
 10
0.0
 20
0.0
 30
0.0
  0
INSERT
  5
65
330
1F
100
AcDbEntity
  8
Layer 1
100
AcDbBlockReference
  2
block 9
 10
0.0
 20
0.0
 30
0.0
  0
INSERT
  5
6A
330
1F
100
AcDbEntity
  8
Layer 1
100
AcDbBlockReference
  2
block 10
 10
0.0
 20
0.0
 30
0.0
  0
INSERT
  5
73
330
1F
100
AcDbEntity
  8
Layer 1
100
AcDbBlockReference
  2
block 12
 10
0.0
 20
0.0
 30
0.0
  0
ENDSEC
  0
SECTION
  2
OBJECTS
  0
DICTIONARY
  5
C
330
0
100
AcDbDictionary
281
     1
  3
ACAD_GROUP
350
D
  3
ACAD_LAYOUT
350
1A
  3
ACAD_MATERIAL
350
3B
  3
ACAD_MLEADERSTYLE
350
7C
  3
ACAD_MLINESTYLE
350
17
  3
ACAD_PLOTSETTINGS
350
19
  3
ACAD_PLOTSTYLENAME
350
E
  3
ACAD_TABLESTYLE
350
7B
  3
ACAD_VISUALSTYLE
350
2A
  0
SUN
  5
3F
330
29
100
AcDbSun
 90
        1
290
     0
 63
     7
421
 16777215
 40
1.0
291
     1
 91
  2455826
 92
 54000000
292
     0
 70
     2
 71
   256
280
     1
  0
DICTIONARY
  5
D
102
{ACAD_REACTORS
330
C
102
}
330
C
100
AcDbDictionary
281
     1
  0
DICTIONARY
  5
1A
102
{ACAD_REACTORS
330
C
102
}
330
C
100
AcDbDictionary
281
     1
  3
Layout1
350
1E
  3
Layout2
350
26
  3
Model
350
22
  0
DICTIONARY
  5
3B
102
{ACAD_REACTORS
330
C
102
}
330
C
100
AcDbDictionary
281
     1
  3
ByBlock
350
3D
  3
ByLayer
350
3C
  3
Global
350
3E
  0
DICTIONARY
  5
7C
102
{ACAD_REACTORS
330
C
102
}
330
C
100
AcDbDictionary
281
     1
  0
DICTIONARY
  5
17
102
{ACAD_REACTORS
330
C
102
}
330
C
100
AcDbDictionary
281
     1
  3
Standard
350
18
  0
DICTIONARY
  5
19
102
{ACAD_REACTORS
330
C
102
}
330
C
100
AcDbDictionary
281
     1
  0
ACDBDICTIONARYWDFLT
  5
E
102
{ACAD_REACTORS
330
C
102
}
330
C
100
AcDbDictionary
281
     1
  3
Normal
350
F
100
AcDbDictionaryWithDefault
340
F
  0
DICTIONARY
  5
7B
102
{ACAD_REACTORS
330
C
102
}
330
C
100
AcDbDictionary
281
     1
  0
DICTIONARY
  5
2A
102
{ACAD_REACTORS
330
C
102
}
330
C
100
AcDbDictionary
281
     1
  3
2dWireframe
350
2F
  3
3D Hidden
350
31
  3
3dWireframe
350
30
  3
Basic
350
32
  3
Brighten
350
36
  3
ColorChange
350
3A
  3
Conceptual
350
34
  3
Dim
350
35
  3
Facepattern
350
39
  3
Flat
350
2B
  3
FlatWithEdges
350
2C
  3
Gouraud
350
2D
  3
GouraudWithEdges
350
2E
  3
Linepattern
350
38
  3
Realistic
350
33
  3
Thicken
350
37
  0
LAYOUT
  5
1E
102
{ACAD_REACTORS
330
1A
102
}
330
1A
100
AcDbPlotSettings
  1

  2
none_device
  4

  6

 40
0.0
 41
0.0
 42
0.0
 43
0.0
 44
0.0
 45
0.0
 46
0.0
 47
0.0
 48
0.0
 49
0.0
140
0.0
141
0.0
142
1.0
143
1.0
 70
   688
 72
     0
 73
     0
 74
     5
  7

 75
    16
 76
     0
 77
     2
 78
   300
147
1.0
148
0.0
149
0.0
100
AcDbLayout
  1
Layout1
 70
     1
 71
     1
 10
0.0
 20
0.0
 11
12.0
 21
9.0
 12
0.0
 22
0.0
 32
0.0
 14
1.000000000000000E+20
 24
1.000000000000000E+20
 34
1.000000000000000E+20
 15
-1.000000000000000E+20
 25
-1.000000000000000E+20
 35
-1.000000000000000E+20
146
0.0
 13
0.0
 23
0.0
 33
0.0
 16
1.0
 26
0.0
 36
0.0
 17
0.0
 27
1.0
 37
0.0
 76
     0
330
1B
  0
LAYOUT
  5
26
102
{ACAD_REACTORS
330
1A
102
}
330
1A
100
AcDbPlotSettings
  1

  2
none_device
  4

  6

 40
0.0
 41
0.0
 42
0.0
 43
0.0
 44
0.0
 45
0.0
 46
0.0
 47
0.0
 48
0.0
 49
0.0
140
0.0
141
0.0
142
1.0
143
1.0
 70
   688
 72
     0
 73
     0
 74
     5
  7

 75
    16
 76
     0
 77
     2
 78
   300
147
1.0
148
0.0
149
0.0
100
AcDbLayout
  1
Layout2
 70
     1
 71
     2
 10
0.0
 20
0.0
 11
0.0
 21
0.0
 12
0.0
 22
0.0
 32
0.0
 14
0.0
 24
0.0
 34
0.0
 15
0.0
 25
0.0
 35
0.0
146
0.0
 13
0.0
 23
0.0
 33
0.0
 16
1.0
 26
0.0
 36
0.0
 17
0.0
 27
1.0
 37
0.0
 76
     0
330
23
  0
LAYOUT
  5
22
102
{ACAD_REACTORS
330
1A
102
}
330
1A
100
AcDbPlotSettings
  1

  2
none_device
  4

  6

 40
0.0
 41
0.0
 42
0.0
 43
0.0
 44
0.0
 45
0.0
 46
0.0
 47
0.0
 48
0.0
 49
0.0
140
0.0
141
0.0
142
1.0
143
1.0
 70
  1712
 72
     0
 73
     0
 74
     0
  7

 75
     0
 76
     0
 77
     2
 78
   300
147
1.0
148
0.0
149
0.0
100
AcDbLayout
  1
Model
 70
     1
 71
     0
 10
0.0
 20
0.0
 11
12.0
 21
9.0
 12
0.0
 22
0.0
 32
0.0
 14
1.000000000000000E+20
 24
1.000000000000000E+20
 34
1.000000000000000E+20
 15
-1.000000000000000E+20
 25
-1.000000000000000E+20
 35
-1.000000000000000E+20
146
0.0
 13
0.0
 23
0.0
 33
0.0
 16
1.0
 26
0.0
 36
0.0
 17
0.0
 27
1.0
 37
0.0
 76
     0
330
1F
331
29
  0
MATERIAL
  5
3D
102
{ACAD_REACTORS
330
3B
102
}
330
3B
100
AcDbMaterial
  1
ByBlock
 72
     1
 94
      127
  0
MATERIAL
  5
3C
102
{ACAD_REACTORS
330
3B
102
}
330
3B
100
AcDbMaterial
  1
ByLayer
 72
     1
 94
      127
  0
MATERIAL
  5
3E
102
{ACAD_REACTORS
330
3B
102
}
330
3B
100
AcDbMaterial
  1
Global
 72
     1
 94
      127
  0
MLINESTYLE
  5
18
102
{ACAD_REACTORS
330
17
102
}
330
17
100
AcDbMlineStyle
  2
Standard
 70
     0
  3

 62
   256
 51
90.0
 52
90.0
 71
     2
 49
0.5
 62
   256
  6
BYLAYER
 49
-0.5
 62
   256
  6
BYLAYER
  0
ACDBPLACEHOLDER
  5
F
102
{ACAD_REACTORS
330
E
102
}
330
E
  0
VISUALSTYLE
  5
2F
102
{ACAD_REACTORS
330
2A
102
}
330
2A
100
AcDbVisualStyle
  2
2dWireframe
 70
     4
177
     2
291
     0
 71
     0
176
     1
 72
     2
176
     1
 73
     0
176
     1
 90
        0
176
     1
 40
-0.6
176
     1
 41
-30.0
176
     1
 62
     5
 63
     7
421
 16777215
176
     1
 74
     1
176
     1
 91
        4
176
     1
 64
     7
176
     1
 65
   257
176
     1
 75
     1
176
     1
175
     1
176
     1
 42
1.0
176
     1
 92
        0
176
     1
 66
   257
176
     1
 43
1.0
176
     1
 76
     1
176
     1
 77
     6
176
     1
 78
     2
176
     1
 67
     7
176
     1
 79
     5
176
     1
170
     0
176
     1
171
     0
176
     1
290
     0
176
     1
 93
        1
176
     1
 44
0.0
176
     1
173
     0
176
     1
  0
VISUALSTYLE
  5
31
102
{ACAD_REACTORS
330
2A
102
}
330
2A
100
AcDbVisualStyle
  2
3D Hidden
 70
     6
177
     2
291
     0
 71
     1
176
     1
 72
     2
176
     1
 73
     2
176
     1
 90
        0
176
     1
 40
-0.6
176
     1
 41
-30.0
176
     1
 62
     5
 63
     7
421
 16777215
176
     1
 74
     2
176
     1
 91
        2
176
     1
 64
     7
176
     1
 65
   257
176
     1
 75
     2
176
     1
175
     1
176
     1
 42
40.0
176
     1
 92
        0
176
     1
 66
   257
176
     1
 43
1.0
176
     1
 76
     1
176
     1
 77
     6
176
     1
 78
     2
176
     1
 67
     7
176
     1
 79
     3
176
     1
170
     0
176
     1
171
     0
176
     1
290
     0
176
     1
 93
        1
176
     1
 44
0.0
176
     1
173
     0
176
     1
  0
VISUALSTYLE
  5
30
102
{ACAD_REACTORS
330
2A
102
}
330
2A
100
AcDbVisualStyle
  2
3dWireframe
 70
     5
177
     2
291
     0
 71
     0
176
     1
 72
     2
176
     1
 73
     0
176
     1
 90
        0
176
     1
 40
-0.6
176
     1
 41
-30.0
176
     1
 62
     5
 63
     7
421
 16777215
176
     1
 74
     1
176
     1
 91
        4
176
     1
 64
     7
176
     1
 65
   257
176
     1
 75
     1
176
     1
175
     1
176
     1
 42
1.0
176
     1
 92
        0
176
     1
 66
   257
176
     1
 43
1.0
176
     1
 76
     1
176
     1
 77
     6
176
     1
 78
     2
176
     1
 67
     7
176
     1
 79
     5
176
     1
170
     0
176
     1
171
     0
176
     1
290
     0
176
     1
 93
        1
176
     1
 44
0.0
176
     1
173
     0
176
     1
  0
VISUALSTYLE
  5
32
102
{ACAD_REACTORS
330
2A
102
}
330
2A
100
AcDbVisualStyle
  2
Basic
 70
     7
177
     2
291
     1
 71
     1
176
     1
 72
     0
176
     1
 73
     1
176
     1
 90
        0
176
     1
 40
-0.6
176
     1
 41
-30.0
176
     1
 62
     5
 63
     7
421
 16777215
176
     1
 74
     0
176
     1
 91
        4
176
     1
 64
     7
176
     1
 65
   257
176
     1
 75
     1
176
     1
175
     1
176
     1
 42
1.0
176
     1
 92
        8
176
     1
 66
     7
176
     1
 43
1.0
176
     1
 76
     1
176
     1
 77
     6
176
     1
 78
     2
176
     1
 67
     7
176
     1
 79
     5
176
     1
170
     0
176
     1
171
     0
176
     1
290
     0
176
     1
 93
        1
176
     1
 44
0.0
176
     1
173
     0
176
     1
  0
VISUALSTYLE
  5
36
102
{ACAD_REACTORS
330
2A
102
}
330
2A
100
AcDbVisualStyle
  2
Brighten
 70
    12
177
     2
291
     1
 71
     2
176
     1
 72
     2
176
     1
 73
     0
176
     1
 90
        0
176
     1
 40
-0.6
176
     1
 41
-30.0
176
     1
 62
     5
 63
     7
421
 16777215
176
     1
 74
     1
176
     1
 91
        4
176
     1
 64
     7
176
     1
 65
   257
176
     1
 75
     1
176
     1
175
     1
176
     1
 42
1.0
176
     1
 92
        8
176
     1
 66
     7
176
     1
 43
1.0
176
     1
 76
     1
176
     1
 77
     6
176
     1
 78
     2
176
     1
 67
     7
176
     1
 79
     5
176
     1
170
     0
176
     1
171
     0
176
     1
290
     0
176
     1
 93
        1
176
     1
 44
50.0
176
     1
173
     0
176
     1
  0
VISUALSTYLE
  5
3A
102
{ACAD_REACTORS
330
2A
102
}
330
2A
100
AcDbVisualStyle
  2
ColorChange
 70
    16
177
     2
291
     1
 71
     2
176
     1
 72
     2
176
     1
 73
     3
176
     1
 90
        0
176
     1
 40
-0.6
176
     1
 41
-30.0
176
     1
 62
     5
 63
     8
421
  8421504
176
     1
 74
     1
176
     1
 91
        4
176
     1
 64
     7
176
     1
 65
   257
176
     1
 75
     1
176
     1
175
     1
176
     1
 42
1.0
176
     1
 92
        8
176
     1
 66
     8
424
  8421504
176
     1
 43
1.0
176
     1
 76
     1
176
     1
 77
     6
176
     1
 78
     2
176
     1
 67
     7
176
     1
 79
     5
176
     1
170
     0
176
     1
171
     0
176
     1
290
     0
176
     1
 93
        1
176
     1
 44
0.0
176
     1
173
     0
176
     1
  0
VISUALSTYLE
  5
34
102
{ACAD_REACTORS
330
2A
102
}
330
2A
100
AcDbVisualStyle
  2
Conceptual
 70
     9
177
     2
291
     0
 71
     3
176
     1
 72
     2
176
     1
 73
     0
176
     1
 90
        0
176
     1
 40
-0.6
176
     1
 41
-30.0
176
     1
 62
     5
 63
     7
421
 16777215
176
     1
 74
     2
176
     1
 91
        2
176
     1
 64
     7
176
     1
 65
   257
176
     1
 75
     1
176
     1
175
     1
176
     1
 42
40.0
176
     1
 92
        8
176
     1
 66
     7
176
     1
 43
1.0
176
     1
 76
     1
176
     1
 77
     6
176
     1
 78
     2
176
     1
 67
     7
176
     1
 79
     3
176
     1
170
     0
176
     1
171
     0
176
     1
290
     0
176
     1
 93
        1
176
     1
 44
0.0
176
     1
173
     0
176
     1
  0
VISUALSTYLE
  5
35
102
{ACAD_REACTORS
330
2A
102
}
330
2A
100
AcDbVisualStyle
  2
Dim
 70
    11
177
     2
291
     1
 71
     2
176
     1
 72
     2
176
     1
 73
     0
176
     1
 90
        0
176
     1
 40
-0.6
176
     1
 41
-30.0
176
     1
 62
     5
 63
     7
421
 16777215
176
     1
 74
     1
176
     1
 91
        4
176
     1
 64
     7
176
     1
 65
   257
176
     1
 75
     1
176
     1
175
     1
176
     1
 42
1.0
176
     1
 92
        8
176
     1
 66
     7
176
     1
 43
1.0
176
     1
 76
     1
176
     1
 77
     6
176
     1
 78
     2
176
     1
 67
     7
176
     1
 79
     5
176
     1
170
     0
176
     1
171
     0
176
     1
290
     0
176
     1
 93
        1
176
     1
 44
-50.0
176
     1
173
     0
176
     1
  0
VISUALSTYLE
  5
39
102
{ACAD_REACTORS
330
2A
102
}
330
2A
100
AcDbVisualStyle
  2
Facepattern
 70
    15
177
     2
291
     1
 71
     2
176
     1
 72
     2
176
     1
 73
     0
176
     1
 90
        0
176
     1
 40
-0.6
176
     1
 41
-30.0
176
     1
 62
     5
 63
     7
421
 16777215
176
     1
 74
     1
176
     1
 91
        4
176
     1
 64
     7
176
     1
 65
   257
176
     1
 75
     1
176
     1
175
     1
176
     1
 42
1.0
176
     1
 92
        8
176
     1
 66
     7
176
     1
 43
1.0
176
     1
 76
     1
176
     1
 77
     6
176
     1
 78
     2
176
     1
 67
     7
176
     1
 79
     5
176
     1
170
     0
176
     1
171
     0
176
     1
290
     0
176
     1
 93
        1
176
     1
 44
0.0
176
     1
173
     0
176
     1
  0
VISUALSTYLE
  5
2B
102
{ACAD_REACTORS
330
2A
102
}
330
2A
100
AcDbVisualStyle
  2
Flat
 70
     0
177
     2
291
     1
 71
     2
176
     1
 72
     1
176
     1
 73
     1
176
     1
 90
        2
176
     1
 40
-0.6
176
     1
 41
30.0
176
     1
 62
     5
 63
     7
421
 16777215
176
     1
 74
     0
176
     1
 91
        4
176
     1
 64
     7
176
     1
 65
   257
176
     1
 75
     1
176
     1
175
     1
176
     1
 42
1.0
176
     1
 92
        8
176
     1
 66
     7
176
     1
 43
1.0
176
     1
 76
     1
176
     1
 77
     6
176
     1
 78
     2
176
     1
 67
     7
176
     1
 79
     5
176
     1
170
     0
176
     1
171
     0
176
     1
290
     0
176
     1
 93
       13
176
     1
 44
0.0
176
     1
173
     0
176
     1
  0
VISUALSTYLE
  5
2C
102
{ACAD_REACTORS
330
2A
102
}
330
2A
100
AcDbVisualStyle
  2
FlatWithEdges
 70
     1
177
     2
291
     1
 71
     2
176
     1
 72
     1
176
     1
 73
     1
176
     1
 90
        2
176
     1
 40
-0.6
176
     1
 41
30.0
176
     1
 62
     5
 63
     7
421
 16777215
176
     1
 74
     1
176
     1
 91
        4
176
     1
 64
     7
176
     1
 65
   257
176
     1
 75
     1
176
     1
175
     1
176
     1
 42
1.0
176
     1
 92
        0
176
     1
 66
   257
176
     1
 43
1.0
176
     1
 76
     1
176
     1
 77
     6
176
     1
 78
     2
176
     1
 67
     7
176
     1
 79
     5
176
     1
170
     0
176
     1
171
     0
176
     1
290
     0
176
     1
 93
       13
176
     1
 44
0.0
176
     1
173
     0
176
     1
  0
VISUALSTYLE
  5
2D
102
{ACAD_REACTORS
330
2A
102
}
330
2A
100
AcDbVisualStyle
  2
Gouraud
 70
     2
177
     2
291
     1
 71
     2
176
     1
 72
     2
176
     1
 73
     1
176
     1
 90
        2
176
     1
 40
-0.6
176
     1
 41
30.0
176
     1
 62
     5
 63
     7
421
 16777215
176
     1
 74
     0
176
     1
 91
        4
176
     1
 64
     7
176
     1
 65
   257
176
     1
 75
     1
176
     1
175
     1
176
     1
 42
1.0
176
     1
 92
        0
176
     1
 66
     7
176
     1
 43
1.0
176
     1
 76
     1
176
     1
 77
     6
176
     1
 78
     2
176
     1
 67
     7
176
     1
 79
     5
176
     1
170
     0
176
     1
171
     0
176
     1
290
     0
176
     1
 93
       13
176
     1
 44
0.0
176
     1
173
     0
176
     1
  0
VISUALSTYLE
  5
2E
102
{ACAD_REACTORS
330
2A
102
}
330
2A
100
AcDbVisualStyle
  2
GouraudWithEdges
 70
     3
177
     2
291
     1
 71
     2
176
     1
 72
     2
176
     1
 73
     1
176
     1
 90
        2
176
     1
 40
-0.6
176
     1
 41
30.0
176
     1
 62
     5
 63
     7
421
 16777215
176
     1
 74
     1
176
     1
 91
        4
176
     1
 64
     7
176
     1
 65
   257
176
     1
 75
     1
176
     1
175
     1
176
     1
 42
1.0
176
     1
 92
        0
176
     1
 66
   257
176
     1
 43
1.0
176
     1
 76
     1
176
     1
 77
     6
176
     1
 78
     2
176
     1
 67
     7
176
     1
 79
     5
176
     1
170
     0
176
     1
171
     0
176
     1
290
     0
176
     1
 93
       13
176
     1
 44
0.0
176
     1
173
     0
176
     1
  0
VISUALSTYLE
  5
38
102
{ACAD_REACTORS
330
2A
102
}
330
2A
100
AcDbVisualStyle
  2
Linepattern
 70
    14
177
     2
291
     1
 71
     2
176
     1
 72
     2
176
     1
 73
     0
176
     1
 90
        0
176
     1
 40
-0.6
176
     1
 41
-30.0
176
     1
 62
     5
 63
     7
421
 16777215
176
     1
 74
     1
176
     1
 91
        4
176
     1
 64
     7
176
     1
 65
   257
176
     1
 75
     7
176
     1
175
     7
176
     1
 42
1.0
176
     1
 92
        8
176
     1
 66
     7
176
     1
 43
1.0
176
     1
 76
     1
176
     1
 77
     6
176
     1
 78
     2
176
     1
 67
     7
176
     1
 79
     5
176
     1
170
     0
176
     1
171
     0
176
     1
290
     0
176
     1
 93
        1
176
     1
 44
0.0
176
     1
173
     0
176
     1
  0
VISUALSTYLE
  5
33
102
{ACAD_REACTORS
330
2A
102
}
330
2A
100
AcDbVisualStyle
  2
Realistic
 70
     8
177
     2
291
     0
 71
     2
176
     1
 72
     2
176
     1
 73
     0
176
     1
 90
        0
176
     1
 40
-0.6
176
     1
 41
-30.0
176
     1
 62
     5
 63
     7
421
 16777215
176
     1
 74
     1
176
     1
 91
        0
176
     1
 64
     7
176
     1
 65
   257
176
     1
 75
     1
176
     1
175
     1
176
     1
 42
1.0
176
     1
 92
        8
176
     1
 66
     8
424
  7895160
176
     1
 43
1.0
176
     1
 76
     1
176
     1
 77
     6
176
     1
 78
     2
176
     1
 67
     7
176
     1
 79
     5
176
     1
170
     0
176
     1
171
     0
176
     1
290
     0
176
     1
 93
       13
176
     1
 44
0.0
176
     1
173
     0
176
     1
  0
VISUALSTYLE
  5
37
102
{ACAD_REACTORS
330
2A
102
}
330
2A
100
AcDbVisualStyle
  2
Thicken
 70
    13
177
     2
291
     1
 71
     2
176
     1
 72
     2
176
     1
 73
     0
176
     1
 90
        0
176
     1
 40
-0.6
176
     1
 41
-30.0
176
     1
 62
     5
 63
     7
421
 16777215
176
     1
 74
     1
176
     1
 91
        4
176
     1
 64
     7
176
     1
 65
   257
176
     1
 75
     1
176
     1
175
     1
176
     1
 42
1.0
176
     1
 92
       12
176
     1
 66
     7
176
     1
 43
1.0
176
     1
 76
     1
176
     1
 77
     6
176
     1
 78
     2
176
     1
 67
     7
176
     1
 79
     5
176
     1
170
     0
176
     1
171
     0
176
     1
290
     0
176
     1
 93
        1
176
     1
 44
0.0
176
     1
173
     0
176
     1
  0
ENDSEC
  0
EOF
