<?xml version="1.0" encoding="utf-8"?>
<!-- Generator: Adobe Illustrator 22.0.1, SVG Export Plug-In . SVG Version: 6.00 Build 0)  -->
<svg version="1.1" id="Layer_1" xmlns="http://www.w3.org/2000/svg" xmlns:xlink="http://www.w3.org/1999/xlink" x="0px" y="0px"
	 viewBox="0 0 612 792" style="enable-background:new 0 0 612 792;" xml:space="preserve">
<style type="text/css">
	.st0{fill:none;stroke:#00FF00;stroke-miterlimit:10;}
	.st1{fill:none;stroke:#FF0000;stroke-width:0.5;stroke-miterlimit:10;}
</style>
<g id="ELLIPSE">
	<path class="st0" d="M194.4,357.7c-1.2,0-2.2,1-2.2,2.3c0,1.2,1,2.3,2.2,2.3c1.2,0,2.2-1,2.2-2.3S195.6,357.7,194.4,357.7"/>
</g>
<g id="ELLIPSE_1_">
	<path class="st0" d="M237.6,357.7c-1.2,0-2.2,1-2.2,2.3c0,1.2,1,2.3,2.2,2.3c1.2,0,2.2-1,2.2-2.3S238.8,357.7,237.6,357.7"/>
</g>
<g id="LWPOLYLINE">
	<path class="st0" d="M230.3,355.5h15.9c2.5,0,4.5-2,4.5-4.5c0-0.4-0.1-0.9-0.2-1.3c-5.7-19.1-25.7-29.9-44.8-24.2
		c-11.6,3.5-20.7,12.6-24.2,24.2c-0.7,2.4,0.6,4.9,3,5.6c0.4,0.1,0.9,0.2,1.3,0.2h15.9c-0.9,2.9-0.9,6.1,0,9h-15.9
		c-2.5,0-4.5,2-4.5,4.5c0,0.4,0.1,0.9,0.2,1.3c5.7,19.1,25.7,29.9,44.8,24.2c11.6-3.5,20.7-12.6,24.2-24.2c0.7-2.4-0.6-4.9-3-5.6
		c-0.4-0.1-0.9-0.2-1.3-0.2h-15.9C231.2,361.6,231.2,358.4,230.3,355.5z"/>
</g>
<g id="CIRCLE">
	<path class="st0" d="M264.9,360c0-27-21.9-48.9-48.9-48.9c-27,0-48.9,21.9-48.9,48.9c0,27,21.9,48.9,48.9,48.9
		C243,408.9,264.9,387,264.9,360L264.9,360z"/>
</g>
<g id="ELLIPSE_2_">
	<path class="st0" d="M194.4,357.7c-1.2,0-2.2,1-2.2,2.3c0,1.2,1,2.3,2.2,2.3c1.2,0,2.2-1,2.2-2.3S195.6,357.7,194.4,357.7"/>
</g>
<g id="ELLIPSE_3_">
	<path class="st0" d="M237.6,357.7c-1.2,0-2.2,1-2.2,2.3c0,1.2,1,2.3,2.2,2.3c1.2,0,2.2-1,2.2-2.3S238.8,357.7,237.6,357.7"/>
</g>
<g id="LWPOLYLINE_1_">
	<path class="st0" d="M246.2,355.5h-15.9c0.9,2.9,0.9,6.1,0,9h15.9c0.4,0,0.9,0.1,1.3,0.2c2.4,0.7,3.7,3.2,3,5.6
		c-3.5,11.6-12.6,20.7-24.2,24.2c-19.1,5.7-39.1-5.2-44.8-24.2c-0.1-0.4-0.2-0.9-0.2-1.3c0-2.5,2-4.5,4.5-4.5h15.9
		c-0.9-2.9-0.9-6.1,0-9h-15.9c-0.4,0-0.9-0.1-1.3-0.2c-2.4-0.7-3.7-3.2-3-5.6c3.5-11.6,12.6-20.7,24.2-24.2
		c19.1-5.7,39.1,5.2,44.8,24.2c0.1,0.4,0.2,0.9,0.2,1.3C250.7,353.5,248.7,355.5,246.2,355.5z"/>
</g>
<g id="CIRCLE_1_">
	<path class="st0" d="M264.9,360c0-27-21.9-48.9-48.9-48.9c-27,0-48.9,21.9-48.9,48.9c0,27,21.9,48.9,48.9,48.9
		C243,408.9,264.9,387,264.9,360L264.9,360z"/>
</g>
<g id="MhxYqK.tif">
	<g>
		<path class="st1" d="M254.8,357.9c-0.2-0.6-0.1-1.1,0.2-1.4c0.5-0.4,1.2-0.3,1.6,0.2c0.5,0.7,0.1,1.5-0.4,1.7
			c-0.3,0.2-0.7,0.2-1.1,0.2c-0.5,0-0.9-0.3-1.3-0.6c-0.4-0.3-0.8-0.5-1.2-0.6c-0.6-0.1-1.2,0-1.7,0.3c-0.8,0.5-1.2,1.3-1.1,2.4
			c0.1,0.8,0.5,1.5,1.1,1.9c0.8,0.5,1.6,0.4,2.4,0c0.2-0.1,0.4-0.3,0.7-0.4c0.5-0.4,1.1-0.5,1.8-0.4c0.6,0.1,1,0.5,1.1,1
			c0.1,0.6-0.2,1.2-0.7,1.3c-0.6,0.2-1,0-1.3-0.5c-0.2-0.3-0.2-0.7,0-1"/>
	</g>
</g>
<g id="MhxYqK.tif_1_">
	<g>
		<path class="st1" d="M180.3,357.9c-0.2-0.6-0.1-1.1,0.2-1.4c0.5-0.4,1.2-0.3,1.6,0.2c0.5,0.7,0.1,1.5-0.4,1.7
			c-0.3,0.2-0.7,0.2-1.1,0.2c-0.5,0-0.9-0.3-1.3-0.6c-0.4-0.3-0.8-0.5-1.2-0.6c-0.6-0.1-1.2,0-1.7,0.3c-0.8,0.5-1.2,1.3-1.1,2.4
			c0.1,0.8,0.5,1.5,1.1,1.9c0.8,0.5,1.6,0.4,2.4,0c0.2-0.1,0.4-0.3,0.7-0.4c0.5-0.4,1.1-0.5,1.8-0.4c0.6,0.1,1,0.5,1.1,1
			c0.1,0.6-0.2,1.2-0.7,1.3c-0.6,0.2-1,0-1.3-0.5c-0.2-0.3-0.2-0.7,0-1"/>
	</g>
</g>
</svg>
