<?xml version="1.0" encoding="utf-8"?>
<!-- Generator: Adobe Illustrator 16.0.3, SVG Export Plug-In . SVG Version: 6.00 Build 0)  -->
<!DOCTYPE svg PUBLIC "-//W3C//DTD SVG 1.1//EN" "http://www.w3.org/Graphics/SVG/1.1/DTD/svg11.dtd">
<svg version="1.1" id="Layer_1" xmlns="http://www.w3.org/2000/svg" xmlns:xlink="http://www.w3.org/1999/xlink" x="0px" y="0px"
	 width="576px" height="576px" viewBox="0 0 576 576" enable-background="new 0 0 576 576" xml:space="preserve">
<path fill="none" stroke="#000000" stroke-width="0.5" stroke-linecap="round" stroke-linejoin="round" stroke-miterlimit="10" d="
	M244.8,288c0-23.859,19.341-43.2,43.2-43.2c23.858,0,43.2,19.341,43.2,43.2c0,23.859-19.342,43.2-43.2,43.2
	C264.141,331.2,244.8,311.859,244.8,288z"/>
<path fill="none" stroke="#FF0000" stroke-width="0.5" stroke-linecap="round" stroke-linejoin="round" stroke-miterlimit="10" d="
	M320.171,304.156l6.434,3.232"/>
<path fill="none" stroke="#FF0000" stroke-width="0.5" stroke-linecap="round" stroke-linejoin="round" stroke-miterlimit="10" d="
	M324.177,304.107l3.288,1.463"/>
<path fill="none" stroke="#FF0000" stroke-width="0.5" stroke-linecap="round" stroke-linejoin="round" stroke-miterlimit="10" d="
	M324.887,302.406l3.354,1.31"/>
<path fill="none" stroke="#FF0000" stroke-width="0.5" stroke-linecap="round" stroke-linejoin="round" stroke-miterlimit="10" d="
	M325.517,300.674l3.411,1.152"/>
<path fill="none" stroke="#FF0000" stroke-width="0.5" stroke-linecap="round" stroke-linejoin="round" stroke-miterlimit="10" d="
	M326.066,298.915l3.46,0.993"/>
<path fill="none" stroke="#FF0000" stroke-width="0.5" stroke-linecap="round" stroke-linejoin="round" stroke-miterlimit="10" d="
	M324.781,296.717l5.254,1.246"/>
<path fill="none" stroke="#FF0000" stroke-width="0.5" stroke-linecap="round" stroke-linejoin="round" stroke-miterlimit="10" d="
	M326.916,295.33l3.537,0.666"/>
<path fill="none" stroke="#FF0000" stroke-width="0.5" stroke-linecap="round" stroke-linejoin="round" stroke-miterlimit="10" d="
	M327.215,293.512l3.564,0.5"/>
<path fill="none" stroke="#FF0000" stroke-width="0.5" stroke-linecap="round" stroke-linejoin="round" stroke-miterlimit="10" d="
	M327.429,291.681l3.584,0.335"/>
<path fill="none" stroke="#FF0000" stroke-width="0.5" stroke-linecap="round" stroke-linejoin="round" stroke-miterlimit="10" d="
	M327.557,289.842l3.597,0.168"/>
<path fill="none" stroke="#FF0000" stroke-width="0.5" stroke-linecap="round" stroke-linejoin="round" stroke-miterlimit="10" d="
	M324,288h7.2"/>
<path fill="none" stroke="#FF0000" stroke-width="0.5" stroke-linecap="round" stroke-linejoin="round" stroke-miterlimit="10" d="
	M327.557,286.158l3.597-0.167"/>
<path fill="none" stroke="#FF0000" stroke-width="0.5" stroke-linecap="round" stroke-linejoin="round" stroke-miterlimit="10" d="
	M327.429,284.319l3.584-0.335"/>
<path fill="none" stroke="#FF0000" stroke-width="0.5" stroke-linecap="round" stroke-linejoin="round" stroke-miterlimit="10" d="
	M327.215,282.489l3.564-0.501"/>
<path fill="none" stroke="#FF0000" stroke-width="0.5" stroke-linecap="round" stroke-linejoin="round" stroke-miterlimit="10" d="
	M326.916,280.67l3.537-0.667"/>
<path fill="none" stroke="#FF0000" stroke-width="0.5" stroke-linecap="round" stroke-linejoin="round" stroke-miterlimit="10" d="
	M324.781,279.283l5.254-1.245"/>
<path fill="none" stroke="#FF0000" stroke-width="0.5" stroke-linecap="round" stroke-linejoin="round" stroke-miterlimit="10" d="
	M326.066,277.085l3.46-0.993"/>
<path fill="none" stroke="#FF0000" stroke-width="0.5" stroke-linecap="round" stroke-linejoin="round" stroke-miterlimit="10" d="
	M325.517,275.326l3.411-1.152"/>
<path fill="none" stroke="#FF0000" stroke-width="0.5" stroke-linecap="round" stroke-linejoin="round" stroke-miterlimit="10" d="
	M324.887,273.594l3.354-1.31"/>
<path fill="none" stroke="#FF0000" stroke-width="0.5" stroke-linecap="round" stroke-linejoin="round" stroke-miterlimit="10" d="
	M324.177,271.893l3.288-1.464"/>
<path fill="none" stroke="#FF0000" stroke-width="0.5" stroke-linecap="round" stroke-linejoin="round" stroke-miterlimit="10" d="
	M320.171,271.843l6.434-3.231"/>
<path fill="none" stroke="#FF0000" stroke-width="0.5" stroke-linecap="round" stroke-linejoin="round" stroke-miterlimit="10" d="
	M322.522,268.601l3.139-1.764"/>
<path fill="none" stroke="#FF0000" stroke-width="0.5" stroke-linecap="round" stroke-linejoin="round" stroke-miterlimit="10" d="
	M321.583,267.015l3.053-1.908"/>
<path fill="none" stroke="#FF0000" stroke-width="0.5" stroke-linecap="round" stroke-linejoin="round" stroke-miterlimit="10" d="
	M320.57,265.476l2.961-2.048"/>
<path fill="none" stroke="#FF0000" stroke-width="0.5" stroke-linecap="round" stroke-linejoin="round" stroke-miterlimit="10" d="
	M319.486,263.984l2.863-2.183"/>
<path fill="none" stroke="#FF0000" stroke-width="0.5" stroke-linecap="round" stroke-linejoin="round" stroke-miterlimit="10" d="
	M316.956,263.703l4.137-3.471"/>
<path fill="none" stroke="#FF0000" stroke-width="0.5" stroke-linecap="round" stroke-linejoin="round" stroke-miterlimit="10" d="
	M317.118,261.162l2.647-2.439"/>
<path fill="none" stroke="#FF0000" stroke-width="0.5" stroke-linecap="round" stroke-linejoin="round" stroke-miterlimit="10" d="
	M315.838,259.836l2.531-2.56"/>
<path fill="none" stroke="#FF0000" stroke-width="0.5" stroke-linecap="round" stroke-linejoin="round" stroke-miterlimit="10" d="
	M314.498,258.571l2.408-2.675"/>
<path fill="none" stroke="#FF0000" stroke-width="0.5" stroke-linecap="round" stroke-linejoin="round" stroke-miterlimit="10" d="
	M313.1,257.371l2.282-2.785"/>
<path fill="none" stroke="#FF0000" stroke-width="0.5" stroke-linecap="round" stroke-linejoin="round" stroke-miterlimit="10" d="
	M309.498,259.124l4.299-5.775"/>
<path fill="none" stroke="#FF0000" stroke-width="0.5" stroke-linecap="round" stroke-linejoin="round" stroke-miterlimit="10" d="
	M310.145,255.17l2.013-2.984"/>
<path fill="none" stroke="#FF0000" stroke-width="0.5" stroke-linecap="round" stroke-linejoin="round" stroke-miterlimit="10" d="
	M308.593,254.175l1.872-3.075"/>
<path fill="none" stroke="#FF0000" stroke-width="0.5" stroke-linecap="round" stroke-linejoin="round" stroke-miterlimit="10" d="
	M306.997,253.254l1.727-3.159"/>
<path fill="none" stroke="#FF0000" stroke-width="0.5" stroke-linecap="round" stroke-linejoin="round" stroke-miterlimit="10" d="
	M305.359,252.408l1.578-3.236"/>
<path fill="none" stroke="#FF0000" stroke-width="0.5" stroke-linecap="round" stroke-linejoin="round" stroke-miterlimit="10" d="
	M302.972,253.292l2.14-4.958"/>
<path fill="none" stroke="#FF0000" stroke-width="0.5" stroke-linecap="round" stroke-linejoin="round" stroke-miterlimit="10" d="
	M301.977,250.948l1.27-3.368"/>
<path fill="none" stroke="#FF0000" stroke-width="0.5" stroke-linecap="round" stroke-linejoin="round" stroke-miterlimit="10" d="
	M300.237,250.338l1.112-3.423"/>
<path fill="none" stroke="#FF0000" stroke-width="0.5" stroke-linecap="round" stroke-linejoin="round" stroke-miterlimit="10" d="
	M298.472,249.81l0.952-3.472"/>
<path fill="none" stroke="#FF0000" stroke-width="0.5" stroke-linecap="round" stroke-linejoin="round" stroke-miterlimit="10" d="
	M296.684,249.364l0.789-3.512"/>
<path fill="none" stroke="#FF0000" stroke-width="0.5" stroke-linecap="round" stroke-linejoin="round" stroke-miterlimit="10" d="
	M294.252,252.547l1.25-7.091"/>
<path fill="none" stroke="#FF0000" stroke-width="0.5" stroke-linecap="round" stroke-linejoin="round" stroke-miterlimit="10" d="
	M293.055,248.724l0.459-3.571"/>
<path fill="none" stroke="#FF0000" stroke-width="0.5" stroke-linecap="round" stroke-linejoin="round" stroke-miterlimit="10" d="
	M291.222,248.531l0.293-3.588"/>
<path fill="none" stroke="#FF0000" stroke-width="0.5" stroke-linecap="round" stroke-linejoin="round" stroke-miterlimit="10" d="
	M289.382,248.424l0.126-3.598"/>
<path fill="none" stroke="#FF0000" stroke-width="0.5" stroke-linecap="round" stroke-linejoin="round" stroke-miterlimit="10" d="
	M287.539,248.403l-0.042-3.6"/>
<path fill="none" stroke="#FF0000" stroke-width="0.5" stroke-linecap="round" stroke-linejoin="round" stroke-miterlimit="10" d="
	M285.802,250.264l-0.314-5.391"/>
<path fill="none" stroke="#FF0000" stroke-width="0.5" stroke-linecap="round" stroke-linejoin="round" stroke-miterlimit="10" d="
	M283.861,248.617l-0.376-3.581"/>
<path fill="none" stroke="#FF0000" stroke-width="0.5" stroke-linecap="round" stroke-linejoin="round" stroke-miterlimit="10" d="
	M282.033,248.852l-0.542-3.559"/>
<path fill="none" stroke="#FF0000" stroke-width="0.5" stroke-linecap="round" stroke-linejoin="round" stroke-miterlimit="10" d="
	M280.218,249.172l-0.707-3.53"/>
<path fill="none" stroke="#FF0000" stroke-width="0.5" stroke-linecap="round" stroke-linejoin="round" stroke-miterlimit="10" d="
	M278.42,249.576l-0.871-3.493"/>
<path fill="none" stroke="#FF0000" stroke-width="0.5" stroke-linecap="round" stroke-linejoin="round" stroke-miterlimit="10" d="
	M277.675,253.512l-2.065-6.897"/>
<path fill="none" stroke="#FF0000" stroke-width="0.5" stroke-linecap="round" stroke-linejoin="round" stroke-miterlimit="10" d="
	M274.89,250.633l-1.191-3.397"/>
<path fill="none" stroke="#FF0000" stroke-width="0.5" stroke-linecap="round" stroke-linejoin="round" stroke-miterlimit="10" d="
	M273.166,251.284l-1.349-3.338"/>
<path fill="none" stroke="#FF0000" stroke-width="0.5" stroke-linecap="round" stroke-linejoin="round" stroke-miterlimit="10" d="
	M271.474,252.014l-1.502-3.271"/>
<path fill="none" stroke="#FF0000" stroke-width="0.5" stroke-linecap="round" stroke-linejoin="round" stroke-miterlimit="10" d="
	M269.817,252.821l-1.653-3.198"/>
<path fill="none" stroke="#FF0000" stroke-width="0.5" stroke-linecap="round" stroke-linejoin="round" stroke-miterlimit="10" d="
	M269.1,255.264l-2.7-4.676"/>
<path fill="none" stroke="#FF0000" stroke-width="0.5" stroke-linecap="round" stroke-linejoin="round" stroke-miterlimit="10" d="
	M266.626,254.664l-1.943-3.03"/>
<path fill="none" stroke="#FF0000" stroke-width="0.5" stroke-linecap="round" stroke-linejoin="round" stroke-miterlimit="10" d="
	M265.098,255.694l-2.082-2.937"/>
<path fill="none" stroke="#FF0000" stroke-width="0.5" stroke-linecap="round" stroke-linejoin="round" stroke-miterlimit="10" d="
	M263.62,256.795l-2.216-2.837"/>
<path fill="none" stroke="#FF0000" stroke-width="0.5" stroke-linecap="round" stroke-linejoin="round" stroke-miterlimit="10" d="
	M262.194,257.963l-2.346-2.73"/>
<path fill="none" stroke="#FF0000" stroke-width="0.5" stroke-linecap="round" stroke-linejoin="round" stroke-miterlimit="10" d="
	M263.295,261.814l-4.941-5.237"/>
<path fill="none" stroke="#FF0000" stroke-width="0.5" stroke-linecap="round" stroke-linejoin="round" stroke-miterlimit="10" d="
	M259.514,260.492l-2.59-2.501"/>
<path fill="none" stroke="#FF0000" stroke-width="0.5" stroke-linecap="round" stroke-linejoin="round" stroke-miterlimit="10" d="
	M258.265,261.847l-2.703-2.377"/>
<path fill="none" stroke="#FF0000" stroke-width="0.5" stroke-linecap="round" stroke-linejoin="round" stroke-miterlimit="10" d="
	M257.081,263.258l-2.811-2.249"/>
<path fill="none" stroke="#FF0000" stroke-width="0.5" stroke-linecap="round" stroke-linejoin="round" stroke-miterlimit="10" d="
	M255.963,264.724l-2.913-2.116"/>
<path fill="none" stroke="#FF0000" stroke-width="0.5" stroke-linecap="round" stroke-linejoin="round" stroke-miterlimit="10" d="
	M256.418,267.229l-4.512-2.967"/>
<path fill="none" stroke="#FF0000" stroke-width="0.5" stroke-linecap="round" stroke-linejoin="round" stroke-miterlimit="10" d="
	M253.938,267.802l-3.096-1.836"/>
<path fill="none" stroke="#FF0000" stroke-width="0.5" stroke-linecap="round" stroke-linejoin="round" stroke-miterlimit="10" d="
	M253.035,269.409l-3.179-1.69"/>
<path fill="none" stroke="#FF0000" stroke-width="0.5" stroke-linecap="round" stroke-linejoin="round" stroke-miterlimit="10" d="
	M252.208,271.056l-3.253-1.54"/>
<path fill="none" stroke="#FF0000" stroke-width="0.5" stroke-linecap="round" stroke-linejoin="round" stroke-miterlimit="10" d="
	M251.458,272.739l-3.322-1.387"/>
<path fill="none" stroke="#FF0000" stroke-width="0.5" stroke-linecap="round" stroke-linejoin="round" stroke-miterlimit="10" d="
	M254.171,275.688l-6.766-2.463"/>
<path fill="none" stroke="#FF0000" stroke-width="0.5" stroke-linecap="round" stroke-linejoin="round" stroke-miterlimit="10" d="
	M250.198,276.202l-3.437-1.073"/>
<path fill="none" stroke="#FF0000" stroke-width="0.5" stroke-linecap="round" stroke-linejoin="round" stroke-miterlimit="10" d="
	M249.69,277.974l-3.483-0.912"/>
<path fill="none" stroke="#FF0000" stroke-width="0.5" stroke-linecap="round" stroke-linejoin="round" stroke-miterlimit="10" d="
	M249.265,279.767l-3.521-0.749"/>
<path fill="none" stroke="#FF0000" stroke-width="0.5" stroke-linecap="round" stroke-linejoin="round" stroke-miterlimit="10" d="
	M248.924,281.578l-3.552-0.583"/>
<path fill="none" stroke="#FF0000" stroke-width="0.5" stroke-linecap="round" stroke-linejoin="round" stroke-miterlimit="10" d="
	M250.456,283.612l-5.363-0.627"/>
<path fill="none" stroke="#FF0000" stroke-width="0.5" stroke-linecap="round" stroke-linejoin="round" stroke-miterlimit="10" d="
	M248.497,285.238l-3.591-0.251"/>
<path fill="none" stroke="#FF0000" stroke-width="0.5" stroke-linecap="round" stroke-linejoin="round" stroke-miterlimit="10" d="
	M248.411,287.079l-3.599-0.084"/>
<path fill="none" stroke="#FF0000" stroke-width="0.5" stroke-linecap="round" stroke-linejoin="round" stroke-miterlimit="10" d="
	M248.411,288.922l-3.599,0.084"/>
<path fill="none" stroke="#FF0000" stroke-width="0.5" stroke-linecap="round" stroke-linejoin="round" stroke-miterlimit="10" d="
	M248.497,290.762l-3.591,0.252"/>
<path fill="none" stroke="#FF0000" stroke-width="0.5" stroke-linecap="round" stroke-linejoin="round" stroke-miterlimit="10" d="
	M252.244,292.18l-7.151,0.836"/>
<path fill="none" stroke="#FF0000" stroke-width="0.5" stroke-linecap="round" stroke-linejoin="round" stroke-miterlimit="10" d="
	M248.924,294.422l-3.552,0.584"/>
<path fill="none" stroke="#FF0000" stroke-width="0.5" stroke-linecap="round" stroke-linejoin="round" stroke-miterlimit="10" d="
	M249.265,296.233l-3.521,0.749"/>
<path fill="none" stroke="#FF0000" stroke-width="0.5" stroke-linecap="round" stroke-linejoin="round" stroke-miterlimit="10" d="
	M249.69,298.026l-3.483,0.911"/>
<path fill="none" stroke="#FF0000" stroke-width="0.5" stroke-linecap="round" stroke-linejoin="round" stroke-miterlimit="10" d="
	M250.198,299.798l-3.437,1.073"/>
<path fill="none" stroke="#FF0000" stroke-width="0.5" stroke-linecap="round" stroke-linejoin="round" stroke-miterlimit="10" d="
	M252.479,300.928l-5.074,1.848"/>
<path fill="none" stroke="#FF0000" stroke-width="0.5" stroke-linecap="round" stroke-linejoin="round" stroke-miterlimit="10" d="
	M251.458,303.261l-3.322,1.388"/>
<path fill="none" stroke="#FF0000" stroke-width="0.5" stroke-linecap="round" stroke-linejoin="round" stroke-miterlimit="10" d="
	M252.208,304.944l-3.253,1.54"/>
<path fill="none" stroke="#FF0000" stroke-width="0.5" stroke-linecap="round" stroke-linejoin="round" stroke-miterlimit="10" d="
	M253.035,306.591l-3.179,1.69"/>
<path fill="none" stroke="#FF0000" stroke-width="0.5" stroke-linecap="round" stroke-linejoin="round" stroke-miterlimit="10" d="
	M253.938,308.197l-3.096,1.836"/>
<path fill="none" stroke="#FF0000" stroke-width="0.5" stroke-linecap="round" stroke-linejoin="round" stroke-miterlimit="10" d="
	M257.922,307.782l-6.016,3.956"/>
<path fill="none" stroke="#FF0000" stroke-width="0.5" stroke-linecap="round" stroke-linejoin="round" stroke-miterlimit="10" d="
	M255.963,311.276l-2.913,2.116"/>
<path fill="none" stroke="#FF0000" stroke-width="0.5" stroke-linecap="round" stroke-linejoin="round" stroke-miterlimit="10" d="
	M257.081,312.742l-2.811,2.248"/>
<path fill="none" stroke="#FF0000" stroke-width="0.5" stroke-linecap="round" stroke-linejoin="round" stroke-miterlimit="10" d="
	M258.265,314.153l-2.703,2.378"/>
<path fill="none" stroke="#FF0000" stroke-width="0.5" stroke-linecap="round" stroke-linejoin="round" stroke-miterlimit="10" d="
	M259.514,315.508l-2.59,2.502"/>
<path fill="none" stroke="#FF0000" stroke-width="0.5" stroke-linecap="round" stroke-linejoin="round" stroke-miterlimit="10" d="
	M262.06,315.494l-3.706,3.928"/>
<path fill="none" stroke="#FF0000" stroke-width="0.5" stroke-linecap="round" stroke-linejoin="round" stroke-miterlimit="10" d="
	M262.194,318.037l-2.346,2.73"/>
<path fill="none" stroke="#FF0000" stroke-width="0.5" stroke-linecap="round" stroke-linejoin="round" stroke-miterlimit="10" d="
	M263.62,319.205l-2.216,2.837"/>
<path fill="none" stroke="#FF0000" stroke-width="0.5" stroke-linecap="round" stroke-linejoin="round" stroke-miterlimit="10" d="
	M265.098,320.306l-2.082,2.937"/>
<path fill="none" stroke="#FF0000" stroke-width="0.5" stroke-linecap="round" stroke-linejoin="round" stroke-miterlimit="10" d="
	M266.626,321.336l-1.943,3.031"/>
<path fill="none" stroke="#FF0000" stroke-width="0.5" stroke-linecap="round" stroke-linejoin="round" stroke-miterlimit="10" d="
	M270,319.177l-3.6,6.235"/>
<path fill="none" stroke="#FF0000" stroke-width="0.5" stroke-linecap="round" stroke-linejoin="round" stroke-miterlimit="10" d="
	M269.817,323.179l-1.653,3.198"/>
<path fill="none" stroke="#FF0000" stroke-width="0.5" stroke-linecap="round" stroke-linejoin="round" stroke-miterlimit="10" d="
	M271.474,323.986l-1.502,3.271"/>
<path fill="none" stroke="#FF0000" stroke-width="0.5" stroke-linecap="round" stroke-linejoin="round" stroke-miterlimit="10" d="
	M273.166,324.717l-1.349,3.338"/>
<path fill="none" stroke="#FF0000" stroke-width="0.5" stroke-linecap="round" stroke-linejoin="round" stroke-miterlimit="10" d="
	M274.89,325.367l-1.191,3.396"/>
<path fill="none" stroke="#FF0000" stroke-width="0.5" stroke-linecap="round" stroke-linejoin="round" stroke-miterlimit="10" d="
	M277.159,324.212l-1.548,5.173"/>
<path fill="none" stroke="#FF0000" stroke-width="0.5" stroke-linecap="round" stroke-linejoin="round" stroke-miterlimit="10" d="
	M278.42,326.424l-0.871,3.493"/>
<path fill="none" stroke="#FF0000" stroke-width="0.5" stroke-linecap="round" stroke-linejoin="round" stroke-miterlimit="10" d="
	M280.218,326.828l-0.707,3.529"/>
<path fill="none" stroke="#FF0000" stroke-width="0.5" stroke-linecap="round" stroke-linejoin="round" stroke-miterlimit="10" d="
	M282.033,327.148l-0.542,3.559"/>
<path fill="none" stroke="#FF0000" stroke-width="0.5" stroke-linecap="round" stroke-linejoin="round" stroke-miterlimit="10" d="
	M283.861,327.383l-0.376,3.58"/>
<path fill="none" stroke="#FF0000" stroke-width="0.5" stroke-linecap="round" stroke-linejoin="round" stroke-miterlimit="10" d="
	M285.907,323.939l-0.418,7.188"/>
<path fill="none" stroke="#FF0000" stroke-width="0.5" stroke-linecap="round" stroke-linejoin="round" stroke-miterlimit="10" d="
	M287.539,327.598l-0.042,3.6"/>
<path fill="none" stroke="#FF0000" stroke-width="0.5" stroke-linecap="round" stroke-linejoin="round" stroke-miterlimit="10" d="
	M289.382,327.576l0.126,3.598"/>
<path fill="none" stroke="#FF0000" stroke-width="0.5" stroke-linecap="round" stroke-linejoin="round" stroke-miterlimit="10" d="
	M291.222,327.469l0.293,3.588"/>
<path fill="none" stroke="#FF0000" stroke-width="0.5" stroke-linecap="round" stroke-linejoin="round" stroke-miterlimit="10" d="
	M293.055,327.275l0.459,3.571"/>
<path fill="none" stroke="#FF0000" stroke-width="0.5" stroke-linecap="round" stroke-linejoin="round" stroke-miterlimit="10" d="
	M294.564,325.226l0.938,5.318"/>
<path fill="none" stroke="#FF0000" stroke-width="0.5" stroke-linecap="round" stroke-linejoin="round" stroke-miterlimit="10" d="
	M296.684,326.637l0.789,3.512"/>
<path fill="none" stroke="#FF0000" stroke-width="0.5" stroke-linecap="round" stroke-linejoin="round" stroke-miterlimit="10" d="
	M298.472,326.19l0.952,3.472"/>
<path fill="none" stroke="#FF0000" stroke-width="0.5" stroke-linecap="round" stroke-linejoin="round" stroke-miterlimit="10" d="
	M300.237,325.662l1.112,3.424"/>
<path fill="none" stroke="#FF0000" stroke-width="0.5" stroke-linecap="round" stroke-linejoin="round" stroke-miterlimit="10" d="
	M301.977,325.052l1.27,3.368"/>
<path fill="none" stroke="#FF0000" stroke-width="0.5" stroke-linecap="round" stroke-linejoin="round" stroke-miterlimit="10" d="
	M302.259,321.056l2.853,6.611"/>
<g transform="translate(32.07793473156273,4.5569840198975475) rotate(-81.91467503050816,0,0)">
	<g>
		
			<path fill="none" stroke="#FF0000" stroke-width="0.5" stroke-linecap="round" stroke-linejoin="round" stroke-miterlimit="10" d="
			M-245.687,324.923L-245.687,324.923c0.02-0.09,0.066-0.229,0.14-0.419l0,0l0,0c0.071-0.125,0.159-0.231,0.261-0.317l0,0l0,0
			c0.088-0.075,0.188-0.136,0.302-0.182l0,0l0,0c0.114-0.047,0.232-0.073,0.356-0.078l0,0l0,0c0.137-0.008,0.269,0.012,0.398,0.059
			l0,0l0,0c0.138,0.05,0.257,0.123,0.36,0.22l0,0l0,0c0.096,0.093,0.176,0.207,0.24,0.34l0,0l0,0
			c0.062,0.133,0.095,0.259,0.099,0.378l0,0l0,0c0.003,0.104-0.017,0.223-0.059,0.36l0,0l0,0c-0.028,0.092-0.047,0.145-0.054,0.159
			l0,0l0,0c-0.018,0.052-0.047,0.098-0.085,0.139l0,0l-1.853,2.05l2.133,0"/>
	</g>
</g>
<g transform="translate(32.36416213564781,1.5234858901547441) rotate(-87.30489167683606,0,0)">
	<g>
		
			<path fill="none" stroke="#FF0000" stroke-width="0.5" stroke-linecap="round" stroke-linejoin="round" stroke-miterlimit="10" d="
			M-274.712,303.132L-274.712,303.132c-0.141-0.093-0.27-0.248-0.384-0.467l0,0l0,0c-0.063-0.117-0.107-0.237-0.129-0.362l0,0l0,0
			c-0.006-0.024-0.024-0.153-0.054-0.389l0,0l0,0c-0.039-0.301-0.038-0.605,0-0.913l0,0l0,0c0.034-0.268,0.055-0.417,0.063-0.452
			l0,0l0,0c0.03-0.148,0.084-0.289,0.16-0.421l0,0l0,0c0.076-0.128,0.133-0.216,0.169-0.266l0,0l0,0
			c0.065-0.079,0.144-0.147,0.237-0.202l0,0l0,0c0.148-0.086,0.311-0.132,0.486-0.139l0,0l0,0c0.213-0.009,0.403,0.038,0.57,0.139
			l0,0l0,0c0.123,0.077,0.245,0.219,0.364,0.427l0,0l0,0c0.066,0.117,0.127,0.299,0.183,0.548l0,0l0,0
			c0.032,0.144,0.053,0.36,0.062,0.65l0,0l0,0c0.009,0.268,0.002,0.492-0.022,0.669l0,0l0,0c-0.028,0.24-0.061,0.413-0.097,0.521
			l0,0l0,0c-0.051,0.162-0.141,0.313-0.268,0.454l0,0l0,0c-0.118,0.134-0.233,0.229-0.343,0.284l0,0l0,0
			c-0.145,0.072-0.288,0.107-0.43,0.108l0,0l0,0C-274.33,303.32-274.519,303.256-274.712,303.132"/>
	</g>
</g>
<g transform="translate(32.36416213564781,-1.5234858901547441) rotate(-92.69510832316395,0,0)">
	<g>
		
			<path fill="none" stroke="#FF0000" stroke-width="0.5" stroke-linecap="round" stroke-linejoin="round" stroke-miterlimit="10" d="
			M-301.797,276.047L-301.797,276.047c-0.141-0.093-0.269-0.248-0.384-0.467l0,0l0,0c-0.062-0.116-0.106-0.238-0.129-0.363l0,0l0,0
			c-0.006-0.023-0.024-0.153-0.054-0.39l0,0l0,0c-0.039-0.3-0.039-0.605,0-0.913l0,0l0,0c0.034-0.266,0.055-0.417,0.062-0.451l0,0
			l0,0c0.03-0.149,0.084-0.289,0.161-0.422l0,0l0,0c0.075-0.127,0.132-0.216,0.169-0.266l0,0l0,0
			c0.064-0.079,0.143-0.146,0.236-0.202l0,0l0,0c0.149-0.086,0.311-0.132,0.486-0.139l0,0l0,0c0.213-0.009,0.403,0.038,0.569,0.14
			l0,0l0,0c0.123,0.076,0.245,0.219,0.365,0.427l0,0l0,0c0.066,0.117,0.127,0.299,0.183,0.547l0,0l0,0
			c0.032,0.143,0.052,0.36,0.062,0.65l0,0l0,0c0.009,0.268,0.002,0.492-0.022,0.669l0,0l0,0c-0.029,0.24-0.061,0.414-0.097,0.521
			l0,0l0,0c-0.052,0.161-0.141,0.312-0.268,0.454l0,0l0,0c-0.118,0.134-0.233,0.23-0.344,0.285l0,0l0,0
			c-0.145,0.071-0.288,0.107-0.43,0.107l0,0l0,0C-301.414,276.235-301.603,276.173-301.797,276.047"/>
	</g>
</g>
<g transform="translate(32.07793473156273,-4.5569840198975475) rotate(-98.08532496949182,0,0)">
	<g>
		
			<path fill="none" stroke="#FF0000" stroke-width="0.5" stroke-linecap="round" stroke-linejoin="round" stroke-miterlimit="10" d="
			M-326.093,243.031l0.524,0l0,3.585"/>
	</g>
</g>
<g transform="translate(30.71106020260511,-10.324281148436642) rotate(-108.58134169717484,0,0)">
	<g>
		
			<path fill="none" stroke="#FF0000" stroke-width="0.5" stroke-linecap="round" stroke-linejoin="round" stroke-miterlimit="10" d="
			M-365.815,180.495L-365.815,180.495c0.02-0.089,0.066-0.229,0.14-0.419l0,0l0,0c0.072-0.125,0.159-0.231,0.261-0.317l0,0l0,0
			c0.087-0.075,0.188-0.136,0.302-0.183l0,0l0,0c0.113-0.046,0.232-0.072,0.356-0.077l0,0l0,0c0.136-0.008,0.269,0.012,0.398,0.058
			l0,0l0,0c0.138,0.05,0.258,0.124,0.36,0.221l0,0l0,0c0.097,0.093,0.177,0.206,0.239,0.339l0,0l0,0
			c0.063,0.133,0.096,0.26,0.099,0.377l0,0l0,0c0.004,0.104-0.016,0.224-0.059,0.36l0,0l0,0c-0.029,0.091-0.046,0.144-0.054,0.158
			l0,0l0,0c-0.02,0.052-0.048,0.099-0.086,0.14l0,0l-1.853,2.049l2.132,0.001"/>
	</g>
</g>
<g transform="translate(29.605410879682374,-13.163572715839129) rotate(-113.97155834350272,0,0)">
	<g>
		
			<path fill="none" stroke="#FF0000" stroke-width="0.5" stroke-linecap="round" stroke-linejoin="round" stroke-miterlimit="10" d="
			M-380.742,148.058L-380.742,148.058c-0.141-0.093-0.27-0.249-0.384-0.468l0,0l0,0c-0.063-0.116-0.106-0.237-0.129-0.362l0,0l0,0
			c-0.005-0.024-0.023-0.154-0.053-0.389l0,0l0,0c-0.039-0.301-0.039-0.605,0-0.914l0,0l0,0c0.034-0.266,0.055-0.417,0.061-0.45l0,0
			l0,0c0.03-0.149,0.084-0.29,0.161-0.422l0,0l0,0c0.075-0.127,0.132-0.216,0.169-0.266l0,0l0,0
			c0.065-0.079,0.143-0.146,0.237-0.202l0,0l0,0c0.149-0.086,0.311-0.132,0.486-0.14l0,0l0,0c0.213-0.009,0.403,0.038,0.569,0.14
			l0,0l0,0c0.123,0.077,0.245,0.219,0.365,0.427l0,0l0,0c0.066,0.116,0.127,0.298,0.183,0.547l0,0l0,0
			c0.032,0.144,0.053,0.36,0.062,0.651l0,0l0,0c0.009,0.268,0.002,0.491-0.021,0.668l0,0l0,0c-0.029,0.24-0.061,0.414-0.097,0.521
			l0,0l0,0c-0.051,0.161-0.141,0.312-0.268,0.454l0,0l0,0c-0.118,0.134-0.233,0.23-0.344,0.285l0,0l0,0
			c-0.145,0.071-0.288,0.107-0.43,0.107l0,0l0,0C-380.36,148.246-380.549,148.184-380.742,148.058"/>
	</g>
</g>
<g transform="translate(28.237932442585535,-15.886446152868023) rotate(-119.3617749898306,0,0)">
	<g>
		
			<path fill="none" stroke="#FF0000" stroke-width="0.5" stroke-linecap="round" stroke-linejoin="round" stroke-miterlimit="10" d="
			M-392.666,108.192l0.523,0l0,3.586"/>
	</g>
</g>
<g transform="translate(26.620718817971863,-18.468820471661928) rotate(-124.7519916361585,0,0)">
	<g>
		
			<path fill="none" stroke="#FF0000" stroke-width="0.5" stroke-linecap="round" stroke-linejoin="round" stroke-miterlimit="10" d="
			M-401.246,70.863l0.524,0l0,3.585"/>
	</g>
</g>
<g transform="translate(22.810876900407827,-23.009213264134882) rotate(-135.2480083638415,0,0)">
	<g>
		
			<path fill="none" stroke="#FF0000" stroke-width="0.5" stroke-linecap="round" stroke-linejoin="round" stroke-miterlimit="10" d="
			M-408.346-2.484L-408.346-2.484c0.02-0.089,0.066-0.229,0.14-0.419l0,0l0,0c0.072-0.125,0.158-0.23,0.26-0.316l0,0l0,0
			c0.088-0.075,0.189-0.137,0.303-0.183l0,0l0,0c0.113-0.047,0.232-0.072,0.356-0.078l0,0l0,0c0.136-0.007,0.268,0.013,0.397,0.059
			l0,0l0,0c0.138,0.05,0.258,0.123,0.36,0.22l0,0l0,0c0.097,0.093,0.177,0.206,0.239,0.34l0,0l0,0
			c0.062,0.134,0.096,0.259,0.099,0.378l0,0l0,0c0.004,0.104-0.016,0.224-0.059,0.359l0,0l0,0c-0.029,0.092-0.047,0.144-0.054,0.158
			l0,0l0,0c-0.02,0.052-0.049,0.099-0.087,0.14l0,0l-1.852,2.049l2.132,0"/>
	</g>
</g>
<g transform="translate(20.548560848892265,-25.050282374443846) rotate(-140.63822501016938,0,0)">
	<g>
		
			<path fill="none" stroke="#FF0000" stroke-width="0.5" stroke-linecap="round" stroke-linejoin="round" stroke-miterlimit="10" d="
			M-405.896-38.107L-405.896-38.107c-0.141-0.094-0.27-0.249-0.384-0.468l0,0l0,0c-0.063-0.117-0.106-0.237-0.129-0.362l0,0l0,0
			c-0.005-0.023-0.023-0.153-0.054-0.389l0,0l0,0c-0.039-0.301-0.039-0.605,0-0.913l0,0l0,0c0.035-0.267,0.055-0.417,0.062-0.451
			l0,0l0,0c0.031-0.149,0.084-0.29,0.162-0.422l0,0l0,0c0.075-0.127,0.131-0.216,0.169-0.265l0,0l0,0
			c0.064-0.079,0.143-0.146,0.236-0.202l0,0l0,0c0.149-0.087,0.31-0.133,0.486-0.14l0,0l0,0c0.213-0.009,0.402,0.038,0.569,0.139
			l0,0l0,0c0.124,0.077,0.245,0.219,0.365,0.427l0,0l0,0c0.066,0.116,0.127,0.299,0.182,0.548l0,0l0,0
			c0.032,0.143,0.053,0.359,0.062,0.65l0,0l0,0c0.009,0.268,0.001,0.491-0.021,0.669l0,0l0,0c-0.029,0.24-0.061,0.414-0.097,0.521
			l0,0l0,0c-0.052,0.161-0.142,0.312-0.268,0.454l0,0l0,0c-0.118,0.134-0.233,0.229-0.344,0.285l0,0l0,0
			c-0.146,0.072-0.288,0.108-0.43,0.107l0,0l0,0C-405.514-37.919-405.703-37.982-405.896-38.107"/>
	</g>
</g>
<g transform="translate(18.1045141162359,-26.869807751731592) rotate(-146.02844165649728,0,0)">
	<g>
		
			<path fill="none" stroke="#FF0000" stroke-width="0.5" stroke-linecap="round" stroke-linejoin="round" stroke-miterlimit="10" d="
			M-400.829-78.635L-400.829-78.635c0.02-0.089,0.067-0.229,0.14-0.418l0,0l0,0c0.072-0.126,0.159-0.231,0.261-0.317l0,0l0,0
			c0.087-0.075,0.188-0.136,0.302-0.183l0,0l0,0c0.114-0.046,0.233-0.072,0.356-0.078l0,0l0,0c0.136-0.007,0.269,0.013,0.397,0.059
			l0,0l0,0c0.138,0.05,0.258,0.123,0.36,0.22l0,0l0,0c0.097,0.093,0.177,0.206,0.239,0.34l0,0l0,0
			c0.063,0.133,0.096,0.258,0.1,0.377l0,0l0,0c0.004,0.104-0.015,0.224-0.059,0.36l0,0l0,0c-0.029,0.091-0.047,0.144-0.054,0.158
			l0,0l0,0c-0.02,0.052-0.048,0.098-0.086,0.14l0,0l-1.853,2.049l2.132,0"/>
	</g>
</g>
<g transform="translate(15.500351757659953,-28.451697583603124) rotate(-151.41865830282518,0,0)">
	<g>
		
			<path fill="none" stroke="#FF0000" stroke-width="0.5" stroke-linecap="round" stroke-linejoin="round" stroke-miterlimit="10" d="
			M-391.135-116.722l0.525-0.001l-0.001,3.586"/>
	</g>
</g>
<g transform="translate(10.058028102602446,-30.799286853550026) rotate(-161.9146750305082,0,0)">
	<g>
		
			<path fill="none" stroke="#FF0000" stroke-width="0.5" stroke-linecap="round" stroke-linejoin="round" stroke-miterlimit="10" d="
			M-364.233-185.088L-364.233-185.088c0.02-0.089,0.066-0.229,0.14-0.419l0,0l0,0c0.072-0.125,0.159-0.231,0.26-0.317l0,0l0,0
			c0.089-0.075,0.189-0.136,0.302-0.182l0,0l0,0c0.114-0.047,0.233-0.073,0.357-0.078l0,0l0,0c0.135-0.007,0.269,0.013,0.397,0.059
			l0,0l0,0c0.138,0.05,0.258,0.123,0.36,0.221l0,0l0,0c0.097,0.093,0.176,0.206,0.239,0.339l0,0l0,0
			c0.063,0.133,0.096,0.259,0.1,0.377l0,0l0,0c0.003,0.104-0.016,0.224-0.059,0.36l0,0l0,0c-0.029,0.091-0.047,0.144-0.054,0.158
			l0,0l0,0c-0.019,0.052-0.048,0.098-0.086,0.14l0,0l-1.853,2.049l2.133,0"/>
	</g>
</g>
<g transform="translate(7.120318492801408,-31.607927242403452) rotate(-167.30489167683606,0,0)">
	<g>
		
			<path fill="none" stroke="#FF0000" stroke-width="0.5" stroke-linecap="round" stroke-linejoin="round" stroke-miterlimit="10" d="
			M-344.825-215.759L-344.825-215.759c-0.141-0.093-0.268-0.249-0.384-0.467l0,0l0,0c-0.062-0.117-0.106-0.237-0.129-0.363l0,0l0,0
			c-0.005-0.023-0.023-0.153-0.054-0.389l0,0l0,0c-0.039-0.301-0.039-0.605,0-0.913l0,0l0,0c0.034-0.267,0.055-0.417,0.062-0.452
			l0,0l0,0c0.031-0.149,0.084-0.289,0.161-0.422l0,0l0,0c0.075-0.127,0.132-0.215,0.168-0.266l0,0l0,0
			c0.064-0.079,0.143-0.146,0.237-0.202l0,0l0,0c0.149-0.086,0.31-0.133,0.486-0.14l0,0l0,0c0.213-0.009,0.402,0.038,0.569,0.14l0,0
			l0,0c0.124,0.077,0.246,0.219,0.365,0.427l0,0l0,0c0.066,0.116,0.126,0.299,0.183,0.548l0,0l0,0
			c0.032,0.143,0.053,0.359,0.062,0.65l0,0l0,0c0.008,0.269,0.001,0.492-0.022,0.669l0,0l0,0c-0.029,0.24-0.061,0.414-0.097,0.521
			l0,0l0,0c-0.052,0.161-0.142,0.312-0.269,0.454l0,0l0,0c-0.118,0.135-0.233,0.23-0.343,0.285l0,0l0,0
			c-0.145,0.072-0.288,0.108-0.43,0.108l0,0l0,0C-344.442-215.571-344.631-215.634-344.825-215.759"/>
	</g>
</g>
<g transform="translate(4.119637060343212,-32.137028339456755) rotate(-172.69510832316394,0,0)">
	<g>
		
			<path fill="none" stroke="#FF0000" stroke-width="0.5" stroke-linecap="round" stroke-linejoin="round" stroke-miterlimit="10" d="
			M-323.239-250.079L-323.239-250.079c0.152-0.24,0.276-0.4,0.371-0.481l0,0l0,0c0.148-0.127,0.339-0.191,0.571-0.19l0,0l0,0
			c0.237,0,0.443,0.078,0.621,0.234l0,0l0,0c0.183,0.161,0.274,0.359,0.275,0.593l0,0l0,0c-0.001,0.236-0.098,0.433-0.293,0.591l0,0
			l0,0c-0.17,0.139-0.38,0.225-0.632,0.258l0,0l0,0c0.776,0.125,1.163,0.439,1.163,0.94l0,0l0,0
			c0.001,0.381-0.122,0.674-0.368,0.879l0,0l0,0c-0.227,0.19-0.534,0.284-0.922,0.285l0,0l0,0c-0.22,0-0.412-0.084-0.577-0.252l0,0
			l0,0c-0.11-0.113-0.227-0.294-0.352-0.543l0,0"/>
	</g>
</g>
<g transform="translate(1.0825217163067535,-32.38191079497509) rotate(-178.08532496949186,0,0)">
	<g>
		
			<path fill="none" stroke="#FF0000" stroke-width="0.5" stroke-linecap="round" stroke-linejoin="round" stroke-miterlimit="10" d="
			M-297.911-279.816l0.524,0l0,3.585"/>
	</g>
</g>
<g transform="translate(-4.8345124808564215,-32.037282797897255) rotate(-188.58134169717485,0,0)">
	<g>
		
			<path fill="none" stroke="#FF0000" stroke-width="0.5" stroke-linecap="round" stroke-linejoin="round" stroke-miterlimit="10" d="
			M-242.859-328.47L-242.859-328.47c0.019-0.089,0.066-0.229,0.139-0.419l0,0l0,0c0.072-0.125,0.159-0.231,0.261-0.317l0,0l0,0
			c0.088-0.075,0.188-0.136,0.302-0.183l0,0l0,0c0.114-0.046,0.232-0.072,0.356-0.078l0,0l0,0c0.136-0.007,0.269,0.012,0.397,0.059
			l0,0l0,0c0.138,0.05,0.258,0.124,0.36,0.22l0,0l0,0c0.097,0.093,0.176,0.206,0.239,0.34l0,0l0,0
			c0.062,0.133,0.096,0.259,0.099,0.377l0,0l0,0c0.004,0.104-0.016,0.224-0.059,0.36l0,0l0,0c-0.029,0.091-0.047,0.144-0.054,0.158
			l0,0l0,0c-0.02,0.052-0.048,0.098-0.086,0.14l0,0l-1.853,2.049l2.132,0"/>
	</g>
</g>
<g transform="translate(-7.822662819560784,-31.441468579114765) rotate(-193.97155834350272,0,0)">
	<g>
		
			<path fill="none" stroke="#FF0000" stroke-width="0.5" stroke-linecap="round" stroke-linejoin="round" stroke-miterlimit="10" d="
			M-210.518-347.106L-210.518-347.106c-0.141-0.093-0.27-0.249-0.384-0.467l0,0l0,0c-0.063-0.116-0.106-0.237-0.129-0.363l0,0l0,0
			c-0.005-0.023-0.023-0.153-0.054-0.389l0,0l0,0c-0.039-0.301-0.04-0.605,0-0.913l0,0l0,0c0.034-0.267,0.054-0.417,0.062-0.451l0,0
			l0,0c0.03-0.148,0.084-0.289,0.161-0.422l0,0l0,0c0.075-0.127,0.131-0.215,0.169-0.266l0,0l0,0
			c0.065-0.078,0.144-0.146,0.237-0.201l0,0l0,0c0.148-0.086,0.31-0.133,0.486-0.14l0,0l0,0c0.213-0.009,0.403,0.038,0.569,0.14l0,0
			l0,0c0.124,0.077,0.245,0.22,0.365,0.427l0,0l0,0c0.066,0.117,0.127,0.299,0.183,0.548l0,0l0,0c0.032,0.143,0.053,0.36,0.062,0.65
			l0,0l0,0c0.009,0.268,0.002,0.492-0.022,0.669l0,0l0,0c-0.028,0.24-0.061,0.414-0.097,0.521l0,0l0,0
			c-0.052,0.161-0.141,0.313-0.268,0.454l0,0l0,0c-0.118,0.134-0.233,0.229-0.343,0.284l0,0l0,0
			c-0.145,0.072-0.288,0.107-0.43,0.107l0,0l0,0C-210.136-346.918-210.325-346.981-210.518-347.106"/>
	</g>
</g>
<g transform="translate(-10.741629829418528,-30.567587222542542) rotate(-199.36177498983062,0,0)">
	<g>
		
			<path fill="none" stroke="#FF0000" stroke-width="0.5" stroke-linecap="round" stroke-linejoin="round" stroke-miterlimit="10" d="
			M-175.526-365.207l0-3.693l-1.759,2.766l2.25,0"/>
	</g>
</g>
<g transform="translate(-13.565598278558681,-29.423367301258462) rotate(-204.7519916361585,0,0)">
	<g>
		
			<path fill="none" stroke="#FF0000" stroke-width="0.5" stroke-linecap="round" stroke-linejoin="round" stroke-miterlimit="10" d="
			M-141.408-383.723l0.524,0l0,3.585"/>
	</g>
</g>
<g transform="translate(-18.698584408490866,-26.4598363773955) rotate(-215.24800836384148,0,0)">
	<g>
		
			<path fill="none" stroke="#FF0000" stroke-width="0.5" stroke-linecap="round" stroke-linejoin="round" stroke-miterlimit="10" d="
			M-70.046-402.129L-70.046-402.129c0.02-0.09,0.066-0.229,0.14-0.419l0,0l0,0c0.072-0.125,0.158-0.231,0.26-0.317l0,0l0,0
			c0.088-0.075,0.189-0.136,0.302-0.182l0,0l0,0c0.114-0.047,0.232-0.073,0.356-0.078l0,0l0,0c0.136-0.007,0.269,0.012,0.398,0.059
			l0,0l0,0c0.138,0.05,0.258,0.124,0.36,0.22l0,0l0,0c0.097,0.093,0.177,0.206,0.239,0.34l0,0l0,0
			c0.063,0.133,0.096,0.259,0.099,0.377l0,0l0,0c0.004,0.104-0.016,0.224-0.059,0.36l0,0l0,0c-0.029,0.091-0.047,0.144-0.054,0.158
			l0,0l0,0c-0.019,0.052-0.048,0.099-0.086,0.14l0,0l-1.853,2.049l2.133,0"/>
	</g>
</g>
<g transform="translate(-21.10149215240919,-24.586317921596418) rotate(-220.6382250101694,0,0)">
	<g>
		
			<path fill="none" stroke="#FF0000" stroke-width="0.5" stroke-linecap="round" stroke-linejoin="round" stroke-miterlimit="10" d="
			M-31.55-404.206L-31.55-404.206c-0.141-0.093-0.27-0.249-0.384-0.467l0,0l0,0c-0.063-0.116-0.106-0.237-0.129-0.363l0,0l0,0
			c-0.006-0.023-0.023-0.153-0.054-0.389l0,0l0,0c-0.039-0.301-0.039-0.605,0-0.913l0,0l0,0c0.034-0.267,0.055-0.417,0.062-0.451
			l0,0l0,0c0.03-0.148,0.084-0.289,0.161-0.422l0,0l0,0c0.076-0.127,0.132-0.216,0.169-0.266l0,0l0,0
			c0.064-0.079,0.143-0.146,0.236-0.202l0,0l0,0c0.149-0.086,0.311-0.132,0.486-0.14l0,0l0,0c0.214-0.009,0.403,0.038,0.569,0.139
			l0,0l0,0c0.124,0.077,0.245,0.22,0.365,0.427l0,0l0,0c0.066,0.116,0.127,0.299,0.183,0.547l0,0l0,0
			c0.032,0.143,0.053,0.36,0.062,0.65l0,0l0,0c0.009,0.269,0.001,0.492-0.021,0.669l0,0l0,0c-0.029,0.24-0.061,0.414-0.097,0.521
			l0,0l0,0c-0.052,0.161-0.141,0.312-0.268,0.454l0,0l0,0c-0.118,0.134-0.233,0.229-0.344,0.285l0,0l0,0
			c-0.145,0.072-0.288,0.107-0.43,0.107l0,0l0,0C-31.167-404.018-31.356-404.08-31.55-404.206"/>
	</g>
</g>
<g transform="translate(-23.317779112023214,-22.495359016537027) rotate(-226.02844165649728,0,0)">
	<g>
		
			<path fill="none" stroke="#FF0000" stroke-width="0.5" stroke-linecap="round" stroke-linejoin="round" stroke-miterlimit="10" d="
			M8.321-408.851l-1.359,0l-0.325,1.523l0,0c0.109-0.032,0.292-0.067,0.548-0.102l0,0l0,0c0.217-0.009,0.392,0.011,0.527,0.059l0,0
			l0,0c0.168,0.061,0.303,0.143,0.406,0.245l0,0l0,0c0.132,0.132,0.22,0.302,0.263,0.508l0,0l0,0c0.036,0.166,0.029,0.35-0.02,0.551
			l0,0l0,0c-0.049,0.2-0.136,0.376-0.262,0.526l0,0l0,0c-0.141,0.167-0.304,0.281-0.489,0.344l0,0l0,0
			c-0.125,0.043-0.238,0.065-0.338,0.064l0,0l0,0c-0.085,0-0.181-0.014-0.29-0.043l0,0l0,0c-0.206-0.055-0.381-0.164-0.526-0.325
			l0,0l0,0c-0.041-0.047-0.079-0.102-0.113-0.167l0,0l0,0c-0.052-0.106-0.082-0.165-0.091-0.18l0,0"/>
	</g>
</g>
<g transform="translate(-25.327844530777014,-20.20545202228321) rotate(-231.41865830282518,0,0)">
	<g>
		
			<path fill="none" stroke="#FF0000" stroke-width="0.5" stroke-linecap="round" stroke-linejoin="round" stroke-miterlimit="10" d="
			M45.083-406.339l0.523,0l0,3.585"/>
	</g>
</g>
<g transform="translate(-28.58481822968335,-15.253464091017564) rotate(-241.91467503050814,0,0)">
	<g>
		
			<path fill="none" stroke="#FF0000" stroke-width="0.5" stroke-linecap="round" stroke-linejoin="round" stroke-miterlimit="10" d="
			M117.444-390.395L117.444-390.395c0.02-0.09,0.066-0.229,0.14-0.419l0,0l0,0c0.071-0.126,0.158-0.231,0.26-0.317l0,0l0,0
			c0.088-0.075,0.189-0.136,0.302-0.182l0,0l0,0c0.114-0.047,0.232-0.073,0.356-0.078l0,0l0,0c0.136-0.007,0.269,0.013,0.397,0.059
			l0,0l0,0c0.138,0.05,0.258,0.124,0.36,0.22l0,0l0,0c0.097,0.093,0.177,0.206,0.239,0.34l0,0l0,0
			c0.063,0.133,0.096,0.259,0.1,0.377l0,0l0,0c0.004,0.104-0.016,0.223-0.059,0.36l0,0l0,0c-0.029,0.091-0.047,0.144-0.054,0.158
			l0,0l0,0c-0.02,0.052-0.049,0.099-0.086,0.14l0,0l-1.853,2.049l2.132,0"/>
	</g>
</g>
<g transform="translate(-29.891301474281594,-12.500803821099304) rotate(-247.3048916768361,0,0)">
	<g>
		
			<path fill="none" stroke="#FF0000" stroke-width="0.5" stroke-linecap="round" stroke-linejoin="round" stroke-miterlimit="10" d="
			M154.009-374.91L154.009-374.91c-0.141-0.093-0.269-0.249-0.384-0.468l0,0l0,0c-0.063-0.116-0.106-0.237-0.129-0.363l0,0l0,0
			c-0.005-0.023-0.023-0.153-0.054-0.389l0,0l0,0c-0.039-0.301-0.039-0.605,0-0.913l0,0l0,0c0.034-0.267,0.054-0.417,0.062-0.451
			l0,0l0,0c0.03-0.149,0.084-0.289,0.161-0.421l0,0l0,0c0.075-0.127,0.132-0.216,0.169-0.266l0,0l0,0
			c0.064-0.079,0.143-0.146,0.236-0.202l0,0l0,0c0.148-0.086,0.311-0.132,0.486-0.139l0,0l0,0c0.213-0.009,0.403,0.038,0.569,0.139
			l0,0l0,0c0.123,0.077,0.245,0.22,0.365,0.427l0,0l0,0c0.066,0.116,0.127,0.299,0.182,0.548l0,0l0,0
			c0.032,0.143,0.053,0.36,0.062,0.65l0,0l0,0c0.009,0.268,0.002,0.491-0.022,0.668l0,0l0,0c-0.029,0.24-0.061,0.414-0.097,0.521
			l0,0l0,0c-0.052,0.161-0.142,0.313-0.268,0.454l0,0l0,0c-0.119,0.134-0.233,0.229-0.344,0.285l0,0l0,0
			c-0.145,0.072-0.288,0.107-0.43,0.107l0,0l0,0C154.391-374.723,154.202-374.785,154.009-374.91"/>
	</g>
</g>
<g transform="translate(-30.93342719929231,-9.637586923399581) rotate(-252.69510832316396,0,0)">
	<g>
		
			<path fill="none" stroke="#FF0000" stroke-width="0.5" stroke-linecap="round" stroke-linejoin="round" stroke-miterlimit="10" d="
			M189.84-362.295l-1.259,1.987l0,0c-0.041,0.065-0.077,0.127-0.108,0.188l0,0l0,0c-0.077,0.143-0.122,0.263-0.135,0.359l0,0l0,0
			c-0.028,0.203-0.009,0.385,0.059,0.548l0,0l0,0c0.073,0.175,0.189,0.318,0.346,0.427l0,0l0,0c0.153,0.105,0.328,0.166,0.526,0.182
			l0,0l0,0c0.201,0.016,0.383-0.018,0.548-0.102l0,0l0,0c0.195-0.097,0.343-0.236,0.443-0.416l0,0l0,0
			c0.081-0.145,0.115-0.317,0.105-0.516l0,0l0,0c-0.009-0.213-0.07-0.396-0.183-0.548l0,0l0,0c-0.118-0.163-0.28-0.278-0.486-0.347
			l0,0l0,0c-0.145-0.048-0.334-0.054-0.567-0.019l0,0l0,0c-0.227,0.032-0.443,0.17-0.647,0.414l0,0"/>
	</g>
</g>
<g transform="translate(-31.701978884919633,-6.689135577943506) rotate(-258.0853249694918,0,0)">
	<g>
		
			<path fill="none" stroke="#FF0000" stroke-width="0.5" stroke-linecap="round" stroke-linejoin="round" stroke-miterlimit="10" d="
			M221.886-342.854l0.524,0l0,3.585"/>
	</g>
</g>
<g transform="translate(-32.39006876702261,-0.8021504020732684) rotate(-268.5813416971748,0,0)">
	<g>
		
			<path fill="none" stroke="#FF0000" stroke-width="0.5" stroke-linecap="round" stroke-linejoin="round" stroke-miterlimit="10" d="
			M279.725-295.763L279.725-295.763c0.02-0.089,0.066-0.229,0.14-0.419l0,0l0,0c0.072-0.125,0.158-0.231,0.261-0.317l0,0l0,0
			c0.088-0.075,0.188-0.136,0.302-0.183l0,0l0,0c0.114-0.046,0.232-0.072,0.356-0.078l0,0l0,0c0.136-0.007,0.268,0.012,0.398,0.059
			l0,0l0,0c0.138,0.05,0.258,0.124,0.36,0.22l0,0l0,0c0.097,0.093,0.177,0.206,0.239,0.34l0,0l0,0
			c0.062,0.133,0.095,0.259,0.099,0.377l0,0l0,0c0.004,0.104-0.016,0.224-0.059,0.36l0,0l0,0c-0.029,0.091-0.047,0.144-0.054,0.159
			l0,0l0,0c-0.02,0.052-0.048,0.098-0.086,0.139l0,0l-1.853,2.049l2.132,0"/>
	</g>
</g>
<g transform="translate(-32.32219316592154,2.2440652719684753) rotate(-273.97155834350275,0,0)">
	<g>
		
			<path fill="none" stroke="#FF0000" stroke-width="0.5" stroke-linecap="round" stroke-linejoin="round" stroke-miterlimit="10" d="
			M306.682-265.453L306.682-265.453c-0.142-0.094-0.271-0.249-0.385-0.468l0,0l0,0c-0.062-0.116-0.105-0.237-0.129-0.362l0,0l0,0
			c-0.004-0.023-0.023-0.153-0.053-0.389l0,0l0,0c-0.04-0.301-0.039-0.605,0.001-0.913l0,0l0,0c0.034-0.266,0.054-0.417,0.061-0.451
			l0,0l0,0c0.031-0.149,0.085-0.289,0.161-0.421l0,0l0,0c0.075-0.127,0.132-0.216,0.169-0.266l0,0l0,0
			c0.065-0.079,0.143-0.146,0.236-0.201l0,0l0,0c0.149-0.086,0.311-0.132,0.486-0.139l0,0l0,0c0.213-0.009,0.403,0.038,0.569,0.14
			l0,0l0,0c0.124,0.077,0.245,0.219,0.366,0.427l0,0l0,0c0.066,0.117,0.127,0.299,0.183,0.548l0,0l0,0
			c0.031,0.143,0.052,0.359,0.061,0.65l0,0l0,0c0.009,0.268,0.002,0.492-0.021,0.669l0,0l0,0c-0.028,0.24-0.061,0.414-0.097,0.521
			l0,0l0,0c-0.052,0.161-0.141,0.312-0.268,0.454l0,0l0,0c-0.118,0.135-0.233,0.23-0.344,0.285l0,0l0,0
			c-0.145,0.072-0.288,0.107-0.429,0.107l0,0l0,0C307.065-265.265,306.875-265.328,306.682-265.453"/>
	</g>
</g>
<g transform="translate(-31.96846133268807,5.27043451912911) rotate(-279.3617749898306,0,0)">
	<g>
		
			<path fill="none" stroke="#FF0000" stroke-width="0.5" stroke-linecap="round" stroke-linejoin="round" stroke-miterlimit="10" d="
			M330.055-238.915l2.05,0l-1.889,3.585"/>
	</g>
</g>
<g transform="translate(-31.332001658038585,8.250192246285366) rotate(-284.7519916361585,0,0)">
	<g>
		
			<path fill="none" stroke="#FF0000" stroke-width="0.5" stroke-linecap="round" stroke-linejoin="round" stroke-miterlimit="10" d="
			M351.392-206.771l0.523,0l0,3.586"/>
	</g>
</g>
<g transform="translate(-29.30482711537926,13.819808527535123) rotate(-295.24800836384145,0,0)">
	<g>
		
			<path fill="none" stroke="#FF0000" stroke-width="0.5" stroke-linecap="round" stroke-linejoin="round" stroke-miterlimit="10" d="
			M382.274-138.366L382.274-138.366c0.02-0.09,0.066-0.23,0.139-0.419l0,0l0,0c0.072-0.125,0.159-0.231,0.261-0.317l0,0l0,0
			c0.088-0.075,0.188-0.136,0.302-0.183l0,0l0,0c0.114-0.047,0.232-0.073,0.355-0.078l0,0l0,0c0.137-0.007,0.269,0.013,0.398,0.059
			l0,0l0,0c0.138,0.051,0.259,0.124,0.36,0.221l0,0l0,0c0.096,0.093,0.177,0.207,0.239,0.34l0,0l0,0
			c0.062,0.133,0.096,0.259,0.099,0.377l0,0l0,0c0.005,0.105-0.015,0.224-0.059,0.36l0,0l0,0c-0.029,0.092-0.046,0.144-0.054,0.159
			l0,0l0,0c-0.019,0.052-0.048,0.099-0.085,0.14l0,0l-1.854,2.049l2.133,0"/>
	</g>
</g>
<g transform="translate(-27.877032165530043,16.51154376919382) rotate(-300.6382250101694,0,0)">
	<g>
		
			<path fill="none" stroke="#FF0000" stroke-width="0.5" stroke-linecap="round" stroke-linejoin="round" stroke-miterlimit="10" d="
			M393.992-99.119L393.992-99.119c-0.141-0.093-0.269-0.249-0.384-0.467l0,0l0,0c-0.063-0.116-0.105-0.237-0.128-0.362l0,0l0,0
			c-0.006-0.024-0.024-0.154-0.054-0.39l0,0l0,0c-0.04-0.301-0.04-0.605,0-0.913l0,0l0,0c0.034-0.267,0.055-0.417,0.063-0.451l0,0
			l0,0c0.029-0.149,0.083-0.29,0.161-0.422l0,0l0,0c0.074-0.127,0.13-0.216,0.169-0.266l0,0l0,0
			c0.065-0.079,0.143-0.146,0.235-0.202l0,0l0,0c0.149-0.086,0.312-0.132,0.487-0.14l0,0l0,0c0.213-0.009,0.402,0.037,0.569,0.139
			l0,0l0,0c0.124,0.078,0.246,0.22,0.366,0.427l0,0l0,0c0.066,0.116,0.127,0.299,0.183,0.548l0,0l0,0
			c0.032,0.143,0.052,0.36,0.062,0.65l0,0l0,0c0.009,0.269,0.002,0.491-0.022,0.669l0,0l0,0c-0.028,0.24-0.061,0.413-0.097,0.52l0,0
			l0,0c-0.052,0.161-0.141,0.313-0.269,0.454l0,0l0,0c-0.118,0.134-0.232,0.229-0.343,0.285l0,0l0,0
			c-0.145,0.072-0.288,0.107-0.429,0.108l0,0l0,0C394.374-98.931,394.185-98.993,393.992-99.119"/>
	</g>
</g>
<g transform="translate(-26.202693816321585,19.05725155336158) rotate(-306.0284416564973,0,0)">
	<g>
		
			<path fill="none" stroke="#FF0000" stroke-width="0.5" stroke-linecap="round" stroke-linejoin="round" stroke-miterlimit="10" d="
			M402.528-63.496L402.528-63.496c-0.1,0.008-0.198,0.016-0.297,0.023l0,0l0,0c-0.089,0.009-0.179,0.029-0.268,0.059l0,0l0,0
			c-0.195,0.066-0.351,0.154-0.468,0.263l0,0l0,0c-0.147,0.138-0.241,0.28-0.285,0.427l0,0l0,0
			c-0.025,0.086-0.037,0.166-0.037,0.239l0,0l0,0c0,0.086,0.019,0.189,0.057,0.309l0,0l0,0c0.065,0.197,0.179,0.358,0.343,0.486l0,0
			l0,0c0.165,0.127,0.376,0.203,0.632,0.226l0,0l0,0c0.2,0.017,0.384-0.003,0.552-0.063l0,0l0,0c0.168-0.06,0.302-0.141,0.402-0.243
			l0,0l0,0c0.133-0.134,0.221-0.289,0.266-0.467l0,0l0,0c0.043-0.175,0.043-0.338,0-0.486l0,0l0,0
			c-0.038-0.125-0.106-0.247-0.204-0.365l0,0l0,0c-0.07-0.084-0.178-0.172-0.325-0.263l0,0l0,0
			c-0.112-0.071-0.284-0.114-0.512-0.126l0,0l0,0c-0.221-0.011-0.389-0.057-0.503-0.137l0,0l0,0
			c-0.188-0.135-0.316-0.271-0.384-0.408l0,0l0,0c-0.077-0.152-0.116-0.281-0.116-0.387l0,0l0,0
			c0.001-0.045,0.006-0.091,0.014-0.139l0,0l0,0c0.032-0.165,0.127-0.314,0.284-0.446l0,0l0,0c0.118-0.1,0.266-0.169,0.446-0.204
			l0,0l0,0c0.179-0.036,0.348-0.029,0.508,0.02l0,0l0,0c0.159,0.049,0.287,0.124,0.383,0.224l0,0l0,0
			c0.119,0.119,0.195,0.254,0.226,0.406l0,0l0,0c0.028,0.134,0.022,0.269-0.022,0.405l0,0l0,0c-0.045,0.145-0.146,0.287-0.305,0.427
			l0,0l0,0C402.757-63.578,402.628-63.504,402.528-63.496"/>
	</g>
</g>
<g transform="translate(-24.29661985166147,21.434417738390973) rotate(-311.4186583028252,0,0)">
	<g>
		
			<path fill="none" stroke="#FF0000" stroke-width="0.5" stroke-linecap="round" stroke-linejoin="round" stroke-miterlimit="10" d="
			M406.048-27.041l0.524,0l0,3.585"/>
	</g>
</g>
<g transform="translate(-19.985431291652382,25.501814368523696) rotate(-321.91467503050814,0,0)">
	<g>
		
			<path fill="none" stroke="#FF0000" stroke-width="0.5" stroke-linecap="round" stroke-linejoin="round" stroke-miterlimit="10" d="
			M403.274,48.314L403.274,48.314c0.02-0.089,0.066-0.229,0.14-0.419l0,0l0,0c0.071-0.125,0.158-0.231,0.26-0.317l0,0l0,0
			c0.088-0.075,0.188-0.136,0.302-0.183l0,0l0,0c0.114-0.046,0.233-0.072,0.356-0.078l0,0l0,0c0.136-0.007,0.269,0.013,0.398,0.059
			l0,0l0,0c0.137,0.05,0.258,0.124,0.36,0.22l0,0l0,0c0.097,0.093,0.176,0.207,0.238,0.339l0,0l0,0
			c0.063,0.134,0.096,0.26,0.1,0.378l0,0l0,0c0.004,0.104-0.016,0.224-0.06,0.359l0,0l0,0c-0.028,0.092-0.046,0.144-0.053,0.158l0,0
			l0,0c-0.02,0.053-0.049,0.099-0.086,0.139l0,0l-1.853,2.05l2.132-0.001"/>
	</g>
</g>
<g transform="translate(-17.50145855100509,27.266443636592044) rotate(-327.304891676836,0,0)">
	<g>
		
			<path fill="none" stroke="#FF0000" stroke-width="0.5" stroke-linecap="round" stroke-linejoin="round" stroke-miterlimit="10" d="
			M397.364,88.708L397.364,88.708c-0.141-0.093-0.27-0.249-0.384-0.467l0,0l0,0c-0.063-0.116-0.106-0.237-0.129-0.363l0,0l0,0
			c-0.006-0.023-0.023-0.153-0.054-0.389l0,0l0,0c-0.039-0.301-0.04-0.606,0-0.913l0,0l0,0c0.034-0.267,0.055-0.417,0.062-0.452l0,0
			l0,0c0.031-0.148,0.085-0.289,0.161-0.421l0,0l0,0c0.075-0.127,0.131-0.216,0.169-0.266l0,0l0,0
			c0.064-0.079,0.143-0.145,0.237-0.201l0,0l0,0c0.148-0.086,0.311-0.132,0.486-0.14l0,0l0,0c0.213-0.009,0.403,0.038,0.57,0.14l0,0
			l0,0c0.123,0.076,0.245,0.219,0.365,0.427l0,0l0,0c0.066,0.116,0.127,0.299,0.182,0.547l0,0l0,0
			c0.033,0.144,0.053,0.36,0.062,0.651l0,0l0,0c0.009,0.269,0.002,0.492-0.021,0.669l0,0l0,0c-0.029,0.239-0.061,0.413-0.097,0.521
			l0,0l0,0c-0.052,0.161-0.141,0.312-0.268,0.454l0,0l0,0c-0.118,0.134-0.233,0.228-0.344,0.284l0,0l0,0
			c-0.145,0.072-0.288,0.108-0.429,0.108l0,0l0,0C397.746,88.897,397.557,88.834,397.364,88.708"/>
	</g>
</g>
<g transform="translate(-14.86270358464277,28.789929526746796) rotate(-332.69510832316394,0,0)">
	<g>
		
			<path fill="none" stroke="#FF0000" stroke-width="0.5" stroke-linecap="round" stroke-linejoin="round" stroke-miterlimit="10" d="
			M387.512,125.786L387.512,125.786c0.279-0.41,0.52-0.766,0.723-1.069l0,0l0,0c0.485-0.728,0.737-1.134,0.757-1.214l0,0l0,0
			c0.036-0.135,0.044-0.286,0.022-0.456l0,0l0,0c-0.021-0.177-0.069-0.326-0.142-0.446l0,0l0,0
			c-0.075-0.126-0.176-0.235-0.303-0.325l0,0l0,0c-0.14-0.098-0.288-0.159-0.446-0.183l0,0l0,0c-0.166-0.024-0.335-0.005-0.507,0.06
			l0,0l0,0c-0.183,0.07-0.331,0.177-0.444,0.322l0,0l0,0c-0.114,0.146-0.182,0.323-0.205,0.532l0,0l0,0
			c-0.025,0.225,0.009,0.427,0.102,0.607l0,0l0,0c0.08,0.157,0.188,0.279,0.325,0.365l0,0l0,0c0.129,0.084,0.298,0.131,0.507,0.142
			l0,0l0,0c0.174,0.011,0.335-0.01,0.484-0.064l0,0l0,0c0.164-0.06,0.307-0.155,0.427-0.287l0,0l0,0
			c0.133-0.149,0.201-0.264,0.204-0.346l0,0"/>
	</g>
</g>
<g transform="translate(-12.09250343991037,30.05879838842125) rotate(-338.0853249694918,0,0)">
	<g>
		
			<path fill="none" stroke="#FF0000" stroke-width="0.5" stroke-linecap="round" stroke-linejoin="round" stroke-miterlimit="10" d="
			M374.228,158.102l0.524,0l0,3.585"/>
	</g>
</g>
<g transform="translate(-6.414440350943658,31.758698886827617) rotate(-348.5813416971749,0,0)">
	<g>
		
			<path fill="none" stroke="#FF0000" stroke-width="0.5" stroke-linecap="round" stroke-linejoin="round" stroke-miterlimit="10" d="
			M338.26,224.561L338.26,224.561c0.02-0.09,0.066-0.23,0.139-0.42l0,0l0,0c0.072-0.124,0.159-0.23,0.261-0.316l0,0l0,0
			c0.087-0.075,0.188-0.137,0.302-0.182l0,0l0,0c0.114-0.047,0.232-0.073,0.356-0.078l0,0l0,0c0.136-0.008,0.268,0.012,0.397,0.058
			l0,0l0,0c0.138,0.051,0.258,0.124,0.36,0.22l0,0l0,0c0.097,0.093,0.177,0.206,0.239,0.339l0,0l0,0
			c0.063,0.134,0.096,0.259,0.1,0.378l0,0l0,0c0.003,0.103-0.016,0.223-0.059,0.36l0,0l0,0c-0.029,0.09-0.046,0.144-0.054,0.158l0,0
			l0,0c-0.019,0.052-0.048,0.098-0.086,0.14l0,0l-1.853,2.048l2.132,0.001"/>
	</g>
</g>
<g transform="translate(-3.4027170633607913,32.220824269200705) rotate(-353.97155834350275,0,0)">
	<g>
		
			<path fill="none" stroke="#FF0000" stroke-width="0.5" stroke-linecap="round" stroke-linejoin="round" stroke-miterlimit="10" d="
			M316.204,254.562l0.524,0.001l-0.001,3.584"/>
	</g>
</g>
<g transform="translate(-0.3609002770554902,32.397989922061846) rotate(-359.3617749898306,0,0)">
	<g>
		
			<path fill="none" stroke="#FF0000" stroke-width="0.5" stroke-linecap="round" stroke-linejoin="round" stroke-miterlimit="10" d="
			M290.617,286.683L290.617,286.683c-0.141-0.093-0.269-0.249-0.384-0.467l0,0l0,0c-0.062-0.117-0.106-0.237-0.129-0.363l0,0l0,0
			c-0.006-0.022-0.023-0.153-0.054-0.389l0,0l0,0c-0.039-0.3-0.039-0.605,0-0.913l0,0l0,0c0.034-0.267,0.055-0.418,0.062-0.451l0,0
			l0,0c0.031-0.149,0.084-0.29,0.161-0.422l0,0l0,0c0.075-0.128,0.131-0.216,0.169-0.266l0,0l0,0
			c0.065-0.079,0.143-0.146,0.237-0.202l0,0l0,0c0.148-0.086,0.311-0.132,0.486-0.14l0,0l0,0c0.213-0.008,0.403,0.038,0.569,0.14
			l0,0l0,0c0.124,0.077,0.246,0.22,0.365,0.428l0,0l0,0c0.066,0.116,0.127,0.298,0.183,0.547l0,0l0,0
			c0.032,0.144,0.053,0.361,0.062,0.65l0,0l0,0c0.009,0.269,0.002,0.492-0.022,0.669l0,0l0,0c-0.029,0.24-0.061,0.414-0.097,0.522
			l0,0l0,0c-0.052,0.161-0.141,0.312-0.268,0.453l0,0l0,0c-0.118,0.134-0.233,0.229-0.344,0.284l0,0l0,0
			c-0.145,0.072-0.288,0.109-0.43,0.108l0,0l0,0C290.999,286.871,290.81,286.808,290.617,286.683"/>
	</g>
</g>
<g transform="translate(2.6841082974074104,32.28862899919705) rotate(-364.75199163615855,0,0)">
	<g>
		
			<path fill="none" stroke="#FF0000" stroke-width="0.5" stroke-linecap="round" stroke-linejoin="round" stroke-miterlimit="10" d="
			M262.701,309.27l0.523,0l0,3.585"/>
	</g>
</g>
<path fill="none" stroke="#000000" stroke-width="0.5" stroke-linecap="round" stroke-linejoin="round" stroke-miterlimit="10" d="
	M290.34,291.844c-2.123,1.293-4.891,0.619-6.184-1.504c-1.292-2.123-0.619-4.891,1.504-6.184c1.437-0.875,3.242-0.875,4.68,0"/>
<path fill="none" stroke="#000000" stroke-width="0.5" stroke-linecap="round" stroke-linejoin="round" stroke-miterlimit="10" d="
	M290.34,291.844v-7.688"/>
</svg>
