<?xml version="1.0" encoding="utf-8"?>
<!-- Generator: Adobe Illustrator 22.0.1, SVG Export Plug-In . SVG Version: 6.00 Build 0)  -->
<svg version="1.1" id="Layer_1" xmlns="http://www.w3.org/2000/svg" xmlns:xlink="http://www.w3.org/1999/xlink" x="0px" y="0px"
	 viewBox="0 0 576 576" style="enable-background:new 0 0 576 576;" xml:space="preserve">
<style type="text/css">
	.st0{fill:none;stroke:#000000;stroke-linecap:round;stroke-miterlimit:10;}
	.st1{fill:none;stroke:#FF0000;stroke-linecap:round;stroke-miterlimit:10;}
</style>
<path class="st0" d="M194.4,288c0-51.7,41.9-93.6,93.6-93.6s93.6,41.9,93.6,93.6s-41.9,93.6-93.6,93.6S194.4,339.7,194.4,288z"/>
<g transform="translate(288,288)">
	<g transform="rotate(-46.66666666666667,0,0)">
		<path class="st1" d="M77.2,38.8l9.7,4.8"/>
		<path class="st1" d="M82.2,36.6l6.6,2.9"/>
		<path class="st1" d="M83.8,32.7l6.7,2.6"/>
		<path class="st1" d="M85.3,28.8l6.8,2.3"/>
		<path class="st1" d="M86.5,24.8l6.9,2"/>
		<path class="st1" d="M85.8,20.3l8.8,2.1"/>
		<path class="st1" d="M88.4,16.7l7.1,1.3"/>
		<path class="st1" d="M89.1,12.5l7.1,1"/>
		<path class="st1" d="M89.6,8.4L96.8,9"/>
		<path class="st1" d="M89.9,4.2l7.2,0.3"/>
		<path class="st1" d="M86.4,0l10.8,0"/>
		<path class="st1" d="M89.9-4.2l7.2-0.3"/>
		<path class="st1" d="M89.6-8.4L96.8-9"/>
		<path class="st1" d="M89.1-12.5l7.1-1"/>
		<path class="st1" d="M88.4-16.7l7.1-1.3"/>
		<path class="st1" d="M85.8-20.3l8.8-2.1"/>
		<path class="st1" d="M86.5-24.8l6.9-2"/>
		<path class="st1" d="M85.3-28.8l6.8-2.3"/>
		<path class="st1" d="M83.8-32.7l6.7-2.6"/>
		<path class="st1" d="M82.2-36.6l6.6-2.9"/>
		<path class="st1" d="M77.2-38.8l9.7-4.8"/>
		<path class="st1" d="M78.5-44.1l6.3-3.5"/>
		<path class="st1" d="M76.3-47.7l6.1-3.8"/>
		<path class="st1" d="M74-51.2l5.9-4.1"/>
		<path class="st1" d="M71.6-54.6l5.7-4.4"/>
		<path class="st1" d="M67.6-56.7l6.9-5.8"/>
		<path class="st1" d="M66.2-61l5.3-4.9"/>
		<path class="st1" d="M63.3-64l5.1-5.1"/>
		<path class="st1" d="M60.2-66.9l4.8-5.4"/>
		<path class="st1" d="M57-69.6l4.6-5.6"/>
		<path class="st1" d="M51.6-69.3L58-78"/>
		<path class="st1" d="M50.3-74.6l4-6"/>
		<path class="st1" d="M46.8-76.9l3.7-6.1"/>
		<path class="st1" d="M43.2-79l3.5-6.3"/>
		<path class="st1" d="M39.5-80.9l3.2-6.5"/>
		<path class="st1" d="M34.9-81l3.6-8.3"/>
		<path class="st1" d="M31.8-84.2l2.5-6.7"/>
		<path class="st1" d="M27.8-85.6l2.2-6.8"/>
		<path class="st1" d="M23.8-86.8l1.9-6.9"/>
		<path class="st1" d="M19.7-87.8l1.6-7"/>
		<path class="st1" d="M15-85.1l1.9-10.6"/>
		<path class="st1" d="M11.5-89.3l0.9-7.1"/>
		<path class="st1" d="M7.3-89.7l0.6-7.2"/>
		<path class="st1" d="M3.1-89.9l0.3-7.2"/>
		<path class="st1" d="M-1-90l-0.1-7.2"/>
		<path class="st1" d="M-5.1-88.1l-0.5-9"/>
		<path class="st1" d="M-9.4-89.5l-0.8-7.2"/>
		<path class="st1" d="M-13.6-89l-1.1-7.1"/>
		<path class="st1" d="M-17.7-88.2l-1.4-7.1"/>
		<path class="st1" d="M-21.8-87.3l-1.7-7"/>
		<path class="st1" d="M-24.8-82.8l-3.1-10.3"/>
		<path class="st1" d="M-29.8-84.9l-2.4-6.8"/>
		<path class="st1" d="M-33.7-83.4l-2.7-6.7"/>
		<path class="st1" d="M-37.6-81.8l-3-6.5"/>
		<path class="st1" d="M-41.3-80l-3.3-6.4"/>
		<path class="st1" d="M-44.1-76.4l-4.5-7.8"/>
		<path class="st1" d="M-48.6-75.8l-3.9-6.1"/>
		<path class="st1" d="M-52-73.4l-4.2-5.9"/>
		<path class="st1" d="M-55.4-70.9l-4.4-5.7"/>
		<path class="st1" d="M-58.6-68.3l-4.7-5.5"/>
		<path class="st1" d="M-59.3-62.8l-7.4-7.9"/>
		<path class="st1" d="M-64.7-62.5l-5.2-5"/>
		<path class="st1" d="M-67.6-59.4l-5.4-4.8"/>
		<path class="st1" d="M-70.3-56.2l-5.6-4.5"/>
		<path class="st1" d="M-72.8-52.9l-5.8-4.2"/>
		<path class="st1" d="M-73.7-48.5l-7.5-4.9"/>
		<path class="st1" d="M-77.4-45.9l-6.2-3.7"/>
		<path class="st1" d="M-79.5-42.3l-6.4-3.4"/>
		<path class="st1" d="M-81.3-38.5l-6.5-3.1"/>
		<path class="st1" d="M-83-34.7l-6.6-2.8"/>
		<path class="st1" d="M-81.2-29.6l-10.1-3.7"/>
		<path class="st1" d="M-85.9-26.8l-6.9-2.1"/>
		<path class="st1" d="M-87.1-22.8l-7-1.8"/>
		<path class="st1" d="M-88-18.7l-7-1.5"/>
		<path class="st1" d="M-88.8-14.6l-7.1-1.2"/>
		<path class="st1" d="M-87.6-10.2l-8.9-1"/>
		<path class="st1" d="M-89.8-6.3L-97-6.8"/>
		<path class="st1" d="M-90-2.1l-7.2-0.2"/>
		<path class="st1" d="M-90,2.1l-7.2,0.2"/>
		<path class="st1" d="M-89.8,6.3L-97,6.8"/>
		<path class="st1" d="M-85.8,10l-10.7,1.3"/>
		<path class="st1" d="M-88.8,14.6l-7.1,1.2"/>
		<path class="st1" d="M-88,18.7l-7,1.5"/>
		<path class="st1" d="M-87.1,22.8l-7,1.8"/>
		<path class="st1" d="M-85.9,26.8l-6.9,2.1"/>
		<path class="st1" d="M-82.9,30.2l-8.5,3.1"/>
		<path class="st1" d="M-83,34.7l-6.6,2.8"/>
		<path class="st1" d="M-81.3,38.5l-6.5,3.1"/>
		<path class="st1" d="M-79.5,42.3l-6.4,3.4"/>
		<path class="st1" d="M-77.4,45.9l-6.2,3.7"/>
		<path class="st1" d="M-72.2,47.5l-9,5.9"/>
		<path class="st1" d="M-72.8,52.9l-5.8,4.2"/>
		<path class="st1" d="M-70.3,56.2l-5.6,4.5"/>
		<path class="st1" d="M-67.6,59.4l-5.4,4.8"/>
		<path class="st1" d="M-64.7,62.5l-5.2,5"/>
		<path class="st1" d="M-60.5,64.2l-6.2,6.5"/>
		<path class="st1" d="M-58.6,68.3l-4.7,5.5"/>
		<path class="st1" d="M-55.4,70.9l-4.4,5.7"/>
		<path class="st1" d="M-52,73.4l-4.2,5.9"/>
		<path class="st1" d="M-48.6,75.8l-3.9,6.1"/>
		<path class="st1" d="M-43.2,74.8l-5.4,9.4"/>
		<path class="st1" d="M-41.3,80l-3.3,6.4"/>
		<path class="st1" d="M-37.6,81.8l-3,6.5"/>
		<path class="st1" d="M-33.7,83.4l-2.7,6.7"/>
		<path class="st1" d="M-29.8,84.9l-2.4,6.8"/>
		<path class="st1" d="M-25.3,84.5l-2.6,8.6"/>
		<path class="st1" d="M-21.8,87.3l-1.7,7"/>
		<path class="st1" d="M-17.7,88.2l-1.4,7.1"/>
		<path class="st1" d="M-13.6,89l-1.1,7.1"/>
		<path class="st1" d="M-9.4,89.5l-0.8,7.2"/>
		<path class="st1" d="M-5,86.3L-5.7,97"/>
		<path class="st1" d="M-1,90l-0.1,7.2"/>
		<path class="st1" d="M3.1,89.9l0.3,7.2"/>
		<path class="st1" d="M7.3,89.7l0.6,7.2"/>
		<path class="st1" d="M11.5,89.3l0.9,7.1"/>
		<path class="st1" d="M15.3,86.9l1.6,8.9"/>
		<path class="st1" d="M19.7,87.8l1.6,7"/>
		<path class="st1" d="M23.8,86.8l1.9,6.9"/>
		<path class="st1" d="M27.8,85.6l2.2,6.8"/>
		<path class="st1" d="M31.8,84.2l2.5,6.7"/>
		<path class="st1" d="M34.2,79.3l4.3,9.9"/>
		<g transform="translate(79.29859802512418,9.946796029363922) rotate(-82.85046154079376,0,0)">
			<g>
				<path class="st1" d="M-1.5-1L-1.5-1c0-0.1,0.1-0.3,0.2-0.6l0,0l0,0C-1.2-1.8-1.1-2-1-2.1l0,0l0,0c0.1-0.1,0.3-0.2,0.4-0.3l0,0
					l0,0C-0.4-2.5-0.2-2.5,0-2.5l0,0l0,0c0.2,0,0.4,0,0.6,0.1l0,0l0,0C0.8-2.3,1-2.2,1.1-2.1l0,0l0,0C1.2-2,1.4-1.8,1.5-1.6l0,0l0,0
					C1.5-1.4,1.6-1.2,1.6-1l0,0l0,0c0,0.2,0,0.3-0.1,0.5l0,0l0,0c0,0.1-0.1,0.2-0.1,0.2l0,0l0,0c0,0.1-0.1,0.1-0.1,0.2l0,0l-2.7,3
					l3.1,0"/>
			</g>
		</g>
		<g transform="translate(79.64362214644372,6.640771897490269) rotate(-85.23364102719583,0,0)">
			<g>
				<path class="st1" d="M0,0"/>
			</g>
		</g>
		<g transform="translate(79.85087564311296,3.3232603009857984) rotate(-87.61682051359792,0,0)">
			<g>
				<path class="st1" d="M-0.8,2.8L-0.8,2.8C-1,2.6-1.2,2.4-1.4,2.1l0,0l0,0c-0.1-0.2-0.2-0.3-0.2-0.5l0,0l0,0c0,0,0-0.2-0.1-0.6
					l0,0l0,0c-0.1-0.4-0.1-0.9,0-1.3l0,0l0,0c0-0.4,0.1-0.6,0.1-0.7l0,0l0,0c0-0.2,0.1-0.4,0.2-0.6l0,0l0,0C-1.2-1.8-1.1-1.9-1.1-2
					l0,0l0,0C-1-2.1-0.9-2.2-0.7-2.3l0,0l0,0C-0.5-2.4-0.3-2.5,0-2.5l0,0l0,0c0.3,0,0.6,0.1,0.8,0.2l0,0l0,0C1-2.2,1.1-2,1.3-1.7
					l0,0l0,0c0.1,0.2,0.2,0.4,0.3,0.8l0,0l0,0c0,0.2,0.1,0.5,0.1,0.9l0,0l0,0c0,0.4,0,0.7,0,1l0,0l0,0c0,0.3-0.1,0.6-0.1,0.8l0,0
					l0,0C1.4,2.1,1.3,2.3,1.1,2.5l0,0l0,0C0.9,2.7,0.8,2.8,0.6,2.9l0,0l0,0C0.4,3,0.2,3,0,3l0,0l0,0C-0.3,3-0.6,3-0.8,2.8"/>
			</g>
		</g>
		<g transform="translate(79.91999999999999,0) rotate(-90,0,0)">
			<g>
				<path class="st1" d="M0,0"/>
			</g>
		</g>
		<g transform="translate(79.85087564311296,-3.3232603009857984) rotate(-92.38317948640208,0,0)">
			<g>
				<path class="st1" d="M-0.8,2.8L-0.8,2.8C-1,2.6-1.2,2.4-1.4,2.1l0,0l0,0c-0.1-0.2-0.2-0.3-0.2-0.5l0,0l0,0c0,0,0-0.2-0.1-0.6
					l0,0l0,0c-0.1-0.4-0.1-0.9,0-1.3l0,0l0,0c0-0.4,0.1-0.6,0.1-0.7l0,0l0,0c0-0.2,0.1-0.4,0.2-0.6l0,0l0,0C-1.2-1.8-1.1-1.9-1.1-2
					l0,0l0,0C-1-2.1-0.9-2.2-0.7-2.3l0,0l0,0C-0.5-2.4-0.3-2.5,0-2.5l0,0l0,0c0.3,0,0.6,0.1,0.8,0.2l0,0l0,0C1-2.2,1.1-2,1.3-1.7
					l0,0l0,0c0.1,0.2,0.2,0.4,0.3,0.8l0,0l0,0c0,0.2,0.1,0.5,0.1,0.9l0,0l0,0c0,0.4,0,0.7,0,1l0,0l0,0c0,0.3-0.1,0.6-0.1,0.8l0,0
					l0,0C1.4,2.1,1.3,2.3,1.1,2.5l0,0l0,0C0.9,2.7,0.8,2.8,0.6,2.9l0,0l0,0C0.4,3,0.2,3,0,3l0,0l0,0C-0.3,3-0.6,3-0.8,2.8"/>
			</g>
		</g>
		<g transform="translate(79.64362214644372,-6.640771897490269) rotate(-94.76635897280416,0,0)">
			<g>
				<path class="st1" d="M0,0"/>
			</g>
		</g>
		<g transform="translate(79.29859802512418,-9.946796029363922) rotate(-97.14953845920624,0,0)">
			<g>
				<path class="st1" d="M-0.7-2.3l0.8,0l0,5.2"/>
			</g>
		</g>
		<g transform="translate(75.32792943073639,-26.70036418624281) rotate(-109.51712820746044,0,0)">
			<g>
				<path class="st1" d="M-1.5-1L-1.5-1c0-0.1,0.1-0.3,0.2-0.6l0,0l0,0C-1.2-1.8-1.1-2-1-2.1l0,0l0,0c0.1-0.1,0.3-0.2,0.4-0.3l0,0
					l0,0C-0.4-2.5-0.2-2.5,0-2.5l0,0l0,0c0.2,0,0.4,0,0.6,0.1l0,0l0,0C0.8-2.3,1-2.2,1.1-2.1l0,0l0,0C1.2-2,1.4-1.8,1.5-1.6l0,0l0,0
					C1.5-1.4,1.6-1.2,1.6-1l0,0l0,0c0,0.2,0,0.3-0.1,0.5l0,0l0,0c0,0.1-0.1,0.2-0.1,0.2l0,0l0,0c0,0.1-0.1,0.1-0.1,0.2l0,0l-2.7,3
					l3.1,0"/>
			</g>
		</g>
		<g transform="translate(74.15251332713859,-29.809581802979572) rotate(-111.9003076938625,0,0)">
			<g>
				<path class="st1" d="M0,0"/>
			</g>
		</g>
		<g transform="translate(72.84882533176665,-32.867233649666225) rotate(-114.28348718026459,0,0)">
			<g>
				<path class="st1" d="M-0.8,2.8L-0.8,2.8C-1,2.6-1.2,2.4-1.4,2.1l0,0l0,0c-0.1-0.2-0.2-0.3-0.2-0.5l0,0l0,0c0,0,0-0.2-0.1-0.6
					l0,0l0,0c-0.1-0.4-0.1-0.9,0-1.3l0,0l0,0c0-0.4,0.1-0.6,0.1-0.7l0,0l0,0c0-0.2,0.1-0.4,0.2-0.6l0,0l0,0C-1.2-1.8-1.1-1.9-1.1-2
					l0,0l0,0C-1-2.1-0.9-2.2-0.7-2.3l0,0l0,0C-0.5-2.4-0.3-2.5,0-2.5l0,0l0,0c0.3,0,0.6,0.1,0.8,0.2l0,0l0,0C1-2.2,1.1-2,1.3-1.7
					l0,0l0,0c0.1,0.2,0.2,0.4,0.3,0.8l0,0l0,0c0,0.2,0.1,0.5,0.1,0.9l0,0l0,0c0,0.4,0,0.7,0,1l0,0l0,0c0,0.3-0.1,0.6-0.1,0.8l0,0
					l0,0C1.4,2.1,1.3,2.3,1.1,2.5l0,0l0,0C0.9,2.7,0.8,2.8,0.6,2.9l0,0l0,0C0.4,3,0.2,3,0,3l0,0l0,0C-0.3,3-0.6,3-0.8,2.8"/>
			</g>
		</g>
		<g transform="translate(71.4191206146471,-35.86803048162093) rotate(-116.66666666666667,0,0)">
			<g>
				<path class="st1" d="M0,0"/>
			</g>
		</g>
		<g transform="translate(69.86587233441631,-38.80678140417006) rotate(-119.04984615306874,0,0)">
			<g>
				<path class="st1" d="M-0.7-2.3l0.8,0l0,5.2"/>
			</g>
		</g>
		<g transform="translate(68.1917673601548,-41.67840285205906) rotate(-121.43302563947083,0,0)">
			<g>
				<path class="st1" d="M0,0"/>
			</g>
		</g>
		<g transform="translate(66.39970162353691,-44.47792738320063) rotate(-123.81620512587291,0,0)">
			<g>
				<path class="st1" d="M-0.7-2.3l0.8,0l0,5.2"/>
			</g>
		</g>
		<g transform="translate(55.33239490944508,-57.667429920061586) rotate(-136.1837948741271,0,0)">
			<g>
				<path class="st1" d="M-1.5-1L-1.5-1c0-0.1,0.1-0.3,0.2-0.6l0,0l0,0C-1.2-1.8-1.1-2-1-2.1l0,0l0,0c0.1-0.1,0.3-0.2,0.4-0.3l0,0
					l0,0C-0.4-2.5-0.2-2.5,0-2.5l0,0l0,0c0.2,0,0.4,0,0.6,0.1l0,0l0,0C0.8-2.3,1-2.2,1.1-2.1l0,0l0,0C1.2-2,1.4-1.8,1.5-1.6l0,0l0,0
					C1.5-1.4,1.6-1.2,1.6-1l0,0l0,0c0,0.2,0,0.3-0.1,0.5l0,0l0,0c0,0.1-0.1,0.2-0.1,0.2l0,0l0,0c0,0.1-0.1,0.1-0.1,0.2l0,0l-2.7,3
					l3.1,0"/>
			</g>
		</g>
		<g transform="translate(52.88659039585203,-59.91840248455702) rotate(-138.56697436052917,0,0)">
			<g>
				<path class="st1" d="M0,0"/>
			</g>
		</g>
		<g transform="translate(50.34930060825846,-62.06572587394126) rotate(-140.95015384693127,0,0)">
			<g>
				<path class="st1" d="M-0.8,2.8L-0.8,2.8C-1,2.6-1.2,2.4-1.4,2.1l0,0l0,0c-0.1-0.2-0.2-0.3-0.2-0.5l0,0l0,0c0,0,0-0.2-0.1-0.6
					l0,0l0,0c-0.1-0.4-0.1-0.9,0-1.3l0,0l0,0c0-0.4,0.1-0.6,0.1-0.7l0,0l0,0c0-0.2,0.1-0.4,0.2-0.6l0,0l0,0C-1.2-1.8-1.1-1.9-1.1-2
					l0,0l0,0C-1-2.1-0.9-2.2-0.7-2.3l0,0l0,0C-0.5-2.4-0.3-2.5,0-2.5l0,0l0,0c0.3,0,0.6,0.1,0.8,0.2l0,0l0,0C1-2.2,1.1-2,1.3-1.7
					l0,0l0,0c0.1,0.2,0.2,0.4,0.3,0.8l0,0l0,0c0,0.2,0.1,0.5,0.1,0.9l0,0l0,0c0,0.4,0,0.7,0,1l0,0l0,0c0,0.3-0.1,0.6-0.1,0.8l0,0
					l0,0C1.4,2.1,1.3,2.3,1.1,2.5l0,0l0,0C0.9,2.7,0.8,2.8,0.6,2.9l0,0l0,0C0.4,3,0.2,3,0,3l0,0l0,0C-0.3,3-0.6,3-0.8,2.8"/>
			</g>
		</g>
		<g transform="translate(47.72491464888667,-64.10568556498309) rotate(-143.33333333333334,0,0)">
			<g>
				<path class="st1" d="M0,0"/>
			</g>
		</g>
		<g transform="translate(45.017972282292824,-66.03475275633818) rotate(-145.7165128197354,0,0)">
			<g>
				<path class="st1" d="M-1.5-1L-1.5-1c0-0.1,0.1-0.3,0.2-0.6l0,0l0,0C-1.2-1.8-1.1-2-1-2.1l0,0l0,0c0.1-0.1,0.3-0.2,0.4-0.3l0,0
					l0,0C-0.4-2.5-0.2-2.5,0-2.5l0,0l0,0c0.2,0,0.4,0,0.6,0.1l0,0l0,0C0.8-2.3,1-2.2,1.1-2.1l0,0l0,0C1.2-2,1.4-1.8,1.5-1.6l0,0l0,0
					C1.5-1.4,1.6-1.2,1.6-1l0,0l0,0c0,0.2,0,0.3-0.1,0.5l0,0l0,0c0,0.1-0.1,0.2-0.1,0.2l0,0l0,0c0,0.1-0.1,0.1-0.1,0.2l0,0l-2.7,3
					l3.1,0"/>
			</g>
		</g>
		<g transform="translate(42.23315608230631,-67.84959047280648) rotate(-148.0996923061375,0,0)">
			<g>
				<path class="st1" d="M0,0"/>
			</g>
		</g>
		<g transform="translate(39.37528333193192,-69.54705933776123) rotate(-150.48287179253956,0,0)">
			<g>
				<path class="st1" d="M-0.7-2.3l0.8,0l0,5.2"/>
			</g>
		</g>
		<g transform="translate(23.565738885953902,-76.36663113401715) rotate(-162.85046154079376,0,0)">
			<g>
				<path class="st1" d="M-1.5-1L-1.5-1c0-0.1,0.1-0.3,0.2-0.6l0,0l0,0C-1.2-1.8-1.1-2-1-2.1l0,0l0,0c0.1-0.1,0.3-0.2,0.4-0.3l0,0
					l0,0C-0.4-2.5-0.2-2.5,0-2.5l0,0l0,0c0.2,0,0.4,0,0.6,0.1l0,0l0,0C0.8-2.3,1-2.2,1.1-2.1l0,0l0,0C1.2-2,1.4-1.8,1.5-1.6l0,0l0,0
					C1.5-1.4,1.6-1.2,1.6-1l0,0l0,0c0,0.2,0,0.3-0.1,0.5l0,0l0,0c0,0.1-0.1,0.2-0.1,0.2l0,0l0,0c0,0.1-0.1,0.1-0.1,0.2l0,0l-2.7,3
					l3.1,0"/>
			</g>
		</g>
		<g transform="translate(20.369853499157543,-77.28049862949163) rotate(-165.23364102719586,0,0)">
			<g>
				<path class="st1" d="M0,0"/>
			</g>
		</g>
		<g transform="translate(17.138731550223742,-78.06068332297228) rotate(-167.6168205135979,0,0)">
			<g>
				<path class="st1" d="M-0.8,2.8L-0.8,2.8C-1,2.6-1.2,2.4-1.4,2.1l0,0l0,0c-0.1-0.2-0.2-0.3-0.2-0.5l0,0l0,0c0,0,0-0.2-0.1-0.6
					l0,0l0,0c-0.1-0.4-0.1-0.9,0-1.3l0,0l0,0c0-0.4,0.1-0.6,0.1-0.7l0,0l0,0c0-0.2,0.1-0.4,0.2-0.6l0,0l0,0C-1.2-1.8-1.1-1.9-1.1-2
					l0,0l0,0C-1-2.1-0.9-2.2-0.7-2.3l0,0l0,0C-0.5-2.4-0.3-2.5,0-2.5l0,0l0,0c0.3,0,0.6,0.1,0.8,0.2l0,0l0,0C1-2.2,1.1-2,1.3-1.7
					l0,0l0,0c0.1,0.2,0.2,0.4,0.3,0.8l0,0l0,0c0,0.2,0.1,0.5,0.1,0.9l0,0l0,0c0,0.4,0,0.7,0,1l0,0l0,0c0,0.3-0.1,0.6-0.1,0.8l0,0
					l0,0C1.4,2.1,1.3,2.3,1.1,2.5l0,0l0,0C0.9,2.7,0.8,2.8,0.6,2.9l0,0l0,0C0.4,3,0.2,3,0,3l0,0l0,0C-0.3,3-0.6,3-0.8,2.8"/>
			</g>
		</g>
		<g transform="translate(13.877962359141076,-78.70583562073566) rotate(-170,0,0)">
			<g>
				<path class="st1" d="M0,0"/>
			</g>
		</g>
		<g transform="translate(10.593186530846747,-79.21483951333036) rotate(-172.38317948640207,0,0)">
			<g>
				<path class="st1" d="M-1.4-1.5L-1.4-1.5C-1.2-1.9-1-2.1-0.9-2.2l0,0l0,0C-0.6-2.4-0.4-2.5,0-2.5l0,0l0,0c0.3,0,0.6,0.1,0.9,0.3
					l0,0l0,0c0.3,0.2,0.4,0.5,0.4,0.9l0,0l0,0c0,0.3-0.1,0.6-0.4,0.9l0,0l0,0C0.6-0.2,0.3-0.1-0.1,0l0,0l0,0
					c1.1,0.2,1.7,0.6,1.7,1.4l0,0l0,0c0,0.6-0.2,1-0.5,1.3l0,0l0,0C0.8,2.9,0.3,3-0.2,3l0,0l0,0c-0.3,0-0.6-0.1-0.8-0.4l0,0l0,0
					c-0.2-0.2-0.3-0.4-0.5-0.8l0,0"/>
			</g>
		</g>
		<g transform="translate(7.290086197889524,-79.58681450609352) rotate(-174.76635897280417,0,0)">
			<g>
				<path class="st1" d="M0,0"/>
			</g>
		</g>
		<g transform="translate(3.974375191256623,-79.82111714226457) rotate(-177.14953845920624,0,0)">
			<g>
				<path class="st1" d="M-0.7-2.3l0.8,0l0,5.2"/>
			</g>
		</g>
		<g transform="translate(-13.214167985790901,-78.81999850573011) rotate(-189.51712820746042,0,0)">
			<g>
				<path class="st1" d="M-1.5-1L-1.5-1c0-0.1,0.1-0.3,0.2-0.6l0,0l0,0C-1.2-1.8-1.1-2-1-2.1l0,0l0,0c0.1-0.1,0.3-0.2,0.4-0.3l0,0
					l0,0C-0.4-2.5-0.2-2.5,0-2.5l0,0l0,0c0.2,0,0.4,0,0.6,0.1l0,0l0,0C0.8-2.3,1-2.2,1.1-2.1l0,0l0,0C1.2-2,1.4-1.8,1.5-1.6l0,0l0,0
					C1.5-1.4,1.6-1.2,1.6-1l0,0l0,0c0,0.2,0,0.3-0.1,0.5l0,0l0,0c0,0.1-0.1,0.2-0.1,0.2l0,0l0,0c0,0.1-0.1,0.1-0.1,0.2l0,0l-2.7,3
					l3.1,0"/>
			</g>
		</g>
		<g transform="translate(-16.480258464945532,-78.20234958700786) rotate(-191.90030769386252,0,0)">
			<g>
				<path class="st1" d="M0,0"/>
			</g>
		</g>
		<g transform="translate(-19.717840754217242,-77.44942321277368) rotate(-194.28348718026456,0,0)">
			<g>
				<path class="st1" d="M-0.8,2.8L-0.8,2.8C-1,2.6-1.2,2.4-1.4,2.1l0,0l0,0c-0.1-0.2-0.2-0.3-0.2-0.5l0,0l0,0c0,0,0-0.2-0.1-0.6
					l0,0l0,0c-0.1-0.4-0.1-0.9,0-1.3l0,0l0,0c0-0.4,0.1-0.6,0.1-0.7l0,0l0,0c0-0.2,0.1-0.4,0.2-0.6l0,0l0,0C-1.2-1.8-1.1-1.9-1.1-2
					l0,0l0,0C-1-2.1-0.9-2.2-0.7-2.3l0,0l0,0C-0.5-2.4-0.3-2.5,0-2.5l0,0l0,0c0.3,0,0.6,0.1,0.8,0.2l0,0l0,0C1-2.2,1.1-2,1.3-1.7
					l0,0l0,0c0.1,0.2,0.2,0.4,0.3,0.8l0,0l0,0c0,0.2,0.1,0.5,0.1,0.9l0,0l0,0c0,0.4,0,0.7,0,1l0,0l0,0c0,0.3-0.1,0.6-0.1,0.8l0,0
					l0,0C1.4,2.1,1.3,2.3,1.1,2.5l0,0l0,0C0.9,2.7,0.8,2.8,0.6,2.9l0,0l0,0C0.4,3,0.2,3,0,3l0,0l0,0C-0.3,3-0.6,3-0.8,2.8"/>
			</g>
		</g>
		<g transform="translate(-22.921314358270326,-76.56252182425386) rotate(-196.66666666666669,0,0)">
			<g>
				<path class="st1" d="M0,0"/>
			</g>
		</g>
		<g transform="translate(-26.08513778429486,-75.54317961784737) rotate(-199.04984615306873,0,0)">
			<g>
				<path class="st1" d="M1,2.9l0-5.4l-2.6,4l3.3,0"/>
			</g>
		</g>
		<g transform="translate(-29.203838127895747,-74.39315989121351) rotate(-201.43302563947086,0,0)">
			<g>
				<path class="st1" d="M0,0"/>
			</g>
		</g>
		<g transform="translate(-32.27202054033488,-73.11445199305129) rotate(-203.8162051258729,0,0)">
			<g>
				<path class="st1" d="M-0.7-2.3h0.8l0,5.2"/>
			</g>
		</g>
		<g transform="translate(-47.182962539592744,-64.50561561590887) rotate(-216.18379487412707,0,0)">
			<g>
				<path class="st1" d="M-1.5-1L-1.5-1c0-0.1,0.1-0.3,0.2-0.6l0,0l0,0C-1.2-1.8-1.1-2-1-2.1l0,0l0,0c0.1-0.1,0.3-0.2,0.4-0.3l0,0
					l0,0C-0.4-2.5-0.2-2.5,0-2.5l0,0l0,0c0.2,0,0.4,0,0.6,0.1l0,0l0,0C0.8-2.3,1-2.2,1.1-2.1l0,0l0,0C1.2-2,1.4-1.8,1.5-1.6l0,0l0,0
					C1.5-1.4,1.6-1.2,1.6-1l0,0l0,0c0,0.2,0,0.3-0.1,0.5l0,0l0,0c0,0.1-0.1,0.2-0.1,0.2l0,0l0,0c0,0.1-0.1,0.1-0.1,0.2l0,0l-2.7,3
					l3.1,0"/>
			</g>
		</g>
		<g transform="translate(-49.82444726964061,-62.487845652373075) rotate(-218.56697436052917,0,0)">
			<g>
				<path class="st1" d="M0,0"/>
			</g>
		</g>
		<g transform="translate(-52.3797437395592,-60.36198179134037) rotate(-220.95015384693124,0,0)">
			<g>
				<path class="st1" d="M-0.8,2.8L-0.8,2.8C-1,2.6-1.2,2.4-1.4,2.1l0,0l0,0c-0.1-0.2-0.2-0.3-0.2-0.5l0,0l0,0c0,0,0-0.2-0.1-0.6
					l0,0l0,0c-0.1-0.4-0.1-0.9,0-1.3l0,0l0,0c0-0.4,0.1-0.6,0.1-0.7l0,0l0,0c0-0.2,0.1-0.4,0.2-0.6l0,0l0,0C-1.2-1.8-1.1-1.9-1.1-2
					l0,0l0,0C-1-2.1-0.9-2.2-0.7-2.3l0,0l0,0C-0.5-2.4-0.3-2.5,0-2.5l0,0l0,0c0.3,0,0.6,0.1,0.8,0.2l0,0l0,0C1-2.2,1.1-2,1.3-1.7
					l0,0l0,0c0.1,0.2,0.2,0.4,0.3,0.8l0,0l0,0c0,0.2,0.1,0.5,0.1,0.9l0,0l0,0c0,0.4,0,0.7,0,1l0,0l0,0c0,0.3-0.1,0.6-0.1,0.8l0,0
					l0,0C1.4,2.1,1.3,2.3,1.1,2.5l0,0l0,0C0.9,2.7,0.8,2.8,0.6,2.9l0,0l0,0C0.4,3,0.2,3,0,3l0,0l0,0C-0.3,3-0.6,3-0.8,2.8"/>
			</g>
		</g>
		<g transform="translate(-54.84443169846917,-58.13170143451806) rotate(-223.33333333333331,0,0)">
			<g>
				<path class="st1" d="M0,0"/>
			</g>
		</g>
		<g transform="translate(-57.214247633605574,-55.800862607315096) rotate(-225.7165128197354,0,0)">
			<g>
				<path class="st1" d="M1.5-2.4l-2,0L-1-0.1l0,0c0.2,0,0.4-0.1,0.8-0.1l0,0l0,0c0.3,0,0.6,0,0.8,0.1l0,0l0,0C0.8-0.1,1,0,1.2,0.1
					l0,0l0,0c0.2,0.2,0.3,0.4,0.4,0.7l0,0l0,0c0.1,0.2,0,0.5,0,0.8l0,0l0,0C1.5,2,1.3,2.2,1.1,2.5l0,0l0,0C0.9,2.7,0.7,2.9,0.4,3
					l0,0l0,0C0.3,3,0.1,3-0.1,3l0,0l0,0C-0.2,3-0.3,3-0.5,3l0,0l0,0C-0.8,2.9-1,2.7-1.2,2.5l0,0l0,0c-0.1-0.1-0.1-0.1-0.2-0.2l0,0
					l0,0C-1.5,2.1-1.5,2-1.5,2l0,0"/>
			</g>
		</g>
		<g transform="translate(-59.48509214550754,-53.37349728508032) rotate(-228.09969230613748,0,0)">
			<g>
				<path class="st1" d="M0,0"/>
			</g>
		</g>
		<g transform="translate(-61.6530370393183,-50.85380441843503) rotate(-230.48287179253958,0,0)">
			<g>
				<path class="st1" d="M-0.7-2.3l0.8,0l0,5.2"/>
			</g>
		</g>
		<g transform="translate(-71.11430279928295,-36.46864869133343) rotate(-242.85046154079376,0,0)">
			<g>
				<path class="st1" d="M-1.5-1L-1.5-1c0-0.1,0.1-0.3,0.2-0.6l0,0l0,0C-1.2-1.8-1.1-2-1-2.1l0,0l0,0c0.1-0.1,0.3-0.2,0.4-0.3l0,0
					l0,0C-0.4-2.5-0.2-2.5,0-2.5l0,0l0,0c0.2,0,0.4,0,0.6,0.1l0,0l0,0C0.8-2.3,1-2.2,1.1-2.1l0,0l0,0C1.2-2,1.4-1.8,1.5-1.6l0,0l0,0
					C1.5-1.4,1.6-1.2,1.6-1l0,0l0,0c0,0.2,0,0.3-0.1,0.5l0,0l0,0c0,0.1-0.1,0.2-0.1,0.2l0,0l0,0c0,0.1-0.1,0.1-0.1,0.2l0,0l-2.7,3
					l3.1,0"/>
			</g>
		</g>
		<g transform="translate(-72.56924626750161,-33.48000740989614) rotate(-245.2336410271958,0,0)">
			<g>
				<path class="st1" d="M0,0"/>
			</g>
		</g>
		<g transform="translate(-73.8986566406748,-30.433451113924768) rotate(-247.61682051359793,0,0)">
			<g>
				<path class="st1" d="M-0.8,2.8L-0.8,2.8C-1,2.6-1.2,2.4-1.4,2.1l0,0l0,0c-0.1-0.2-0.2-0.3-0.2-0.5l0,0l0,0c0,0,0-0.2-0.1-0.6
					l0,0l0,0c-0.1-0.4-0.1-0.9,0-1.3l0,0l0,0c0-0.4,0.1-0.6,0.1-0.7l0,0l0,0c0-0.2,0.1-0.4,0.2-0.6l0,0l0,0C-1.2-1.8-1.1-1.9-1.1-2
					l0,0l0,0C-1-2.1-0.9-2.2-0.7-2.3l0,0l0,0C-0.5-2.4-0.3-2.5,0-2.5l0,0l0,0c0.3,0,0.6,0.1,0.8,0.2l0,0l0,0C1-2.2,1.1-2,1.3-1.7
					l0,0l0,0c0.1,0.2,0.2,0.4,0.3,0.8l0,0l0,0c0,0.2,0.1,0.5,0.1,0.9l0,0l0,0c0,0.4,0,0.7,0,1l0,0l0,0c0,0.3-0.1,0.6-0.1,0.8l0,0
					l0,0C1.4,2.1,1.3,2.3,1.1,2.5l0,0l0,0C0.9,2.7,0.8,2.8,0.6,2.9l0,0l0,0C0.4,3,0.2,3,0,3l0,0l0,0C-0.3,3-0.6,3-0.8,2.8"/>
			</g>
		</g>
		<g transform="translate(-75.10023425320978,-27.33424985458745) rotate(-250.00000000000003,0,0)">
			<g>
				<path class="st1" d="M0,0"/>
			</g>
		</g>
		<g transform="translate(-76.17190056957814,-24.187764750350546) rotate(-252.3831794864021,0,0)">
			<g>
				<path class="st1" d="M0.8-2.4L-1,0.5l0,0c-0.1,0.1-0.1,0.2-0.2,0.3l0,0l0,0C-1.3,1-1.4,1.1-1.4,1.3l0,0l0,0c0,0.3,0,0.6,0.1,0.8
					l0,0l0,0C-1.2,2.3-1,2.5-0.8,2.7l0,0l0,0C-0.6,2.8-0.3,2.9,0,3l0,0l0,0c0.3,0,0.6,0,0.8-0.1l0,0l0,0C1,2.7,1.3,2.5,1.4,2.2l0,0
					l0,0C1.5,2,1.6,1.7,1.6,1.4l0,0l0,0c0-0.3-0.1-0.6-0.3-0.8l0,0l0,0C1.1,0.4,0.9,0.2,0.6,0.1l0,0l0,0c-0.2-0.1-0.5-0.1-0.8,0l0,0
					l0,0c-0.3,0-0.6,0.2-0.9,0.6l0,0"/>
			</g>
		</g>
		<g transform="translate(-77.111801779847,-20.99943871310806) rotate(-254.7663589728041,0,0)">
			<g>
				<path class="st1" d="M0,0"/>
			</g>
		</g>
		<g transform="translate(-77.91831200647144,-17.77478703282172) rotate(-257.1495384592062,0,0)">
			<g>
				<path class="st1" d="M-0.7-2.3h0.8l0,5.2"/>
			</g>
		</g>
		<g transform="translate(-79.91716181097094,-0.673534022217619) rotate(-269.5171282074604,0,0)">
			<g>
				<path class="st1" d="M-1.5-1L-1.5-1c0-0.1,0.1-0.3,0.2-0.6l0,0l0,0C-1.2-1.8-1.1-2-1-2.1l0,0l0,0c0.1-0.1,0.3-0.2,0.4-0.3l0,0
					l0,0C-0.4-2.5-0.2-2.5,0-2.5l0,0l0,0c0.2,0,0.4,0,0.6,0.1l0,0l0,0C0.8-2.3,1-2.2,1.1-2.1l0,0l0,0C1.2-2,1.4-1.8,1.5-1.6l0,0l0,0
					C1.5-1.4,1.6-1.2,1.6-1l0,0l0,0c0,0.2,0,0.3-0.1,0.5l0,0l0,0c0,0.1-0.1,0.2-0.1,0.2l0,0l0,0c0,0.1-0.1,0.1-0.1,0.2l0,0l-2.7,3
					l3.1,0"/>
			</g>
		</g>
		<g transform="translate(-79.87604702697419,2.650190812867284) rotate(-271.9003076938625,0,0)">
			<g>
				<path class="st1" d="M0,0"/>
			</g>
		</g>
		<g transform="translate(-79.69675956075976,5.969331245160212) rotate(-274.2834871802646,0,0)">
			<g>
				<path class="st1" d="M-0.8,2.8L-0.8,2.8C-1,2.6-1.2,2.4-1.4,2.1l0,0l0,0c-0.1-0.2-0.2-0.3-0.2-0.5l0,0l0,0c0,0,0-0.2-0.1-0.6
					l0,0l0,0c-0.1-0.4-0.1-0.9,0-1.3l0,0l0,0c0-0.4,0.1-0.6,0.1-0.7l0,0l0,0c0-0.2,0.1-0.4,0.2-0.6l0,0l0,0C-1.2-1.8-1.1-1.9-1.1-2
					l0,0l0,0C-1-2.1-0.9-2.2-0.7-2.3l0,0l0,0C-0.5-2.4-0.3-2.5,0-2.5l0,0l0,0c0.3,0,0.6,0.1,0.8,0.2l0,0l0,0C1-2.2,1.1-2,1.3-1.7
					l0,0l0,0c0.1,0.2,0.2,0.4,0.3,0.8l0,0l0,0c0,0.2,0.1,0.5,0.1,0.9l0,0l0,0c0,0.4,0,0.7,0,1l0,0l0,0c0,0.3-0.1,0.6-0.1,0.8l0,0
					l0,0C1.4,2.1,1.3,2.3,1.1,2.5l0,0l0,0C0.9,2.7,0.8,2.8,0.6,2.9l0,0l0,0C0.4,3,0.2,3,0,3l0,0l0,0C-0.3,3-0.6,3-0.8,2.8"/>
			</g>
		</g>
		<g transform="translate(-79.37960955073608,9.27814569688839) rotate(-276.6666666666667,0,0)">
			<g>
				<path class="st1" d="M0,0"/>
			</g>
		</g>
		<g transform="translate(-78.9251456152835,12.570910452560472) rotate(-279.04984615306876,0,0)">
			<g>
				<path class="st1" d="M-1.4-2.3l3,0l-2.7,5.2"/>
			</g>
		</g>
		<g transform="translate(-78.33415390373303,15.841929560071451) rotate(-281.43302563947077,0,0)">
			<g>
				<path class="st1" d="M0,0"/>
			</g>
		</g>
		<g transform="translate(-77.6076567364547,19.08554468378139) rotate(-283.8162051258729,0,0)">
			<g>
				<path class="st1" d="M-0.7-2.3h0.8l0,5.2"/>
			</g>
		</g>
		<g transform="translate(-71.71886583329973,35.26486471808947) rotate(-296.1837948741271,0,0)">
			<g>
				<path class="st1" d="M-1.5-1L-1.5-1c0-0.1,0.1-0.3,0.2-0.6l0,0l0,0C-1.2-1.8-1.1-2-1-2.1l0,0l0,0c0.1-0.1,0.3-0.2,0.4-0.3l0,0
					l0,0C-0.4-2.5-0.2-2.5,0-2.5l0,0l0,0c0.2,0,0.4,0,0.6,0.1l0,0l0,0C0.8-2.3,1-2.2,1.1-2.1l0,0l0,0C1.2-2,1.4-1.8,1.5-1.6l0,0l0,0
					C1.5-1.4,1.6-1.2,1.6-1l0,0l0,0c0,0.2,0,0.3-0.1,0.5l0,0l0,0c0,0.1-0.1,0.2-0.1,0.2l0,0l0,0c0,0.1-0.1,0.1-0.1,0.2l0,0l-2.7,3
					l3.1,0"/>
			</g>
		</g>
		<g transform="translate(-70.19043933912235,38.21660143682302) rotate(-298.5669743605292,0,0)">
			<g>
				<path class="st1" d="M0,0"/>
			</g>
		</g>
		<g transform="translate(-68.54059470232899,41.10222959707989) rotate(-300.95015384693124,0,0)">
			<g>
				<path class="st1" d="M-0.8,2.8L-0.8,2.8C-1,2.6-1.2,2.4-1.4,2.1l0,0l0,0c-0.1-0.2-0.2-0.3-0.2-0.5l0,0l0,0c0,0,0-0.2-0.1-0.6
					l0,0l0,0c-0.1-0.4-0.1-0.9,0-1.3l0,0l0,0c0-0.4,0.1-0.6,0.1-0.7l0,0l0,0c0-0.2,0.1-0.4,0.2-0.6l0,0l0,0C-1.2-1.8-1.1-1.9-1.1-2
					l0,0l0,0C-1-2.1-0.9-2.2-0.7-2.3l0,0l0,0C-0.5-2.4-0.3-2.5,0-2.5l0,0l0,0c0.3,0,0.6,0.1,0.8,0.2l0,0l0,0C1-2.2,1.1-2,1.3-1.7
					l0,0l0,0c0.1,0.2,0.2,0.4,0.3,0.8l0,0l0,0c0,0.2,0.1,0.5,0.1,0.9l0,0l0,0c0,0.4,0,0.7,0,1l0,0l0,0c0,0.3-0.1,0.6-0.1,0.8l0,0
					l0,0C1.4,2.1,1.3,2.3,1.1,2.5l0,0l0,0C0.9,2.7,0.8,2.8,0.6,2.9l0,0l0,0C0.4,3,0.2,3,0,3l0,0l0,0C-0.3,3-0.6,3-0.8,2.8"/>
			</g>
		</g>
		<g transform="translate(-66.77218588812187,43.91675752741881) rotate(-303.33333333333337,0,0)">
			<g>
				<path class="st1" d="M0,0"/>
			</g>
		</g>
		<g transform="translate(-64.88827195861302,46.65531654833214) rotate(-305.71651281973544,0,0)">
			<g>
				<path class="st1" d="M0.3,0L0.3,0c-0.1,0-0.3,0-0.4,0l0,0l0,0c-0.1,0-0.3,0-0.4,0.1l0,0l0,0C-0.8,0.2-1,0.4-1.2,0.5l0,0l0,0
					c-0.2,0.2-0.4,0.4-0.4,0.6l0,0l0,0c0,0.1-0.1,0.2-0.1,0.3l0,0l0,0c0,0.1,0,0.3,0.1,0.4l0,0l0,0c0.1,0.3,0.3,0.5,0.5,0.7l0,0l0,0
					C-0.8,2.8-0.5,2.9-0.2,3l0,0l0,0c0.3,0,0.6,0,0.8-0.1l0,0l0,0c0.2-0.1,0.4-0.2,0.6-0.4l0,0l0,0c0.2-0.2,0.3-0.4,0.4-0.7l0,0l0,0
					c0.1-0.3,0.1-0.5,0-0.7l0,0l0,0C1.6,1,1.5,0.8,1.3,0.6l0,0l0,0C1.2,0.5,1.1,0.4,0.8,0.2l0,0l0,0C0.7,0.1,0.4,0.1,0.1,0.1l0,0
					l0,0C-0.2,0-0.5,0-0.6-0.1l0,0l0,0c-0.3-0.2-0.5-0.4-0.6-0.6l0,0l0,0C-1.3-1-1.4-1.1-1.4-1.3l0,0l0,0c0-0.1,0-0.1,0-0.2l0,0l0,0
					c0-0.2,0.2-0.5,0.4-0.6l0,0l0,0c0.2-0.1,0.4-0.2,0.6-0.3l0,0l0,0c0.3-0.1,0.5,0,0.7,0l0,0l0,0C0.7-2.4,0.9-2.2,1-2.1l0,0l0,0
					c0.2,0.2,0.3,0.4,0.3,0.6l0,0l0,0c0,0.2,0,0.4,0,0.6l0,0l0,0C1.3-0.7,1.1-0.5,0.9-0.3l0,0l0,0C0.6-0.1,0.5,0,0.3,0"/>
			</g>
		</g>
		<g transform="translate(-62.89211178113994,49.31316939427638) rotate(-308.09969230613746,0,0)">
			<g>
				<path class="st1" d="M0,0"/>
			</g>
		</g>
		<g transform="translate(-60.78715839095069,51.88571840837777) rotate(-310.4828717925396,0,0)">
			<g>
				<path class="st1" d="M-0.7-2.3h0.8l0,5.2"/>
			</g>
		</g>
		<g transform="translate(-48.26347706025343,63.701202359566096) rotate(-322.8504615407938,0,0)">
			<g>
				<path class="st1" d="M-1.5-1L-1.5-1c0-0.1,0.1-0.3,0.2-0.6l0,0l0,0C-1.2-1.8-1.1-2-1-2.1l0,0l0,0c0.1-0.1,0.3-0.2,0.4-0.3l0,0
					l0,0C-0.4-2.5-0.2-2.5,0-2.5l0,0l0,0c0.2,0,0.4,0,0.6,0.1l0,0l0,0C0.8-2.3,1-2.2,1.1-2.1l0,0l0,0C1.2-2,1.4-1.8,1.5-1.6l0,0l0,0
					C1.5-1.4,1.6-1.2,1.6-1l0,0l0,0c0,0.2,0,0.3-0.1,0.5l0,0l0,0c0,0.1-0.1,0.2-0.1,0.2l0,0l0,0c0,0.1-0.1,0.1-0.1,0.2l0,0l-2.7,3
					l3.1,0"/>
			</g>
		</g>
		<g transform="translate(-45.572888237186255,65.65301407948402) rotate(-325.23364102719586,0,0)">
			<g>
				<path class="st1" d="M0,0"/>
			</g>
		</g>
		<g transform="translate(-42.8034656655985,67.49125667087499) rotate(-327.61682051359793,0,0)">
			<g>
				<path class="st1" d="M-0.8,2.8L-0.8,2.8C-1,2.6-1.2,2.4-1.4,2.1l0,0l0,0c-0.1-0.2-0.2-0.3-0.2-0.5l0,0l0,0c0,0,0-0.2-0.1-0.6
					l0,0l0,0c-0.1-0.4-0.1-0.9,0-1.3l0,0l0,0c0-0.4,0.1-0.6,0.1-0.7l0,0l0,0c0-0.2,0.1-0.4,0.2-0.6l0,0l0,0C-1.2-1.8-1.1-1.9-1.1-2
					l0,0l0,0C-1-2.1-0.9-2.2-0.7-2.3l0,0l0,0C-0.5-2.4-0.3-2.5,0-2.5l0,0l0,0c0.3,0,0.6,0.1,0.8,0.2l0,0l0,0C1-2.2,1.1-2,1.3-1.7
					l0,0l0,0c0.1,0.2,0.2,0.4,0.3,0.8l0,0l0,0c0,0.2,0.1,0.5,0.1,0.9l0,0l0,0c0,0.4,0,0.7,0,1l0,0l0,0c0,0.3-0.1,0.6-0.1,0.8l0,0
					l0,0C1.4,2.1,1.3,2.3,1.1,2.5l0,0l0,0C0.9,2.7,0.8,2.8,0.6,2.9l0,0l0,0C0.4,3,0.2,3,0,3l0,0l0,0C-0.3,3-0.6,3-0.8,2.8"/>
			</g>
		</g>
		<g transform="translate(-39.96000000000003,69.21275027045232) rotate(-329.99999999999994,0,0)">
			<g>
				<path class="st1" d="M0,0"/>
			</g>
		</g>
		<g transform="translate(-37.04740997751446,70.8145169718608) rotate(-332.38317948640207,0,0)">
			<g>
				<path class="st1" d="M-0.7,2.9L-0.7,2.9C-0.3,2.3,0,1.8,0.3,1.3l0,0l0,0C1,0.3,1.4-0.3,1.4-0.4l0,0l0,0c0.1-0.2,0.1-0.4,0-0.7
					l0,0l0,0c0-0.3-0.1-0.5-0.2-0.6l0,0l0,0C1.1-1.9,1-2.1,0.8-2.2l0,0l0,0C0.6-2.4,0.4-2.4,0.1-2.5l0,0l0,0c-0.2,0-0.5,0-0.7,0.1
					l0,0l0,0c-0.3,0.1-0.5,0.3-0.6,0.5l0,0l0,0c-0.2,0.2-0.3,0.5-0.3,0.8l0,0l0,0c0,0.3,0,0.6,0.1,0.9l0,0l0,0
					C-1.3,0-1.1,0.1-0.9,0.3l0,0l0,0c0.2,0.1,0.4,0.2,0.7,0.2l0,0l0,0c0.3,0,0.5,0,0.7-0.1l0,0l0,0C0.8,0.3,1,0.2,1.1,0l0,0l0,0
					c0.2-0.2,0.3-0.4,0.3-0.5l0,0"/>
			</g>
		</g>
		<g transform="translate(-34.070733909257534,72.2937859769743) rotate(-334.7663589728042,0,0)">
			<g>
				<path class="st1" d="M0,0"/>
			</g>
		</g>
		<g transform="translate(-31.035120964870814,73.64799838892999) rotate(-337.1495384592062,0,0)">
			<g>
				<path class="st1" d="M-0.7-2.3h0.8l0,5.2"/>
			</g>
		</g>
		<g transform="translate(-14.540771039785701,78.58608259462058) rotate(-349.5171282074605,0,0)">
			<g>
				<path class="st1" d="M-1.5-1L-1.5-1c0-0.1,0.1-0.3,0.2-0.6l0,0l0,0C-1.2-1.8-1.1-2-1-2.1l0,0l0,0c0.1-0.1,0.3-0.2,0.4-0.3l0,0
					l0,0C-0.4-2.5-0.2-2.5,0-2.5l0,0l0,0c0.2,0,0.4,0,0.6,0.1l0,0l0,0C0.8-2.3,1-2.2,1.1-2.1l0,0l0,0C1.2-2,1.4-1.8,1.5-1.6l0,0l0,0
					C1.5-1.4,1.6-1.2,1.6-1l0,0l0,0c0,0.2,0,0.3-0.1,0.5l0,0l0,0c0,0.1-0.1,0.2-0.1,0.2l0,0l0,0c0,0.1-0.1,0.1-0.1,0.2l0,0l-2.7,3
					l3.1,0"/>
			</g>
		</g>
		<g transform="translate(-11.260401545998693,79.12275119725595) rotate(-351.9003076938625,0,0)">
			<g>
				<path class="st1" d="M0,0"/>
			</g>
		</g>
		<g transform="translate(-7.960553373153635,79.52255019799837) rotate(-354.2834871802646,0,0)">
			<g>
				<path class="st1" d="M-0.7-2.3l0.8,0l0,5.2"/>
			</g>
		</g>
		<g transform="translate(-4.64693472652526,79.78478800903974) rotate(-356.66666666666663,0,0)">
			<g>
				<path class="st1" d="M0,0"/>
			</g>
		</g>
		<g transform="translate(-1.3252776320873283,79.90901100124995) rotate(-359.04984615306876,0,0)">
			<g>
				<path class="st1" d="M-0.8,2.8L-0.8,2.8C-1,2.6-1.2,2.4-1.4,2.1l0,0l0,0c-0.1-0.2-0.2-0.3-0.2-0.5l0,0l0,0c0,0,0-0.2-0.1-0.6
					l0,0l0,0c-0.1-0.4-0.1-0.9,0-1.3l0,0l0,0c0-0.4,0.1-0.6,0.1-0.7l0,0l0,0c0-0.2,0.1-0.4,0.2-0.6l0,0l0,0C-1.2-1.8-1.1-1.9-1.1-2
					l0,0l0,0C-1-2.1-0.9-2.2-0.7-2.3l0,0l0,0C-0.5-2.4-0.3-2.5,0-2.5l0,0l0,0c0.3,0,0.6,0.1,0.8,0.2l0,0l0,0C1-2.2,1.1-2,1.3-1.7
					l0,0l0,0c0.1,0.2,0.2,0.4,0.3,0.8l0,0l0,0c0,0.2,0.1,0.5,0.1,0.9l0,0l0,0c0,0.4,0,0.7,0,1l0,0l0,0c0,0.3-0.1,0.6-0.1,0.8l0,0
					l0,0C1.4,2.1,1.3,2.3,1.1,2.5l0,0l0,0C0.9,2.7,0.8,2.8,0.6,2.9l0,0l0,0C0.4,3,0.2,3,0,3l0,0l0,0C-0.3,3-0.6,3-0.8,2.8"/>
			</g>
		</g>
		<g transform="translate(1.99867197896752,79.89500428888209) rotate(-361.4330256394708,0,0)">
			<g>
				<path class="st1" d="M0,0"/>
			</g>
		</g>
		<g transform="translate(5.319164209762823,79.7427921012901) rotate(-363.81620512587295,0,0)">
			<g>
				<path class="st1" d="M-0.7-2.3h0.8l0,5.2"/>
			</g>
		</g>
		<path class="st0" d="M72,0c0,39.8-32.2,72-72,72S-72,39.8-72,0s32.2-72,72-72S72-39.8,72,0"/>
	</g>
</g>
</svg>
